<?xml version="1.0" encoding="UTF-8" standalone="no"?><svg xmlns="http://www.w3.org/2000/svg" xmlns:xlink="http://www.w3.org/1999/xlink" contentScriptType="application/ecmascript" contentStyleType="text/css" height="110px" preserveAspectRatio="none" style="width:921px;height:110px;background:#FFFFFF;" version="1.1" viewBox="0 0 921 110" width="921px" zoomAndPan="magnify"><defs><filter height="300%" id="fj1lcaot1y9qn" width="300%" x="-1" y="-1"><feGaussianBlur result="blurOut" stdDeviation="2.0"/><feColorMatrix in="blurOut" result="blurOut2" type="matrix" values="0 0 0 0 0 0 0 0 0 0 0 0 0 0 0 0 0 0 .4 0"/><feOffset dx="4.0" dy="4.0" in="blurOut2" result="blurOut3"/><feBlend in="SourceGraphic" in2="blurOut3" mode="normal"/></filter></defs><g><g id="0"><rect fill="#FEFECE" filter="url(#fj1lcaot1y9qn)" height="52.7031" rx="12.5" ry="12.5" style="stroke:#A80036;stroke-width:1.5;" width="50" x="857" y="44.24"/><line style="stroke:#A80036;stroke-width:1.5;" x1="857" x2="907" y1="71.8494" y2="71.8494"/><text fill="#000000" font-family="sans-serif" font-size="14" lengthAdjust="spacing" textLength="8" x="878" y="63.7732">0</text><text fill="#000000" font-family="sans-serif" font-size="12" lengthAdjust="spacing" textLength="7" x="862" y="89.3064">0</text></g><g id="1"><rect fill="#FEFECE" filter="url(#fj1lcaot1y9qn)" height="52.7031" rx="12.5" ry="12.5" style="stroke:#A80036;stroke-width:1.5;" width="50" x="772" y="44.24"/><line style="stroke:#A80036;stroke-width:1.5;" x1="772" x2="822" y1="71.8494" y2="71.8494"/><text fill="#000000" font-family="sans-serif" font-size="14" lengthAdjust="spacing" textLength="8" x="793" y="63.7732">1</text><text fill="#000000" font-family="sans-serif" font-size="12" lengthAdjust="spacing" textLength="7" x="777" y="89.3064">1</text></g><g id="2"><rect fill="#FEFECE" filter="url(#fj1lcaot1y9qn)" height="52.7031" rx="12.5" ry="12.5" style="stroke:#A80036;stroke-width:1.5;" width="50" x="687" y="44.24"/><line style="stroke:#A80036;stroke-width:1.5;" x1="687" x2="737" y1="71.8494" y2="71.8494"/><text fill="#000000" font-family="sans-serif" font-size="14" lengthAdjust="spacing" textLength="8" x="708" y="63.7732">2</text><text fill="#000000" font-family="sans-serif" font-size="12" lengthAdjust="spacing" textLength="7" x="692" y="89.3064">1</text></g><g id="3"><rect fill="#FEFECE" filter="url(#fj1lcaot1y9qn)" height="52.7031" rx="12.5" ry="12.5" style="stroke:#A80036;stroke-width:1.5;" width="50" x="602" y="44.24"/><line style="stroke:#A80036;stroke-width:1.5;" x1="602" x2="652" y1="71.8494" y2="71.8494"/><text fill="#000000" font-family="sans-serif" font-size="14" lengthAdjust="spacing" textLength="8" x="623" y="63.7732">3</text><text fill="#000000" font-family="sans-serif" font-size="12" lengthAdjust="spacing" textLength="7" x="607" y="89.3064">2</text></g><g id="4"><rect fill="#FEFECE" filter="url(#fj1lcaot1y9qn)" height="52.7031" rx="12.5" ry="12.5" style="stroke:#A80036;stroke-width:1.5;" width="50" x="517" y="44.24"/><line style="stroke:#A80036;stroke-width:1.5;" x1="517" x2="567" y1="71.8494" y2="71.8494"/><text fill="#000000" font-family="sans-serif" font-size="14" lengthAdjust="spacing" textLength="8" x="538" y="63.7732">4</text><text fill="#000000" font-family="sans-serif" font-size="12" lengthAdjust="spacing" textLength="7" x="522" y="89.3064">3</text></g><g id="5"><rect fill="#FEFECE" filter="url(#fj1lcaot1y9qn)" height="52.7031" rx="12.5" ry="12.5" style="stroke:#A80036;stroke-width:1.5;" width="50" x="432" y="44.24"/><line style="stroke:#A80036;stroke-width:1.5;" x1="432" x2="482" y1="71.8494" y2="71.8494"/><text fill="#000000" font-family="sans-serif" font-size="14" lengthAdjust="spacing" textLength="8" x="453" y="63.7732">5</text><text fill="#000000" font-family="sans-serif" font-size="12" lengthAdjust="spacing" textLength="7" x="437" y="89.3064">5</text></g><g id="6"><rect fill="#FEFECE" filter="url(#fj1lcaot1y9qn)" height="52.7031" rx="12.5" ry="12.5" style="stroke:#A80036;stroke-width:1.5;" width="50" x="347" y="44.24"/><line style="stroke:#A80036;stroke-width:1.5;" x1="347" x2="397" y1="71.8494" y2="71.8494"/><text fill="#000000" font-family="sans-serif" font-size="14" lengthAdjust="spacing" textLength="8" x="368" y="63.7732">6</text><text fill="#000000" font-family="sans-serif" font-size="12" lengthAdjust="spacing" textLength="7" x="352" y="89.3064">8</text></g><g id="7"><rect fill="#FEFECE" filter="url(#fj1lcaot1y9qn)" height="52.7031" rx="12.5" ry="12.5" style="stroke:#A80036;stroke-width:1.5;" width="50" x="262" y="44.24"/><line style="stroke:#A80036;stroke-width:1.5;" x1="262" x2="312" y1="71.8494" y2="71.8494"/><text fill="#000000" font-family="sans-serif" font-size="14" lengthAdjust="spacing" textLength="8" x="283" y="63.7732">7</text><text fill="#000000" font-family="sans-serif" font-size="12" lengthAdjust="spacing" textLength="14" x="267" y="89.3064">13</text></g><g id="8"><rect fill="#FEFECE" filter="url(#fj1lcaot1y9qn)" height="52.7031" rx="12.5" ry="12.5" style="stroke:#A80036;stroke-width:1.5;" width="50" x="177" y="44.24"/><line style="stroke:#A80036;stroke-width:1.5;" x1="177" x2="227" y1="71.8494" y2="71.8494"/><text fill="#000000" font-family="sans-serif" font-size="14" lengthAdjust="spacing" textLength="8" x="198" y="63.7732">8</text><text fill="#000000" font-family="sans-serif" font-size="12" lengthAdjust="spacing" textLength="14" x="182" y="89.3064">21</text></g><g id="9"><rect fill="#FEFECE" filter="url(#fj1lcaot1y9qn)" height="52.7031" rx="12.5" ry="12.5" style="stroke:#A80036;stroke-width:1.5;" width="50" x="92" y="44.24"/><line style="stroke:#A80036;stroke-width:1.5;" x1="92" x2="142" y1="71.8494" y2="71.8494"/><text fill="#000000" font-family="sans-serif" font-size="14" lengthAdjust="spacing" textLength="8" x="113" y="63.7732">9</text><text fill="#000000" font-family="sans-serif" font-size="12" lengthAdjust="spacing" textLength="14" x="97" y="89.3064">34</text></g><g id="10"><rect fill="#FEFECE" filter="url(#fj1lcaot1y9qn)" height="52.7031" rx="12.5" ry="12.5" style="stroke:#A80036;stroke-width:1.5;" width="50" x="7" y="44.24"/><line style="stroke:#A80036;stroke-width:1.5;" x1="7" x2="57" y1="71.8494" y2="71.8494"/><text fill="#000000" font-family="sans-serif" font-size="14" lengthAdjust="spacing" textLength="16" x="24" y="63.7732">10</text><text fill="#000000" font-family="sans-serif" font-size="12" lengthAdjust="spacing" textLength="14" x="12" y="89.3064">55</text></g><!--MD5=[e109c95846b45321a99d8583625694cb]
link 2 to 0--><path d="M732.58,44.02 C743.12,32.53 756.99,20.36 772.5,14.24 C793.17,6.09 801.86,6 822.5,14.24 C836.17,19.7 848.5,29.95 858.34,40.24 " fill="none" id="2-to-0" style="stroke:#A80036;stroke-width:1.0;"/><polygon fill="#A80036" points="861.85,44.03,858.6696,34.7088,858.4527,40.3615,852.8,40.1445,861.85,44.03" style="stroke:#A80036;stroke-width:1.0;"/><!--MD5=[f66784b854ad69a06c9b9f3eda09ba3a]
link 2 to 1--><path d="M737.23,70.74 C747.04,70.74 756.85,70.74 766.66,70.74 " fill="none" id="2-to-1" style="stroke:#A80036;stroke-width:1.0;"/><polygon fill="#A80036" points="771.79,70.74,762.79,66.74,766.79,70.74,762.79,74.74,771.79,70.74" style="stroke:#A80036;stroke-width:1.0;"/><!--MD5=[4d444cbccd26e31ce172b5718b51e4cd]
link 3 to 1--><path d="M647.58,44.02 C658.12,32.53 671.99,20.36 687.5,14.24 C708.17,6.09 716.86,6 737.5,14.24 C751.17,19.7 763.5,29.95 773.34,40.24 " fill="none" id="3-to-1" style="stroke:#A80036;stroke-width:1.0;"/><polygon fill="#A80036" points="776.85,44.03,773.6696,34.7088,773.4527,40.3615,767.8,40.1445,776.85,44.03" style="stroke:#A80036;stroke-width:1.0;"/><!--MD5=[28551aba8907995ce56fa3e4ac644625]
link 3 to 2--><path d="M652.23,70.74 C662.04,70.74 671.85,70.74 681.66,70.74 " fill="none" id="3-to-2" style="stroke:#A80036;stroke-width:1.0;"/><polygon fill="#A80036" points="686.79,70.74,677.79,66.74,681.79,70.74,677.79,74.74,686.79,70.74" style="stroke:#A80036;stroke-width:1.0;"/><!--MD5=[d5d43b3f3dfddbfb6ca65af0419a6a54]
link 4 to 2--><path d="M562.58,44.02 C573.12,32.53 586.99,20.36 602.5,14.24 C623.17,6.09 631.86,6 652.5,14.24 C666.17,19.7 678.5,29.95 688.34,40.24 " fill="none" id="4-to-2" style="stroke:#A80036;stroke-width:1.0;"/><polygon fill="#A80036" points="691.85,44.03,688.6696,34.7088,688.4527,40.3615,682.8,40.1445,691.85,44.03" style="stroke:#A80036;stroke-width:1.0;"/><!--MD5=[e71408b9390228c84d74723432d512d8]
link 4 to 3--><path d="M567.23,70.74 C577.04,70.74 586.85,70.74 596.66,70.74 " fill="none" id="4-to-3" style="stroke:#A80036;stroke-width:1.0;"/><polygon fill="#A80036" points="601.79,70.74,592.79,66.74,596.79,70.74,592.79,74.74,601.79,70.74" style="stroke:#A80036;stroke-width:1.0;"/><!--MD5=[edd9a7f694bd9a51a0f7b32f828d2281]
link 5 to 3--><path d="M477.58,44.02 C488.12,32.53 501.99,20.36 517.5,14.24 C538.17,6.09 546.86,6 567.5,14.24 C581.17,19.7 593.5,29.95 603.34,40.24 " fill="none" id="5-to-3" style="stroke:#A80036;stroke-width:1.0;"/><polygon fill="#A80036" points="606.85,44.03,603.6696,34.7088,603.4527,40.3615,597.8,40.1445,606.85,44.03" style="stroke:#A80036;stroke-width:1.0;"/><!--MD5=[d751ff46321a373f9d0b84ddfc0dabf0]
link 5 to 4--><path d="M482.23,70.74 C492.04,70.74 501.85,70.74 511.66,70.74 " fill="none" id="5-to-4" style="stroke:#A80036;stroke-width:1.0;"/><polygon fill="#A80036" points="516.79,70.74,507.79,66.74,511.79,70.74,507.79,74.74,516.79,70.74" style="stroke:#A80036;stroke-width:1.0;"/><!--MD5=[3ce29d91a35df54cf8f654f0ce628f8c]
link 6 to 4--><path d="M392.58,44.02 C403.12,32.53 416.99,20.36 432.5,14.24 C453.17,6.09 461.86,6 482.5,14.24 C496.17,19.7 508.5,29.95 518.34,40.24 " fill="none" id="6-to-4" style="stroke:#A80036;stroke-width:1.0;"/><polygon fill="#A80036" points="521.85,44.03,518.6696,34.7088,518.4527,40.3615,512.8,40.1445,521.85,44.03" style="stroke:#A80036;stroke-width:1.0;"/><!--MD5=[a33020d25e71e759d4561ece919ccd5b]
link 6 to 5--><path d="M397.23,70.74 C407.04,70.74 416.85,70.74 426.66,70.74 " fill="none" id="6-to-5" style="stroke:#A80036;stroke-width:1.0;"/><polygon fill="#A80036" points="431.79,70.74,422.79,66.74,426.79,70.74,422.79,74.74,431.79,70.74" style="stroke:#A80036;stroke-width:1.0;"/><!--MD5=[1a0d6c1057c80b47479001d8cc94b868]
link 7 to 5--><path d="M307.58,44.02 C318.12,32.53 331.99,20.36 347.5,14.24 C368.17,6.09 376.86,6 397.5,14.24 C411.17,19.7 423.5,29.95 433.34,40.24 " fill="none" id="7-to-5" style="stroke:#A80036;stroke-width:1.0;"/><polygon fill="#A80036" points="436.85,44.03,433.6696,34.7088,433.4527,40.3615,427.8,40.1445,436.85,44.03" style="stroke:#A80036;stroke-width:1.0;"/><!--MD5=[cf4d18d3ee10cadff7ad1a363e958d45]
link 7 to 6--><path d="M312.23,70.74 C322.04,70.74 331.85,70.74 341.66,70.74 " fill="none" id="7-to-6" style="stroke:#A80036;stroke-width:1.0;"/><polygon fill="#A80036" points="346.79,70.74,337.79,66.74,341.79,70.74,337.79,74.74,346.79,70.74" style="stroke:#A80036;stroke-width:1.0;"/><!--MD5=[dfd4d3abcbc1ea6e869654a29eca52f3]
link 8 to 6--><path d="M222.58,44.02 C233.12,32.53 246.99,20.36 262.5,14.24 C283.17,6.09 291.86,6 312.5,14.24 C326.17,19.7 338.5,29.95 348.34,40.24 " fill="none" id="8-to-6" style="stroke:#A80036;stroke-width:1.0;"/><polygon fill="#A80036" points="351.85,44.03,348.6696,34.7088,348.4527,40.3615,342.8,40.1445,351.85,44.03" style="stroke:#A80036;stroke-width:1.0;"/><!--MD5=[b9f8d611cd4668e7d634696759b63eec]
link 8 to 7--><path d="M227.23,70.74 C237.04,70.74 246.85,70.74 256.66,70.74 " fill="none" id="8-to-7" style="stroke:#A80036;stroke-width:1.0;"/><polygon fill="#A80036" points="261.79,70.74,252.79,66.74,256.79,70.74,252.79,74.74,261.79,70.74" style="stroke:#A80036;stroke-width:1.0;"/><!--MD5=[76cc6dd04e8dfa6e7b6f2b3a83712b54]
link 9 to 7--><path d="M137.58,44.02 C148.12,32.53 161.99,20.36 177.5,14.24 C198.17,6.09 206.86,6 227.5,14.24 C241.17,19.7 253.5,29.95 263.34,40.24 " fill="none" id="9-to-7" style="stroke:#A80036;stroke-width:1.0;"/><polygon fill="#A80036" points="266.85,44.03,263.6696,34.7088,263.4527,40.3615,257.8,40.1445,266.85,44.03" style="stroke:#A80036;stroke-width:1.0;"/><!--MD5=[0fe97029be06c2e3e04ec02214a184c8]
link 9 to 8--><path d="M142.23,70.74 C152.04,70.74 161.85,70.74 171.66,70.74 " fill="none" id="9-to-8" style="stroke:#A80036;stroke-width:1.0;"/><polygon fill="#A80036" points="176.79,70.74,167.79,66.74,171.79,70.74,167.79,74.74,176.79,70.74" style="stroke:#A80036;stroke-width:1.0;"/><!--MD5=[4086f070ab1c5faf693d392f9ab2dc0c]
link 10 to 8--><path d="M52.58,44.02 C63.12,32.53 76.99,20.36 92.5,14.24 C113.17,6.09 121.86,6 142.5,14.24 C156.17,19.7 168.5,29.95 178.34,40.24 " fill="none" id="10-to-8" style="stroke:#A80036;stroke-width:1.0;"/><polygon fill="#A80036" points="181.85,44.03,178.6696,34.7088,178.4527,40.3615,172.8,40.1445,181.85,44.03" style="stroke:#A80036;stroke-width:1.0;"/><!--MD5=[72a253026fdb9c2e11eef548f1a282b9]
link 10 to 9--><path d="M57.23,70.74 C67.04,70.74 76.85,70.74 86.66,70.74 " fill="none" id="10-to-9" style="stroke:#A80036;stroke-width:1.0;"/><polygon fill="#A80036" points="91.79,70.74,82.79,66.74,86.79,70.74,82.79,74.74,91.79,70.74" style="stroke:#A80036;stroke-width:1.0;"/><!--MD5=[f4f7fbf6c6aae88856e20dbdb89bdad5]
@startuml

!procedure $create_state($name, $value)
    $create_state($name, $value, $name)
!endprocedure

!procedure $create_state($name, $value, $instance_name)
    state "$name" as $instance_name
    $instance_name : $value
!endprocedure

!procedure $connect_states($instance1_name, $instance2_name)
    $instance1_name -right-> $instance2_name
!endprocedure

!function $to_variable($n)
    !return %string($n)
!endfunction

!function $is_memoized($n)
    !return %variable_exists($to_variable($n))
!endfunction

!function $get_from_memo($n)
    !return %get_variable_value($to_variable($n))
!endfunction

!procedure $update_memo($n, $value)
    %set_variable_value($to_variable($n), $value)
!endprocedure

!function $fibonacci($n)
    !if $is_memoized($n)
        !return $get_from_memo($n)
    !endif

    !if $n == 0
        !$fibonacci_n = 0
    !elseif $n == 1
        !$fibonacci_n = 1
    !else
        !$fibonacci_n_minus_2 = $fibonacci($n - 2)
        !$fibonacci_n_minus_1 = $fibonacci($n - 1)
        !$fibonacci_n = $fibonacci_n_minus_1 + $fibonacci_n_minus_2
      !endif

    $create_state($n, $fibonacci_n)
    !if $n >= 2
        $connect_states($n, $n - 2)
        $connect_states($n, $n - 1)
    !endif

    $update_memo($n, $fibonacci_n)
    !return $fibonacci_n
!endfunction

!$ignore = $fibonacci(10)

@enduml

@startuml









        state "0" as 0
    0 : 0
        
        state "1" as 1
    1 : 1
        
        state "2" as 2
    2 : 1
            2 -right-> 0
            2 -right-> 1
        
        state "3" as 3
    3 : 2
            3 -right-> 1
            3 -right-> 2
        
        state "4" as 4
    4 : 3
            4 -right-> 2
            4 -right-> 3
        
        state "5" as 5
    5 : 5
            5 -right-> 3
            5 -right-> 4
        
        state "6" as 6
    6 : 8
            6 -right-> 4
            6 -right-> 5
        
        state "7" as 7
    7 : 13
            7 -right-> 5
            7 -right-> 6
        
        state "8" as 8
    8 : 21
            8 -right-> 6
            8 -right-> 7
        
        state "9" as 9
    9 : 34
            9 -right-> 7
            9 -right-> 8
        
        state "10" as 10
    10 : 55
            10 -right-> 8
            10 -right-> 9
        

@enduml

PlantUML version 1.2021.9(Sun Jul 25 15:43:56 IST 2021)
(GPL source distribution)
Java Runtime: OpenJDK Runtime Environment
JVM: OpenJDK 64-Bit Server VM
Default Encoding: Cp1252
Language: en
Country: IN
--></g></svg>