<?xml version="1.0" encoding="UTF-8" standalone="no"?><svg xmlns="http://www.w3.org/2000/svg" xmlns:xlink="http://www.w3.org/1999/xlink" contentScriptType="application/ecmascript" contentStyleType="text/css" height="688px" preserveAspectRatio="none" style="width:872px;height:688px;background:#FFFFFF;" version="1.1" viewBox="0 0 872 688" width="872px" zoomAndPan="magnify"><defs/><g><rect fill="#FEFECE" height="191.9258" rx="5" ry="5" style="stroke:#FEFECE;stroke-width:1.5;" width="262" x="10" y="165.5"/><text fill="#000000" font-family="Consolas" font-size="20" font-weight="bold" lengthAdjust="spacing" textLength="187" x="15" y="185.7715">table_of_contents</text><text fill="#000000" font-family="Consolas" font-size="20" lengthAdjust="spacing" textLength="0" x="245" y="185.7715"/><line style="stroke:#A80036;stroke-width:1.0;" x1="229" x2="229" y1="165.5" y2="192.918"/><line style="stroke:#A80036;stroke-width:1.0;" x1="10" x2="272" y1="192.918" y2="192.918"/><text fill="#000000" font-family="Consolas" font-size="20" lengthAdjust="spacing" textLength="198" x="15" y="213.1895">data_visualization</text><text fill="#000000" font-family="Consolas" font-size="20" lengthAdjust="spacing" textLength="0" x="267" y="213.1895"/><line style="stroke:#A80036;stroke-width:1.0;" x1="229" x2="229" y1="192.918" y2="220.3359"/><line style="stroke:#A80036;stroke-width:1.0;" x1="10" x2="272" y1="220.3359" y2="220.3359"/><text fill="#000000" font-family="Consolas" font-size="20" lengthAdjust="spacing" textLength="132" x="15" y="240.6074">uml_diagrams</text><text fill="#000000" font-family="Consolas" font-size="20" lengthAdjust="spacing" textLength="0" x="267" y="240.6074"/><line style="stroke:#A80036;stroke-width:1.0;" x1="229" x2="229" y1="220.3359" y2="247.7539"/><line style="stroke:#A80036;stroke-width:1.0;" x1="10" x2="272" y1="247.7539" y2="247.7539"/><text fill="#000000" font-family="Consolas" font-size="20" lengthAdjust="spacing" textLength="165" x="15" y="268.0254">common_features</text><text fill="#000000" font-family="Consolas" font-size="20" lengthAdjust="spacing" textLength="0" x="267" y="268.0254"/><line style="stroke:#A80036;stroke-width:1.0;" x1="229" x2="229" y1="247.7539" y2="275.1719"/><line style="stroke:#A80036;stroke-width:1.0;" x1="10" x2="272" y1="275.1719" y2="275.1719"/><text fill="#000000" font-family="Consolas" font-size="20" lengthAdjust="spacing" textLength="209" x="15" y="295.4434">general_information</text><text fill="#000000" font-family="Consolas" font-size="20" lengthAdjust="spacing" textLength="0" x="267" y="295.4434"/><line style="stroke:#A80036;stroke-width:1.0;" x1="229" x2="229" y1="275.1719" y2="302.5898"/><line style="stroke:#A80036;stroke-width:1.0;" x1="10" x2="272" y1="302.5898" y2="302.5898"/><text fill="#000000" font-family="Consolas" font-size="20" lengthAdjust="spacing" textLength="143" x="15" y="322.8613">miscellaneous</text><text fill="#000000" font-family="Consolas" font-size="20" lengthAdjust="spacing" textLength="0" x="267" y="322.8613"/><line style="stroke:#A80036;stroke-width:1.0;" x1="229" x2="229" y1="302.5898" y2="330.0078"/><line style="stroke:#A80036;stroke-width:1.0;" x1="10" x2="272" y1="330.0078" y2="330.0078"/><text fill="#000000" font-family="Consolas" font-size="20" lengthAdjust="spacing" textLength="99" x="15" y="350.2793">fun_stuff</text><text fill="#000000" font-family="Consolas" font-size="20" lengthAdjust="spacing" textLength="0" x="267" y="350.2793"/><line style="stroke:#A80036;stroke-width:1.0;" x1="229" x2="229" y1="330.0078" y2="357.4258"/><rect fill="none" height="191.9258" rx="5" ry="5" style="stroke:#A80036;stroke-width:1.5;" width="262" x="10" y="165.5"/><rect fill="#FEFECE" height="27.418" rx="5" ry="5" style="stroke:#FEFECE;stroke-width:1.5;" width="394" x="309" y="10"/><text fill="#000000" font-family="Consolas" font-size="20" lengthAdjust="spacing" textLength="99" x="314" y="30.2715">yaml_data</text><text fill="#000000" font-family="Consolas" font-size="20" lengthAdjust="spacing" textLength="187" x="423" y="30.2715">table_of_contents</text><text fill="#000000" font-family="Consolas" font-size="20" font-style="italic" lengthAdjust="spacing" textLength="77" x="621" y="30.2715">(this!)</text><line style="stroke:#A80036;stroke-width:1.0;" x1="418" x2="418" y1="10" y2="37.418"/><rect fill="none" height="27.418" rx="5" ry="5" style="stroke:#A80036;stroke-width:1.5;" width="394" x="309" y="10"/><rect fill="#FEFECE" height="54.8359" rx="5" ry="5" style="stroke:#FEFECE;stroke-width:1.5;" width="186" x="413" y="55"/><text fill="#000000" font-family="Consolas" font-size="20" lengthAdjust="spacing" textLength="176" x="418" y="75.2715">sequence diagram</text><line style="stroke:#A80036;stroke-width:1.0;" x1="413" x2="599" y1="82.418" y2="82.418"/><text fill="#000000" font-family="Consolas" font-size="20" lengthAdjust="spacing" textLength="143" x="418" y="102.6895">class diagram</text><rect fill="none" height="54.8359" rx="5" ry="5" style="stroke:#A80036;stroke-width:1.5;" width="186" x="413" y="55"/><rect fill="#FEFECE" height="109.6719" rx="5" ry="5" style="stroke:#FEFECE;stroke-width:1.5;" width="120" x="446" y="128.5"/><text fill="#000000" font-family="Consolas" font-size="20" lengthAdjust="spacing" textLength="77" x="451" y="148.7715">colours</text><line style="stroke:#A80036;stroke-width:1.0;" x1="446" x2="566" y1="155.918" y2="155.918"/><text fill="#000000" font-family="Consolas" font-size="20" lengthAdjust="spacing" textLength="110" x="451" y="176.1895">openiconic</text><line style="stroke:#A80036;stroke-width:1.0;" x1="446" x2="566" y1="183.3359" y2="183.3359"/><text fill="#000000" font-family="Consolas" font-size="20" lengthAdjust="spacing" textLength="55" x="451" y="203.6074">fonts</text><line style="stroke:#A80036;stroke-width:1.0;" x1="446" x2="566" y1="210.7539" y2="210.7539"/><text fill="#000000" font-family="Consolas" font-size="20" lengthAdjust="spacing" textLength="44" x="451" y="231.0254">zoom</text><rect fill="none" height="109.6719" rx="5" ry="5" style="stroke:#A80036;stroke-width:1.5;" width="120" x="446" y="128.5"/><rect fill="#FEFECE" height="219.3438" rx="5" ry="5" style="stroke:#FEFECE;stroke-width:1.5;" width="274" x="369" y="257"/><text fill="#000000" font-family="Consolas" font-size="20" lengthAdjust="spacing" textLength="209" x="374" y="277.2715">how to run plantuml</text><line style="stroke:#A80036;stroke-width:1.0;" x1="369" x2="643" y1="284.418" y2="284.418"/><text fill="#000000" font-family="Consolas" font-size="20" lengthAdjust="spacing" textLength="209" x="374" y="304.6895">license information</text><line style="stroke:#A80036;stroke-width:1.0;" x1="369" x2="643" y1="311.8359" y2="311.8359"/><text fill="#000000" font-family="Consolas" font-size="20" lengthAdjust="spacing" textLength="220" x="374" y="332.1074">language description</text><line style="stroke:#A80036;stroke-width:1.0;" x1="369" x2="643" y1="339.2539" y2="339.2539"/><text fill="#000000" font-family="Consolas" font-size="20" lengthAdjust="spacing" textLength="154" x="374" y="359.5254">syntax checker</text><line style="stroke:#A80036;stroke-width:1.0;" x1="369" x2="643" y1="366.6719" y2="366.6719"/><text fill="#000000" font-family="Consolas" font-size="20" lengthAdjust="spacing" textLength="88" x="374" y="386.9434">metadata</text><line style="stroke:#A80036;stroke-width:1.0;" x1="369" x2="643" y1="394.0898" y2="394.0898"/><text fill="#000000" font-family="Consolas" font-size="20" lengthAdjust="spacing" textLength="66" x="374" y="414.3613">cypher</text><line style="stroke:#A80036;stroke-width:1.0;" x1="369" x2="643" y1="421.5078" y2="421.5078"/><text fill="#000000" font-family="Consolas" font-size="20" lengthAdjust="spacing" textLength="264" x="374" y="441.7793">generating huge diagrams</text><line style="stroke:#A80036;stroke-width:1.0;" x1="369" x2="643" y1="448.9258" y2="448.9258"/><text fill="#000000" font-family="Consolas" font-size="20" lengthAdjust="spacing" textLength="132" x="374" y="469.1973">getting help</text><rect fill="none" height="219.3438" rx="5" ry="5" style="stroke:#A80036;stroke-width:1.5;" width="274" x="369" y="257"/><rect fill="#FEFECE" height="82.2539" rx="5" ry="5" style="stroke:#FEFECE;stroke-width:1.5;" width="273" x="369.5" y="494.5"/><text fill="#000000" font-family="Consolas" font-size="20" lengthAdjust="spacing" textLength="209" x="374.5" y="514.7715">supporting_plantuml</text><text fill="#000000" font-family="Consolas" font-size="20" lengthAdjust="spacing" textLength="0" x="637.5" y="514.7715"/><line style="stroke:#A80036;stroke-width:1.0;" x1="599.5" x2="599.5" y1="494.5" y2="521.918"/><line style="stroke:#A80036;stroke-width:1.0;" x1="369.5" x2="642.5" y1="521.918" y2="521.918"/><text fill="#000000" font-family="Consolas" font-size="20" lengthAdjust="spacing" textLength="165" x="374.5" y="542.1895">plantuml_themes</text><text fill="#000000" font-family="Consolas" font-size="20" lengthAdjust="spacing" textLength="0" x="615.5" y="542.1895"/><line style="stroke:#A80036;stroke-width:1.0;" x1="599.5" x2="599.5" y1="521.918" y2="549.3359"/><line style="stroke:#A80036;stroke-width:1.0;" x1="369.5" x2="642.5" y1="549.3359" y2="549.3359"/><text fill="#000000" font-family="Consolas" font-size="20" lengthAdjust="spacing" textLength="220" x="374.5" y="569.6074">uml_for_blind_people</text><text fill="#000000" font-family="Consolas" font-size="20" lengthAdjust="spacing" textLength="0" x="615.5" y="569.6074"/><line style="stroke:#A80036;stroke-width:1.0;" x1="599.5" x2="599.5" y1="549.3359" y2="576.7539"/><rect fill="none" height="82.2539" rx="5" ry="5" style="stroke:#A80036;stroke-width:1.5;" width="273" x="369.5" y="494.5"/><rect fill="#FEFECE" height="54.8359" rx="5" ry="5" style="stroke:#FEFECE;stroke-width:1.5;" width="120" x="740" y="480"/><text fill="#000000" font-family="Consolas" font-size="20" lengthAdjust="spacing" textLength="110" x="745" y="500.2715">dedication</text><line style="stroke:#A80036;stroke-width:1.0;" x1="740" x2="860" y1="507.418" y2="507.418"/><text fill="#000000" font-family="Consolas" font-size="20" lengthAdjust="spacing" textLength="88" x="745" y="527.6895">donation</text><rect fill="none" height="54.8359" rx="5" ry="5" style="stroke:#A80036;stroke-width:1.5;" width="120" x="740" y="480"/><rect fill="#FEFECE" height="82.2539" rx="5" ry="5" style="stroke:#FEFECE;stroke-width:1.5;" width="142" x="435" y="594.5"/><text fill="#000000" font-family="Consolas" font-size="20" lengthAdjust="spacing" textLength="66" x="440" y="614.7715">xearth</text><line style="stroke:#A80036;stroke-width:1.0;" x1="435" x2="577" y1="621.918" y2="621.918"/><text fill="#000000" font-family="Consolas" font-size="20" lengthAdjust="spacing" textLength="66" x="440" y="642.1895">sudoku</text><line style="stroke:#A80036;stroke-width:1.0;" x1="435" x2="577" y1="649.3359" y2="649.3359"/><text fill="#000000" font-family="Consolas" font-size="20" lengthAdjust="spacing" textLength="132" x="440" y="669.6074">oregon trail</text><rect fill="none" height="82.2539" rx="5" ry="5" style="stroke:#A80036;stroke-width:1.5;" width="142" x="435" y="594.5"/><path d="M260,205.5 L273,205.5 C345.8889,205.5 254.7088,94.1339 309,45.5 C310.3504,44.2904 311.7286,43.1212 313.1331,41.9915 " fill="none" style="stroke:#A80036;stroke-width:1.0;stroke-dasharray:3.0,3.0;"/><path d="M315.0149,44.5197 L315.0292,40.5802 L311.2513,39.4634 L319.4535,37.287 L315.0149,44.5197 " fill="#A80036" style="stroke:#A80036;stroke-width:1.0;"/><ellipse cx="260" cy="205.5" fill="#A80036" rx="3" ry="3" style="stroke:#A80036;stroke-width:1.0;stroke-dasharray:3.0,3.0;"/><path d="M260,233.5 L273,233.5 C326.133,233.5 269.2482,154.7549 309,119.5 C335.2582,96.2123 371.4247,85.5478 405.5776,81.1681 " fill="none" style="stroke:#A80036;stroke-width:1.0;stroke-dasharray:3.0,3.0;"/><path d="M405.9331,84.2518 L407.8904,80.9015 L405.2222,78.0844 L413.2869,80.2795 L405.9331,84.2518 " fill="#A80036" style="stroke:#A80036;stroke-width:1.0;"/><ellipse cx="260" cy="233.5" fill="#A80036" rx="3" ry="3" style="stroke:#A80036;stroke-width:1.0;stroke-dasharray:3.0,3.0;"/><path d="M260,260.5 L273,260.5 C289.8655,260.5 292.9939,253.815 309,248.5 C352.1599,234.1683 400.6724,218.1203 438.696,205.5559 " fill="none" style="stroke:#A80036;stroke-width:1.0;stroke-dasharray:3.0,3.0;"/><path d="M439.682,208.54 L440.9341,204.8164 L437.7101,202.5718 L446.1562,203.091 L439.682,208.54 " fill="#A80036" style="stroke:#A80036;stroke-width:1.0;"/><ellipse cx="260" cy="260.5" fill="#A80036" rx="3" ry="3" style="stroke:#A80036;stroke-width:1.0;stroke-dasharray:3.0,3.0;"/><path d="M260,288.5 L273,288.5 C302.5351,288.5 333.1359,294.2276 362.0561,302.5786 " fill="none" style="stroke:#A80036;stroke-width:1.0;stroke-dasharray:3.0,3.0;"/><path d="M361.185,305.5045 L364.2506,303.232 L362.9273,299.6527 L369.3708,304.7564 L361.185,305.5045 " fill="#A80036" style="stroke:#A80036;stroke-width:1.0;"/><ellipse cx="260" cy="288.5" fill="#A80036" rx="3" ry="3" style="stroke:#A80036;stroke-width:1.0;stroke-dasharray:3.0,3.0;"/><path d="M631.5,507.5 L644.5,507.5 C673.4017,507.5 705.3347,507.5 732.6684,507.5 " fill="none" style="stroke:#A80036;stroke-width:1.0;stroke-dasharray:3.0,3.0;"/><path d="M732.6684,510.5325 L734.9428,507.5 L732.6684,504.4675 L740.2496,507.5 L732.6684,510.5325 " fill="#A80036" style="stroke:#A80036;stroke-width:1.0;"/><ellipse cx="631.5" cy="507.5" fill="#A80036" rx="3" ry="3" style="stroke:#A80036;stroke-width:1.0;stroke-dasharray:3.0,3.0;"/><path d="M260,316.5 L273,316.5 C349.7963,316.5 255.7738,430.1407 309,485.5 C323.7861,500.8786 342.584,511.7781 362.6656,519.4573 " fill="none" style="stroke:#A80036;stroke-width:1.0;stroke-dasharray:3.0,3.0;"/><path d="M361.632,522.3182 L364.8113,520.2325 L363.6992,516.5965 L369.8178,522.0413 L361.632,522.3182 " fill="#A80036" style="stroke:#A80036;stroke-width:1.0;"/><ellipse cx="260" cy="316.5" fill="#A80036" rx="3" ry="3" style="stroke:#A80036;stroke-width:1.0;stroke-dasharray:3.0,3.0;"/><path d="M260,343.5 L273,343.5 C327.3696,343.5 272.5544,545.1544 309,585.5 C338.6559,618.3293 386.5525,630.9755 427.6328,635.3432 " fill="none" style="stroke:#A80036;stroke-width:1.0;stroke-dasharray:3.0,3.0;"/><path d="M427.3439,638.3774 L429.9084,635.5599 L427.9217,632.3091 L435.2181,636.0655 L427.3439,638.3774 " fill="#A80036" style="stroke:#A80036;stroke-width:1.0;"/><ellipse cx="260" cy="343.5" fill="#A80036" rx="3" ry="3" style="stroke:#A80036;stroke-width:1.0;stroke-dasharray:3.0,3.0;"/><!--MD5=[6a82ab73beaa1e2701aeae5a7b0e180d]
@startyaml
<style>
yamlDiagram {
    node {
        ' use a constant width font because that's what developers do.
        FontName Consolas
        FontSize 20
    }
}
</style>

**table_of_contents**: ""  /' workaround: empty string here to avoid dummy link '/
data_visualization:
    yaml_data : table_of_contents //(this!)//
uml_diagrams:
    - sequence diagram
    - class diagram
common_features:
    - colours
    - openiconic
    - fonts
    - zoom
general_information:
    - how to run plantuml
    - license information
    - language description
    - syntax checker
    - metadata
    - cypher
    - generating huge diagrams
    - getting help
miscellaneous:
    supporting_plantuml:
        - dedication
        - donation
    plantuml_themes: ""
    uml_for_blind_people: ""
fun_stuff:
    - xearth
    - sudoku
    - oregon trail
@endyaml

@startyaml
<style>
yamlDiagram {
    node {
        FontName Consolas
        FontSize 20
    }
}
</style>

**table_of_contents**: ""  
data_visualization:
    yaml_data : table_of_contents //(this!)//
uml_diagrams:
    - sequence diagram
    - class diagram
common_features:
    - colours
    - openiconic
    - fonts
    - zoom
general_information:
    - how to run plantuml
    - license information
    - language description
    - syntax checker
    - metadata
    - cypher
    - generating huge diagrams
    - getting help
miscellaneous:
    supporting_plantuml:
        - dedication
        - donation
    plantuml_themes: ""
    uml_for_blind_people: ""
fun_stuff:
    - xearth
    - sudoku
    - oregon trail
@endyaml

PlantUML version 1.2021.9(Sun Jul 25 15:43:56 IST 2021)
(GPL source distribution)
Java Runtime: OpenJDK Runtime Environment
JVM: OpenJDK 64-Bit Server VM
Default Encoding: Cp1252
Language: en
Country: IN
--></g></svg>