<svg xmlns="http://www.w3.org/2000/svg" xmlns:xlink="http://www.w3.org/1999/xlink" contentStyleType="text/css" height="215px" preserveAspectRatio="none" style="width:628px;height:215px;background:#FFFFFF;" version="1.1" viewBox="0 0 628 215" width="628px" zoomAndPan="magnify"><defs/><g><text fill="#000000" font-family="sans-serif" font-size="14" font-weight="bold" lengthAdjust="spacing" textLength="185.5684" x="214.3101" y="22.9951">Collatz sequence for 53</text><!--entity 53--><g id="elem_53"><rect fill="#F1F1F1" height="52.5938" rx="2.5" ry="2.5" style="stroke:#181818;stroke-width:0.5;" width="46.1885" x="7" y="44.2969"/><text fill="#000000" font-family="sans-serif" font-size="14" font-style="italic" lengthAdjust="spacing" textLength="26.1885" x="17" y="67.292">&#171;0&#187;</text><text fill="#000000" font-family="sans-serif" font-size="14" lengthAdjust="spacing" textLength="17.8145" x="21.187" y="83.5889">53</text></g><!--entity 160--><g id="elem_160"><rect fill="#F1F1F1" height="52.5938" rx="2.5" ry="2.5" style="stroke:#181818;stroke-width:0.5;" width="46.7217" x="88.5" y="44.2969"/><text fill="#000000" font-family="sans-serif" font-size="14" font-style="italic" lengthAdjust="spacing" textLength="26.1885" x="98.7666" y="67.292">&#171;1&#187;</text><text fill="#000000" font-family="sans-serif" font-size="14" lengthAdjust="spacing" textLength="26.7217" x="98.5" y="83.5889">160</text></g><!--entity 80--><g id="elem_80"><rect fill="#F1F1F1" height="52.5938" rx="2.5" ry="2.5" style="stroke:#181818;stroke-width:0.5;" width="46.1885" x="171" y="44.2969"/><text fill="#000000" font-family="sans-serif" font-size="14" font-style="italic" lengthAdjust="spacing" textLength="26.1885" x="181" y="67.292">&#171;2&#187;</text><text fill="#000000" font-family="sans-serif" font-size="14" lengthAdjust="spacing" textLength="17.8145" x="185.187" y="83.5889">80</text></g><!--entity 40--><g id="elem_40"><rect fill="#F1F1F1" height="52.5938" rx="2.5" ry="2.5" style="stroke:#181818;stroke-width:0.5;" width="46.1885" x="252" y="44.2969"/><text fill="#000000" font-family="sans-serif" font-size="14" font-style="italic" lengthAdjust="spacing" textLength="26.1885" x="262" y="67.292">&#171;3&#187;</text><text fill="#000000" font-family="sans-serif" font-size="14" lengthAdjust="spacing" textLength="17.8145" x="266.187" y="83.5889">40</text></g><!--entity 20--><g id="elem_20"><rect fill="#F1F1F1" height="52.5938" rx="2.5" ry="2.5" style="stroke:#181818;stroke-width:0.5;" width="46.1885" x="333" y="44.2969"/><text fill="#000000" font-family="sans-serif" font-size="14" font-style="italic" lengthAdjust="spacing" textLength="26.1885" x="343" y="67.292">&#171;4&#187;</text><text fill="#000000" font-family="sans-serif" font-size="14" lengthAdjust="spacing" textLength="17.8145" x="347.187" y="83.5889">20</text></g><!--entity 10--><g id="elem_10"><rect fill="#F1F1F1" height="52.5938" rx="2.5" ry="2.5" style="stroke:#181818;stroke-width:0.5;" width="46.1885" x="414" y="44.2969"/><text fill="#000000" font-family="sans-serif" font-size="14" font-style="italic" lengthAdjust="spacing" textLength="26.1885" x="424" y="67.292">&#171;5&#187;</text><text fill="#000000" font-family="sans-serif" font-size="14" lengthAdjust="spacing" textLength="17.8145" x="428.187" y="83.5889">10</text></g><!--entity 5--><g id="elem_5"><rect fill="#F1F1F1" height="52.5938" rx="2.5" ry="2.5" style="stroke:#181818;stroke-width:0.5;" width="46.1885" x="495" y="44.2969"/><text fill="#000000" font-family="sans-serif" font-size="14" font-style="italic" lengthAdjust="spacing" textLength="26.1885" x="505" y="67.292">&#171;6&#187;</text><text fill="#000000" font-family="sans-serif" font-size="14" lengthAdjust="spacing" textLength="8.9072" x="513.6406" y="83.5889">5</text></g><!--entity 16--><g id="elem_16"><rect fill="#F1F1F1" height="52.5938" rx="2.5" ry="2.5" style="stroke:#181818;stroke-width:0.5;" width="46.1885" x="576" y="44.2969"/><text fill="#000000" font-family="sans-serif" font-size="14" font-style="italic" lengthAdjust="spacing" textLength="26.1885" x="586" y="67.292">&#171;7&#187;</text><text fill="#000000" font-family="sans-serif" font-size="14" lengthAdjust="spacing" textLength="17.8145" x="590.187" y="83.5889">16</text></g><!--entity 8--><g id="elem_8"><rect fill="#F1F1F1" height="52.5938" rx="2.5" ry="2.5" style="stroke:#181818;stroke-width:0.5;" width="46.1885" x="576" y="157.2969"/><text fill="#000000" font-family="sans-serif" font-size="14" font-style="italic" lengthAdjust="spacing" textLength="26.1885" x="586" y="180.292">&#171;8&#187;</text><text fill="#000000" font-family="sans-serif" font-size="14" lengthAdjust="spacing" textLength="8.9072" x="594.6406" y="196.5889">8</text></g><!--entity 4--><g id="elem_4"><rect fill="#F1F1F1" height="52.5938" rx="2.5" ry="2.5" style="stroke:#181818;stroke-width:0.5;" width="46.1885" x="495" y="157.2969"/><text fill="#000000" font-family="sans-serif" font-size="14" font-style="italic" lengthAdjust="spacing" textLength="26.1885" x="505" y="180.292">&#171;9&#187;</text><text fill="#000000" font-family="sans-serif" font-size="14" lengthAdjust="spacing" textLength="8.9072" x="513.6406" y="196.5889">4</text></g><!--entity 2--><g id="elem_2"><rect fill="#F1F1F1" height="52.5938" rx="2.5" ry="2.5" style="stroke:#181818;stroke-width:0.5;" width="55.0957" x="404.5" y="157.2969"/><text fill="#000000" font-family="sans-serif" font-size="14" font-style="italic" lengthAdjust="spacing" textLength="35.0957" x="414.5" y="180.292">&#171;10&#187;</text><text fill="#000000" font-family="sans-serif" font-size="14" lengthAdjust="spacing" textLength="8.9072" x="427.5942" y="196.5889">2</text></g><!--entity 1--><g id="elem_1"><rect fill="#F1F1F1" height="52.5938" rx="2.5" ry="2.5" style="stroke:#181818;stroke-width:0.5;" width="55.0957" x="314.5" y="157.2969"/><text fill="#000000" font-family="sans-serif" font-size="14" font-style="italic" lengthAdjust="spacing" textLength="35.0957" x="324.5" y="180.292">&#171;11&#187;</text><text fill="#000000" font-family="sans-serif" font-size="14" lengthAdjust="spacing" textLength="8.9072" x="337.5942" y="196.5889">1</text></g><!--link 53 to 160--><g id="link_53_160"><path d="M53.06,70.7969 C64.73,70.7969 70.39,70.7969 82.06,70.7969 " fill="none" id="53-to-160" style="stroke:#181818;stroke-width:1.0;"/><polygon fill="#181818" points="88.06,70.7969,79.06,66.7969,83.06,70.7969,79.06,74.7969,88.06,70.7969" style="stroke:#181818;stroke-width:1.0;"/></g><!--link 160 to 80--><g id="link_160_80"><path d="M135.7,70.7969 C147.39,70.7969 153.08,70.7969 164.77,70.7969 " fill="none" id="160-to-80" style="stroke:#181818;stroke-width:1.0;"/><polygon fill="#181818" points="170.77,70.7969,161.77,66.7969,165.77,70.7969,161.77,74.7969,170.77,70.7969" style="stroke:#181818;stroke-width:1.0;"/></g><!--link 80 to 40--><g id="link_80_40"><path d="M217.1,70.7969 C228.71,70.7969 234.32,70.7969 245.93,70.7969 " fill="none" id="80-to-40" style="stroke:#181818;stroke-width:1.0;"/><polygon fill="#181818" points="251.93,70.7969,242.93,66.7969,246.93,70.7969,242.93,74.7969,251.93,70.7969" style="stroke:#181818;stroke-width:1.0;"/></g><!--link 40 to 20--><g id="link_40_20"><path d="M298.1,70.7969 C309.71,70.7969 315.32,70.7969 326.93,70.7969 " fill="none" id="40-to-20" style="stroke:#181818;stroke-width:1.0;"/><polygon fill="#181818" points="332.93,70.7969,323.93,66.7969,327.93,70.7969,323.93,74.7969,332.93,70.7969" style="stroke:#181818;stroke-width:1.0;"/></g><!--link 20 to 10--><g id="link_20_10"><path d="M379.1,70.7969 C390.71,70.7969 396.32,70.7969 407.93,70.7969 " fill="none" id="20-to-10" style="stroke:#181818;stroke-width:1.0;"/><polygon fill="#181818" points="413.93,70.7969,404.93,66.7969,408.93,70.7969,404.93,74.7969,413.93,70.7969" style="stroke:#181818;stroke-width:1.0;"/></g><!--link 10 to 5--><g id="link_10_5"><path d="M460.1,70.7969 C471.71,70.7969 477.32,70.7969 488.93,70.7969 " fill="none" id="10-to-5" style="stroke:#181818;stroke-width:1.0;"/><polygon fill="#181818" points="494.93,70.7969,485.93,66.7969,489.93,70.7969,485.93,74.7969,494.93,70.7969" style="stroke:#181818;stroke-width:1.0;"/></g><!--link 5 to 16--><g id="link_5_16"><path d="M541.1,70.7969 C552.71,70.7969 558.32,70.7969 569.93,70.7969 " fill="none" id="5-to-16" style="stroke:#181818;stroke-width:1.0;"/><polygon fill="#181818" points="575.93,70.7969,566.93,66.7969,570.93,70.7969,566.93,74.7969,575.93,70.7969" style="stroke:#181818;stroke-width:1.0;"/></g><!--link 16 to 8--><g id="link_16_8"><path d="M599,97.5369 C599,115.4769 599,133.2869 599,151.1869 " fill="none" id="16-to-8" style="stroke:#181818;stroke-width:1.0;"/><polygon fill="#181818" points="599,157.1869,603,148.1869,599,152.1869,595,148.1869,599,157.1869" style="stroke:#181818;stroke-width:1.0;"/></g><!--reverse link 4 to 8--><g id="link_4_8"><path d="M547.1,183.7969 C558.71,183.7969 564.32,183.7969 575.93,183.7969 " fill="none" id="4-backto-8" style="stroke:#181818;stroke-width:1.0;"/><polygon fill="#181818" points="541.1,183.7969,550.1,187.7969,546.1,183.7969,550.1,179.7969,541.1,183.7969" style="stroke:#181818;stroke-width:1.0;"/></g><!--reverse link 2 to 4--><g id="link_2_4"><path d="M465.55,183.7969 C477.27,183.7969 482.99,183.7969 494.71,183.7969 " fill="none" id="2-backto-4" style="stroke:#181818;stroke-width:1.0;"/><polygon fill="#181818" points="459.55,183.7969,468.55,187.7969,464.55,183.7969,468.55,179.7969,459.55,183.7969" style="stroke:#181818;stroke-width:1.0;"/></g><!--reverse link 1 to 2--><g id="link_1_2"><path d="M375.77,183.7969 C387.28,183.7969 392.78,183.7969 404.29,183.7969 " fill="none" id="1-backto-2" style="stroke:#181818;stroke-width:1.0;"/><polygon fill="#181818" points="369.77,183.7969,378.77,187.7969,374.77,183.7969,378.77,179.7969,369.77,183.7969" style="stroke:#181818;stroke-width:1.0;"/></g><!--SRC=[hLVPSkeu47tdApgkf08p9F66CLD9NkP3A64BKCMM64c6oTJz-6ajDYPiVhWyn8xxz55lKhSUTb8Kj6maXST2S4uBlQHSCyse6ZzoKjDe2lOPuxDa4W5CyCa8yEVay7By_lBfmQC7oikEUpHwwAyZAT5qQLG8trJKhOFqIbD9XVxUKSVV8HmflB_t89-VPski6swjW4UcbdHFEJ8tjUDwUmQYG6yfx2IrIae92KKZ9VfRVKCfgEBF6hPaJu50BSgcQXI87PL42pc5Hb7KPyhI1LjIV0KWrb1iQV75-CPoLqHfADc6QT02IbgmaW9RMncQig8Ic09ZsgkbCT-3ck03_x22L41sQ1mfjfPRDOMnaw55gbbfIPnxbXe3KJDkJA8-M3LXlCGLPCCLC8wecjP2VgF7ObNHMW7HHgWPndADpbS2pLRqduPoNEOLdjyiquE9sb9f2H_mX0zqhXV8XqVZvD8vQG3D2Z7ZLcTgLIeVU_Db0YzOGv7NbbGtaiFuXEK3WZ20tk_NB_W9YEy1qdk0x1uW3oQsfjew6esUeU4cbrHfPKDc4jPM5tJrzjSBAXAbgDJ7sWidXZGw5qIHbOJdadWHNrNAikIQMXJcSNfDCPl5MJQxfhg8yZo9iclAyqMQX74olwQUfE4YYU8alqQGB59KpwF5DOPPb8TnXgjuXluktb2zj2dQqdzTcaxgi5UbkDDY1FtsCksH3AgCSukl5Ca5rrm4S2FSH4Kk5q5q6nOlF5ryXoxBF65o1uWrvYdJsqXRSAx4WzbjgAi-JvlTnhfIJBsryzjWNvUffyxle7sHUkx5RRIlsDXjce3SuqQZazHlW61r6vqlmbaQHgtTnPr8nqcQBvAPjxkyKn9HbkRp97L7J43lf2R9qtc6sN7eTN3QmsloHPTTsr_MP3Vk-cpRAE4Wv1UHek6bQLaruGsfiDCU9DdPxL9iiMD1nRvCmrKSAL_jBl4dj42CF33Bre8FhAfW8yK16nm8Zcm2Us1do1GEMrPiSUMcAc65lPVJzPeL37jyIslC4wubbtIDW183JVYUg008caegXVsL6RMcidqSvvNozVRuq9ARAGAu6316d4LdX_3EaIvQNLT-KfYaFP6CO2_7bwgXOpmifX18jjdgO78T5Gr2nODGoI1KEWWr6uJA1g7c1bMA0xy5oWseekkRJ8iX8384j1e2AeQ0oY4WEWIqxiNfT7w-lAVx_RWGLKNqV-D7nfV7HelZxN7UxajE6gaJm1l4JejMYfwX4lYZG_w9mu13SjoCFxflTtAr9aLkE4h3Sv4_JEFmmWdcCSjs2EuF4COlOyWdZYsTeSYA0pGrGyVnwwKRJLDFeGKxmYC9db7sJeFa3n_UpUCAUC3iaTw8J_MwgST8kroSXDj1ZgS83ZwRyoAuE5YrjaukBNhqkdjjytE271Q98_hinccSdu9N-d7TRAl1XkzI5LLYWmV-hj7cacK3jS9tjMsRmKueN6PFN_k5TNQBTBRQ1ECGoMexFqOX_kVpvkJl60ihTHSvfb7qjqjATwUoWw73kmlpvQ9xmiiQPiRdOD8EiAqT_gKDEAU77TdGqJ4K_mC0]--></g></svg>