<svg xmlns="http://www.w3.org/2000/svg" xmlns:xlink="http://www.w3.org/1999/xlink" contentStyleType="text/css" height="215px" preserveAspectRatio="none" style="width:626px;height:215px;background:#FFFFFF;" version="1.1" viewBox="0 0 626 215" width="626px" zoomAndPan="magnify"><defs/><g><text fill="#000000" font-family="sans-serif" font-size="14" font-weight="bold" lengthAdjust="spacing" textLength="185.5684" x="213.3101" y="22.9951">Collatz sequence for 96</text><!--entity 96--><g id="elem_96"><rect fill="#F1F1F1" height="52.5938" rx="2.5" ry="2.5" style="stroke:#181818;stroke-width:0.5;" width="46.1885" x="7" y="44.2969"/><text fill="#000000" font-family="sans-serif" font-size="14" font-style="italic" lengthAdjust="spacing" textLength="26.1885" x="17" y="67.292">&#171;0&#187;</text><text fill="#000000" font-family="sans-serif" font-size="14" lengthAdjust="spacing" textLength="17.8145" x="21.187" y="83.5889">96</text></g><!--entity 48--><g id="elem_48"><rect fill="#F1F1F1" height="52.5938" rx="2.5" ry="2.5" style="stroke:#181818;stroke-width:0.5;" width="46.1885" x="88" y="44.2969"/><text fill="#000000" font-family="sans-serif" font-size="14" font-style="italic" lengthAdjust="spacing" textLength="26.1885" x="98" y="67.292">&#171;1&#187;</text><text fill="#000000" font-family="sans-serif" font-size="14" lengthAdjust="spacing" textLength="17.8145" x="102.187" y="83.5889">48</text></g><!--entity 24--><g id="elem_24"><rect fill="#F1F1F1" height="52.5938" rx="2.5" ry="2.5" style="stroke:#181818;stroke-width:0.5;" width="46.1885" x="169" y="44.2969"/><text fill="#000000" font-family="sans-serif" font-size="14" font-style="italic" lengthAdjust="spacing" textLength="26.1885" x="179" y="67.292">&#171;2&#187;</text><text fill="#000000" font-family="sans-serif" font-size="14" lengthAdjust="spacing" textLength="17.8145" x="183.187" y="83.5889">24</text></g><!--entity 12--><g id="elem_12"><rect fill="#F1F1F1" height="52.5938" rx="2.5" ry="2.5" style="stroke:#181818;stroke-width:0.5;" width="46.1885" x="250" y="44.2969"/><text fill="#000000" font-family="sans-serif" font-size="14" font-style="italic" lengthAdjust="spacing" textLength="26.1885" x="260" y="67.292">&#171;3&#187;</text><text fill="#000000" font-family="sans-serif" font-size="14" lengthAdjust="spacing" textLength="17.8145" x="264.187" y="83.5889">12</text></g><!--entity 6--><g id="elem_6"><rect fill="#F1F1F1" height="52.5938" rx="2.5" ry="2.5" style="stroke:#181818;stroke-width:0.5;" width="46.1885" x="331" y="44.2969"/><text fill="#000000" font-family="sans-serif" font-size="14" font-style="italic" lengthAdjust="spacing" textLength="26.1885" x="341" y="67.292">&#171;4&#187;</text><text fill="#000000" font-family="sans-serif" font-size="14" lengthAdjust="spacing" textLength="8.9072" x="349.6406" y="83.5889">6</text></g><!--entity 3--><g id="elem_3"><rect fill="#F1F1F1" height="52.5938" rx="2.5" ry="2.5" style="stroke:#181818;stroke-width:0.5;" width="46.1885" x="412" y="44.2969"/><text fill="#000000" font-family="sans-serif" font-size="14" font-style="italic" lengthAdjust="spacing" textLength="26.1885" x="422" y="67.292">&#171;5&#187;</text><text fill="#000000" font-family="sans-serif" font-size="14" lengthAdjust="spacing" textLength="8.9072" x="430.6406" y="83.5889">3</text></g><!--entity 10--><g id="elem_10"><rect fill="#F1F1F1" height="52.5938" rx="2.5" ry="2.5" style="stroke:#181818;stroke-width:0.5;" width="46.1885" x="493" y="44.2969"/><text fill="#000000" font-family="sans-serif" font-size="14" font-style="italic" lengthAdjust="spacing" textLength="26.1885" x="503" y="67.292">&#171;6&#187;</text><text fill="#000000" font-family="sans-serif" font-size="14" lengthAdjust="spacing" textLength="17.8145" x="507.187" y="83.5889">10</text></g><!--entity 5--><g id="elem_5"><rect fill="#F1F1F1" height="52.5938" rx="2.5" ry="2.5" style="stroke:#181818;stroke-width:0.5;" width="46.1885" x="574" y="44.2969"/><text fill="#000000" font-family="sans-serif" font-size="14" font-style="italic" lengthAdjust="spacing" textLength="26.1885" x="584" y="67.292">&#171;7&#187;</text><text fill="#000000" font-family="sans-serif" font-size="14" lengthAdjust="spacing" textLength="8.9072" x="592.6406" y="83.5889">5</text></g><!--entity 16--><g id="elem_16"><rect fill="#F1F1F1" height="52.5938" rx="2.5" ry="2.5" style="stroke:#181818;stroke-width:0.5;" width="46.1885" x="574" y="157.2969"/><text fill="#000000" font-family="sans-serif" font-size="14" font-style="italic" lengthAdjust="spacing" textLength="26.1885" x="584" y="180.292">&#171;8&#187;</text><text fill="#000000" font-family="sans-serif" font-size="14" lengthAdjust="spacing" textLength="17.8145" x="588.187" y="196.5889">16</text></g><!--entity 8--><g id="elem_8"><rect fill="#F1F1F1" height="52.5938" rx="2.5" ry="2.5" style="stroke:#181818;stroke-width:0.5;" width="46.1885" x="493" y="157.2969"/><text fill="#000000" font-family="sans-serif" font-size="14" font-style="italic" lengthAdjust="spacing" textLength="26.1885" x="503" y="180.292">&#171;9&#187;</text><text fill="#000000" font-family="sans-serif" font-size="14" lengthAdjust="spacing" textLength="8.9072" x="511.6406" y="196.5889">8</text></g><!--entity 4--><g id="elem_4"><rect fill="#F1F1F1" height="52.5938" rx="2.5" ry="2.5" style="stroke:#181818;stroke-width:0.5;" width="55.0957" x="402.5" y="157.2969"/><text fill="#000000" font-family="sans-serif" font-size="14" font-style="italic" lengthAdjust="spacing" textLength="35.0957" x="412.5" y="180.292">&#171;10&#187;</text><text fill="#000000" font-family="sans-serif" font-size="14" lengthAdjust="spacing" textLength="8.9072" x="425.5942" y="196.5889">4</text></g><!--entity 2--><g id="elem_2"><rect fill="#F1F1F1" height="52.5938" rx="2.5" ry="2.5" style="stroke:#181818;stroke-width:0.5;" width="55.0957" x="312.5" y="157.2969"/><text fill="#000000" font-family="sans-serif" font-size="14" font-style="italic" lengthAdjust="spacing" textLength="35.0957" x="322.5" y="180.292">&#171;11&#187;</text><text fill="#000000" font-family="sans-serif" font-size="14" lengthAdjust="spacing" textLength="8.9072" x="335.5942" y="196.5889">2</text></g><!--entity 1--><g id="elem_1"><rect fill="#F1F1F1" height="52.5938" rx="2.5" ry="2.5" style="stroke:#181818;stroke-width:0.5;" width="55.0957" x="222.5" y="157.2969"/><text fill="#000000" font-family="sans-serif" font-size="14" font-style="italic" lengthAdjust="spacing" textLength="35.0957" x="232.5" y="180.292">&#171;12&#187;</text><text fill="#000000" font-family="sans-serif" font-size="14" lengthAdjust="spacing" textLength="8.9072" x="245.5942" y="196.5889">1</text></g><!--link 96 to 48--><g id="link_96_48"><path d="M53.1,70.7969 C64.71,70.7969 70.32,70.7969 81.93,70.7969 " fill="none" id="96-to-48" style="stroke:#181818;stroke-width:1.0;"/><polygon fill="#181818" points="87.93,70.7969,78.93,66.7969,82.93,70.7969,78.93,74.7969,87.93,70.7969" style="stroke:#181818;stroke-width:1.0;"/></g><!--link 48 to 24--><g id="link_48_24"><path d="M134.1,70.7969 C145.71,70.7969 151.32,70.7969 162.93,70.7969 " fill="none" id="48-to-24" style="stroke:#181818;stroke-width:1.0;"/><polygon fill="#181818" points="168.93,70.7969,159.93,66.7969,163.93,70.7969,159.93,74.7969,168.93,70.7969" style="stroke:#181818;stroke-width:1.0;"/></g><!--link 24 to 12--><g id="link_24_12"><path d="M215.1,70.7969 C226.71,70.7969 232.32,70.7969 243.93,70.7969 " fill="none" id="24-to-12" style="stroke:#181818;stroke-width:1.0;"/><polygon fill="#181818" points="249.93,70.7969,240.93,66.7969,244.93,70.7969,240.93,74.7969,249.93,70.7969" style="stroke:#181818;stroke-width:1.0;"/></g><!--link 12 to 6--><g id="link_12_6"><path d="M296.1,70.7969 C307.71,70.7969 313.32,70.7969 324.93,70.7969 " fill="none" id="12-to-6" style="stroke:#181818;stroke-width:1.0;"/><polygon fill="#181818" points="330.93,70.7969,321.93,66.7969,325.93,70.7969,321.93,74.7969,330.93,70.7969" style="stroke:#181818;stroke-width:1.0;"/></g><!--link 6 to 3--><g id="link_6_3"><path d="M377.1,70.7969 C388.71,70.7969 394.32,70.7969 405.93,70.7969 " fill="none" id="6-to-3" style="stroke:#181818;stroke-width:1.0;"/><polygon fill="#181818" points="411.93,70.7969,402.93,66.7969,406.93,70.7969,402.93,74.7969,411.93,70.7969" style="stroke:#181818;stroke-width:1.0;"/></g><!--link 3 to 10--><g id="link_3_10"><path d="M458.1,70.7969 C469.71,70.7969 475.32,70.7969 486.93,70.7969 " fill="none" id="3-to-10" style="stroke:#181818;stroke-width:1.0;"/><polygon fill="#181818" points="492.93,70.7969,483.93,66.7969,487.93,70.7969,483.93,74.7969,492.93,70.7969" style="stroke:#181818;stroke-width:1.0;"/></g><!--link 10 to 5--><g id="link_10_5"><path d="M539.1,70.7969 C550.71,70.7969 556.32,70.7969 567.93,70.7969 " fill="none" id="10-to-5" style="stroke:#181818;stroke-width:1.0;"/><polygon fill="#181818" points="573.93,70.7969,564.93,66.7969,568.93,70.7969,564.93,74.7969,573.93,70.7969" style="stroke:#181818;stroke-width:1.0;"/></g><!--link 5 to 16--><g id="link_5_16"><path d="M597,97.5369 C597,115.4769 597,133.2869 597,151.1869 " fill="none" id="5-to-16" style="stroke:#181818;stroke-width:1.0;"/><polygon fill="#181818" points="597,157.1869,601,148.1869,597,152.1869,593,148.1869,597,157.1869" style="stroke:#181818;stroke-width:1.0;"/></g><!--reverse link 8 to 16--><g id="link_8_16"><path d="M545.1,183.7969 C556.71,183.7969 562.32,183.7969 573.93,183.7969 " fill="none" id="8-backto-16" style="stroke:#181818;stroke-width:1.0;"/><polygon fill="#181818" points="539.1,183.7969,548.1,187.7969,544.1,183.7969,548.1,179.7969,539.1,183.7969" style="stroke:#181818;stroke-width:1.0;"/></g><!--reverse link 4 to 8--><g id="link_4_8"><path d="M463.55,183.7969 C475.27,183.7969 480.99,183.7969 492.71,183.7969 " fill="none" id="4-backto-8" style="stroke:#181818;stroke-width:1.0;"/><polygon fill="#181818" points="457.55,183.7969,466.55,187.7969,462.55,183.7969,466.55,179.7969,457.55,183.7969" style="stroke:#181818;stroke-width:1.0;"/></g><!--reverse link 2 to 4--><g id="link_2_4"><path d="M373.77,183.7969 C385.28,183.7969 390.78,183.7969 402.29,183.7969 " fill="none" id="2-backto-4" style="stroke:#181818;stroke-width:1.0;"/><polygon fill="#181818" points="367.77,183.7969,376.77,187.7969,372.77,183.7969,376.77,179.7969,367.77,183.7969" style="stroke:#181818;stroke-width:1.0;"/></g><!--reverse link 1 to 2--><g id="link_1_2"><path d="M283.77,183.7969 C295.28,183.7969 300.78,183.7969 312.29,183.7969 " fill="none" id="1-backto-2" style="stroke:#181818;stroke-width:1.0;"/><polygon fill="#181818" points="277.77,183.7969,286.77,187.7969,282.77,183.7969,286.77,179.7969,277.77,183.7969" style="stroke:#181818;stroke-width:1.0;"/></g><!--SRC=[hLVPSkeu47tdApgkf08p9F66CLD9NkP3A64BKCMM64c6oTJz-6ajDYPiVhWyn8xxz55lKhSUTb8Kj6maXST2S4uBlQHSCyse6ZzoKjDe2lOPuxDa4W5CyCa8yEVay7By_lBfmQC7oikEUpHwwAyZAT5qQLG8trJKhOFqIbD9XVxUKSVV8HmflB_t89-VPski6swjW4UcbdHFEJ8tjUDwUmQYG6yfx2IrIae92KKZ9VfRVKCfgEBF6hPaJu50BSgcQXI87PL42pc5Hb7KPyhI1LjIV0KWrb1iQV75-CPoLqHfADc6QT02IbgmaW9RMncQig8Ic09ZsgkbCT-3ck03_x22L41sQ1mfjfPRDOMnaw55gbbfIPnxbXe3KJDkJA8-M3LXlCGLPCCLC8wecjP2VgF7ObNHMW7HHgWPndADpbS2pLRqduPoNEOLdjyiquE9sb9f2H_mX0zqhXV8XqVZvD8vQG3D2Z7ZLcTgLIeVU_Db0YzOGv7NbbGtaiFuXEK3WZ20tk_NB_W9YEy1qdk0x1uW3oQsfjew6esUeU4cbrHfPKDc4jPM5tJrzjSBAXAbgDJ7sWidXZGw5qIHbOJdadWHNrNAikIQMXJcSNfDCPl5MJQxfhg8yZo9iclAyqMQX74olwQUfE4YYU8alqQGB59KpwF5DOPPb8TnXgjuXluktb2zj2dQqdzTcaxgi5UbkDDY1FtsCksH3AgCSukl5Ca5rrm4S2FSH4Kk5q5q6nOlF5ryXoxBF65o1uWrvYdJsqXRSAx4WzbjgAi-JvlTnhfIJBsryzjWNvUffyxle7sHUkx5RRIlsDXjce3SuqQZazHlW61r6vqlmbaQHgtTnPr8nqcQBvAPjxkyKn9HbkRp97L7J43lf2R9qtc6sN7eTN3QmsloHPTTsr_MP3Vk-cpRAE4Wv1UHek6bQLaruGsfiDCU9DdPxL9iiMD1nRvCmrKSAL_jBl4dj42CF33Bre8FhAfW8yK16nm8Zcm2Us1do1GEMrPiSUMcAc65lPVJzPeL37jyIslC4wubbtIDW183JVYUg008caegXVsL6RMcidqSvvNozVRuq9ARAGAu6316d4LdX_3EaIvQNLT-KfYaFP6CO2_7bwgXOpmifX18jjdgO78T5Gr2nODGoI1KEWWr6uJA1g7c1bMA0xy5oWseekkRJ8iX8384j1e2AeQ0oY4WEWIqxiNfT7w-lAVx_RWGLKNqV-D7nfV7HelZxN7UxajE6gaJm1l4JejMYfwX4lYZG_w9mu13SjoCFxflTtAr9aLkE4h3Sv4_JEFmmWdcCSjs2EuF4COlOyWdZYsTeSYA0pGrGyVnwwKRJLDFeGKxmYC9db7sJeFa3n_UpUCAUC3iaTw8J_MwgST8kroSXDj1ZgS83ZwRyoAuE5YrjaukBNhqkdjjytE271Q98_hinccSdu9N-d7TRAl1XkzI5LLYWmV-hj7cacK3jS9tjMsRmKueN6PFN_k5TNQBTBRQ1ECGoMexFqOX_kVpvkJl60ihTHSvfb7qjqjATwUoWw73kmlpvQ9xmiiQPiRdOD8EiAqT_gKDEAU77TdGqJ4K_mC0]--></g></svg>