<svg xmlns="http://www.w3.org/2000/svg" xmlns:xlink="http://www.w3.org/1999/xlink" contentStyleType="text/css" height="215px" preserveAspectRatio="none" style="width:633px;height:215px;background:#FFFFFF;" version="1.1" viewBox="0 0 633 215" width="633px" zoomAndPan="magnify"><defs/><g><text fill="#000000" font-family="sans-serif" font-size="14" font-weight="bold" lengthAdjust="spacing" textLength="185.5684" x="216.8267" y="22.9951">Collatz sequence for 75</text><!--entity 75--><g id="elem_75"><rect fill="#F1F1F1" height="52.5938" rx="2.5" ry="2.5" style="stroke:#181818;stroke-width:0.5;" width="46.1885" x="7" y="44.2969"/><text fill="#000000" font-family="sans-serif" font-size="14" font-style="italic" lengthAdjust="spacing" textLength="26.1885" x="17" y="67.292">&#171;0&#187;</text><text fill="#000000" font-family="sans-serif" font-size="14" lengthAdjust="spacing" textLength="17.8145" x="21.187" y="83.5889">75</text></g><!--entity 226--><g id="elem_226"><rect fill="#F1F1F1" height="52.5938" rx="2.5" ry="2.5" style="stroke:#181818;stroke-width:0.5;" width="46.7217" x="88.5" y="44.2969"/><text fill="#000000" font-family="sans-serif" font-size="14" font-style="italic" lengthAdjust="spacing" textLength="26.1885" x="98.7666" y="67.292">&#171;1&#187;</text><text fill="#000000" font-family="sans-serif" font-size="14" lengthAdjust="spacing" textLength="26.7217" x="98.5" y="83.5889">226</text></g><!--entity 113--><g id="elem_113"><rect fill="#F1F1F1" height="52.5938" rx="2.5" ry="2.5" style="stroke:#181818;stroke-width:0.5;" width="46.7217" x="170.5" y="44.2969"/><text fill="#000000" font-family="sans-serif" font-size="14" font-style="italic" lengthAdjust="spacing" textLength="26.1885" x="180.7666" y="67.292">&#171;2&#187;</text><text fill="#000000" font-family="sans-serif" font-size="14" lengthAdjust="spacing" textLength="26.7217" x="180.5" y="83.5889">113</text></g><!--entity 340--><g id="elem_340"><rect fill="#F1F1F1" height="52.5938" rx="2.5" ry="2.5" style="stroke:#181818;stroke-width:0.5;" width="46.7217" x="252.5" y="44.2969"/><text fill="#000000" font-family="sans-serif" font-size="14" font-style="italic" lengthAdjust="spacing" textLength="26.1885" x="262.7666" y="67.292">&#171;3&#187;</text><text fill="#000000" font-family="sans-serif" font-size="14" lengthAdjust="spacing" textLength="26.7217" x="262.5" y="83.5889">340</text></g><!--entity 170--><g id="elem_170"><rect fill="#F1F1F1" height="52.5938" rx="2.5" ry="2.5" style="stroke:#181818;stroke-width:0.5;" width="46.7217" x="334.5" y="44.2969"/><text fill="#000000" font-family="sans-serif" font-size="14" font-style="italic" lengthAdjust="spacing" textLength="26.1885" x="344.7666" y="67.292">&#171;4&#187;</text><text fill="#000000" font-family="sans-serif" font-size="14" lengthAdjust="spacing" textLength="26.7217" x="344.5" y="83.5889">170</text></g><!--entity 85--><g id="elem_85"><rect fill="#F1F1F1" height="52.5938" rx="2.5" ry="2.5" style="stroke:#181818;stroke-width:0.5;" width="46.1885" x="417" y="44.2969"/><text fill="#000000" font-family="sans-serif" font-size="14" font-style="italic" lengthAdjust="spacing" textLength="26.1885" x="427" y="67.292">&#171;5&#187;</text><text fill="#000000" font-family="sans-serif" font-size="14" lengthAdjust="spacing" textLength="17.8145" x="431.187" y="83.5889">85</text></g><!--entity 256--><g id="elem_256"><rect fill="#F1F1F1" height="52.5938" rx="2.5" ry="2.5" style="stroke:#181818;stroke-width:0.5;" width="46.7217" x="498.5" y="44.2969"/><text fill="#000000" font-family="sans-serif" font-size="14" font-style="italic" lengthAdjust="spacing" textLength="26.1885" x="508.7666" y="67.292">&#171;6&#187;</text><text fill="#000000" font-family="sans-serif" font-size="14" lengthAdjust="spacing" textLength="26.7217" x="508.5" y="83.5889">256</text></g><!--entity 128--><g id="elem_128"><rect fill="#F1F1F1" height="52.5938" rx="2.5" ry="2.5" style="stroke:#181818;stroke-width:0.5;" width="46.7217" x="580.5" y="44.2969"/><text fill="#000000" font-family="sans-serif" font-size="14" font-style="italic" lengthAdjust="spacing" textLength="26.1885" x="590.7666" y="67.292">&#171;7&#187;</text><text fill="#000000" font-family="sans-serif" font-size="14" lengthAdjust="spacing" textLength="26.7217" x="590.5" y="83.5889">128</text></g><!--entity 64--><g id="elem_64"><rect fill="#F1F1F1" height="52.5938" rx="2.5" ry="2.5" style="stroke:#181818;stroke-width:0.5;" width="46.1885" x="581" y="157.2969"/><text fill="#000000" font-family="sans-serif" font-size="14" font-style="italic" lengthAdjust="spacing" textLength="26.1885" x="591" y="180.292">&#171;8&#187;</text><text fill="#000000" font-family="sans-serif" font-size="14" lengthAdjust="spacing" textLength="17.8145" x="595.187" y="196.5889">64</text></g><!--entity 32--><g id="elem_32"><rect fill="#F1F1F1" height="52.5938" rx="2.5" ry="2.5" style="stroke:#181818;stroke-width:0.5;" width="46.1885" x="500" y="157.2969"/><text fill="#000000" font-family="sans-serif" font-size="14" font-style="italic" lengthAdjust="spacing" textLength="26.1885" x="510" y="180.292">&#171;9&#187;</text><text fill="#000000" font-family="sans-serif" font-size="14" lengthAdjust="spacing" textLength="17.8145" x="514.187" y="196.5889">32</text></g><!--entity 16--><g id="elem_16"><rect fill="#F1F1F1" height="52.5938" rx="2.5" ry="2.5" style="stroke:#181818;stroke-width:0.5;" width="55.0957" x="409.5" y="157.2969"/><text fill="#000000" font-family="sans-serif" font-size="14" font-style="italic" lengthAdjust="spacing" textLength="35.0957" x="419.5" y="180.292">&#171;10&#187;</text><text fill="#000000" font-family="sans-serif" font-size="14" lengthAdjust="spacing" textLength="17.8145" x="428.1406" y="196.5889">16</text></g><!--entity 8--><g id="elem_8"><rect fill="#F1F1F1" height="52.5938" rx="2.5" ry="2.5" style="stroke:#181818;stroke-width:0.5;" width="55.0957" x="319.5" y="157.2969"/><text fill="#000000" font-family="sans-serif" font-size="14" font-style="italic" lengthAdjust="spacing" textLength="35.0957" x="329.5" y="180.292">&#171;11&#187;</text><text fill="#000000" font-family="sans-serif" font-size="14" lengthAdjust="spacing" textLength="8.9072" x="342.5942" y="196.5889">8</text></g><!--entity 4--><g id="elem_4"><rect fill="#F1F1F1" height="52.5938" rx="2.5" ry="2.5" style="stroke:#181818;stroke-width:0.5;" width="55.0957" x="229.5" y="157.2969"/><text fill="#000000" font-family="sans-serif" font-size="14" font-style="italic" lengthAdjust="spacing" textLength="35.0957" x="239.5" y="180.292">&#171;12&#187;</text><text fill="#000000" font-family="sans-serif" font-size="14" lengthAdjust="spacing" textLength="8.9072" x="252.5942" y="196.5889">4</text></g><!--entity 2--><g id="elem_2"><rect fill="#F1F1F1" height="52.5938" rx="2.5" ry="2.5" style="stroke:#181818;stroke-width:0.5;" width="55.0957" x="139.5" y="157.2969"/><text fill="#000000" font-family="sans-serif" font-size="14" font-style="italic" lengthAdjust="spacing" textLength="35.0957" x="149.5" y="180.292">&#171;13&#187;</text><text fill="#000000" font-family="sans-serif" font-size="14" lengthAdjust="spacing" textLength="8.9072" x="162.5942" y="196.5889">2</text></g><!--entity 1--><g id="elem_1"><rect fill="#F1F1F1" height="52.5938" rx="2.5" ry="2.5" style="stroke:#181818;stroke-width:0.5;" width="55.0957" x="49.5" y="157.2969"/><text fill="#000000" font-family="sans-serif" font-size="14" font-style="italic" lengthAdjust="spacing" textLength="35.0957" x="59.5" y="180.292">&#171;14&#187;</text><text fill="#000000" font-family="sans-serif" font-size="14" lengthAdjust="spacing" textLength="8.9072" x="72.5942" y="196.5889">1</text></g><!--link 75 to 226--><g id="link_75_226"><path d="M53.06,70.7969 C64.73,70.7969 70.39,70.7969 82.06,70.7969 " fill="none" id="75-to-226" style="stroke:#181818;stroke-width:1.0;"/><polygon fill="#181818" points="88.06,70.7969,79.06,66.7969,83.06,70.7969,79.06,74.7969,88.06,70.7969" style="stroke:#181818;stroke-width:1.0;"/></g><!--link 226 to 113--><g id="link_226_113"><path d="M135.7,70.7969 C147.24,70.7969 152.78,70.7969 164.32,70.7969 " fill="none" id="226-to-113" style="stroke:#181818;stroke-width:1.0;"/><polygon fill="#181818" points="170.32,70.7969,161.32,66.7969,165.32,70.7969,161.32,74.7969,170.32,70.7969" style="stroke:#181818;stroke-width:1.0;"/></g><!--link 113 to 340--><g id="link_113_340"><path d="M217.7,70.7969 C229.24,70.7969 234.78,70.7969 246.32,70.7969 " fill="none" id="113-to-340" style="stroke:#181818;stroke-width:1.0;"/><polygon fill="#181818" points="252.32,70.7969,243.32,66.7969,247.32,70.7969,243.32,74.7969,252.32,70.7969" style="stroke:#181818;stroke-width:1.0;"/></g><!--link 340 to 170--><g id="link_340_170"><path d="M299.7,70.7969 C311.24,70.7969 316.78,70.7969 328.32,70.7969 " fill="none" id="340-to-170" style="stroke:#181818;stroke-width:1.0;"/><polygon fill="#181818" points="334.32,70.7969,325.32,66.7969,329.32,70.7969,325.32,74.7969,334.32,70.7969" style="stroke:#181818;stroke-width:1.0;"/></g><!--link 170 to 85--><g id="link_170_85"><path d="M381.7,70.7969 C393.39,70.7969 399.08,70.7969 410.77,70.7969 " fill="none" id="170-to-85" style="stroke:#181818;stroke-width:1.0;"/><polygon fill="#181818" points="416.77,70.7969,407.77,66.7969,411.77,70.7969,407.77,74.7969,416.77,70.7969" style="stroke:#181818;stroke-width:1.0;"/></g><!--link 85 to 256--><g id="link_85_256"><path d="M463.06,70.7969 C474.73,70.7969 480.39,70.7969 492.06,70.7969 " fill="none" id="85-to-256" style="stroke:#181818;stroke-width:1.0;"/><polygon fill="#181818" points="498.06,70.7969,489.06,66.7969,493.06,70.7969,489.06,74.7969,498.06,70.7969" style="stroke:#181818;stroke-width:1.0;"/></g><!--link 256 to 128--><g id="link_256_128"><path d="M545.7,70.7969 C557.24,70.7969 562.78,70.7969 574.32,70.7969 " fill="none" id="256-to-128" style="stroke:#181818;stroke-width:1.0;"/><polygon fill="#181818" points="580.32,70.7969,571.32,66.7969,575.32,70.7969,571.32,74.7969,580.32,70.7969" style="stroke:#181818;stroke-width:1.0;"/></g><!--link 128 to 64--><g id="link_128_64"><path d="M604,97.5369 C604,115.4769 604,133.2869 604,151.1869 " fill="none" id="128-to-64" style="stroke:#181818;stroke-width:1.0;"/><polygon fill="#181818" points="604,157.1869,608,148.1869,604,152.1869,600,148.1869,604,157.1869" style="stroke:#181818;stroke-width:1.0;"/></g><!--reverse link 32 to 64--><g id="link_32_64"><path d="M552.1,183.7969 C563.71,183.7969 569.32,183.7969 580.93,183.7969 " fill="none" id="32-backto-64" style="stroke:#181818;stroke-width:1.0;"/><polygon fill="#181818" points="546.1,183.7969,555.1,187.7969,551.1,183.7969,555.1,179.7969,546.1,183.7969" style="stroke:#181818;stroke-width:1.0;"/></g><!--reverse link 16 to 32--><g id="link_16_32"><path d="M470.55,183.7969 C482.27,183.7969 487.99,183.7969 499.71,183.7969 " fill="none" id="16-backto-32" style="stroke:#181818;stroke-width:1.0;"/><polygon fill="#181818" points="464.55,183.7969,473.55,187.7969,469.55,183.7969,473.55,179.7969,464.55,183.7969" style="stroke:#181818;stroke-width:1.0;"/></g><!--reverse link 8 to 16--><g id="link_8_16"><path d="M380.77,183.7969 C392.28,183.7969 397.78,183.7969 409.29,183.7969 " fill="none" id="8-backto-16" style="stroke:#181818;stroke-width:1.0;"/><polygon fill="#181818" points="374.77,183.7969,383.77,187.7969,379.77,183.7969,383.77,179.7969,374.77,183.7969" style="stroke:#181818;stroke-width:1.0;"/></g><!--reverse link 4 to 8--><g id="link_4_8"><path d="M290.77,183.7969 C302.28,183.7969 307.78,183.7969 319.29,183.7969 " fill="none" id="4-backto-8" style="stroke:#181818;stroke-width:1.0;"/><polygon fill="#181818" points="284.77,183.7969,293.77,187.7969,289.77,183.7969,293.77,179.7969,284.77,183.7969" style="stroke:#181818;stroke-width:1.0;"/></g><!--reverse link 2 to 4--><g id="link_2_4"><path d="M200.77,183.7969 C212.28,183.7969 217.78,183.7969 229.29,183.7969 " fill="none" id="2-backto-4" style="stroke:#181818;stroke-width:1.0;"/><polygon fill="#181818" points="194.77,183.7969,203.77,187.7969,199.77,183.7969,203.77,179.7969,194.77,183.7969" style="stroke:#181818;stroke-width:1.0;"/></g><!--reverse link 1 to 2--><g id="link_1_2"><path d="M110.77,183.7969 C122.28,183.7969 127.78,183.7969 139.29,183.7969 " fill="none" id="1-backto-2" style="stroke:#181818;stroke-width:1.0;"/><polygon fill="#181818" points="104.77,183.7969,113.77,187.7969,109.77,183.7969,113.77,179.7969,104.77,183.7969" style="stroke:#181818;stroke-width:1.0;"/></g><!--SRC=[hLVPSkeu47tdApgkf08p9F66CLD9NkP3A64BKCMM64c6oTJz-6ajDYPiVhWyn8xxz55lKhSUTb8Kj6maXST2S4uBlQHSCyse6ZzoKjDe2lOPuxDa4W5CyCa8yEVay7By_lBfmQC7oikEUpHwwAyZAT5qQLG8trJKhOFqIbD9XVxUKSVV8HmflB_t89-VPski6swjW4UcbdHFEJ8tjUDwUmQYG6yfx2IrIae92KKZ9VfRVKCfgEBF6hPaJu50BSgcQXI87PL42pc5Hb7KPyhI1LjIV0KWrb1iQV75-CPoLqHfADc6QT02IbgmaW9RMncQig8Ic09ZsgkbCT-3ck03_x22L41sQ1mfjfPRDOMnaw55gbbfIPnxbXe3KJDkJA8-M3LXlCGLPCCLC8wecjP2VgF7ObNHMW7HHgWPndADpbS2pLRqduPoNEOLdjyiquE9sb9f2H_mX0zqhXV8XqVZvD8vQG3D2Z7ZLcTgLIeVU_Db0YzOGv7NbbGtaiFuXEK3WZ20tk_NB_W9YEy1qdk0x1uW3oQsfjew6esUeU4cbrHfPKDc4jPM5tJrzjSBAXAbgDJ7sWidXZGw5qIHbOJdadWHNrNAikIQMXJcSNfDCPl5MJQxfhg8yZo9iclAyqMQX74olwQUfE4YYU8alqQGB59KpwF5DOPPb8TnXgjuXluktb2zj2dQqdzTcaxgi5UbkDDY1FtsCksH3AgCSukl5Ca5rrm4S2FSH4Kk5q5q6nOlF5ryXoxBF65o1uWrvYdJsqXRSAx4WzbjgAi-JvlTnhfIJBsryzjWNvUffyxle7sHUkx5RRIlsDXjce3SuqQZazHlW61r6vqlmbaQHgtTnPr8nqcQBvAPjxkyKn9HbkRp97L7J43lf2R9qtc6sN7eTN3QmsloHPTTsr_MP3Vk-cpRAE4Wv1UHek6bQLaruGsfiDCU9DdPxL9iiMD1nRvCmrKSAL_jBl4dj42CF33Bre8FhAfW8yK16nm8Zcm2Us1do1GEMrPiSUMcAc65lPVJzPeL37jyIslC4wubbtIDW183JVYUg008caegXVsL6RMcidqSvvNozVRuq9ARAGAu6316d4LdX_3EaIvQNLT-KfYaFP6CO2_7bwgXOpmifX18jjdgO78T5Gr2nODGoI1KEWWr6uJA1g7c1bMA0xy5oWseekkRJ8iX8384j1e2AeQ0oY4WEWIqxiNfT7w-lAVx_RWGLKNqV-D7nfV7HelZxN7UxajE6gaJm1l4JejMYfwX4lYZG_w9mu13SjoCFxflTtAr9aLkE4h3Sv4_JEFmmWdcCSjs2EuF4COlOyWdZYsTeSYA0pGrGyVnwwKRJLDFeGKxmYC9db7sJeFa3n_UpUCAUC3iaTw8J_MwgST8kroSXDj1ZgS83ZwRyoAuE5YrjaukBNhqkdjjytE271Q98_hinccSdu9N-d7TRAl1XkzI5LLYWmV-hj7cacK3jS9tjMsRmKueN6PFN_k5TNQBTBRQ1ECGoMexFqOX_kVpvkJl60ihTHSvfb7qjqjATwUoWw73kmlpvQ9xmiiQPiRdOD8EiAqT_gKDEAU77TdGqJ4K_mC0]--></g></svg>