<svg xmlns="http://www.w3.org/2000/svg" xmlns:xlink="http://www.w3.org/1999/xlink" contentStyleType="text/css" height="215px" preserveAspectRatio="none" style="width:629px;height:215px;background:#FFFFFF;" version="1.1" viewBox="0 0 629 215" width="629px" zoomAndPan="magnify"><defs/><g><text fill="#000000" font-family="sans-serif" font-size="14" font-weight="bold" lengthAdjust="spacing" textLength="185.5684" x="214.8101" y="22.9951">Collatz sequence for 85</text><!--entity 85--><g id="elem_85"><rect fill="#F1F1F1" height="52.5938" rx="2.5" ry="2.5" style="stroke:#181818;stroke-width:0.5;" width="46.1885" x="7" y="44.2969"/><text fill="#000000" font-family="sans-serif" font-size="14" font-style="italic" lengthAdjust="spacing" textLength="26.1885" x="17" y="67.292">&#171;0&#187;</text><text fill="#000000" font-family="sans-serif" font-size="14" lengthAdjust="spacing" textLength="17.8145" x="21.187" y="83.5889">85</text></g><!--entity 256--><g id="elem_256"><rect fill="#F1F1F1" height="52.5938" rx="2.5" ry="2.5" style="stroke:#181818;stroke-width:0.5;" width="46.7217" x="88.5" y="44.2969"/><text fill="#000000" font-family="sans-serif" font-size="14" font-style="italic" lengthAdjust="spacing" textLength="26.1885" x="98.7666" y="67.292">&#171;1&#187;</text><text fill="#000000" font-family="sans-serif" font-size="14" lengthAdjust="spacing" textLength="26.7217" x="98.5" y="83.5889">256</text></g><!--entity 128--><g id="elem_128"><rect fill="#F1F1F1" height="52.5938" rx="2.5" ry="2.5" style="stroke:#181818;stroke-width:0.5;" width="46.7217" x="170.5" y="44.2969"/><text fill="#000000" font-family="sans-serif" font-size="14" font-style="italic" lengthAdjust="spacing" textLength="26.1885" x="180.7666" y="67.292">&#171;2&#187;</text><text fill="#000000" font-family="sans-serif" font-size="14" lengthAdjust="spacing" textLength="26.7217" x="180.5" y="83.5889">128</text></g><!--entity 64--><g id="elem_64"><rect fill="#F1F1F1" height="52.5938" rx="2.5" ry="2.5" style="stroke:#181818;stroke-width:0.5;" width="46.1885" x="253" y="44.2969"/><text fill="#000000" font-family="sans-serif" font-size="14" font-style="italic" lengthAdjust="spacing" textLength="26.1885" x="263" y="67.292">&#171;3&#187;</text><text fill="#000000" font-family="sans-serif" font-size="14" lengthAdjust="spacing" textLength="17.8145" x="267.187" y="83.5889">64</text></g><!--entity 32--><g id="elem_32"><rect fill="#F1F1F1" height="52.5938" rx="2.5" ry="2.5" style="stroke:#181818;stroke-width:0.5;" width="46.1885" x="334" y="44.2969"/><text fill="#000000" font-family="sans-serif" font-size="14" font-style="italic" lengthAdjust="spacing" textLength="26.1885" x="344" y="67.292">&#171;4&#187;</text><text fill="#000000" font-family="sans-serif" font-size="14" lengthAdjust="spacing" textLength="17.8145" x="348.187" y="83.5889">32</text></g><!--entity 16--><g id="elem_16"><rect fill="#F1F1F1" height="52.5938" rx="2.5" ry="2.5" style="stroke:#181818;stroke-width:0.5;" width="46.1885" x="415" y="44.2969"/><text fill="#000000" font-family="sans-serif" font-size="14" font-style="italic" lengthAdjust="spacing" textLength="26.1885" x="425" y="67.292">&#171;5&#187;</text><text fill="#000000" font-family="sans-serif" font-size="14" lengthAdjust="spacing" textLength="17.8145" x="429.187" y="83.5889">16</text></g><!--entity 8--><g id="elem_8"><rect fill="#F1F1F1" height="52.5938" rx="2.5" ry="2.5" style="stroke:#181818;stroke-width:0.5;" width="46.1885" x="496" y="44.2969"/><text fill="#000000" font-family="sans-serif" font-size="14" font-style="italic" lengthAdjust="spacing" textLength="26.1885" x="506" y="67.292">&#171;6&#187;</text><text fill="#000000" font-family="sans-serif" font-size="14" lengthAdjust="spacing" textLength="8.9072" x="514.6406" y="83.5889">8</text></g><!--entity 4--><g id="elem_4"><rect fill="#F1F1F1" height="52.5938" rx="2.5" ry="2.5" style="stroke:#181818;stroke-width:0.5;" width="46.1885" x="577" y="44.2969"/><text fill="#000000" font-family="sans-serif" font-size="14" font-style="italic" lengthAdjust="spacing" textLength="26.1885" x="587" y="67.292">&#171;7&#187;</text><text fill="#000000" font-family="sans-serif" font-size="14" lengthAdjust="spacing" textLength="8.9072" x="595.6406" y="83.5889">4</text></g><!--entity 2--><g id="elem_2"><rect fill="#F1F1F1" height="52.5938" rx="2.5" ry="2.5" style="stroke:#181818;stroke-width:0.5;" width="46.1885" x="577" y="157.2969"/><text fill="#000000" font-family="sans-serif" font-size="14" font-style="italic" lengthAdjust="spacing" textLength="26.1885" x="587" y="180.292">&#171;8&#187;</text><text fill="#000000" font-family="sans-serif" font-size="14" lengthAdjust="spacing" textLength="8.9072" x="595.6406" y="196.5889">2</text></g><!--entity 1--><g id="elem_1"><rect fill="#F1F1F1" height="52.5938" rx="2.5" ry="2.5" style="stroke:#181818;stroke-width:0.5;" width="46.1885" x="496" y="157.2969"/><text fill="#000000" font-family="sans-serif" font-size="14" font-style="italic" lengthAdjust="spacing" textLength="26.1885" x="506" y="180.292">&#171;9&#187;</text><text fill="#000000" font-family="sans-serif" font-size="14" lengthAdjust="spacing" textLength="8.9072" x="514.6406" y="196.5889">1</text></g><!--link 85 to 256--><g id="link_85_256"><path d="M53.06,70.7969 C64.73,70.7969 70.39,70.7969 82.06,70.7969 " fill="none" id="85-to-256" style="stroke:#181818;stroke-width:1.0;"/><polygon fill="#181818" points="88.06,70.7969,79.06,66.7969,83.06,70.7969,79.06,74.7969,88.06,70.7969" style="stroke:#181818;stroke-width:1.0;"/></g><!--link 256 to 128--><g id="link_256_128"><path d="M135.7,70.7969 C147.24,70.7969 152.78,70.7969 164.32,70.7969 " fill="none" id="256-to-128" style="stroke:#181818;stroke-width:1.0;"/><polygon fill="#181818" points="170.32,70.7969,161.32,66.7969,165.32,70.7969,161.32,74.7969,170.32,70.7969" style="stroke:#181818;stroke-width:1.0;"/></g><!--link 128 to 64--><g id="link_128_64"><path d="M217.7,70.7969 C229.39,70.7969 235.08,70.7969 246.77,70.7969 " fill="none" id="128-to-64" style="stroke:#181818;stroke-width:1.0;"/><polygon fill="#181818" points="252.77,70.7969,243.77,66.7969,247.77,70.7969,243.77,74.7969,252.77,70.7969" style="stroke:#181818;stroke-width:1.0;"/></g><!--link 64 to 32--><g id="link_64_32"><path d="M299.1,70.7969 C310.71,70.7969 316.32,70.7969 327.93,70.7969 " fill="none" id="64-to-32" style="stroke:#181818;stroke-width:1.0;"/><polygon fill="#181818" points="333.93,70.7969,324.93,66.7969,328.93,70.7969,324.93,74.7969,333.93,70.7969" style="stroke:#181818;stroke-width:1.0;"/></g><!--link 32 to 16--><g id="link_32_16"><path d="M380.1,70.7969 C391.71,70.7969 397.32,70.7969 408.93,70.7969 " fill="none" id="32-to-16" style="stroke:#181818;stroke-width:1.0;"/><polygon fill="#181818" points="414.93,70.7969,405.93,66.7969,409.93,70.7969,405.93,74.7969,414.93,70.7969" style="stroke:#181818;stroke-width:1.0;"/></g><!--link 16 to 8--><g id="link_16_8"><path d="M461.1,70.7969 C472.71,70.7969 478.32,70.7969 489.93,70.7969 " fill="none" id="16-to-8" style="stroke:#181818;stroke-width:1.0;"/><polygon fill="#181818" points="495.93,70.7969,486.93,66.7969,490.93,70.7969,486.93,74.7969,495.93,70.7969" style="stroke:#181818;stroke-width:1.0;"/></g><!--link 8 to 4--><g id="link_8_4"><path d="M542.1,70.7969 C553.71,70.7969 559.32,70.7969 570.93,70.7969 " fill="none" id="8-to-4" style="stroke:#181818;stroke-width:1.0;"/><polygon fill="#181818" points="576.93,70.7969,567.93,66.7969,571.93,70.7969,567.93,74.7969,576.93,70.7969" style="stroke:#181818;stroke-width:1.0;"/></g><!--link 4 to 2--><g id="link_4_2"><path d="M600,97.5369 C600,115.4769 600,133.2869 600,151.1869 " fill="none" id="4-to-2" style="stroke:#181818;stroke-width:1.0;"/><polygon fill="#181818" points="600,157.1869,604,148.1869,600,152.1869,596,148.1869,600,157.1869" style="stroke:#181818;stroke-width:1.0;"/></g><!--reverse link 1 to 2--><g id="link_1_2"><path d="M548.1,183.7969 C559.71,183.7969 565.32,183.7969 576.93,183.7969 " fill="none" id="1-backto-2" style="stroke:#181818;stroke-width:1.0;"/><polygon fill="#181818" points="542.1,183.7969,551.1,187.7969,547.1,183.7969,551.1,179.7969,542.1,183.7969" style="stroke:#181818;stroke-width:1.0;"/></g><!--SRC=[hLVPSkeu47tdApgkf08p9F66CLD9NkP3A64BKCMM64c6oTJz-6ajDYPiVhWyn8xxz55lKhSUTb8Kj6maXST2S4uBlQHSCyse6ZzoKjDe2lOPuxDa4W5CyCa8yEVay7By_lBfmQC7oikEUpHwwAyZAT5qQLG8trJKhOFqIbD9XVxUKSVV8HmflB_t89-VPski6swjW4UcbdHFEJ8tjUDwUmQYG6yfx2IrIae92KKZ9VfRVKCfgEBF6hPaJu50BSgcQXI87PL42pc5Hb7KPyhI1LjIV0KWrb1iQV75-CPoLqHfADc6QT02IbgmaW9RMncQig8Ic09ZsgkbCT-3ck03_x22L41sQ1mfjfPRDOMnaw55gbbfIPnxbXe3KJDkJA8-M3LXlCGLPCCLC8wecjP2VgF7ObNHMW7HHgWPndADpbS2pLRqduPoNEOLdjyiquE9sb9f2H_mX0zqhXV8XqVZvD8vQG3D2Z7ZLcTgLIeVU_Db0YzOGv7NbbGtaiFuXEK3WZ20tk_NB_W9YEy1qdk0x1uW3oQsfjew6esUeU4cbrHfPKDc4jPM5tJrzjSBAXAbgDJ7sWidXZGw5qIHbOJdadWHNrNAikIQMXJcSNfDCPl5MJQxfhg8yZo9iclAyqMQX74olwQUfE4YYU8alqQGB59KpwF5DOPPb8TnXgjuXluktb2zj2dQqdzTcaxgi5UbkDDY1FtsCksH3AgCSukl5Ca5rrm4S2FSH4Kk5q5q6nOlF5ryXoxBF65o1uWrvYdJsqXRSAx4WzbjgAi-JvlTnhfIJBsryzjWNvUffyxle7sHUkx5RRIlsDXjce3SuqQZazHlW61r6vqlmbaQHgtTnPr8nqcQBvAPjxkyKn9HbkRp97L7J43lf2R9qtc6sN7eTN3QmsloHPTTsr_MP3Vk-cpRAE4Wv1UHek6bQLaruGsfiDCU9DdPxL9iiMD1nRvCmrKSAL_jBl4dj42CF33Bre8FhAfW8yK16nm8Zcm2Us1do1GEMrPiSUMcAc65lPVJzPeL37jyIslC4wubbtIDW183JVYUg008caegXVsL6RMcidqSvvNozVRuq9ARAGAu6316d4LdX_3EaIvQNLT-KfYaFP6CO2_7bwgXOpmifX18jjdgO78T5Gr2nODGoI1KEWWr6uJA1g7c1bMA0xy5oWseekkRJ8iX8384j1e2AeQ0oY4WEWIqxiNfT7w-lAVx_RWGLKNqV-D7nfV7HelZxN7UxajE6gaJm1l4JejMYfwX4lYZG_w9mu13SjoCFxflTtAr9aLkE4h3Sv4_JEFmmWdcCSjs2EuF4COlOyWdZYsTeSYA0pGrGyVnwwKRJLDFeGKxmYC9db7sJeFa3n_UpUCAUC3iaTw8J_MwgST8kroSXDj1ZgS83ZwRyoAuE5YrjaukBNhqkdjjytE271Q98_hinccSdu9N-d7TRAl1XkzI5LLYWmV-hj7cacK3jS9tjMsRmKueN6PFN_k5TNQBTBRQ1ECGoMexFqOX_kVpvkJl60ihTHSvfb7qjqjATwUoWw73kmlpvQ9xmiiQPiRdOD8EiAqT_gKDEAU77TdGqJ4K_mC0]--></g></svg>