<svg xmlns="http://www.w3.org/2000/svg" xmlns:xlink="http://www.w3.org/1999/xlink" contentStyleType="text/css" height="441px" preserveAspectRatio="none" style="width:698px;height:441px;background:#FFFFFF;" version="1.1" viewBox="0 0 698 441" width="698px" zoomAndPan="magnify"><defs/><g><text fill="#000000" font-family="sans-serif" font-size="14" font-weight="bold" lengthAdjust="spacing" textLength="185.5684" x="249.2637" y="22.9951">Collatz sequence for 86</text><!--entity 86--><g id="elem_86"><rect fill="#F1F1F1" height="52.5938" rx="2.5" ry="2.5" style="stroke:#181818;stroke-width:0.5;" width="46.1885" x="56.5" y="44.2969"/><text fill="#000000" font-family="sans-serif" font-size="14" font-style="italic" lengthAdjust="spacing" textLength="26.1885" x="66.5" y="67.292">&#171;0&#187;</text><text fill="#000000" font-family="sans-serif" font-size="14" lengthAdjust="spacing" textLength="17.8145" x="70.687" y="83.5889">86</text></g><!--entity 43--><g id="elem_43"><rect fill="#F1F1F1" height="52.5938" rx="2.5" ry="2.5" style="stroke:#181818;stroke-width:0.5;" width="46.1885" x="137.5" y="44.2969"/><text fill="#000000" font-family="sans-serif" font-size="14" font-style="italic" lengthAdjust="spacing" textLength="26.1885" x="147.5" y="67.292">&#171;1&#187;</text><text fill="#000000" font-family="sans-serif" font-size="14" lengthAdjust="spacing" textLength="17.8145" x="151.687" y="83.5889">43</text></g><!--entity 130--><g id="elem_130"><rect fill="#F1F1F1" height="52.5938" rx="2.5" ry="2.5" style="stroke:#181818;stroke-width:0.5;" width="46.7217" x="219" y="44.2969"/><text fill="#000000" font-family="sans-serif" font-size="14" font-style="italic" lengthAdjust="spacing" textLength="26.1885" x="229.2666" y="67.292">&#171;2&#187;</text><text fill="#000000" font-family="sans-serif" font-size="14" lengthAdjust="spacing" textLength="26.7217" x="229" y="83.5889">130</text></g><!--entity 65--><g id="elem_65"><rect fill="#F1F1F1" height="52.5938" rx="2.5" ry="2.5" style="stroke:#181818;stroke-width:0.5;" width="46.1885" x="301.5" y="44.2969"/><text fill="#000000" font-family="sans-serif" font-size="14" font-style="italic" lengthAdjust="spacing" textLength="26.1885" x="311.5" y="67.292">&#171;3&#187;</text><text fill="#000000" font-family="sans-serif" font-size="14" lengthAdjust="spacing" textLength="17.8145" x="315.687" y="83.5889">65</text></g><!--entity 196--><g id="elem_196"><rect fill="#F1F1F1" height="52.5938" rx="2.5" ry="2.5" style="stroke:#181818;stroke-width:0.5;" width="46.7217" x="383" y="44.2969"/><text fill="#000000" font-family="sans-serif" font-size="14" font-style="italic" lengthAdjust="spacing" textLength="26.1885" x="393.2666" y="67.292">&#171;4&#187;</text><text fill="#000000" font-family="sans-serif" font-size="14" lengthAdjust="spacing" textLength="26.7217" x="393" y="83.5889">196</text></g><!--entity 98--><g id="elem_98"><rect fill="#F1F1F1" height="52.5938" rx="2.5" ry="2.5" style="stroke:#181818;stroke-width:0.5;" width="46.1885" x="465.5" y="44.2969"/><text fill="#000000" font-family="sans-serif" font-size="14" font-style="italic" lengthAdjust="spacing" textLength="26.1885" x="475.5" y="67.292">&#171;5&#187;</text><text fill="#000000" font-family="sans-serif" font-size="14" lengthAdjust="spacing" textLength="17.8145" x="479.687" y="83.5889">98</text></g><!--entity 49--><g id="elem_49"><rect fill="#F1F1F1" height="52.5938" rx="2.5" ry="2.5" style="stroke:#181818;stroke-width:0.5;" width="46.1885" x="546.5" y="44.2969"/><text fill="#000000" font-family="sans-serif" font-size="14" font-style="italic" lengthAdjust="spacing" textLength="26.1885" x="556.5" y="67.292">&#171;6&#187;</text><text fill="#000000" font-family="sans-serif" font-size="14" lengthAdjust="spacing" textLength="17.8145" x="560.687" y="83.5889">49</text></g><!--entity 148--><g id="elem_148"><rect fill="#F1F1F1" height="52.5938" rx="2.5" ry="2.5" style="stroke:#181818;stroke-width:0.5;" width="46.7217" x="628" y="44.2969"/><text fill="#000000" font-family="sans-serif" font-size="14" font-style="italic" lengthAdjust="spacing" textLength="26.1885" x="638.2666" y="67.292">&#171;7&#187;</text><text fill="#000000" font-family="sans-serif" font-size="14" lengthAdjust="spacing" textLength="26.7217" x="638" y="83.5889">148</text></g><!--entity 74--><g id="elem_74"><rect fill="#F1F1F1" height="52.5938" rx="2.5" ry="2.5" style="stroke:#181818;stroke-width:0.5;" width="46.1885" x="628.5" y="157.2969"/><text fill="#000000" font-family="sans-serif" font-size="14" font-style="italic" lengthAdjust="spacing" textLength="26.1885" x="638.5" y="180.292">&#171;8&#187;</text><text fill="#000000" font-family="sans-serif" font-size="14" lengthAdjust="spacing" textLength="17.8145" x="642.687" y="196.5889">74</text></g><!--entity 37--><g id="elem_37"><rect fill="#F1F1F1" height="52.5938" rx="2.5" ry="2.5" style="stroke:#181818;stroke-width:0.5;" width="46.1885" x="547.5" y="157.2969"/><text fill="#000000" font-family="sans-serif" font-size="14" font-style="italic" lengthAdjust="spacing" textLength="26.1885" x="557.5" y="180.292">&#171;9&#187;</text><text fill="#000000" font-family="sans-serif" font-size="14" lengthAdjust="spacing" textLength="17.8145" x="561.687" y="196.5889">37</text></g><!--entity 112--><g id="elem_112"><rect fill="#F1F1F1" height="52.5938" rx="2.5" ry="2.5" style="stroke:#181818;stroke-width:0.5;" width="55.0957" x="457" y="157.2969"/><text fill="#000000" font-family="sans-serif" font-size="14" font-style="italic" lengthAdjust="spacing" textLength="35.0957" x="467" y="180.292">&#171;10&#187;</text><text fill="#000000" font-family="sans-serif" font-size="14" lengthAdjust="spacing" textLength="26.7217" x="471.187" y="196.5889">112</text></g><!--entity 56--><g id="elem_56"><rect fill="#F1F1F1" height="52.5938" rx="2.5" ry="2.5" style="stroke:#181818;stroke-width:0.5;" width="55.0957" x="367" y="157.2969"/><text fill="#000000" font-family="sans-serif" font-size="14" font-style="italic" lengthAdjust="spacing" textLength="35.0957" x="377" y="180.292">&#171;11&#187;</text><text fill="#000000" font-family="sans-serif" font-size="14" lengthAdjust="spacing" textLength="17.8145" x="385.6406" y="196.5889">56</text></g><!--entity 28--><g id="elem_28"><rect fill="#F1F1F1" height="52.5938" rx="2.5" ry="2.5" style="stroke:#181818;stroke-width:0.5;" width="55.0957" x="277" y="157.2969"/><text fill="#000000" font-family="sans-serif" font-size="14" font-style="italic" lengthAdjust="spacing" textLength="35.0957" x="287" y="180.292">&#171;12&#187;</text><text fill="#000000" font-family="sans-serif" font-size="14" lengthAdjust="spacing" textLength="17.8145" x="295.6406" y="196.5889">28</text></g><!--entity 14--><g id="elem_14"><rect fill="#F1F1F1" height="52.5938" rx="2.5" ry="2.5" style="stroke:#181818;stroke-width:0.5;" width="55.0957" x="187" y="157.2969"/><text fill="#000000" font-family="sans-serif" font-size="14" font-style="italic" lengthAdjust="spacing" textLength="35.0957" x="197" y="180.292">&#171;13&#187;</text><text fill="#000000" font-family="sans-serif" font-size="14" lengthAdjust="spacing" textLength="17.8145" x="205.6406" y="196.5889">14</text></g><!--entity 7--><g id="elem_7"><rect fill="#F1F1F1" height="52.5938" rx="2.5" ry="2.5" style="stroke:#181818;stroke-width:0.5;" width="55.0957" x="97" y="157.2969"/><text fill="#000000" font-family="sans-serif" font-size="14" font-style="italic" lengthAdjust="spacing" textLength="35.0957" x="107" y="180.292">&#171;14&#187;</text><text fill="#000000" font-family="sans-serif" font-size="14" lengthAdjust="spacing" textLength="8.9072" x="120.0942" y="196.5889">7</text></g><!--entity 22--><g id="elem_22"><rect fill="#F1F1F1" height="52.5938" rx="2.5" ry="2.5" style="stroke:#181818;stroke-width:0.5;" width="55.0957" x="7" y="157.2969"/><text fill="#000000" font-family="sans-serif" font-size="14" font-style="italic" lengthAdjust="spacing" textLength="35.0957" x="17" y="180.292">&#171;15&#187;</text><text fill="#000000" font-family="sans-serif" font-size="14" lengthAdjust="spacing" textLength="17.8145" x="25.6406" y="196.5889">22</text></g><!--entity 11--><g id="elem_11"><rect fill="#F1F1F1" height="52.5938" rx="2.5" ry="2.5" style="stroke:#181818;stroke-width:0.5;" width="55.0957" x="7" y="270.2969"/><text fill="#000000" font-family="sans-serif" font-size="14" font-style="italic" lengthAdjust="spacing" textLength="35.0957" x="17" y="293.292">&#171;16&#187;</text><text fill="#000000" font-family="sans-serif" font-size="14" lengthAdjust="spacing" textLength="17.8145" x="25.6406" y="309.5889">11</text></g><!--entity 34--><g id="elem_34"><rect fill="#F1F1F1" height="52.5938" rx="2.5" ry="2.5" style="stroke:#181818;stroke-width:0.5;" width="55.0957" x="97" y="270.2969"/><text fill="#000000" font-family="sans-serif" font-size="14" font-style="italic" lengthAdjust="spacing" textLength="35.0957" x="107" y="293.292">&#171;17&#187;</text><text fill="#000000" font-family="sans-serif" font-size="14" lengthAdjust="spacing" textLength="17.8145" x="115.6406" y="309.5889">34</text></g><!--entity 17--><g id="elem_17"><rect fill="#F1F1F1" height="52.5938" rx="2.5" ry="2.5" style="stroke:#181818;stroke-width:0.5;" width="55.0957" x="187" y="270.2969"/><text fill="#000000" font-family="sans-serif" font-size="14" font-style="italic" lengthAdjust="spacing" textLength="35.0957" x="197" y="293.292">&#171;18&#187;</text><text fill="#000000" font-family="sans-serif" font-size="14" lengthAdjust="spacing" textLength="17.8145" x="205.6406" y="309.5889">17</text></g><!--entity 52--><g id="elem_52"><rect fill="#F1F1F1" height="52.5938" rx="2.5" ry="2.5" style="stroke:#181818;stroke-width:0.5;" width="55.0957" x="277" y="270.2969"/><text fill="#000000" font-family="sans-serif" font-size="14" font-style="italic" lengthAdjust="spacing" textLength="35.0957" x="287" y="293.292">&#171;19&#187;</text><text fill="#000000" font-family="sans-serif" font-size="14" lengthAdjust="spacing" textLength="17.8145" x="295.6406" y="309.5889">52</text></g><!--entity 26--><g id="elem_26"><rect fill="#F1F1F1" height="52.5938" rx="2.5" ry="2.5" style="stroke:#181818;stroke-width:0.5;" width="55.0957" x="367" y="270.2969"/><text fill="#000000" font-family="sans-serif" font-size="14" font-style="italic" lengthAdjust="spacing" textLength="35.0957" x="377" y="293.292">&#171;20&#187;</text><text fill="#000000" font-family="sans-serif" font-size="14" lengthAdjust="spacing" textLength="17.8145" x="385.6406" y="309.5889">26</text></g><!--entity 13--><g id="elem_13"><rect fill="#F1F1F1" height="52.5938" rx="2.5" ry="2.5" style="stroke:#181818;stroke-width:0.5;" width="55.0957" x="457" y="270.2969"/><text fill="#000000" font-family="sans-serif" font-size="14" font-style="italic" lengthAdjust="spacing" textLength="35.0957" x="467" y="293.292">&#171;21&#187;</text><text fill="#000000" font-family="sans-serif" font-size="14" lengthAdjust="spacing" textLength="17.8145" x="475.6406" y="309.5889">13</text></g><!--entity 40--><g id="elem_40"><rect fill="#F1F1F1" height="52.5938" rx="2.5" ry="2.5" style="stroke:#181818;stroke-width:0.5;" width="55.0957" x="547" y="270.2969"/><text fill="#000000" font-family="sans-serif" font-size="14" font-style="italic" lengthAdjust="spacing" textLength="35.0957" x="557" y="293.292">&#171;22&#187;</text><text fill="#000000" font-family="sans-serif" font-size="14" lengthAdjust="spacing" textLength="17.8145" x="565.6406" y="309.5889">40</text></g><!--entity 20--><g id="elem_20"><rect fill="#F1F1F1" height="52.5938" rx="2.5" ry="2.5" style="stroke:#181818;stroke-width:0.5;" width="55.0957" x="637" y="270.2969"/><text fill="#000000" font-family="sans-serif" font-size="14" font-style="italic" lengthAdjust="spacing" textLength="35.0957" x="647" y="293.292">&#171;23&#187;</text><text fill="#000000" font-family="sans-serif" font-size="14" lengthAdjust="spacing" textLength="17.8145" x="655.6406" y="309.5889">20</text></g><!--entity 10--><g id="elem_10"><rect fill="#F1F1F1" height="52.5938" rx="2.5" ry="2.5" style="stroke:#181818;stroke-width:0.5;" width="55.0957" x="637" y="383.2969"/><text fill="#000000" font-family="sans-serif" font-size="14" font-style="italic" lengthAdjust="spacing" textLength="35.0957" x="647" y="406.292">&#171;24&#187;</text><text fill="#000000" font-family="sans-serif" font-size="14" lengthAdjust="spacing" textLength="17.8145" x="655.6406" y="422.5889">10</text></g><!--entity 5--><g id="elem_5"><rect fill="#F1F1F1" height="52.5938" rx="2.5" ry="2.5" style="stroke:#181818;stroke-width:0.5;" width="55.0957" x="547" y="383.2969"/><text fill="#000000" font-family="sans-serif" font-size="14" font-style="italic" lengthAdjust="spacing" textLength="35.0957" x="557" y="406.292">&#171;25&#187;</text><text fill="#000000" font-family="sans-serif" font-size="14" lengthAdjust="spacing" textLength="8.9072" x="570.0942" y="422.5889">5</text></g><!--entity 16--><g id="elem_16"><rect fill="#F1F1F1" height="52.5938" rx="2.5" ry="2.5" style="stroke:#181818;stroke-width:0.5;" width="55.0957" x="457" y="383.2969"/><text fill="#000000" font-family="sans-serif" font-size="14" font-style="italic" lengthAdjust="spacing" textLength="35.0957" x="467" y="406.292">&#171;26&#187;</text><text fill="#000000" font-family="sans-serif" font-size="14" lengthAdjust="spacing" textLength="17.8145" x="475.6406" y="422.5889">16</text></g><!--entity 8--><g id="elem_8"><rect fill="#F1F1F1" height="52.5938" rx="2.5" ry="2.5" style="stroke:#181818;stroke-width:0.5;" width="55.0957" x="367" y="383.2969"/><text fill="#000000" font-family="sans-serif" font-size="14" font-style="italic" lengthAdjust="spacing" textLength="35.0957" x="377" y="406.292">&#171;27&#187;</text><text fill="#000000" font-family="sans-serif" font-size="14" lengthAdjust="spacing" textLength="8.9072" x="390.0942" y="422.5889">8</text></g><!--entity 4--><g id="elem_4"><rect fill="#F1F1F1" height="52.5938" rx="2.5" ry="2.5" style="stroke:#181818;stroke-width:0.5;" width="55.0957" x="277" y="383.2969"/><text fill="#000000" font-family="sans-serif" font-size="14" font-style="italic" lengthAdjust="spacing" textLength="35.0957" x="287" y="406.292">&#171;28&#187;</text><text fill="#000000" font-family="sans-serif" font-size="14" lengthAdjust="spacing" textLength="8.9072" x="300.0942" y="422.5889">4</text></g><!--entity 2--><g id="elem_2"><rect fill="#F1F1F1" height="52.5938" rx="2.5" ry="2.5" style="stroke:#181818;stroke-width:0.5;" width="55.0957" x="187" y="383.2969"/><text fill="#000000" font-family="sans-serif" font-size="14" font-style="italic" lengthAdjust="spacing" textLength="35.0957" x="197" y="406.292">&#171;29&#187;</text><text fill="#000000" font-family="sans-serif" font-size="14" lengthAdjust="spacing" textLength="8.9072" x="210.0942" y="422.5889">2</text></g><!--entity 1--><g id="elem_1"><rect fill="#F1F1F1" height="52.5938" rx="2.5" ry="2.5" style="stroke:#181818;stroke-width:0.5;" width="55.0957" x="97" y="383.2969"/><text fill="#000000" font-family="sans-serif" font-size="14" font-style="italic" lengthAdjust="spacing" textLength="35.0957" x="107" y="406.292">&#171;30&#187;</text><text fill="#000000" font-family="sans-serif" font-size="14" lengthAdjust="spacing" textLength="8.9072" x="120.0942" y="422.5889">1</text></g><!--link 86 to 43--><g id="link_86_43"><path d="M102.6,70.7969 C114.21,70.7969 119.82,70.7969 131.43,70.7969 " fill="none" id="86-to-43" style="stroke:#181818;stroke-width:1.0;"/><polygon fill="#181818" points="137.43,70.7969,128.43,66.7969,132.43,70.7969,128.43,74.7969,137.43,70.7969" style="stroke:#181818;stroke-width:1.0;"/></g><!--link 43 to 130--><g id="link_43_130"><path d="M183.56,70.7969 C195.23,70.7969 200.89,70.7969 212.56,70.7969 " fill="none" id="43-to-130" style="stroke:#181818;stroke-width:1.0;"/><polygon fill="#181818" points="218.56,70.7969,209.56,66.7969,213.56,70.7969,209.56,74.7969,218.56,70.7969" style="stroke:#181818;stroke-width:1.0;"/></g><!--link 130 to 65--><g id="link_130_65"><path d="M266.2,70.7969 C277.89,70.7969 283.58,70.7969 295.27,70.7969 " fill="none" id="130-to-65" style="stroke:#181818;stroke-width:1.0;"/><polygon fill="#181818" points="301.27,70.7969,292.27,66.7969,296.27,70.7969,292.27,74.7969,301.27,70.7969" style="stroke:#181818;stroke-width:1.0;"/></g><!--link 65 to 196--><g id="link_65_196"><path d="M347.56,70.7969 C359.23,70.7969 364.89,70.7969 376.56,70.7969 " fill="none" id="65-to-196" style="stroke:#181818;stroke-width:1.0;"/><polygon fill="#181818" points="382.56,70.7969,373.56,66.7969,377.56,70.7969,373.56,74.7969,382.56,70.7969" style="stroke:#181818;stroke-width:1.0;"/></g><!--link 196 to 98--><g id="link_196_98"><path d="M430.2,70.7969 C441.89,70.7969 447.58,70.7969 459.27,70.7969 " fill="none" id="196-to-98" style="stroke:#181818;stroke-width:1.0;"/><polygon fill="#181818" points="465.27,70.7969,456.27,66.7969,460.27,70.7969,456.27,74.7969,465.27,70.7969" style="stroke:#181818;stroke-width:1.0;"/></g><!--link 98 to 49--><g id="link_98_49"><path d="M511.6,70.7969 C523.21,70.7969 528.82,70.7969 540.43,70.7969 " fill="none" id="98-to-49" style="stroke:#181818;stroke-width:1.0;"/><polygon fill="#181818" points="546.43,70.7969,537.43,66.7969,541.43,70.7969,537.43,74.7969,546.43,70.7969" style="stroke:#181818;stroke-width:1.0;"/></g><!--link 49 to 148--><g id="link_49_148"><path d="M592.56,70.7969 C604.23,70.7969 609.89,70.7969 621.56,70.7969 " fill="none" id="49-to-148" style="stroke:#181818;stroke-width:1.0;"/><polygon fill="#181818" points="627.56,70.7969,618.56,66.7969,622.56,70.7969,618.56,74.7969,627.56,70.7969" style="stroke:#181818;stroke-width:1.0;"/></g><!--link 148 to 74--><g id="link_148_74"><path d="M651.5,97.5369 C651.5,115.4769 651.5,133.2869 651.5,151.1869 " fill="none" id="148-to-74" style="stroke:#181818;stroke-width:1.0;"/><polygon fill="#181818" points="651.5,157.1869,655.5,148.1869,651.5,152.1869,647.5,148.1869,651.5,157.1869" style="stroke:#181818;stroke-width:1.0;"/></g><!--reverse link 37 to 74--><g id="link_37_74"><path d="M599.6,183.7969 C611.21,183.7969 616.82,183.7969 628.43,183.7969 " fill="none" id="37-backto-74" style="stroke:#181818;stroke-width:1.0;"/><polygon fill="#181818" points="593.6,183.7969,602.6,187.7969,598.6,183.7969,602.6,179.7969,593.6,183.7969" style="stroke:#181818;stroke-width:1.0;"/></g><!--reverse link 112 to 37--><g id="link_112_37"><path d="M518.05,183.7969 C529.77,183.7969 535.49,183.7969 547.21,183.7969 " fill="none" id="112-backto-37" style="stroke:#181818;stroke-width:1.0;"/><polygon fill="#181818" points="512.05,183.7969,521.05,187.7969,517.05,183.7969,521.05,179.7969,512.05,183.7969" style="stroke:#181818;stroke-width:1.0;"/></g><!--reverse link 56 to 112--><g id="link_56_112"><path d="M428.27,183.7969 C439.78,183.7969 445.28,183.7969 456.79,183.7969 " fill="none" id="56-backto-112" style="stroke:#181818;stroke-width:1.0;"/><polygon fill="#181818" points="422.27,183.7969,431.27,187.7969,427.27,183.7969,431.27,179.7969,422.27,183.7969" style="stroke:#181818;stroke-width:1.0;"/></g><!--reverse link 28 to 56--><g id="link_28_56"><path d="M338.27,183.7969 C349.78,183.7969 355.28,183.7969 366.79,183.7969 " fill="none" id="28-backto-56" style="stroke:#181818;stroke-width:1.0;"/><polygon fill="#181818" points="332.27,183.7969,341.27,187.7969,337.27,183.7969,341.27,179.7969,332.27,183.7969" style="stroke:#181818;stroke-width:1.0;"/></g><!--reverse link 14 to 28--><g id="link_14_28"><path d="M248.27,183.7969 C259.78,183.7969 265.28,183.7969 276.79,183.7969 " fill="none" id="14-backto-28" style="stroke:#181818;stroke-width:1.0;"/><polygon fill="#181818" points="242.27,183.7969,251.27,187.7969,247.27,183.7969,251.27,179.7969,242.27,183.7969" style="stroke:#181818;stroke-width:1.0;"/></g><!--reverse link 7 to 14--><g id="link_7_14"><path d="M158.27,183.7969 C169.78,183.7969 175.28,183.7969 186.79,183.7969 " fill="none" id="7-backto-14" style="stroke:#181818;stroke-width:1.0;"/><polygon fill="#181818" points="152.27,183.7969,161.27,187.7969,157.27,183.7969,161.27,179.7969,152.27,183.7969" style="stroke:#181818;stroke-width:1.0;"/></g><!--reverse link 22 to 7--><g id="link_22_7"><path d="M68.27,183.7969 C79.78,183.7969 85.28,183.7969 96.79,183.7969 " fill="none" id="22-backto-7" style="stroke:#181818;stroke-width:1.0;"/><polygon fill="#181818" points="62.27,183.7969,71.27,187.7969,67.27,183.7969,71.27,179.7969,62.27,183.7969" style="stroke:#181818;stroke-width:1.0;"/></g><!--link 22 to 11--><g id="link_22_11"><path d="M34.5,210.5369 C34.5,228.4769 34.5,246.2869 34.5,264.1869 " fill="none" id="22-to-11" style="stroke:#181818;stroke-width:1.0;"/><polygon fill="#181818" points="34.5,270.1869,38.5,261.1869,34.5,265.1869,30.5,261.1869,34.5,270.1869" style="stroke:#181818;stroke-width:1.0;"/></g><!--link 11 to 34--><g id="link_11_34"><path d="M62.27,296.7969 C73.78,296.7969 79.28,296.7969 90.79,296.7969 " fill="none" id="11-to-34" style="stroke:#181818;stroke-width:1.0;"/><polygon fill="#181818" points="96.79,296.7969,87.79,292.7969,91.79,296.7969,87.79,300.7969,96.79,296.7969" style="stroke:#181818;stroke-width:1.0;"/></g><!--link 34 to 17--><g id="link_34_17"><path d="M152.27,296.7969 C163.78,296.7969 169.28,296.7969 180.79,296.7969 " fill="none" id="34-to-17" style="stroke:#181818;stroke-width:1.0;"/><polygon fill="#181818" points="186.79,296.7969,177.79,292.7969,181.79,296.7969,177.79,300.7969,186.79,296.7969" style="stroke:#181818;stroke-width:1.0;"/></g><!--link 17 to 52--><g id="link_17_52"><path d="M242.27,296.7969 C253.78,296.7969 259.28,296.7969 270.79,296.7969 " fill="none" id="17-to-52" style="stroke:#181818;stroke-width:1.0;"/><polygon fill="#181818" points="276.79,296.7969,267.79,292.7969,271.79,296.7969,267.79,300.7969,276.79,296.7969" style="stroke:#181818;stroke-width:1.0;"/></g><!--link 52 to 26--><g id="link_52_26"><path d="M332.27,296.7969 C343.78,296.7969 349.28,296.7969 360.79,296.7969 " fill="none" id="52-to-26" style="stroke:#181818;stroke-width:1.0;"/><polygon fill="#181818" points="366.79,296.7969,357.79,292.7969,361.79,296.7969,357.79,300.7969,366.79,296.7969" style="stroke:#181818;stroke-width:1.0;"/></g><!--link 26 to 13--><g id="link_26_13"><path d="M422.27,296.7969 C433.78,296.7969 439.28,296.7969 450.79,296.7969 " fill="none" id="26-to-13" style="stroke:#181818;stroke-width:1.0;"/><polygon fill="#181818" points="456.79,296.7969,447.79,292.7969,451.79,296.7969,447.79,300.7969,456.79,296.7969" style="stroke:#181818;stroke-width:1.0;"/></g><!--link 13 to 40--><g id="link_13_40"><path d="M512.27,296.7969 C523.78,296.7969 529.28,296.7969 540.79,296.7969 " fill="none" id="13-to-40" style="stroke:#181818;stroke-width:1.0;"/><polygon fill="#181818" points="546.79,296.7969,537.79,292.7969,541.79,296.7969,537.79,300.7969,546.79,296.7969" style="stroke:#181818;stroke-width:1.0;"/></g><!--link 40 to 20--><g id="link_40_20"><path d="M602.27,296.7969 C613.78,296.7969 619.28,296.7969 630.79,296.7969 " fill="none" id="40-to-20" style="stroke:#181818;stroke-width:1.0;"/><polygon fill="#181818" points="636.79,296.7969,627.79,292.7969,631.79,296.7969,627.79,300.7969,636.79,296.7969" style="stroke:#181818;stroke-width:1.0;"/></g><!--link 20 to 10--><g id="link_20_10"><path d="M664.5,323.5369 C664.5,341.4769 664.5,359.2869 664.5,377.1869 " fill="none" id="20-to-10" style="stroke:#181818;stroke-width:1.0;"/><polygon fill="#181818" points="664.5,383.1869,668.5,374.1869,664.5,378.1869,660.5,374.1869,664.5,383.1869" style="stroke:#181818;stroke-width:1.0;"/></g><!--reverse link 5 to 10--><g id="link_5_10"><path d="M608.27,409.7969 C619.78,409.7969 625.28,409.7969 636.79,409.7969 " fill="none" id="5-backto-10" style="stroke:#181818;stroke-width:1.0;"/><polygon fill="#181818" points="602.27,409.7969,611.27,413.7969,607.27,409.7969,611.27,405.7969,602.27,409.7969" style="stroke:#181818;stroke-width:1.0;"/></g><!--reverse link 16 to 5--><g id="link_16_5"><path d="M518.27,409.7969 C529.78,409.7969 535.28,409.7969 546.79,409.7969 " fill="none" id="16-backto-5" style="stroke:#181818;stroke-width:1.0;"/><polygon fill="#181818" points="512.27,409.7969,521.27,413.7969,517.27,409.7969,521.27,405.7969,512.27,409.7969" style="stroke:#181818;stroke-width:1.0;"/></g><!--reverse link 8 to 16--><g id="link_8_16"><path d="M428.27,409.7969 C439.78,409.7969 445.28,409.7969 456.79,409.7969 " fill="none" id="8-backto-16" style="stroke:#181818;stroke-width:1.0;"/><polygon fill="#181818" points="422.27,409.7969,431.27,413.7969,427.27,409.7969,431.27,405.7969,422.27,409.7969" style="stroke:#181818;stroke-width:1.0;"/></g><!--reverse link 4 to 8--><g id="link_4_8"><path d="M338.27,409.7969 C349.78,409.7969 355.28,409.7969 366.79,409.7969 " fill="none" id="4-backto-8" style="stroke:#181818;stroke-width:1.0;"/><polygon fill="#181818" points="332.27,409.7969,341.27,413.7969,337.27,409.7969,341.27,405.7969,332.27,409.7969" style="stroke:#181818;stroke-width:1.0;"/></g><!--reverse link 2 to 4--><g id="link_2_4"><path d="M248.27,409.7969 C259.78,409.7969 265.28,409.7969 276.79,409.7969 " fill="none" id="2-backto-4" style="stroke:#181818;stroke-width:1.0;"/><polygon fill="#181818" points="242.27,409.7969,251.27,413.7969,247.27,409.7969,251.27,405.7969,242.27,409.7969" style="stroke:#181818;stroke-width:1.0;"/></g><!--reverse link 1 to 2--><g id="link_1_2"><path d="M158.27,409.7969 C169.78,409.7969 175.28,409.7969 186.79,409.7969 " fill="none" id="1-backto-2" style="stroke:#181818;stroke-width:1.0;"/><polygon fill="#181818" points="152.27,409.7969,161.27,413.7969,157.27,409.7969,161.27,405.7969,152.27,409.7969" style="stroke:#181818;stroke-width:1.0;"/></g><!--SRC=[hLVPSkeu47tdApgkf08p9F66CLD9NkP3A64BKCMM64c6oTJz-6ajDYPiVhWyn8xxz55lKhSUTb8Kj6maXST2S4uBlQHSCyse6ZzoKjDe2lOPuxDa4W5CyCa8yEVay7By_lBfmQC7oikEUpHwwAyZAT5qQLG8trJKhOFqIbD9XVxUKSVV8HmflB_t89-VPski6swjW4UcbdHFEJ8tjUDwUmQYG6yfx2IrIae92KKZ9VfRVKCfgEBF6hPaJu50BSgcQXI87PL42pc5Hb7KPyhI1LjIV0KWrb1iQV75-CPoLqHfADc6QT02IbgmaW9RMncQig8Ic09ZsgkbCT-3ck03_x22L41sQ1mfjfPRDOMnaw55gbbfIPnxbXe3KJDkJA8-M3LXlCGLPCCLC8wecjP2VgF7ObNHMW7HHgWPndADpbS2pLRqduPoNEOLdjyiquE9sb9f2H_mX0zqhXV8XqVZvD8vQG3D2Z7ZLcTgLIeVU_Db0YzOGv7NbbGtaiFuXEK3WZ20tk_NB_W9YEy1qdk0x1uW3oQsfjew6esUeU4cbrHfPKDc4jPM5tJrzjSBAXAbgDJ7sWidXZGw5qIHbOJdadWHNrNAikIQMXJcSNfDCPl5MJQxfhg8yZo9iclAyqMQX74olwQUfE4YYU8alqQGB59KpwF5DOPPb8TnXgjuXluktb2zj2dQqdzTcaxgi5UbkDDY1FtsCksH3AgCSukl5Ca5rrm4S2FSH4Kk5q5q6nOlF5ryXoxBF65o1uWrvYdJsqXRSAx4WzbjgAi-JvlTnhfIJBsryzjWNvUffyxle7sHUkx5RRIlsDXjce3SuqQZazHlW61r6vqlmbaQHgtTnPr8nqcQBvAPjxkyKn9HbkRp97L7J43lf2R9qtc6sN7eTN3QmsloHPTTsr_MP3Vk-cpRAE4Wv1UHek6bQLaruGsfiDCU9DdPxL9iiMD1nRvCmrKSAL_jBl4dj42CF33Bre8FhAfW8yK16nm8Zcm2Us1do1GEMrPiSUMcAc65lPVJzPeL37jyIslC4wubbtIDW183JVYUg008caegXVsL6RMcidqSvvNozVRuq9ARAGAu6316d4LdX_3EaIvQNLT-KfYaFP6CO2_7bwgXOpmifX18jjdgO78T5Gr2nODGoI1KEWWr6uJA1g7c1bMA0xy5oWseekkRJ8iX8384j1e2AeQ0oY4WEWIqxiNfT7w-lAVx_RWGLKNqV-D7nfV7HelZxN7UxajE6gaJm1l4JejMYfwX4lYZG_w9mu13SjoCFxflTtAr9aLkE4h3Sv4_JEFmmWdcCSjs2EuF4COlOyWdZYsTeSYA0pGrGyVnwwKRJLDFeGKxmYC9db7sJeFa3n_UpUCAUC3iaTw8J_MwgST8kroSXDj1ZgS83ZwRyoAuE5YrjaukBNhqkdjjytE271Q98_hinccSdu9N-d7TRAl1XkzI5LLYWmV-hj7cacK3jS9tjMsRmKueN6PFN_k5TNQBTBRQ1ECGoMexFqOX_kVpvkJl60ihTHSvfb7qjqjATwUoWw73kmlpvQ9xmiiQPiRdOD8EiAqT_gKDEAU77TdGqJ4K_mC0]--></g></svg>