<svg xmlns="http://www.w3.org/2000/svg" xmlns:xlink="http://www.w3.org/1999/xlink" contentStyleType="text/css" height="215px" preserveAspectRatio="none" style="width:680px;height:215px;background:#FFFFFF;" version="1.1" viewBox="0 0 680 215" width="680px" zoomAndPan="magnify"><defs/><g><text fill="#000000" font-family="sans-serif" font-size="14" font-weight="bold" lengthAdjust="spacing" textLength="185.5684" x="240.5601" y="22.9951">Collatz sequence for 23</text><!--entity 23--><g id="elem_23"><rect fill="#F1F1F1" height="52.5938" rx="2.5" ry="2.5" style="stroke:#181818;stroke-width:0.5;" width="46.1885" x="57.5" y="44.2969"/><text fill="#000000" font-family="sans-serif" font-size="14" font-style="italic" lengthAdjust="spacing" textLength="26.1885" x="67.5" y="67.292">&#171;0&#187;</text><text fill="#000000" font-family="sans-serif" font-size="14" lengthAdjust="spacing" textLength="17.8145" x="71.687" y="83.5889">23</text></g><!--entity 70--><g id="elem_70"><rect fill="#F1F1F1" height="52.5938" rx="2.5" ry="2.5" style="stroke:#181818;stroke-width:0.5;" width="46.1885" x="138.5" y="44.2969"/><text fill="#000000" font-family="sans-serif" font-size="14" font-style="italic" lengthAdjust="spacing" textLength="26.1885" x="148.5" y="67.292">&#171;1&#187;</text><text fill="#000000" font-family="sans-serif" font-size="14" lengthAdjust="spacing" textLength="17.8145" x="152.687" y="83.5889">70</text></g><!--entity 35--><g id="elem_35"><rect fill="#F1F1F1" height="52.5938" rx="2.5" ry="2.5" style="stroke:#181818;stroke-width:0.5;" width="46.1885" x="219.5" y="44.2969"/><text fill="#000000" font-family="sans-serif" font-size="14" font-style="italic" lengthAdjust="spacing" textLength="26.1885" x="229.5" y="67.292">&#171;2&#187;</text><text fill="#000000" font-family="sans-serif" font-size="14" lengthAdjust="spacing" textLength="17.8145" x="233.687" y="83.5889">35</text></g><!--entity 106--><g id="elem_106"><rect fill="#F1F1F1" height="52.5938" rx="2.5" ry="2.5" style="stroke:#181818;stroke-width:0.5;" width="46.7217" x="301" y="44.2969"/><text fill="#000000" font-family="sans-serif" font-size="14" font-style="italic" lengthAdjust="spacing" textLength="26.1885" x="311.2666" y="67.292">&#171;3&#187;</text><text fill="#000000" font-family="sans-serif" font-size="14" lengthAdjust="spacing" textLength="26.7217" x="311" y="83.5889">106</text></g><!--entity 53--><g id="elem_53"><rect fill="#F1F1F1" height="52.5938" rx="2.5" ry="2.5" style="stroke:#181818;stroke-width:0.5;" width="46.1885" x="383.5" y="44.2969"/><text fill="#000000" font-family="sans-serif" font-size="14" font-style="italic" lengthAdjust="spacing" textLength="26.1885" x="393.5" y="67.292">&#171;4&#187;</text><text fill="#000000" font-family="sans-serif" font-size="14" lengthAdjust="spacing" textLength="17.8145" x="397.687" y="83.5889">53</text></g><!--entity 160--><g id="elem_160"><rect fill="#F1F1F1" height="52.5938" rx="2.5" ry="2.5" style="stroke:#181818;stroke-width:0.5;" width="46.7217" x="465" y="44.2969"/><text fill="#000000" font-family="sans-serif" font-size="14" font-style="italic" lengthAdjust="spacing" textLength="26.1885" x="475.2666" y="67.292">&#171;5&#187;</text><text fill="#000000" font-family="sans-serif" font-size="14" lengthAdjust="spacing" textLength="26.7217" x="475" y="83.5889">160</text></g><!--entity 80--><g id="elem_80"><rect fill="#F1F1F1" height="52.5938" rx="2.5" ry="2.5" style="stroke:#181818;stroke-width:0.5;" width="46.1885" x="547.5" y="44.2969"/><text fill="#000000" font-family="sans-serif" font-size="14" font-style="italic" lengthAdjust="spacing" textLength="26.1885" x="557.5" y="67.292">&#171;6&#187;</text><text fill="#000000" font-family="sans-serif" font-size="14" lengthAdjust="spacing" textLength="17.8145" x="561.687" y="83.5889">80</text></g><!--entity 40--><g id="elem_40"><rect fill="#F1F1F1" height="52.5938" rx="2.5" ry="2.5" style="stroke:#181818;stroke-width:0.5;" width="46.1885" x="628.5" y="44.2969"/><text fill="#000000" font-family="sans-serif" font-size="14" font-style="italic" lengthAdjust="spacing" textLength="26.1885" x="638.5" y="67.292">&#171;7&#187;</text><text fill="#000000" font-family="sans-serif" font-size="14" lengthAdjust="spacing" textLength="17.8145" x="642.687" y="83.5889">40</text></g><!--entity 20--><g id="elem_20"><rect fill="#F1F1F1" height="52.5938" rx="2.5" ry="2.5" style="stroke:#181818;stroke-width:0.5;" width="46.1885" x="628.5" y="157.2969"/><text fill="#000000" font-family="sans-serif" font-size="14" font-style="italic" lengthAdjust="spacing" textLength="26.1885" x="638.5" y="180.292">&#171;8&#187;</text><text fill="#000000" font-family="sans-serif" font-size="14" lengthAdjust="spacing" textLength="17.8145" x="642.687" y="196.5889">20</text></g><!--entity 10--><g id="elem_10"><rect fill="#F1F1F1" height="52.5938" rx="2.5" ry="2.5" style="stroke:#181818;stroke-width:0.5;" width="46.1885" x="547.5" y="157.2969"/><text fill="#000000" font-family="sans-serif" font-size="14" font-style="italic" lengthAdjust="spacing" textLength="26.1885" x="557.5" y="180.292">&#171;9&#187;</text><text fill="#000000" font-family="sans-serif" font-size="14" lengthAdjust="spacing" textLength="17.8145" x="561.687" y="196.5889">10</text></g><!--entity 5--><g id="elem_5"><rect fill="#F1F1F1" height="52.5938" rx="2.5" ry="2.5" style="stroke:#181818;stroke-width:0.5;" width="55.0957" x="457" y="157.2969"/><text fill="#000000" font-family="sans-serif" font-size="14" font-style="italic" lengthAdjust="spacing" textLength="35.0957" x="467" y="180.292">&#171;10&#187;</text><text fill="#000000" font-family="sans-serif" font-size="14" lengthAdjust="spacing" textLength="8.9072" x="480.0942" y="196.5889">5</text></g><!--entity 16--><g id="elem_16"><rect fill="#F1F1F1" height="52.5938" rx="2.5" ry="2.5" style="stroke:#181818;stroke-width:0.5;" width="55.0957" x="367" y="157.2969"/><text fill="#000000" font-family="sans-serif" font-size="14" font-style="italic" lengthAdjust="spacing" textLength="35.0957" x="377" y="180.292">&#171;11&#187;</text><text fill="#000000" font-family="sans-serif" font-size="14" lengthAdjust="spacing" textLength="17.8145" x="385.6406" y="196.5889">16</text></g><!--entity 8--><g id="elem_8"><rect fill="#F1F1F1" height="52.5938" rx="2.5" ry="2.5" style="stroke:#181818;stroke-width:0.5;" width="55.0957" x="277" y="157.2969"/><text fill="#000000" font-family="sans-serif" font-size="14" font-style="italic" lengthAdjust="spacing" textLength="35.0957" x="287" y="180.292">&#171;12&#187;</text><text fill="#000000" font-family="sans-serif" font-size="14" lengthAdjust="spacing" textLength="8.9072" x="300.0942" y="196.5889">8</text></g><!--entity 4--><g id="elem_4"><rect fill="#F1F1F1" height="52.5938" rx="2.5" ry="2.5" style="stroke:#181818;stroke-width:0.5;" width="55.0957" x="187" y="157.2969"/><text fill="#000000" font-family="sans-serif" font-size="14" font-style="italic" lengthAdjust="spacing" textLength="35.0957" x="197" y="180.292">&#171;13&#187;</text><text fill="#000000" font-family="sans-serif" font-size="14" lengthAdjust="spacing" textLength="8.9072" x="210.0942" y="196.5889">4</text></g><!--entity 2--><g id="elem_2"><rect fill="#F1F1F1" height="52.5938" rx="2.5" ry="2.5" style="stroke:#181818;stroke-width:0.5;" width="55.0957" x="97" y="157.2969"/><text fill="#000000" font-family="sans-serif" font-size="14" font-style="italic" lengthAdjust="spacing" textLength="35.0957" x="107" y="180.292">&#171;14&#187;</text><text fill="#000000" font-family="sans-serif" font-size="14" lengthAdjust="spacing" textLength="8.9072" x="120.0942" y="196.5889">2</text></g><!--entity 1--><g id="elem_1"><rect fill="#F1F1F1" height="52.5938" rx="2.5" ry="2.5" style="stroke:#181818;stroke-width:0.5;" width="55.0957" x="7" y="157.2969"/><text fill="#000000" font-family="sans-serif" font-size="14" font-style="italic" lengthAdjust="spacing" textLength="35.0957" x="17" y="180.292">&#171;15&#187;</text><text fill="#000000" font-family="sans-serif" font-size="14" lengthAdjust="spacing" textLength="8.9072" x="30.0942" y="196.5889">1</text></g><!--link 23 to 70--><g id="link_23_70"><path d="M103.6,70.7969 C115.21,70.7969 120.82,70.7969 132.43,70.7969 " fill="none" id="23-to-70" style="stroke:#181818;stroke-width:1.0;"/><polygon fill="#181818" points="138.43,70.7969,129.43,66.7969,133.43,70.7969,129.43,74.7969,138.43,70.7969" style="stroke:#181818;stroke-width:1.0;"/></g><!--link 70 to 35--><g id="link_70_35"><path d="M184.6,70.7969 C196.21,70.7969 201.82,70.7969 213.43,70.7969 " fill="none" id="70-to-35" style="stroke:#181818;stroke-width:1.0;"/><polygon fill="#181818" points="219.43,70.7969,210.43,66.7969,214.43,70.7969,210.43,74.7969,219.43,70.7969" style="stroke:#181818;stroke-width:1.0;"/></g><!--link 35 to 106--><g id="link_35_106"><path d="M265.56,70.7969 C277.23,70.7969 282.89,70.7969 294.56,70.7969 " fill="none" id="35-to-106" style="stroke:#181818;stroke-width:1.0;"/><polygon fill="#181818" points="300.56,70.7969,291.56,66.7969,295.56,70.7969,291.56,74.7969,300.56,70.7969" style="stroke:#181818;stroke-width:1.0;"/></g><!--link 106 to 53--><g id="link_106_53"><path d="M348.2,70.7969 C359.89,70.7969 365.58,70.7969 377.27,70.7969 " fill="none" id="106-to-53" style="stroke:#181818;stroke-width:1.0;"/><polygon fill="#181818" points="383.27,70.7969,374.27,66.7969,378.27,70.7969,374.27,74.7969,383.27,70.7969" style="stroke:#181818;stroke-width:1.0;"/></g><!--link 53 to 160--><g id="link_53_160"><path d="M429.56,70.7969 C441.23,70.7969 446.89,70.7969 458.56,70.7969 " fill="none" id="53-to-160" style="stroke:#181818;stroke-width:1.0;"/><polygon fill="#181818" points="464.56,70.7969,455.56,66.7969,459.56,70.7969,455.56,74.7969,464.56,70.7969" style="stroke:#181818;stroke-width:1.0;"/></g><!--link 160 to 80--><g id="link_160_80"><path d="M512.2,70.7969 C523.89,70.7969 529.58,70.7969 541.27,70.7969 " fill="none" id="160-to-80" style="stroke:#181818;stroke-width:1.0;"/><polygon fill="#181818" points="547.27,70.7969,538.27,66.7969,542.27,70.7969,538.27,74.7969,547.27,70.7969" style="stroke:#181818;stroke-width:1.0;"/></g><!--link 80 to 40--><g id="link_80_40"><path d="M593.6,70.7969 C605.21,70.7969 610.82,70.7969 622.43,70.7969 " fill="none" id="80-to-40" style="stroke:#181818;stroke-width:1.0;"/><polygon fill="#181818" points="628.43,70.7969,619.43,66.7969,623.43,70.7969,619.43,74.7969,628.43,70.7969" style="stroke:#181818;stroke-width:1.0;"/></g><!--link 40 to 20--><g id="link_40_20"><path d="M651.5,97.5369 C651.5,115.4769 651.5,133.2869 651.5,151.1869 " fill="none" id="40-to-20" style="stroke:#181818;stroke-width:1.0;"/><polygon fill="#181818" points="651.5,157.1869,655.5,148.1869,651.5,152.1869,647.5,148.1869,651.5,157.1869" style="stroke:#181818;stroke-width:1.0;"/></g><!--reverse link 10 to 20--><g id="link_10_20"><path d="M599.6,183.7969 C611.21,183.7969 616.82,183.7969 628.43,183.7969 " fill="none" id="10-backto-20" style="stroke:#181818;stroke-width:1.0;"/><polygon fill="#181818" points="593.6,183.7969,602.6,187.7969,598.6,183.7969,602.6,179.7969,593.6,183.7969" style="stroke:#181818;stroke-width:1.0;"/></g><!--reverse link 5 to 10--><g id="link_5_10"><path d="M518.05,183.7969 C529.77,183.7969 535.49,183.7969 547.21,183.7969 " fill="none" id="5-backto-10" style="stroke:#181818;stroke-width:1.0;"/><polygon fill="#181818" points="512.05,183.7969,521.05,187.7969,517.05,183.7969,521.05,179.7969,512.05,183.7969" style="stroke:#181818;stroke-width:1.0;"/></g><!--reverse link 16 to 5--><g id="link_16_5"><path d="M428.27,183.7969 C439.78,183.7969 445.28,183.7969 456.79,183.7969 " fill="none" id="16-backto-5" style="stroke:#181818;stroke-width:1.0;"/><polygon fill="#181818" points="422.27,183.7969,431.27,187.7969,427.27,183.7969,431.27,179.7969,422.27,183.7969" style="stroke:#181818;stroke-width:1.0;"/></g><!--reverse link 8 to 16--><g id="link_8_16"><path d="M338.27,183.7969 C349.78,183.7969 355.28,183.7969 366.79,183.7969 " fill="none" id="8-backto-16" style="stroke:#181818;stroke-width:1.0;"/><polygon fill="#181818" points="332.27,183.7969,341.27,187.7969,337.27,183.7969,341.27,179.7969,332.27,183.7969" style="stroke:#181818;stroke-width:1.0;"/></g><!--reverse link 4 to 8--><g id="link_4_8"><path d="M248.27,183.7969 C259.78,183.7969 265.28,183.7969 276.79,183.7969 " fill="none" id="4-backto-8" style="stroke:#181818;stroke-width:1.0;"/><polygon fill="#181818" points="242.27,183.7969,251.27,187.7969,247.27,183.7969,251.27,179.7969,242.27,183.7969" style="stroke:#181818;stroke-width:1.0;"/></g><!--reverse link 2 to 4--><g id="link_2_4"><path d="M158.27,183.7969 C169.78,183.7969 175.28,183.7969 186.79,183.7969 " fill="none" id="2-backto-4" style="stroke:#181818;stroke-width:1.0;"/><polygon fill="#181818" points="152.27,183.7969,161.27,187.7969,157.27,183.7969,161.27,179.7969,152.27,183.7969" style="stroke:#181818;stroke-width:1.0;"/></g><!--reverse link 1 to 2--><g id="link_1_2"><path d="M68.27,183.7969 C79.78,183.7969 85.28,183.7969 96.79,183.7969 " fill="none" id="1-backto-2" style="stroke:#181818;stroke-width:1.0;"/><polygon fill="#181818" points="62.27,183.7969,71.27,187.7969,67.27,183.7969,71.27,179.7969,62.27,183.7969" style="stroke:#181818;stroke-width:1.0;"/></g><!--SRC=[hLVPSkeu47tdApgkf08p9F66CLD9NkP3A64BKCMM64c6oTJz-6ajDYPiVhWyn8xxz55lKhSUTb8Kj6maXST2S4uBlQHSCyse6ZzoKjDe2lOPuxDa4W5CyCa8yEVay7By_lBfmQC7oikEUpHwwAyZAT5qQLG8trJKhOFqIbD9XVxUKSVV8HmflB_t89-VPski6swjW4UcbdHFEJ8tjUDwUmQYG6yfx2IrIae92KKZ9VfRVKCfgEBF6hPaJu50BSgcQXI87PL42pc5Hb7KPyhI1LjIV0KWrb1iQV75-CPoLqHfADc6QT02IbgmaW9RMncQig8Ic09ZsgkbCT-3ck03_x22L41sQ1mfjfPRDOMnaw55gbbfIPnxbXe3KJDkJA8-M3LXlCGLPCCLC8wecjP2VgF7ObNHMW7HHgWPndADpbS2pLRqduPoNEOLdjyiquE9sb9f2H_mX0zqhXV8XqVZvD8vQG3D2Z7ZLcTgLIeVU_Db0YzOGv7NbbGtaiFuXEK3WZ20tk_NB_W9YEy1qdk0x1uW3oQsfjew6esUeU4cbrHfPKDc4jPM5tJrzjSBAXAbgDJ7sWidXZGw5qIHbOJdadWHNrNAikIQMXJcSNfDCPl5MJQxfhg8yZo9iclAyqMQX74olwQUfE4YYU8alqQGB59KpwF5DOPPb8TnXgjuXluktb2zj2dQqdzTcaxgi5UbkDDY1FtsCksH3AgCSukl5Ca5rrm4S2FSH4Kk5q5q6nOlF5ryXoxBF65o1uWrvYdJsqXRSAx4WzbjgAi-JvlTnhfIJBsryzjWNvUffyxle7sHUkx5RRIlsDXjce3SuqQZazHlW61r6vqlmbaQHgtTnPr8nqcQBvAPjxkyKn9HbkRp97L7J43lf2R9qtc6sN7eTN3QmsloHPTTsr_MP3Vk-cpRAE4Wv1UHek6bQLaruGsfiDCU9DdPxL9iiMD1nRvCmrKSAL_jBl4dj42CF33Bre8FhAfW8yK16nm8Zcm2Us1do1GEMrPiSUMcAc65lPVJzPeL37jyIslC4wubbtIDW183JVYUg008caegXVsL6RMcidqSvvNozVRuq9ARAGAu6316d4LdX_3EaIvQNLT-KfYaFP6CO2_7bwgXOpmifX18jjdgO78T5Gr2nODGoI1KEWWr6uJA1g7c1bMA0xy5oWseekkRJ8iX8384j1e2AeQ0oY4WEWIqxiNfT7w-lAVx_RWGLKNqV-D7nfV7HelZxN7UxajE6gaJm1l4JejMYfwX4lYZG_w9mu13SjoCFxflTtAr9aLkE4h3Sv4_JEFmmWdcCSjs2EuF4COlOyWdZYsTeSYA0pGrGyVnwwKRJLDFeGKxmYC9db7sJeFa3n_UpUCAUC3iaTw8J_MwgST8kroSXDj1ZgS83ZwRyoAuE5YrjaukBNhqkdjjytE271Q98_hinccSdu9N-d7TRAl1XkzI5LLYWmV-hj7cacK3jS9tjMsRmKueN6PFN_k5TNQBTBRQ1ECGoMexFqOX_kVpvkJl60ihTHSvfb7qjqjATwUoWw73kmlpvQ9xmiiQPiRdOD8EiAqT_gKDEAU77TdGqJ4K_mC0]--></g></svg>