<svg xmlns="http://www.w3.org/2000/svg" xmlns:xlink="http://www.w3.org/1999/xlink" contentStyleType="text/css" height="215px" preserveAspectRatio="none" style="width:680px;height:215px;background:#FFFFFF;" version="1.1" viewBox="0 0 680 215" width="680px" zoomAndPan="magnify"><defs/><g><text fill="#000000" font-family="sans-serif" font-size="14" font-weight="bold" lengthAdjust="spacing" textLength="185.5684" x="240.5601" y="22.9951">Collatz sequence for 22</text><!--entity 22--><g id="elem_22"><rect fill="#F1F1F1" height="52.5938" rx="2.5" ry="2.5" style="stroke:#181818;stroke-width:0.5;" width="46.1885" x="61.5" y="44.2969"/><text fill="#000000" font-family="sans-serif" font-size="14" font-style="italic" lengthAdjust="spacing" textLength="26.1885" x="71.5" y="67.292">&#171;0&#187;</text><text fill="#000000" font-family="sans-serif" font-size="14" lengthAdjust="spacing" textLength="17.8145" x="75.687" y="83.5889">22</text></g><!--entity 11--><g id="elem_11"><rect fill="#F1F1F1" height="52.5938" rx="2.5" ry="2.5" style="stroke:#181818;stroke-width:0.5;" width="46.1885" x="142.5" y="44.2969"/><text fill="#000000" font-family="sans-serif" font-size="14" font-style="italic" lengthAdjust="spacing" textLength="26.1885" x="152.5" y="67.292">&#171;1&#187;</text><text fill="#000000" font-family="sans-serif" font-size="14" lengthAdjust="spacing" textLength="17.8145" x="156.687" y="83.5889">11</text></g><!--entity 34--><g id="elem_34"><rect fill="#F1F1F1" height="52.5938" rx="2.5" ry="2.5" style="stroke:#181818;stroke-width:0.5;" width="46.1885" x="223.5" y="44.2969"/><text fill="#000000" font-family="sans-serif" font-size="14" font-style="italic" lengthAdjust="spacing" textLength="26.1885" x="233.5" y="67.292">&#171;2&#187;</text><text fill="#000000" font-family="sans-serif" font-size="14" lengthAdjust="spacing" textLength="17.8145" x="237.687" y="83.5889">34</text></g><!--entity 17--><g id="elem_17"><rect fill="#F1F1F1" height="52.5938" rx="2.5" ry="2.5" style="stroke:#181818;stroke-width:0.5;" width="46.1885" x="304.5" y="44.2969"/><text fill="#000000" font-family="sans-serif" font-size="14" font-style="italic" lengthAdjust="spacing" textLength="26.1885" x="314.5" y="67.292">&#171;3&#187;</text><text fill="#000000" font-family="sans-serif" font-size="14" lengthAdjust="spacing" textLength="17.8145" x="318.687" y="83.5889">17</text></g><!--entity 52--><g id="elem_52"><rect fill="#F1F1F1" height="52.5938" rx="2.5" ry="2.5" style="stroke:#181818;stroke-width:0.5;" width="46.1885" x="385.5" y="44.2969"/><text fill="#000000" font-family="sans-serif" font-size="14" font-style="italic" lengthAdjust="spacing" textLength="26.1885" x="395.5" y="67.292">&#171;4&#187;</text><text fill="#000000" font-family="sans-serif" font-size="14" lengthAdjust="spacing" textLength="17.8145" x="399.687" y="83.5889">52</text></g><!--entity 26--><g id="elem_26"><rect fill="#F1F1F1" height="52.5938" rx="2.5" ry="2.5" style="stroke:#181818;stroke-width:0.5;" width="46.1885" x="466.5" y="44.2969"/><text fill="#000000" font-family="sans-serif" font-size="14" font-style="italic" lengthAdjust="spacing" textLength="26.1885" x="476.5" y="67.292">&#171;5&#187;</text><text fill="#000000" font-family="sans-serif" font-size="14" lengthAdjust="spacing" textLength="17.8145" x="480.687" y="83.5889">26</text></g><!--entity 13--><g id="elem_13"><rect fill="#F1F1F1" height="52.5938" rx="2.5" ry="2.5" style="stroke:#181818;stroke-width:0.5;" width="46.1885" x="547.5" y="44.2969"/><text fill="#000000" font-family="sans-serif" font-size="14" font-style="italic" lengthAdjust="spacing" textLength="26.1885" x="557.5" y="67.292">&#171;6&#187;</text><text fill="#000000" font-family="sans-serif" font-size="14" lengthAdjust="spacing" textLength="17.8145" x="561.687" y="83.5889">13</text></g><!--entity 40--><g id="elem_40"><rect fill="#F1F1F1" height="52.5938" rx="2.5" ry="2.5" style="stroke:#181818;stroke-width:0.5;" width="46.1885" x="628.5" y="44.2969"/><text fill="#000000" font-family="sans-serif" font-size="14" font-style="italic" lengthAdjust="spacing" textLength="26.1885" x="638.5" y="67.292">&#171;7&#187;</text><text fill="#000000" font-family="sans-serif" font-size="14" lengthAdjust="spacing" textLength="17.8145" x="642.687" y="83.5889">40</text></g><!--entity 20--><g id="elem_20"><rect fill="#F1F1F1" height="52.5938" rx="2.5" ry="2.5" style="stroke:#181818;stroke-width:0.5;" width="46.1885" x="628.5" y="157.2969"/><text fill="#000000" font-family="sans-serif" font-size="14" font-style="italic" lengthAdjust="spacing" textLength="26.1885" x="638.5" y="180.292">&#171;8&#187;</text><text fill="#000000" font-family="sans-serif" font-size="14" lengthAdjust="spacing" textLength="17.8145" x="642.687" y="196.5889">20</text></g><!--entity 10--><g id="elem_10"><rect fill="#F1F1F1" height="52.5938" rx="2.5" ry="2.5" style="stroke:#181818;stroke-width:0.5;" width="46.1885" x="547.5" y="157.2969"/><text fill="#000000" font-family="sans-serif" font-size="14" font-style="italic" lengthAdjust="spacing" textLength="26.1885" x="557.5" y="180.292">&#171;9&#187;</text><text fill="#000000" font-family="sans-serif" font-size="14" lengthAdjust="spacing" textLength="17.8145" x="561.687" y="196.5889">10</text></g><!--entity 5--><g id="elem_5"><rect fill="#F1F1F1" height="52.5938" rx="2.5" ry="2.5" style="stroke:#181818;stroke-width:0.5;" width="55.0957" x="457" y="157.2969"/><text fill="#000000" font-family="sans-serif" font-size="14" font-style="italic" lengthAdjust="spacing" textLength="35.0957" x="467" y="180.292">&#171;10&#187;</text><text fill="#000000" font-family="sans-serif" font-size="14" lengthAdjust="spacing" textLength="8.9072" x="480.0942" y="196.5889">5</text></g><!--entity 16--><g id="elem_16"><rect fill="#F1F1F1" height="52.5938" rx="2.5" ry="2.5" style="stroke:#181818;stroke-width:0.5;" width="55.0957" x="367" y="157.2969"/><text fill="#000000" font-family="sans-serif" font-size="14" font-style="italic" lengthAdjust="spacing" textLength="35.0957" x="377" y="180.292">&#171;11&#187;</text><text fill="#000000" font-family="sans-serif" font-size="14" lengthAdjust="spacing" textLength="17.8145" x="385.6406" y="196.5889">16</text></g><!--entity 8--><g id="elem_8"><rect fill="#F1F1F1" height="52.5938" rx="2.5" ry="2.5" style="stroke:#181818;stroke-width:0.5;" width="55.0957" x="277" y="157.2969"/><text fill="#000000" font-family="sans-serif" font-size="14" font-style="italic" lengthAdjust="spacing" textLength="35.0957" x="287" y="180.292">&#171;12&#187;</text><text fill="#000000" font-family="sans-serif" font-size="14" lengthAdjust="spacing" textLength="8.9072" x="300.0942" y="196.5889">8</text></g><!--entity 4--><g id="elem_4"><rect fill="#F1F1F1" height="52.5938" rx="2.5" ry="2.5" style="stroke:#181818;stroke-width:0.5;" width="55.0957" x="187" y="157.2969"/><text fill="#000000" font-family="sans-serif" font-size="14" font-style="italic" lengthAdjust="spacing" textLength="35.0957" x="197" y="180.292">&#171;13&#187;</text><text fill="#000000" font-family="sans-serif" font-size="14" lengthAdjust="spacing" textLength="8.9072" x="210.0942" y="196.5889">4</text></g><!--entity 2--><g id="elem_2"><rect fill="#F1F1F1" height="52.5938" rx="2.5" ry="2.5" style="stroke:#181818;stroke-width:0.5;" width="55.0957" x="97" y="157.2969"/><text fill="#000000" font-family="sans-serif" font-size="14" font-style="italic" lengthAdjust="spacing" textLength="35.0957" x="107" y="180.292">&#171;14&#187;</text><text fill="#000000" font-family="sans-serif" font-size="14" lengthAdjust="spacing" textLength="8.9072" x="120.0942" y="196.5889">2</text></g><!--entity 1--><g id="elem_1"><rect fill="#F1F1F1" height="52.5938" rx="2.5" ry="2.5" style="stroke:#181818;stroke-width:0.5;" width="55.0957" x="7" y="157.2969"/><text fill="#000000" font-family="sans-serif" font-size="14" font-style="italic" lengthAdjust="spacing" textLength="35.0957" x="17" y="180.292">&#171;15&#187;</text><text fill="#000000" font-family="sans-serif" font-size="14" lengthAdjust="spacing" textLength="8.9072" x="30.0942" y="196.5889">1</text></g><!--link 22 to 11--><g id="link_22_11"><path d="M107.6,70.7969 C119.21,70.7969 124.82,70.7969 136.43,70.7969 " fill="none" id="22-to-11" style="stroke:#181818;stroke-width:1.0;"/><polygon fill="#181818" points="142.43,70.7969,133.43,66.7969,137.43,70.7969,133.43,74.7969,142.43,70.7969" style="stroke:#181818;stroke-width:1.0;"/></g><!--link 11 to 34--><g id="link_11_34"><path d="M188.6,70.7969 C200.21,70.7969 205.82,70.7969 217.43,70.7969 " fill="none" id="11-to-34" style="stroke:#181818;stroke-width:1.0;"/><polygon fill="#181818" points="223.43,70.7969,214.43,66.7969,218.43,70.7969,214.43,74.7969,223.43,70.7969" style="stroke:#181818;stroke-width:1.0;"/></g><!--link 34 to 17--><g id="link_34_17"><path d="M269.6,70.7969 C281.21,70.7969 286.82,70.7969 298.43,70.7969 " fill="none" id="34-to-17" style="stroke:#181818;stroke-width:1.0;"/><polygon fill="#181818" points="304.43,70.7969,295.43,66.7969,299.43,70.7969,295.43,74.7969,304.43,70.7969" style="stroke:#181818;stroke-width:1.0;"/></g><!--link 17 to 52--><g id="link_17_52"><path d="M350.6,70.7969 C362.21,70.7969 367.82,70.7969 379.43,70.7969 " fill="none" id="17-to-52" style="stroke:#181818;stroke-width:1.0;"/><polygon fill="#181818" points="385.43,70.7969,376.43,66.7969,380.43,70.7969,376.43,74.7969,385.43,70.7969" style="stroke:#181818;stroke-width:1.0;"/></g><!--link 52 to 26--><g id="link_52_26"><path d="M431.6,70.7969 C443.21,70.7969 448.82,70.7969 460.43,70.7969 " fill="none" id="52-to-26" style="stroke:#181818;stroke-width:1.0;"/><polygon fill="#181818" points="466.43,70.7969,457.43,66.7969,461.43,70.7969,457.43,74.7969,466.43,70.7969" style="stroke:#181818;stroke-width:1.0;"/></g><!--link 26 to 13--><g id="link_26_13"><path d="M512.6,70.7969 C524.21,70.7969 529.82,70.7969 541.43,70.7969 " fill="none" id="26-to-13" style="stroke:#181818;stroke-width:1.0;"/><polygon fill="#181818" points="547.43,70.7969,538.43,66.7969,542.43,70.7969,538.43,74.7969,547.43,70.7969" style="stroke:#181818;stroke-width:1.0;"/></g><!--link 13 to 40--><g id="link_13_40"><path d="M593.6,70.7969 C605.21,70.7969 610.82,70.7969 622.43,70.7969 " fill="none" id="13-to-40" style="stroke:#181818;stroke-width:1.0;"/><polygon fill="#181818" points="628.43,70.7969,619.43,66.7969,623.43,70.7969,619.43,74.7969,628.43,70.7969" style="stroke:#181818;stroke-width:1.0;"/></g><!--link 40 to 20--><g id="link_40_20"><path d="M651.5,97.5369 C651.5,115.4769 651.5,133.2869 651.5,151.1869 " fill="none" id="40-to-20" style="stroke:#181818;stroke-width:1.0;"/><polygon fill="#181818" points="651.5,157.1869,655.5,148.1869,651.5,152.1869,647.5,148.1869,651.5,157.1869" style="stroke:#181818;stroke-width:1.0;"/></g><!--reverse link 10 to 20--><g id="link_10_20"><path d="M599.6,183.7969 C611.21,183.7969 616.82,183.7969 628.43,183.7969 " fill="none" id="10-backto-20" style="stroke:#181818;stroke-width:1.0;"/><polygon fill="#181818" points="593.6,183.7969,602.6,187.7969,598.6,183.7969,602.6,179.7969,593.6,183.7969" style="stroke:#181818;stroke-width:1.0;"/></g><!--reverse link 5 to 10--><g id="link_5_10"><path d="M518.05,183.7969 C529.77,183.7969 535.49,183.7969 547.21,183.7969 " fill="none" id="5-backto-10" style="stroke:#181818;stroke-width:1.0;"/><polygon fill="#181818" points="512.05,183.7969,521.05,187.7969,517.05,183.7969,521.05,179.7969,512.05,183.7969" style="stroke:#181818;stroke-width:1.0;"/></g><!--reverse link 16 to 5--><g id="link_16_5"><path d="M428.27,183.7969 C439.78,183.7969 445.28,183.7969 456.79,183.7969 " fill="none" id="16-backto-5" style="stroke:#181818;stroke-width:1.0;"/><polygon fill="#181818" points="422.27,183.7969,431.27,187.7969,427.27,183.7969,431.27,179.7969,422.27,183.7969" style="stroke:#181818;stroke-width:1.0;"/></g><!--reverse link 8 to 16--><g id="link_8_16"><path d="M338.27,183.7969 C349.78,183.7969 355.28,183.7969 366.79,183.7969 " fill="none" id="8-backto-16" style="stroke:#181818;stroke-width:1.0;"/><polygon fill="#181818" points="332.27,183.7969,341.27,187.7969,337.27,183.7969,341.27,179.7969,332.27,183.7969" style="stroke:#181818;stroke-width:1.0;"/></g><!--reverse link 4 to 8--><g id="link_4_8"><path d="M248.27,183.7969 C259.78,183.7969 265.28,183.7969 276.79,183.7969 " fill="none" id="4-backto-8" style="stroke:#181818;stroke-width:1.0;"/><polygon fill="#181818" points="242.27,183.7969,251.27,187.7969,247.27,183.7969,251.27,179.7969,242.27,183.7969" style="stroke:#181818;stroke-width:1.0;"/></g><!--reverse link 2 to 4--><g id="link_2_4"><path d="M158.27,183.7969 C169.78,183.7969 175.28,183.7969 186.79,183.7969 " fill="none" id="2-backto-4" style="stroke:#181818;stroke-width:1.0;"/><polygon fill="#181818" points="152.27,183.7969,161.27,187.7969,157.27,183.7969,161.27,179.7969,152.27,183.7969" style="stroke:#181818;stroke-width:1.0;"/></g><!--reverse link 1 to 2--><g id="link_1_2"><path d="M68.27,183.7969 C79.78,183.7969 85.28,183.7969 96.79,183.7969 " fill="none" id="1-backto-2" style="stroke:#181818;stroke-width:1.0;"/><polygon fill="#181818" points="62.27,183.7969,71.27,187.7969,67.27,183.7969,71.27,179.7969,62.27,183.7969" style="stroke:#181818;stroke-width:1.0;"/></g><!--SRC=[hLVPSkeu47tdApgkf08p9F66CLD9NkP3A64BKCMM64c6oTJz-6ajDYPiVhWyn8xxz55lKhSUTb8Kj6maXST2S4uBlQHSCyse6ZzoKjDe2lOPuxDa4W5CyCa8yEVay7By_lBfmQC7oikEUpHwwAyZAT5qQLG8trJKhOFqIbD9XVxUKSVV8HmflB_t89-VPski6swjW4UcbdHFEJ8tjUDwUmQYG6yfx2IrIae92KKZ9VfRVKCfgEBF6hPaJu50BSgcQXI87PL42pc5Hb7KPyhI1LjIV0KWrb1iQV75-CPoLqHfADc6QT02IbgmaW9RMncQig8Ic09ZsgkbCT-3ck03_x22L41sQ1mfjfPRDOMnaw55gbbfIPnxbXe3KJDkJA8-M3LXlCGLPCCLC8wecjP2VgF7ObNHMW7HHgWPndADpbS2pLRqduPoNEOLdjyiquE9sb9f2H_mX0zqhXV8XqVZvD8vQG3D2Z7ZLcTgLIeVU_Db0YzOGv7NbbGtaiFuXEK3WZ20tk_NB_W9YEy1qdk0x1uW3oQsfjew6esUeU4cbrHfPKDc4jPM5tJrzjSBAXAbgDJ7sWidXZGw5qIHbOJdadWHNrNAikIQMXJcSNfDCPl5MJQxfhg8yZo9iclAyqMQX74olwQUfE4YYU8alqQGB59KpwF5DOPPb8TnXgjuXluktb2zj2dQqdzTcaxgi5UbkDDY1FtsCksH3AgCSukl5Ca5rrm4S2FSH4Kk5q5q6nOlF5ryXoxBF65o1uWrvYdJsqXRSAx4WzbjgAi-JvlTnhfIJBsryzjWNvUffyxle7sHUkx5RRIlsDXjce3SuqQZazHlW61r6vqlmbaQHgtTnPr8nqcQBvAPjxkyKn9HbkRp97L7J43lf2R9qtc6sN7eTN3QmsloHPTTsr_MP3Vk-cpRAE4Wv1UHek6bQLaruGsfiDCU9DdPxL9iiMD1nRvCmrKSAL_jBl4dj42CF33Bre8FhAfW8yK16nm8Zcm2Us1do1GEMrPiSUMcAc65lPVJzPeL37jyIslC4wubbtIDW183JVYUg008caegXVsL6RMcidqSvvNozVRuq9ARAGAu6316d4LdX_3EaIvQNLT-KfYaFP6CO2_7bwgXOpmifX18jjdgO78T5Gr2nODGoI1KEWWr6uJA1g7c1bMA0xy5oWseekkRJ8iX8384j1e2AeQ0oY4WEWIqxiNfT7w-lAVx_RWGLKNqV-D7nfV7HelZxN7UxajE6gaJm1l4JejMYfwX4lYZG_w9mu13SjoCFxflTtAr9aLkE4h3Sv4_JEFmmWdcCSjs2EuF4COlOyWdZYsTeSYA0pGrGyVnwwKRJLDFeGKxmYC9db7sJeFa3n_UpUCAUC3iaTw8J_MwgST8kroSXDj1ZgS83ZwRyoAuE5YrjaukBNhqkdjjytE271Q98_hinccSdu9N-d7TRAl1XkzI5LLYWmV-hj7cacK3jS9tjMsRmKueN6PFN_k5TNQBTBRQ1ECGoMexFqOX_kVpvkJl60ihTHSvfb7qjqjATwUoWw73kmlpvQ9xmiiQPiRdOD8EiAqT_gKDEAU77TdGqJ4K_mC0]--></g></svg>