<?xml version="1.0" encoding="UTF-8" standalone="no"?><svg xmlns="http://www.w3.org/2000/svg" xmlns:xlink="http://www.w3.org/1999/xlink" contentScriptType="application/ecmascript" contentStyleType="text/css" height="531px" preserveAspectRatio="none" style="width:2002px;height:531px;background:#FFFFFF;" version="1.1" viewBox="0 0 2002 531" width="2002px" zoomAndPan="magnify"><defs><filter height="300%" id="f25vcldvoexnc" width="300%" x="-1" y="-1"><feGaussianBlur result="blurOut" stdDeviation="2.0"/><feColorMatrix in="blurOut" result="blurOut2" type="matrix" values="0 0 0 0 0 0 0 0 0 0 0 0 0 0 0 0 0 0 .4 0"/><feOffset dx="4.0" dy="4.0" in="blurOut2" result="blurOut3"/><feBlend in="SourceGraphic" in2="blurOut3" mode="normal"/></filter></defs><g><rect fill="#FEFECE" filter="url(#f25vcldvoexnc)" height="35.0938" style="stroke:#A80036;stroke-width:1.5;" width="21" x="986.5" y="7"/><text fill="#000000" font-family="sans-serif" font-size="12" lengthAdjust="spacing" textLength="7" x="993.5" y="21.457">0</text><line style="stroke:#A80036;stroke-width:1.5;" x1="987.5" x2="1006.5" y1="26.0938" y2="26.0938"/><rect fill="#FEFECE" filter="url(#f25vcldvoexnc)" height="35.0938" style="stroke:#A80036;stroke-width:1.5;" width="21" x="734.5" y="102"/><text fill="#000000" font-family="sans-serif" font-size="12" lengthAdjust="spacing" textLength="7" x="741.5" y="116.457">1</text><line style="stroke:#A80036;stroke-width:1.5;" x1="735.5" x2="754.5" y1="121.0938" y2="121.0938"/><rect fill="#FEFECE" filter="url(#f25vcldvoexnc)" height="35.0938" style="stroke:#A80036;stroke-width:1.5;" width="21" x="357.5" y="197"/><text fill="#000000" font-family="sans-serif" font-size="12" lengthAdjust="spacing" textLength="7" x="364.5" y="211.457">3</text><line style="stroke:#A80036;stroke-width:1.5;" x1="358.5" x2="377.5" y1="216.0938" y2="216.0938"/><rect fill="#FEFECE" filter="url(#f25vcldvoexnc)" height="35.0938" style="stroke:#A80036;stroke-width:1.5;" width="21" x="168.5" y="292"/><text fill="#000000" font-family="sans-serif" font-size="12" lengthAdjust="spacing" textLength="7" x="175.5" y="306.457">7</text><line style="stroke:#A80036;stroke-width:1.5;" x1="169.5" x2="188.5" y1="311.0938" y2="311.0938"/><rect fill="#FEFECE" filter="url(#f25vcldvoexnc)" height="35.0938" style="stroke:#A80036;stroke-width:1.5;" width="28" x="70" y="387"/><text fill="#000000" font-family="sans-serif" font-size="12" lengthAdjust="spacing" textLength="14" x="77" y="401.457">15</text><line style="stroke:#A80036;stroke-width:1.5;" x1="71" x2="97" y1="406.0938" y2="406.0938"/><rect fill="#FEFECE" filter="url(#f25vcldvoexnc)" height="35.0938" style="stroke:#A80036;stroke-width:1.5;" width="28" x="7" y="482"/><text fill="#000000" font-family="sans-serif" font-size="12" lengthAdjust="spacing" textLength="14" x="14" y="496.457">31</text><line style="stroke:#A80036;stroke-width:1.5;" x1="8" x2="34" y1="501.0938" y2="501.0938"/><rect fill="#FEFECE" filter="url(#f25vcldvoexnc)" height="35.0938" style="stroke:#A80036;stroke-width:1.5;" width="28" x="70" y="482"/><text fill="#000000" font-family="sans-serif" font-size="12" lengthAdjust="spacing" textLength="14" x="77" y="496.457">32</text><line style="stroke:#A80036;stroke-width:1.5;" x1="71" x2="97" y1="501.0938" y2="501.0938"/><rect fill="#FEFECE" filter="url(#f25vcldvoexnc)" height="35.0938" style="stroke:#A80036;stroke-width:1.5;" width="28" x="165" y="387"/><text fill="#000000" font-family="sans-serif" font-size="12" lengthAdjust="spacing" textLength="14" x="172" y="401.457">16</text><line style="stroke:#A80036;stroke-width:1.5;" x1="166" x2="192" y1="406.0938" y2="406.0938"/><rect fill="#FEFECE" filter="url(#f25vcldvoexnc)" height="35.0938" style="stroke:#A80036;stroke-width:1.5;" width="28" x="133" y="482"/><text fill="#000000" font-family="sans-serif" font-size="12" lengthAdjust="spacing" textLength="14" x="140" y="496.457">33</text><line style="stroke:#A80036;stroke-width:1.5;" x1="134" x2="160" y1="501.0938" y2="501.0938"/><rect fill="#FEFECE" filter="url(#f25vcldvoexnc)" height="35.0938" style="stroke:#A80036;stroke-width:1.5;" width="28" x="196" y="482"/><text fill="#000000" font-family="sans-serif" font-size="12" lengthAdjust="spacing" textLength="14" x="203" y="496.457">34</text><line style="stroke:#A80036;stroke-width:1.5;" x1="197" x2="223" y1="501.0938" y2="501.0938"/><rect fill="#FEFECE" filter="url(#f25vcldvoexnc)" height="35.0938" style="stroke:#A80036;stroke-width:1.5;" width="21" x="357.5" y="292"/><text fill="#000000" font-family="sans-serif" font-size="12" lengthAdjust="spacing" textLength="7" x="364.5" y="306.457">8</text><line style="stroke:#A80036;stroke-width:1.5;" x1="358.5" x2="377.5" y1="311.0938" y2="311.0938"/><rect fill="#FEFECE" filter="url(#f25vcldvoexnc)" height="35.0938" style="stroke:#A80036;stroke-width:1.5;" width="28" x="322" y="387"/><text fill="#000000" font-family="sans-serif" font-size="12" lengthAdjust="spacing" textLength="14" x="329" y="401.457">17</text><line style="stroke:#A80036;stroke-width:1.5;" x1="323" x2="349" y1="406.0938" y2="406.0938"/><rect fill="#FEFECE" filter="url(#f25vcldvoexnc)" height="35.0938" style="stroke:#A80036;stroke-width:1.5;" width="28" x="259" y="482"/><text fill="#000000" font-family="sans-serif" font-size="12" lengthAdjust="spacing" textLength="14" x="266" y="496.457">35</text><line style="stroke:#A80036;stroke-width:1.5;" x1="260" x2="286" y1="501.0938" y2="501.0938"/><rect fill="#FEFECE" filter="url(#f25vcldvoexnc)" height="35.0938" style="stroke:#A80036;stroke-width:1.5;" width="28" x="322" y="482"/><text fill="#000000" font-family="sans-serif" font-size="12" lengthAdjust="spacing" textLength="14" x="329" y="496.457">36</text><line style="stroke:#A80036;stroke-width:1.5;" x1="323" x2="349" y1="501.0938" y2="501.0938"/><rect fill="#FEFECE" filter="url(#f25vcldvoexnc)" height="35.0938" style="stroke:#A80036;stroke-width:1.5;" width="28" x="385" y="387"/><text fill="#000000" font-family="sans-serif" font-size="12" lengthAdjust="spacing" textLength="14" x="392" y="401.457">18</text><line style="stroke:#A80036;stroke-width:1.5;" x1="386" x2="412" y1="406.0938" y2="406.0938"/><rect fill="#FEFECE" filter="url(#f25vcldvoexnc)" height="35.0938" style="stroke:#A80036;stroke-width:1.5;" width="28" x="385" y="482"/><text fill="#000000" font-family="sans-serif" font-size="12" lengthAdjust="spacing" textLength="14" x="392" y="496.457">37</text><line style="stroke:#A80036;stroke-width:1.5;" x1="386" x2="412" y1="501.0938" y2="501.0938"/><rect fill="#FEFECE" filter="url(#f25vcldvoexnc)" height="35.0938" style="stroke:#A80036;stroke-width:1.5;" width="28" x="448" y="482"/><text fill="#000000" font-family="sans-serif" font-size="12" lengthAdjust="spacing" textLength="14" x="455" y="496.457">38</text><line style="stroke:#A80036;stroke-width:1.5;" x1="449" x2="475" y1="501.0938" y2="501.0938"/><rect fill="#FEFECE" filter="url(#f25vcldvoexnc)" height="35.0938" style="stroke:#A80036;stroke-width:1.5;" width="21" x="734.5" y="197"/><text fill="#000000" font-family="sans-serif" font-size="12" lengthAdjust="spacing" textLength="7" x="741.5" y="211.457">4</text><line style="stroke:#A80036;stroke-width:1.5;" x1="735.5" x2="754.5" y1="216.0938" y2="216.0938"/><rect fill="#FEFECE" filter="url(#f25vcldvoexnc)" height="35.0938" style="stroke:#A80036;stroke-width:1.5;" width="21" x="671.5" y="292"/><text fill="#000000" font-family="sans-serif" font-size="12" lengthAdjust="spacing" textLength="7" x="678.5" y="306.457">9</text><line style="stroke:#A80036;stroke-width:1.5;" x1="672.5" x2="691.5" y1="311.0938" y2="311.0938"/><rect fill="#FEFECE" filter="url(#f25vcldvoexnc)" height="35.0938" style="stroke:#A80036;stroke-width:1.5;" width="28" x="574" y="387"/><text fill="#000000" font-family="sans-serif" font-size="12" lengthAdjust="spacing" textLength="14" x="581" y="401.457">19</text><line style="stroke:#A80036;stroke-width:1.5;" x1="575" x2="601" y1="406.0938" y2="406.0938"/><rect fill="#FEFECE" filter="url(#f25vcldvoexnc)" height="35.0938" style="stroke:#A80036;stroke-width:1.5;" width="28" x="511" y="482"/><text fill="#000000" font-family="sans-serif" font-size="12" lengthAdjust="spacing" textLength="14" x="518" y="496.457">39</text><line style="stroke:#A80036;stroke-width:1.5;" x1="512" x2="538" y1="501.0938" y2="501.0938"/><rect fill="#FEFECE" filter="url(#f25vcldvoexnc)" height="35.0938" style="stroke:#A80036;stroke-width:1.5;" width="28" x="574" y="482"/><text fill="#000000" font-family="sans-serif" font-size="12" lengthAdjust="spacing" textLength="14" x="581" y="496.457">40</text><line style="stroke:#A80036;stroke-width:1.5;" x1="575" x2="601" y1="501.0938" y2="501.0938"/><rect fill="#FEFECE" filter="url(#f25vcldvoexnc)" height="35.0938" style="stroke:#A80036;stroke-width:1.5;" width="28" x="668" y="387"/><text fill="#000000" font-family="sans-serif" font-size="12" lengthAdjust="spacing" textLength="14" x="675" y="401.457">20</text><line style="stroke:#A80036;stroke-width:1.5;" x1="669" x2="695" y1="406.0938" y2="406.0938"/><rect fill="#FEFECE" filter="url(#f25vcldvoexnc)" height="35.0938" style="stroke:#A80036;stroke-width:1.5;" width="28" x="637" y="482"/><text fill="#000000" font-family="sans-serif" font-size="12" lengthAdjust="spacing" textLength="14" x="644" y="496.457">41</text><line style="stroke:#A80036;stroke-width:1.5;" x1="638" x2="664" y1="501.0938" y2="501.0938"/><rect fill="#FEFECE" filter="url(#f25vcldvoexnc)" height="35.0938" style="stroke:#A80036;stroke-width:1.5;" width="28" x="700" y="482"/><text fill="#000000" font-family="sans-serif" font-size="12" lengthAdjust="spacing" textLength="14" x="707" y="496.457">42</text><line style="stroke:#A80036;stroke-width:1.5;" x1="701" x2="727" y1="501.0938" y2="501.0938"/><rect fill="#FEFECE" filter="url(#f25vcldvoexnc)" height="35.0938" style="stroke:#A80036;stroke-width:1.5;" width="28" x="794" y="292"/><text fill="#000000" font-family="sans-serif" font-size="12" lengthAdjust="spacing" textLength="14" x="801" y="306.457">10</text><line style="stroke:#A80036;stroke-width:1.5;" x1="795" x2="821" y1="311.0938" y2="311.0938"/><rect fill="#FEFECE" filter="url(#f25vcldvoexnc)" height="35.0938" style="stroke:#A80036;stroke-width:1.5;" width="28" x="794" y="387"/><text fill="#000000" font-family="sans-serif" font-size="12" lengthAdjust="spacing" textLength="14" x="801" y="401.457">21</text><line style="stroke:#A80036;stroke-width:1.5;" x1="795" x2="821" y1="406.0938" y2="406.0938"/><rect fill="#FEFECE" filter="url(#f25vcldvoexnc)" height="35.0938" style="stroke:#A80036;stroke-width:1.5;" width="28" x="763" y="482"/><text fill="#000000" font-family="sans-serif" font-size="12" lengthAdjust="spacing" textLength="14" x="770" y="496.457">43</text><line style="stroke:#A80036;stroke-width:1.5;" x1="764" x2="790" y1="501.0938" y2="501.0938"/><rect fill="#FEFECE" filter="url(#f25vcldvoexnc)" height="35.0938" style="stroke:#A80036;stroke-width:1.5;" width="28" x="826" y="482"/><text fill="#000000" font-family="sans-serif" font-size="12" lengthAdjust="spacing" textLength="14" x="833" y="496.457">44</text><line style="stroke:#A80036;stroke-width:1.5;" x1="827" x2="853" y1="501.0938" y2="501.0938"/><rect fill="#FEFECE" filter="url(#f25vcldvoexnc)" height="35.0938" style="stroke:#A80036;stroke-width:1.5;" width="28" x="889" y="387"/><text fill="#000000" font-family="sans-serif" font-size="12" lengthAdjust="spacing" textLength="14" x="896" y="401.457">22</text><line style="stroke:#A80036;stroke-width:1.5;" x1="890" x2="916" y1="406.0938" y2="406.0938"/><rect fill="#FEFECE" filter="url(#f25vcldvoexnc)" height="35.0938" style="stroke:#A80036;stroke-width:1.5;" width="28" x="889" y="482"/><text fill="#000000" font-family="sans-serif" font-size="12" lengthAdjust="spacing" textLength="14" x="896" y="496.457">45</text><line style="stroke:#A80036;stroke-width:1.5;" x1="890" x2="916" y1="501.0938" y2="501.0938"/><rect fill="#FEFECE" filter="url(#f25vcldvoexnc)" height="35.0938" style="stroke:#A80036;stroke-width:1.5;" width="28" x="952" y="482"/><text fill="#000000" font-family="sans-serif" font-size="12" lengthAdjust="spacing" textLength="14" x="959" y="496.457">46</text><line style="stroke:#A80036;stroke-width:1.5;" x1="953" x2="979" y1="501.0938" y2="501.0938"/><rect fill="#FEFECE" filter="url(#f25vcldvoexnc)" height="35.0938" style="stroke:#A80036;stroke-width:1.5;" width="21" x="1238.5" y="102"/><text fill="#000000" font-family="sans-serif" font-size="12" lengthAdjust="spacing" textLength="7" x="1245.5" y="116.457">2</text><line style="stroke:#A80036;stroke-width:1.5;" x1="1239.5" x2="1258.5" y1="121.0938" y2="121.0938"/><rect fill="#FEFECE" filter="url(#f25vcldvoexnc)" height="35.0938" style="stroke:#A80036;stroke-width:1.5;" width="21" x="1238.5" y="197"/><text fill="#000000" font-family="sans-serif" font-size="12" lengthAdjust="spacing" textLength="7" x="1245.5" y="211.457">5</text><line style="stroke:#A80036;stroke-width:1.5;" x1="1239.5" x2="1258.5" y1="216.0938" y2="216.0938"/><rect fill="#FEFECE" filter="url(#f25vcldvoexnc)" height="35.0938" style="stroke:#A80036;stroke-width:1.5;" width="28" x="1172" y="292"/><text fill="#000000" font-family="sans-serif" font-size="12" lengthAdjust="spacing" textLength="14" x="1179" y="306.457">11</text><line style="stroke:#A80036;stroke-width:1.5;" x1="1173" x2="1199" y1="311.0938" y2="311.0938"/><rect fill="#FEFECE" filter="url(#f25vcldvoexnc)" height="35.0938" style="stroke:#A80036;stroke-width:1.5;" width="28" x="1078" y="387"/><text fill="#000000" font-family="sans-serif" font-size="12" lengthAdjust="spacing" textLength="14" x="1085" y="401.457">23</text><line style="stroke:#A80036;stroke-width:1.5;" x1="1079" x2="1105" y1="406.0938" y2="406.0938"/><rect fill="#FEFECE" filter="url(#f25vcldvoexnc)" height="35.0938" style="stroke:#A80036;stroke-width:1.5;" width="28" x="1015" y="482"/><text fill="#000000" font-family="sans-serif" font-size="12" lengthAdjust="spacing" textLength="14" x="1022" y="496.457">47</text><line style="stroke:#A80036;stroke-width:1.5;" x1="1016" x2="1042" y1="501.0938" y2="501.0938"/><rect fill="#FEFECE" filter="url(#f25vcldvoexnc)" height="35.0938" style="stroke:#A80036;stroke-width:1.5;" width="28" x="1078" y="482"/><text fill="#000000" font-family="sans-serif" font-size="12" lengthAdjust="spacing" textLength="14" x="1085" y="496.457">48</text><line style="stroke:#A80036;stroke-width:1.5;" x1="1079" x2="1105" y1="501.0938" y2="501.0938"/><rect fill="#FEFECE" filter="url(#f25vcldvoexnc)" height="35.0938" style="stroke:#A80036;stroke-width:1.5;" width="28" x="1172" y="387"/><text fill="#000000" font-family="sans-serif" font-size="12" lengthAdjust="spacing" textLength="14" x="1179" y="401.457">24</text><line style="stroke:#A80036;stroke-width:1.5;" x1="1173" x2="1199" y1="406.0938" y2="406.0938"/><rect fill="#FEFECE" filter="url(#f25vcldvoexnc)" height="35.0938" style="stroke:#A80036;stroke-width:1.5;" width="28" x="1141" y="482"/><text fill="#000000" font-family="sans-serif" font-size="12" lengthAdjust="spacing" textLength="14" x="1148" y="496.457">49</text><line style="stroke:#A80036;stroke-width:1.5;" x1="1142" x2="1168" y1="501.0938" y2="501.0938"/><rect fill="#FEFECE" filter="url(#f25vcldvoexnc)" height="35.0938" style="stroke:#A80036;stroke-width:1.5;" width="28" x="1204" y="482"/><text fill="#000000" font-family="sans-serif" font-size="12" lengthAdjust="spacing" textLength="14" x="1211" y="496.457">50</text><line style="stroke:#A80036;stroke-width:1.5;" x1="1205" x2="1231" y1="501.0938" y2="501.0938"/><rect fill="#FEFECE" filter="url(#f25vcldvoexnc)" height="35.0938" style="stroke:#A80036;stroke-width:1.5;" width="28" x="1298" y="292"/><text fill="#000000" font-family="sans-serif" font-size="12" lengthAdjust="spacing" textLength="14" x="1305" y="306.457">12</text><line style="stroke:#A80036;stroke-width:1.5;" x1="1299" x2="1325" y1="311.0938" y2="311.0938"/><rect fill="#FEFECE" filter="url(#f25vcldvoexnc)" height="35.0938" style="stroke:#A80036;stroke-width:1.5;" width="28" x="1298" y="387"/><text fill="#000000" font-family="sans-serif" font-size="12" lengthAdjust="spacing" textLength="14" x="1305" y="401.457">25</text><line style="stroke:#A80036;stroke-width:1.5;" x1="1299" x2="1325" y1="406.0938" y2="406.0938"/><rect fill="#FEFECE" filter="url(#f25vcldvoexnc)" height="35.0938" style="stroke:#A80036;stroke-width:1.5;" width="28" x="1267" y="482"/><text fill="#000000" font-family="sans-serif" font-size="12" lengthAdjust="spacing" textLength="14" x="1274" y="496.457">51</text><line style="stroke:#A80036;stroke-width:1.5;" x1="1268" x2="1294" y1="501.0938" y2="501.0938"/><rect fill="#FEFECE" filter="url(#f25vcldvoexnc)" height="35.0938" style="stroke:#A80036;stroke-width:1.5;" width="28" x="1330" y="482"/><text fill="#000000" font-family="sans-serif" font-size="12" lengthAdjust="spacing" textLength="14" x="1337" y="496.457">52</text><line style="stroke:#A80036;stroke-width:1.5;" x1="1331" x2="1357" y1="501.0938" y2="501.0938"/><rect fill="#FEFECE" filter="url(#f25vcldvoexnc)" height="35.0938" style="stroke:#A80036;stroke-width:1.5;" width="28" x="1393" y="387"/><text fill="#000000" font-family="sans-serif" font-size="12" lengthAdjust="spacing" textLength="14" x="1400" y="401.457">26</text><line style="stroke:#A80036;stroke-width:1.5;" x1="1394" x2="1420" y1="406.0938" y2="406.0938"/><rect fill="#FEFECE" filter="url(#f25vcldvoexnc)" height="35.0938" style="stroke:#A80036;stroke-width:1.5;" width="28" x="1393" y="482"/><text fill="#000000" font-family="sans-serif" font-size="12" lengthAdjust="spacing" textLength="14" x="1400" y="496.457">53</text><line style="stroke:#A80036;stroke-width:1.5;" x1="1394" x2="1420" y1="501.0938" y2="501.0938"/><rect fill="#FEFECE" filter="url(#f25vcldvoexnc)" height="35.0938" style="stroke:#A80036;stroke-width:1.5;" width="28" x="1456" y="482"/><text fill="#000000" font-family="sans-serif" font-size="12" lengthAdjust="spacing" textLength="14" x="1463" y="496.457">54</text><line style="stroke:#A80036;stroke-width:1.5;" x1="1457" x2="1483" y1="501.0938" y2="501.0938"/><rect fill="#FEFECE" filter="url(#f25vcldvoexnc)" height="35.0938" style="stroke:#A80036;stroke-width:1.5;" width="21" x="1616.5" y="197"/><text fill="#000000" font-family="sans-serif" font-size="12" lengthAdjust="spacing" textLength="7" x="1623.5" y="211.457">6</text><line style="stroke:#A80036;stroke-width:1.5;" x1="1617.5" x2="1636.5" y1="216.0938" y2="216.0938"/><rect fill="#FEFECE" filter="url(#f25vcldvoexnc)" height="35.0938" style="stroke:#A80036;stroke-width:1.5;" width="28" x="1613" y="292"/><text fill="#000000" font-family="sans-serif" font-size="12" lengthAdjust="spacing" textLength="14" x="1620" y="306.457">13</text><line style="stroke:#A80036;stroke-width:1.5;" x1="1614" x2="1640" y1="311.0938" y2="311.0938"/><rect fill="#FEFECE" filter="url(#f25vcldvoexnc)" height="35.0938" style="stroke:#A80036;stroke-width:1.5;" width="28" x="1582" y="387"/><text fill="#000000" font-family="sans-serif" font-size="12" lengthAdjust="spacing" textLength="14" x="1589" y="401.457">27</text><line style="stroke:#A80036;stroke-width:1.5;" x1="1583" x2="1609" y1="406.0938" y2="406.0938"/><rect fill="#FEFECE" filter="url(#f25vcldvoexnc)" height="35.0938" style="stroke:#A80036;stroke-width:1.5;" width="28" x="1519" y="482"/><text fill="#000000" font-family="sans-serif" font-size="12" lengthAdjust="spacing" textLength="14" x="1526" y="496.457">55</text><line style="stroke:#A80036;stroke-width:1.5;" x1="1520" x2="1546" y1="501.0938" y2="501.0938"/><rect fill="#FEFECE" filter="url(#f25vcldvoexnc)" height="35.0938" style="stroke:#A80036;stroke-width:1.5;" width="28" x="1582" y="482"/><text fill="#000000" font-family="sans-serif" font-size="12" lengthAdjust="spacing" textLength="14" x="1589" y="496.457">56</text><line style="stroke:#A80036;stroke-width:1.5;" x1="1583" x2="1609" y1="501.0938" y2="501.0938"/><rect fill="#FEFECE" filter="url(#f25vcldvoexnc)" height="35.0938" style="stroke:#A80036;stroke-width:1.5;" width="28" x="1645" y="387"/><text fill="#000000" font-family="sans-serif" font-size="12" lengthAdjust="spacing" textLength="14" x="1652" y="401.457">28</text><line style="stroke:#A80036;stroke-width:1.5;" x1="1646" x2="1672" y1="406.0938" y2="406.0938"/><rect fill="#FEFECE" filter="url(#f25vcldvoexnc)" height="35.0938" style="stroke:#A80036;stroke-width:1.5;" width="28" x="1645" y="482"/><text fill="#000000" font-family="sans-serif" font-size="12" lengthAdjust="spacing" textLength="14" x="1652" y="496.457">57</text><line style="stroke:#A80036;stroke-width:1.5;" x1="1646" x2="1672" y1="501.0938" y2="501.0938"/><rect fill="#FEFECE" filter="url(#f25vcldvoexnc)" height="35.0938" style="stroke:#A80036;stroke-width:1.5;" width="28" x="1708" y="482"/><text fill="#000000" font-family="sans-serif" font-size="12" lengthAdjust="spacing" textLength="14" x="1715" y="496.457">58</text><line style="stroke:#A80036;stroke-width:1.5;" x1="1709" x2="1735" y1="501.0938" y2="501.0938"/><rect fill="#FEFECE" filter="url(#f25vcldvoexnc)" height="35.0938" style="stroke:#A80036;stroke-width:1.5;" width="28" x="1802" y="292"/><text fill="#000000" font-family="sans-serif" font-size="12" lengthAdjust="spacing" textLength="14" x="1809" y="306.457">14</text><line style="stroke:#A80036;stroke-width:1.5;" x1="1803" x2="1829" y1="311.0938" y2="311.0938"/><rect fill="#FEFECE" filter="url(#f25vcldvoexnc)" height="35.0938" style="stroke:#A80036;stroke-width:1.5;" width="28" x="1802" y="387"/><text fill="#000000" font-family="sans-serif" font-size="12" lengthAdjust="spacing" textLength="14" x="1809" y="401.457">29</text><line style="stroke:#A80036;stroke-width:1.5;" x1="1803" x2="1829" y1="406.0938" y2="406.0938"/><rect fill="#FEFECE" filter="url(#f25vcldvoexnc)" height="35.0938" style="stroke:#A80036;stroke-width:1.5;" width="28" x="1771" y="482"/><text fill="#000000" font-family="sans-serif" font-size="12" lengthAdjust="spacing" textLength="14" x="1778" y="496.457">59</text><line style="stroke:#A80036;stroke-width:1.5;" x1="1772" x2="1798" y1="501.0938" y2="501.0938"/><rect fill="#FEFECE" filter="url(#f25vcldvoexnc)" height="35.0938" style="stroke:#A80036;stroke-width:1.5;" width="28" x="1834" y="482"/><text fill="#000000" font-family="sans-serif" font-size="12" lengthAdjust="spacing" textLength="14" x="1841" y="496.457">60</text><line style="stroke:#A80036;stroke-width:1.5;" x1="1835" x2="1861" y1="501.0938" y2="501.0938"/><rect fill="#FEFECE" filter="url(#f25vcldvoexnc)" height="35.0938" style="stroke:#A80036;stroke-width:1.5;" width="28" x="1897" y="387"/><text fill="#000000" font-family="sans-serif" font-size="12" lengthAdjust="spacing" textLength="14" x="1904" y="401.457">30</text><line style="stroke:#A80036;stroke-width:1.5;" x1="1898" x2="1924" y1="406.0938" y2="406.0938"/><rect fill="#FEFECE" filter="url(#f25vcldvoexnc)" height="35.0938" style="stroke:#A80036;stroke-width:1.5;" width="28" x="1897" y="482"/><text fill="#000000" font-family="sans-serif" font-size="12" lengthAdjust="spacing" textLength="14" x="1904" y="496.457">61</text><line style="stroke:#A80036;stroke-width:1.5;" x1="1898" x2="1924" y1="501.0938" y2="501.0938"/><rect fill="#FEFECE" filter="url(#f25vcldvoexnc)" height="35.0938" style="stroke:#A80036;stroke-width:1.5;" width="28" x="1960" y="482"/><text fill="#000000" font-family="sans-serif" font-size="12" lengthAdjust="spacing" textLength="14" x="1967" y="496.457">62</text><line style="stroke:#A80036;stroke-width:1.5;" x1="1961" x2="1987" y1="501.0938" y2="501.0938"/><!--MD5=[14496325b0d875ecbe25d21c9a6fb83c]
link 15 to 31--><path codeLine="2" d="M72.74,422.13 C62.32,437.5 46.78,460.44 35.45,477.16 " fill="none" id="15-to-31" style="stroke:#A80036;stroke-width:1.0;"/><polygon fill="#A80036" points="32.38,481.7,40.746,476.503,35.1896,477.564,34.1285,472.0076,32.38,481.7" style="stroke:#A80036;stroke-width:1.0;"/><!--MD5=[0ddd7361e192740447e7c9b1a787732e]
link 15 to 32--><path codeLine="2" d="M84,422.13 C84,437.24 84,459.66 84,476.3 " fill="none" id="15-to-32" style="stroke:#A80036;stroke-width:1.0;"/><polygon fill="#A80036" points="84,481.7,88,472.7,84,476.7,80,472.7,84,481.7" style="stroke:#A80036;stroke-width:1.0;"/><!--MD5=[f0267304f162b3e8332b86e1b4a01239]
link 7 to 15--><path codeLine="2" d="M168.47,320.81 C152.44,336.5 121.7,366.59 102.06,385.83 " fill="none" id="7-to-15" style="stroke:#A80036;stroke-width:1.0;"/><polygon fill="#A80036" points="98.28,389.52,107.5076,386.0775,101.8511,386.0204,101.9082,380.3638,98.28,389.52" style="stroke:#A80036;stroke-width:1.0;"/><!--MD5=[f71da77cd47199e6ae253da55722ae16]
link 16 to 33--><path codeLine="2" d="M173.28,422.13 C168.03,437.37 160.23,460.05 154.49,476.73 " fill="none" id="16-to-33" style="stroke:#A80036;stroke-width:1.0;"/><polygon fill="#A80036" points="152.78,481.7,159.4927,474.4931,154.4082,476.9725,151.9288,471.888,152.78,481.7" style="stroke:#A80036;stroke-width:1.0;"/><!--MD5=[c30512e69dd34379dd71930faf7a4e2b]
link 16 to 34--><path codeLine="2" d="M184.54,422.13 C189.62,437.37 197.18,460.05 202.74,476.73 " fill="none" id="16-to-34" style="stroke:#A80036;stroke-width:1.0;"/><polygon fill="#A80036" points="204.4,481.7,205.3664,471.8987,202.8274,476.9537,197.7724,474.4148,204.4,481.7" style="stroke:#A80036;stroke-width:1.0;"/><!--MD5=[cb55ffaef67bdaceb50ae3a79d53b31b]
link 7 to 16--><path codeLine="2" d="M179,327.13 C179,342.24 179,364.66 179,381.3 " fill="none" id="7-to-16" style="stroke:#A80036;stroke-width:1.0;"/><polygon fill="#A80036" points="179,386.7,183,377.7,179,381.7,175,377.7,179,386.7" style="stroke:#A80036;stroke-width:1.0;"/><!--MD5=[a2c280687fabf338cd9dd420d58dd518]
link 3 to 7--><path codeLine="2" d="M357.3,220.77 C325.46,236.43 231.27,282.78 194.22,301.01 " fill="none" id="3-to-7" style="stroke:#A80036;stroke-width:1.0;"/><polygon fill="#A80036" points="189.59,303.29,199.4318,302.9183,194.0792,301.0883,195.9091,295.7356,189.59,303.29" style="stroke:#A80036;stroke-width:1.0;"/><!--MD5=[3b6b312b06d7d6ea2548b7f6c714e97a]
link 17 to 35--><path codeLine="2" d="M324.74,422.13 C314.32,437.5 298.78,460.44 287.45,477.16 " fill="none" id="17-to-35" style="stroke:#A80036;stroke-width:1.0;"/><polygon fill="#A80036" points="284.38,481.7,292.746,476.503,287.1896,477.564,286.1285,472.0076,284.38,481.7" style="stroke:#A80036;stroke-width:1.0;"/><!--MD5=[52e5b3f7f5fc0dde065218b23f3a675c]
link 17 to 36--><path codeLine="2" d="M336,422.13 C336,437.24 336,459.66 336,476.3 " fill="none" id="17-to-36" style="stroke:#A80036;stroke-width:1.0;"/><polygon fill="#A80036" points="336,481.7,340,472.7,336,476.7,332,472.7,336,481.7" style="stroke:#A80036;stroke-width:1.0;"/><!--MD5=[8e33047ddf94993002edbdc6c74c5df1]
link 8 to 17--><path codeLine="2" d="M362.28,327.13 C357.03,342.37 349.23,365.05 343.49,381.73 " fill="none" id="8-to-17" style="stroke:#A80036;stroke-width:1.0;"/><polygon fill="#A80036" points="341.78,386.7,348.4927,379.4931,343.4082,381.9725,340.9288,376.888,341.78,386.7" style="stroke:#A80036;stroke-width:1.0;"/><!--MD5=[7c703aba75451df06d8338395598fdca]
link 18 to 37--><path codeLine="2" d="M399,422.13 C399,437.24 399,459.66 399,476.3 " fill="none" id="18-to-37" style="stroke:#A80036;stroke-width:1.0;"/><polygon fill="#A80036" points="399,481.7,403,472.7,399,476.7,395,472.7,399,481.7" style="stroke:#A80036;stroke-width:1.0;"/><!--MD5=[cdec1724ebfc96a5e3720d0ec60a43ef]
link 18 to 38--><path codeLine="2" d="M410.26,422.13 C420.68,437.5 436.22,460.44 447.55,477.16 " fill="none" id="18-to-38" style="stroke:#A80036;stroke-width:1.0;"/><polygon fill="#A80036" points="450.62,481.7,448.8715,472.0076,447.8104,477.564,442.254,476.503,450.62,481.7" style="stroke:#A80036;stroke-width:1.0;"/><!--MD5=[c2121880bf796fbc5ed5b5798340823c]
link 8 to 18--><path codeLine="2" d="M373.54,327.13 C378.62,342.37 386.18,365.05 391.74,381.73 " fill="none" id="8-to-18" style="stroke:#A80036;stroke-width:1.0;"/><polygon fill="#A80036" points="393.4,386.7,394.3664,376.8987,391.8274,381.9537,386.7724,379.4148,393.4,386.7" style="stroke:#A80036;stroke-width:1.0;"/><!--MD5=[04920582d08a70334e46792098439deb]
link 3 to 8--><path codeLine="2" d="M368,232.13 C368,247.24 368,269.66 368,286.3 " fill="none" id="3-to-8" style="stroke:#A80036;stroke-width:1.0;"/><polygon fill="#A80036" points="368,291.7,372,282.7,368,286.7,364,282.7,368,291.7" style="stroke:#A80036;stroke-width:1.0;"/><!--MD5=[2d4b753efd65b00afdf467246674cbe5]
link 1 to 3--><path codeLine="2" d="M734.12,123.18 C680.69,136.36 446.09,194.24 383.43,209.69 " fill="none" id="1-to-3" style="stroke:#A80036;stroke-width:1.0;"/><polygon fill="#A80036" points="378.56,210.89,388.2519,212.6415,383.4174,209.7042,386.3546,204.8697,378.56,210.89" style="stroke:#A80036;stroke-width:1.0;"/><!--MD5=[c417386541e9dbd1fe595267465d01c4]
link 19 to 39--><path codeLine="2" d="M576.74,422.13 C566.32,437.5 550.78,460.44 539.45,477.16 " fill="none" id="19-to-39" style="stroke:#A80036;stroke-width:1.0;"/><polygon fill="#A80036" points="536.38,481.7,544.746,476.503,539.1896,477.564,538.1285,472.0076,536.38,481.7" style="stroke:#A80036;stroke-width:1.0;"/><!--MD5=[dc5140e94bc1e0071fbff9a621457c3a]
link 19 to 40--><path codeLine="2" d="M588,422.13 C588,437.24 588,459.66 588,476.3 " fill="none" id="19-to-40" style="stroke:#A80036;stroke-width:1.0;"/><polygon fill="#A80036" points="588,481.7,592,472.7,588,476.7,584,472.7,588,481.7" style="stroke:#A80036;stroke-width:1.0;"/><!--MD5=[57faf6356644605e9d229747b3e16d6a]
link 9 to 19--><path codeLine="2" d="M671.22,321.17 C655.21,337 624.99,366.9 605.71,385.98 " fill="none" id="9-to-19" style="stroke:#A80036;stroke-width:1.0;"/><polygon fill="#A80036" points="602.01,389.64,611.2236,386.1602,605.5669,386.126,605.6012,380.4692,602.01,389.64" style="stroke:#A80036;stroke-width:1.0;"/><!--MD5=[840a0df36650dbf2f6ad614614fc9704]
link 20 to 41--><path codeLine="2" d="M676.46,422.13 C671.38,437.37 663.82,460.05 658.26,476.73 " fill="none" id="20-to-41" style="stroke:#A80036;stroke-width:1.0;"/><polygon fill="#A80036" points="656.6,481.7,663.2276,474.4148,658.1726,476.9537,655.6336,471.8987,656.6,481.7" style="stroke:#A80036;stroke-width:1.0;"/><!--MD5=[fb169176945ebe33e6e5f674957ac4d1]
link 20 to 42--><path codeLine="2" d="M687.72,422.13 C692.97,437.37 700.77,460.05 706.51,476.73 " fill="none" id="20-to-42" style="stroke:#A80036;stroke-width:1.0;"/><polygon fill="#A80036" points="708.22,481.7,709.0712,471.888,706.5918,476.9725,701.5073,474.4931,708.22,481.7" style="stroke:#A80036;stroke-width:1.0;"/><!--MD5=[30dea0065726f30ed7377c14da851df5]
link 9 to 20--><path codeLine="2" d="M682,327.13 C682,342.24 682,364.66 682,381.3 " fill="none" id="9-to-20" style="stroke:#A80036;stroke-width:1.0;"/><polygon fill="#A80036" points="682,386.7,686,377.7,682,381.7,678,377.7,682,386.7" style="stroke:#A80036;stroke-width:1.0;"/><!--MD5=[e86e91016e2d6c468aa6ffe31bf75a9a]
link 4 to 9--><path codeLine="2" d="M734.31,231.28 C723.57,247.14 706.98,271.63 695.37,288.77 " fill="none" id="4-to-9" style="stroke:#A80036;stroke-width:1.0;"/><polygon fill="#A80036" points="692.53,292.96,700.8837,287.7432,695.3298,288.8174,694.2556,283.2635,692.53,292.96" style="stroke:#A80036;stroke-width:1.0;"/><!--MD5=[4ff2c2289a900765a1bff89d5dbdb578]
link 21 to 43--><path codeLine="2" d="M802.46,422.13 C797.38,437.37 789.82,460.05 784.26,476.73 " fill="none" id="21-to-43" style="stroke:#A80036;stroke-width:1.0;"/><polygon fill="#A80036" points="782.6,481.7,789.2276,474.4148,784.1726,476.9537,781.6336,471.8987,782.6,481.7" style="stroke:#A80036;stroke-width:1.0;"/><!--MD5=[f7418ca2cde71848afd9d8239545e3eb]
link 21 to 44--><path codeLine="2" d="M813.72,422.13 C818.97,437.37 826.77,460.05 832.51,476.73 " fill="none" id="21-to-44" style="stroke:#A80036;stroke-width:1.0;"/><polygon fill="#A80036" points="834.22,481.7,835.0712,471.888,832.5918,476.9725,827.5073,474.4931,834.22,481.7" style="stroke:#A80036;stroke-width:1.0;"/><!--MD5=[2c83f30782f81b5e16388a9ee36137fc]
link 10 to 21--><path codeLine="2" d="M808,327.13 C808,342.24 808,364.66 808,381.3 " fill="none" id="10-to-21" style="stroke:#A80036;stroke-width:1.0;"/><polygon fill="#A80036" points="808,386.7,812,377.7,808,381.7,804,377.7,808,386.7" style="stroke:#A80036;stroke-width:1.0;"/><!--MD5=[4e79cf698a898a2105bb65b5547ab985]
link 22 to 45--><path codeLine="2" d="M903,422.13 C903,437.24 903,459.66 903,476.3 " fill="none" id="22-to-45" style="stroke:#A80036;stroke-width:1.0;"/><polygon fill="#A80036" points="903,481.7,907,472.7,903,476.7,899,472.7,903,481.7" style="stroke:#A80036;stroke-width:1.0;"/><!--MD5=[6ef15e1cad015d921c6db1c49aad709d]
link 22 to 46--><path codeLine="2" d="M914.26,422.13 C924.68,437.5 940.22,460.44 951.55,477.16 " fill="none" id="22-to-46" style="stroke:#A80036;stroke-width:1.0;"/><polygon fill="#A80036" points="954.62,481.7,952.8715,472.0076,951.8104,477.564,946.254,476.503,954.62,481.7" style="stroke:#A80036;stroke-width:1.0;"/><!--MD5=[8b7b4a21570903f488f23949763b89cd]
link 10 to 22--><path codeLine="2" d="M822.02,324.22 C838.72,340.57 866.65,367.91 884.95,385.83 " fill="none" id="10-to-22" style="stroke:#A80036;stroke-width:1.0;"/><polygon fill="#A80036" points="888.92,389.72,885.2918,380.5638,885.3489,386.2204,879.6924,386.2775,888.92,389.72" style="stroke:#A80036;stroke-width:1.0;"/><!--MD5=[b4b1e6e362150985aec918556aaa5b43]
link 4 to 10--><path codeLine="2" d="M755.69,231.28 C766.17,246.76 782.23,270.46 793.79,287.52 " fill="none" id="4-to-10" style="stroke:#A80036;stroke-width:1.0;"/><polygon fill="#A80036" points="796.62,291.7,794.8944,282.0035,793.8202,287.5574,788.2663,286.4832,796.62,291.7" style="stroke:#A80036;stroke-width:1.0;"/><!--MD5=[a94a78a4bcab98299a720253a19623a8]
link 1 to 4--><path codeLine="2" d="M745,137.13 C745,152.24 745,174.66 745,191.3 " fill="none" id="1-to-4" style="stroke:#A80036;stroke-width:1.0;"/><polygon fill="#A80036" points="745,196.7,749,187.7,745,191.7,741,187.7,745,196.7" style="stroke:#A80036;stroke-width:1.0;"/><!--MD5=[8e70be089d338ff985e27910a95d8139]
link 0 to 1--><path codeLine="2" d="M986.49,29.38 C946.95,43.97 806.95,95.64 760.27,112.86 " fill="none" id="0-to-1" style="stroke:#A80036;stroke-width:1.0;"/><polygon fill="#A80036" points="755.55,114.61,765.3775,115.2576,760.2427,112.8841,762.6161,107.7493,755.55,114.61" style="stroke:#A80036;stroke-width:1.0;"/><!--MD5=[7616bd6ab103cc8624a00ecd6329455d]
link 23 to 47--><path codeLine="2" d="M1080.74,422.13 C1070.32,437.5 1054.78,460.44 1043.45,477.16 " fill="none" id="23-to-47" style="stroke:#A80036;stroke-width:1.0;"/><polygon fill="#A80036" points="1040.38,481.7,1048.746,476.503,1043.1896,477.564,1042.1285,472.0076,1040.38,481.7" style="stroke:#A80036;stroke-width:1.0;"/><!--MD5=[6b22462133681c9486067340147ffa8f]
link 23 to 48--><path codeLine="2" d="M1092,422.13 C1092,437.24 1092,459.66 1092,476.3 " fill="none" id="23-to-48" style="stroke:#A80036;stroke-width:1.0;"/><polygon fill="#A80036" points="1092,481.7,1096,472.7,1092,476.7,1088,472.7,1092,481.7" style="stroke:#A80036;stroke-width:1.0;"/><!--MD5=[676d73eef3603283935240d883071613]
link 11 to 23--><path codeLine="2" d="M1171.72,324.62 C1155.2,340.97 1127.97,367.91 1110.01,385.68 " fill="none" id="11-to-23" style="stroke:#A80036;stroke-width:1.0;"/><polygon fill="#A80036" points="1106.1,389.55,1115.3066,386.0517,1109.6498,386.0288,1109.6727,380.372,1106.1,389.55" style="stroke:#A80036;stroke-width:1.0;"/><!--MD5=[7f39129a2b103f2fa3064cacd7a7236b]
link 24 to 49--><path codeLine="2" d="M1180.46,422.13 C1175.38,437.37 1167.82,460.05 1162.26,476.73 " fill="none" id="24-to-49" style="stroke:#A80036;stroke-width:1.0;"/><polygon fill="#A80036" points="1160.6,481.7,1167.2276,474.4148,1162.1726,476.9537,1159.6336,471.8987,1160.6,481.7" style="stroke:#A80036;stroke-width:1.0;"/><!--MD5=[fa3719453174d5a57c8520be8da960ae]
link 24 to 50--><path codeLine="2" d="M1191.72,422.13 C1196.97,437.37 1204.77,460.05 1210.51,476.73 " fill="none" id="24-to-50" style="stroke:#A80036;stroke-width:1.0;"/><polygon fill="#A80036" points="1212.22,481.7,1213.0712,471.888,1210.5918,476.9725,1205.5073,474.4931,1212.22,481.7" style="stroke:#A80036;stroke-width:1.0;"/><!--MD5=[11abb7c64b9fbbfa526ba4c4d239492f]
link 11 to 24--><path codeLine="2" d="M1186,327.13 C1186,342.24 1186,364.66 1186,381.3 " fill="none" id="11-to-24" style="stroke:#A80036;stroke-width:1.0;"/><polygon fill="#A80036" points="1186,386.7,1190,377.7,1186,381.7,1182,377.7,1186,386.7" style="stroke:#A80036;stroke-width:1.0;"/><!--MD5=[181ebb658da827b46b9db794cb2d177a]
link 5 to 11--><path codeLine="2" d="M1238.31,231.28 C1227.83,246.76 1211.77,270.46 1200.21,287.52 " fill="none" id="5-to-11" style="stroke:#A80036;stroke-width:1.0;"/><polygon fill="#A80036" points="1197.38,291.7,1205.7337,286.4832,1200.1798,287.5574,1199.1056,282.0035,1197.38,291.7" style="stroke:#A80036;stroke-width:1.0;"/><!--MD5=[1b3828a6364b4d6afe19989a2e2e3d8a]
link 25 to 51--><path codeLine="2" d="M1306.46,422.13 C1301.38,437.37 1293.82,460.05 1288.26,476.73 " fill="none" id="25-to-51" style="stroke:#A80036;stroke-width:1.0;"/><polygon fill="#A80036" points="1286.6,481.7,1293.2276,474.4148,1288.1726,476.9537,1285.6336,471.8987,1286.6,481.7" style="stroke:#A80036;stroke-width:1.0;"/><!--MD5=[934f271b30da277a6dec0da5810a9484]
link 25 to 52--><path codeLine="2" d="M1317.72,422.13 C1322.97,437.37 1330.77,460.05 1336.51,476.73 " fill="none" id="25-to-52" style="stroke:#A80036;stroke-width:1.0;"/><polygon fill="#A80036" points="1338.22,481.7,1339.0712,471.888,1336.5918,476.9725,1331.5073,474.4931,1338.22,481.7" style="stroke:#A80036;stroke-width:1.0;"/><!--MD5=[92d88640321a8880b40b78c831a86d2b]
link 12 to 25--><path codeLine="2" d="M1312,327.13 C1312,342.24 1312,364.66 1312,381.3 " fill="none" id="12-to-25" style="stroke:#A80036;stroke-width:1.0;"/><polygon fill="#A80036" points="1312,386.7,1316,377.7,1312,381.7,1308,377.7,1312,386.7" style="stroke:#A80036;stroke-width:1.0;"/><!--MD5=[a948b1031b56a62ea2b82b0293a28559]
link 26 to 53--><path codeLine="2" d="M1407,422.13 C1407,437.24 1407,459.66 1407,476.3 " fill="none" id="26-to-53" style="stroke:#A80036;stroke-width:1.0;"/><polygon fill="#A80036" points="1407,481.7,1411,472.7,1407,476.7,1403,472.7,1407,481.7" style="stroke:#A80036;stroke-width:1.0;"/><!--MD5=[b4dcf697e448e30c7e2ec9886efffb64]
link 26 to 54--><path codeLine="2" d="M1418.26,422.13 C1428.68,437.5 1444.22,460.44 1455.55,477.16 " fill="none" id="26-to-54" style="stroke:#A80036;stroke-width:1.0;"/><polygon fill="#A80036" points="1458.62,481.7,1456.8715,472.0076,1455.8104,477.564,1450.254,476.503,1458.62,481.7" style="stroke:#A80036;stroke-width:1.0;"/><!--MD5=[a65ef4373d1104d8532f6905413d9c52]
link 12 to 26--><path codeLine="2" d="M1326.02,324.22 C1342.72,340.57 1370.65,367.91 1388.95,385.83 " fill="none" id="12-to-26" style="stroke:#A80036;stroke-width:1.0;"/><polygon fill="#A80036" points="1392.92,389.72,1389.2918,380.5638,1389.3489,386.2204,1383.6924,386.2775,1392.92,389.72" style="stroke:#A80036;stroke-width:1.0;"/><!--MD5=[022a1ea79736dfe81921139f33d244c1]
link 5 to 12--><path codeLine="2" d="M1259.69,231.28 C1270.17,246.76 1286.23,270.46 1297.79,287.52 " fill="none" id="5-to-12" style="stroke:#A80036;stroke-width:1.0;"/><polygon fill="#A80036" points="1300.62,291.7,1298.8944,282.0035,1297.8202,287.5574,1292.2663,286.4832,1300.62,291.7" style="stroke:#A80036;stroke-width:1.0;"/><!--MD5=[4e74f4bf4b09d37138dfb3a42c5ccc13]
link 2 to 5--><path codeLine="2" d="M1249,137.13 C1249,152.24 1249,174.66 1249,191.3 " fill="none" id="2-to-5" style="stroke:#A80036;stroke-width:1.0;"/><polygon fill="#A80036" points="1249,196.7,1253,187.7,1249,191.7,1245,187.7,1249,196.7" style="stroke:#A80036;stroke-width:1.0;"/><!--MD5=[9fa3ff77f37f367d8f6ef01a967cbd0b]
link 27 to 55--><path codeLine="2" d="M1584.74,422.13 C1574.32,437.5 1558.78,460.44 1547.45,477.16 " fill="none" id="27-to-55" style="stroke:#A80036;stroke-width:1.0;"/><polygon fill="#A80036" points="1544.38,481.7,1552.746,476.503,1547.1896,477.564,1546.1285,472.0076,1544.38,481.7" style="stroke:#A80036;stroke-width:1.0;"/><!--MD5=[03c4b1759af2d3053a8e79e37387c6f6]
link 27 to 56--><path codeLine="2" d="M1596,422.13 C1596,437.24 1596,459.66 1596,476.3 " fill="none" id="27-to-56" style="stroke:#A80036;stroke-width:1.0;"/><polygon fill="#A80036" points="1596,481.7,1600,472.7,1596,476.7,1592,472.7,1596,481.7" style="stroke:#A80036;stroke-width:1.0;"/><!--MD5=[cc15630f779a615d675e66491745341c]
link 13 to 27--><path codeLine="2" d="M1621.46,327.13 C1616.38,342.37 1608.82,365.05 1603.26,381.73 " fill="none" id="13-to-27" style="stroke:#A80036;stroke-width:1.0;"/><polygon fill="#A80036" points="1601.6,386.7,1608.2276,379.4148,1603.1726,381.9537,1600.6336,376.8987,1601.6,386.7" style="stroke:#A80036;stroke-width:1.0;"/><!--MD5=[ec80003e6a91345bdf25975f971e3f57]
link 28 to 57--><path codeLine="2" d="M1659,422.13 C1659,437.24 1659,459.66 1659,476.3 " fill="none" id="28-to-57" style="stroke:#A80036;stroke-width:1.0;"/><polygon fill="#A80036" points="1659,481.7,1663,472.7,1659,476.7,1655,472.7,1659,481.7" style="stroke:#A80036;stroke-width:1.0;"/><!--MD5=[24deabc7212e5c80655834bb99ea7e17]
link 28 to 58--><path codeLine="2" d="M1670.26,422.13 C1680.68,437.5 1696.22,460.44 1707.55,477.16 " fill="none" id="28-to-58" style="stroke:#A80036;stroke-width:1.0;"/><polygon fill="#A80036" points="1710.62,481.7,1708.8715,472.0076,1707.8104,477.564,1702.254,476.503,1710.62,481.7" style="stroke:#A80036;stroke-width:1.0;"/><!--MD5=[ca534aef03b76bb105f391aac187c6dd]
link 13 to 28--><path codeLine="2" d="M1632.72,327.13 C1637.97,342.37 1645.77,365.05 1651.51,381.73 " fill="none" id="13-to-28" style="stroke:#A80036;stroke-width:1.0;"/><polygon fill="#A80036" points="1653.22,386.7,1654.0712,376.888,1651.5918,381.9725,1646.5073,379.4931,1653.22,386.7" style="stroke:#A80036;stroke-width:1.0;"/><!--MD5=[96a764873246a51a603aefb3a951de88]
link 6 to 13--><path codeLine="2" d="M1627,232.13 C1627,247.24 1627,269.66 1627,286.3 " fill="none" id="6-to-13" style="stroke:#A80036;stroke-width:1.0;"/><polygon fill="#A80036" points="1627,291.7,1631,282.7,1627,286.7,1623,282.7,1627,291.7" style="stroke:#A80036;stroke-width:1.0;"/><!--MD5=[fc20e550d99fed555c1e0138c378a04c]
link 29 to 59--><path codeLine="2" d="M1810.46,422.13 C1805.38,437.37 1797.82,460.05 1792.26,476.73 " fill="none" id="29-to-59" style="stroke:#A80036;stroke-width:1.0;"/><polygon fill="#A80036" points="1790.6,481.7,1797.2276,474.4148,1792.1726,476.9537,1789.6336,471.8987,1790.6,481.7" style="stroke:#A80036;stroke-width:1.0;"/><!--MD5=[599fd8a058d5754e686091cd499c9d63]
link 29 to 60--><path codeLine="2" d="M1821.72,422.13 C1826.97,437.37 1834.77,460.05 1840.51,476.73 " fill="none" id="29-to-60" style="stroke:#A80036;stroke-width:1.0;"/><polygon fill="#A80036" points="1842.22,481.7,1843.0712,471.888,1840.5918,476.9725,1835.5073,474.4931,1842.22,481.7" style="stroke:#A80036;stroke-width:1.0;"/><!--MD5=[d222cc177152c3c20fbb8863f1b6ecd6]
link 14 to 29--><path codeLine="2" d="M1816,327.13 C1816,342.24 1816,364.66 1816,381.3 " fill="none" id="14-to-29" style="stroke:#A80036;stroke-width:1.0;"/><polygon fill="#A80036" points="1816,386.7,1820,377.7,1816,381.7,1812,377.7,1816,386.7" style="stroke:#A80036;stroke-width:1.0;"/><!--MD5=[278d89a6f20c96fac1c8e2abc1dcbf15]
link 30 to 61--><path codeLine="2" d="M1911,422.13 C1911,437.24 1911,459.66 1911,476.3 " fill="none" id="30-to-61" style="stroke:#A80036;stroke-width:1.0;"/><polygon fill="#A80036" points="1911,481.7,1915,472.7,1911,476.7,1907,472.7,1911,481.7" style="stroke:#A80036;stroke-width:1.0;"/><!--MD5=[98f4bc50e7617281772310f48ea5b45a]
link 30 to 62--><path codeLine="2" d="M1922.26,422.13 C1932.68,437.5 1948.22,460.44 1959.55,477.16 " fill="none" id="30-to-62" style="stroke:#A80036;stroke-width:1.0;"/><polygon fill="#A80036" points="1962.62,481.7,1960.8715,472.0076,1959.8104,477.564,1954.254,476.503,1962.62,481.7" style="stroke:#A80036;stroke-width:1.0;"/><!--MD5=[402be3097d2e8415f9ec0f4ccbb26566]
link 14 to 30--><path codeLine="2" d="M1830.02,324.22 C1846.72,340.57 1874.65,367.91 1892.95,385.83 " fill="none" id="14-to-30" style="stroke:#A80036;stroke-width:1.0;"/><polygon fill="#A80036" points="1896.92,389.72,1893.2918,380.5638,1893.3489,386.2204,1887.6924,386.2775,1896.92,389.72" style="stroke:#A80036;stroke-width:1.0;"/><!--MD5=[cd64fd9ab82f191b5e69f668f60caeff]
link 6 to 14--><path codeLine="2" d="M1637.7,220.77 C1668.62,235.98 1758.33,280.12 1797.42,299.36 " fill="none" id="6-to-14" style="stroke:#A80036;stroke-width:1.0;"/><polygon fill="#A80036" points="1801.93,301.58,1795.6109,294.0256,1797.4408,299.3783,1792.0882,301.2083,1801.93,301.58" style="stroke:#A80036;stroke-width:1.0;"/><!--MD5=[8d5e64f07a3a026530162c78b23a3473]
link 2 to 6--><path codeLine="2" d="M1259.5,123.08 C1312.27,136.07 1548.39,194.16 1611.47,209.68 " fill="none" id="2-to-6" style="stroke:#A80036;stroke-width:1.0;"/><polygon fill="#A80036" points="1616.37,210.88,1608.5921,204.8381,1611.5159,209.6808,1606.6733,212.6046,1616.37,210.88" style="stroke:#A80036;stroke-width:1.0;"/><!--MD5=[0ac72404a57c2449cbf96c6ef421c7b5]
link 0 to 2--><path codeLine="2" d="M1007.51,29.38 C1047.05,43.97 1187.05,95.64 1233.73,112.86 " fill="none" id="0-to-2" style="stroke:#A80036;stroke-width:1.0;"/><polygon fill="#A80036" points="1238.45,114.61,1231.3839,107.7493,1233.7573,112.8841,1228.6225,115.2576,1238.45,114.61" style="stroke:#A80036;stroke-width:1.0;"/><!--MD5=[fe643d61f0271d87570770304a98daf7]
@startuml
!procedure $connect_entities($name1, $name2)
    $name1 -down-> $name2
!endprocedure

/' draws the full binary tree of the specified height. '/
!procedure $make_full_binary_tree($height, $index = 0)
    !if $height >= 0
        object $index
    !endif

    !if $height > 0
        !$left_child_instance_name = $index * 2 + 1
        $make_full_binary_tree($height - 1, $left_child_instance_name)
        $connect_entities($index, $left_child_instance_name)

        !$right_child_instance_name = $index * 2 + 2
        $make_full_binary_tree($height - 1, $right_child_instance_name)
        $connect_entities($index, $right_child_instance_name)
    !endif
!endprocedure

$make_full_binary_tree(5)
@enduml

@startuml


        object 0

                object 1

                object 3

                object 7

                object 15

                object 31

            15 -down-> 31

                object 32

            15 -down-> 32
            7 -down-> 15

                object 16

                object 33

            16 -down-> 33

                object 34

            16 -down-> 34
            7 -down-> 16
            3 -down-> 7

                object 8

                object 17

                object 35

            17 -down-> 35

                object 36

            17 -down-> 36
            8 -down-> 17

                object 18

                object 37

            18 -down-> 37

                object 38

            18 -down-> 38
            8 -down-> 18
            3 -down-> 8
            1 -down-> 3

                object 4

                object 9

                object 19

                object 39

            19 -down-> 39

                object 40

            19 -down-> 40
            9 -down-> 19

                object 20

                object 41

            20 -down-> 41

                object 42

            20 -down-> 42
            9 -down-> 20
            4 -down-> 9

                object 10

                object 21

                object 43

            21 -down-> 43

                object 44

            21 -down-> 44
            10 -down-> 21

                object 22

                object 45

            22 -down-> 45

                object 46

            22 -down-> 46
            10 -down-> 22
            4 -down-> 10
            1 -down-> 4
            0 -down-> 1

                object 2

                object 5

                object 11

                object 23

                object 47

            23 -down-> 47

                object 48

            23 -down-> 48
            11 -down-> 23

                object 24

                object 49

            24 -down-> 49

                object 50

            24 -down-> 50
            11 -down-> 24
            5 -down-> 11

                object 12

                object 25

                object 51

            25 -down-> 51

                object 52

            25 -down-> 52
            12 -down-> 25

                object 26

                object 53

            26 -down-> 53

                object 54

            26 -down-> 54
            12 -down-> 26
            5 -down-> 12
            2 -down-> 5

                object 6

                object 13

                object 27

                object 55

            27 -down-> 55

                object 56

            27 -down-> 56
            13 -down-> 27

                object 28

                object 57

            28 -down-> 57

                object 58

            28 -down-> 58
            13 -down-> 28
            6 -down-> 13

                object 14

                object 29

                object 59

            29 -down-> 59

                object 60

            29 -down-> 60
            14 -down-> 29

                object 30

                object 61

            30 -down-> 61

                object 62

            30 -down-> 62
            14 -down-> 30
            6 -down-> 14
            2 -down-> 6
            0 -down-> 2
@enduml

PlantUML version 1.2021.9(Sun Jul 25 15:43:56 IST 2021)
(GPL source distribution)
Java Runtime: Java(TM) SE Runtime Environment
JVM: Java HotSpot(TM) 64-Bit Server VM
Default Encoding: Cp1252
Language: en
Country: IN
--></g></svg>