<svg xmlns="http://www.w3.org/2000/svg" xmlns:xlink="http://www.w3.org/1999/xlink" contentStyleType="text/css" height="487.5px" preserveAspectRatio="none" style="width:630px;height:487px;background:#FFFFFF;" version="1.1" viewBox="0 0 630 487" width="630px" zoomAndPan="magnify"><defs/><g><path d="M19.5,17.9219 C18.125,17.9219 17,19.0469 17,20.4219 L17,34.1719 C17,34.8719 16.45,35.4219 15.75,35.4219 C15.05,35.4219 14.5,34.8719 14.5,34.1719 L14.5,30.4219 L12,30.4219 L12,35.4219 C12,36.7969 13.125,37.9219 14.5,37.9219 L27,37.9219 C28.375,37.9219 29.5,36.7969 29.5,35.4219 L29.5,27.9219 L19.5,27.9219 L19.5,21.6719 C19.5,20.9719 20.05,20.4219 20.75,20.4219 C21.45,20.4219 22,20.9719 22,21.6719 L22,25.4219 L32,25.4219 L32,20.4219 C32,19.0469 30.875,17.9219 29.5,17.9219 L19.5,17.9219 " fill="#000000" style="stroke:;stroke-width:0.0;stroke-dasharray:;"/><text fill="#000000" font-family="sans-serif" font-size="30" font-weight="bold" lengthAdjust="spacing" textLength="173.5547" x="43.9443" y="38.3467">Storybook</text><text fill="#000000" font-family="sans-serif" font-size="18" lengthAdjust="spacing" textLength="174.3662" x="12" y="69.6299">What is your story?</text><path d="M193.5879,57.375 L193.5879,63.375 L195.8379,61.125 L198.0879,63.375 L199.5879,61.875 L197.3379,59.625 L199.5879,57.375 L193.5879,57.375 M201.0879,63.375 L199.5879,64.875 L201.8379,67.125 L199.5879,69.375 L205.5879,69.375 L205.5879,63.375 L203.3379,65.625 L201.0879,63.375 " fill="#000000" style="stroke:;stroke-width:0.0;stroke-dasharray:;"/><text fill="#000000" font-family="sans-serif" font-size="24" font-weight="bold" lengthAdjust="spacing" textLength="272.2852" x="272.7217" y="75.1992">Popular Storytellers</text><path d="M280.2217,112.2656 C278.5717,112.2656 277.2217,113.9456 277.2217,116.0156 C277.2217,118.0856 278.5717,119.7656 280.2217,119.7656 C281.8717,119.7656 283.2217,118.0856 283.2217,116.0156 C283.2217,113.9456 281.8717,112.2656 280.2217,112.2656 M277.0867,119.7656 C275.4967,119.8406 274.2217,121.1456 274.2217,122.7656 L274.2217,124.2656 L286.2217,124.2656 L286.2217,122.7656 C286.2217,121.1456 284.9617,119.8406 283.3567,119.7656 C282.5467,120.6806 281.4367,121.2656 280.2217,121.2656 C279.0067,121.2656 277.8967,120.6806 277.0867,119.7656 " fill="#000000" style="stroke:;stroke-width:0.0;stroke-dasharray:;"/><text fill="#000000" font-family="sans-serif" font-size="18" lengthAdjust="spacing" textLength="5.7217" x="287.7217" y="124.5205">&#160;</text><text fill="#000000" font-family="sans-serif" font-size="18" font-weight="bold" lengthAdjust="spacing" textLength="130.8252" x="293.4434" y="124.5205">Rahul Dravid</text><text fill="#000000" font-family="sans-serif" font-size="18" lengthAdjust="spacing" textLength="7.0225" x="429.9902" y="124.5205">[</text><path d="M443.0127,112.2656 C442.1877,112.2656 441.5127,112.9406 441.5127,113.7656 L441.5127,122.0156 C441.5127,122.4356 441.1827,122.7656 440.7627,122.7656 C440.3427,122.7656 440.0127,122.4356 440.0127,122.0156 L440.0127,119.7656 L438.5127,119.7656 L438.5127,122.7656 C438.5127,123.5906 439.1877,124.2656 440.0127,124.2656 L447.5127,124.2656 C448.3377,124.2656 449.0127,123.5906 449.0127,122.7656 L449.0127,118.2656 L443.0127,118.2656 L443.0127,114.5156 C443.0127,114.0956 443.3427,113.7656 443.7627,113.7656 C444.1827,113.7656 444.5127,114.0956 444.5127,114.5156 L444.5127,116.7656 L450.5127,116.7656 L450.5127,113.7656 C450.5127,112.9406 449.8377,112.2656 449.0127,112.2656 L443.0127,112.2656 " fill="#000000" style="stroke:;stroke-width:0.0;stroke-dasharray:;"/><text fill="#000000" font-family="sans-serif" font-size="18" lengthAdjust="spacing" textLength="107.4023" x="457.7344" y="124.5205">164 stories]</text><path d="M280.2217,136.2188 C278.5717,136.2188 277.2217,137.8988 277.2217,139.9688 C277.2217,142.0388 278.5717,143.7188 280.2217,143.7188 C281.8717,143.7188 283.2217,142.0388 283.2217,139.9688 C283.2217,137.8988 281.8717,136.2188 280.2217,136.2188 M277.0867,143.7188 C275.4967,143.7938 274.2217,145.0988 274.2217,146.7188 L274.2217,148.2188 L286.2217,148.2188 L286.2217,146.7188 C286.2217,145.0988 284.9617,143.7938 283.3567,143.7188 C282.5467,144.6338 281.4367,145.2188 280.2217,145.2188 C279.0067,145.2188 277.8967,144.6338 277.0867,143.7188 " fill="#000000" style="stroke:;stroke-width:0.0;stroke-dasharray:;"/><text fill="#000000" font-family="sans-serif" font-size="18" lengthAdjust="spacing" textLength="5.7217" x="287.7217" y="148.4736">&#160;</text><text fill="#000000" font-family="sans-serif" font-size="18" font-weight="bold" lengthAdjust="spacing" textLength="144.6855" x="293.4434" y="148.4736">Bill Watterson</text><text fill="#000000" font-family="sans-serif" font-size="18" lengthAdjust="spacing" textLength="7.0225" x="443.8506" y="148.4736">[</text><path d="M456.873,136.2188 C456.048,136.2188 455.373,136.8938 455.373,137.7188 L455.373,145.9688 C455.373,146.3888 455.043,146.7188 454.623,146.7188 C454.203,146.7188 453.873,146.3888 453.873,145.9688 L453.873,143.7188 L452.373,143.7188 L452.373,146.7188 C452.373,147.5438 453.048,148.2188 453.873,148.2188 L461.373,148.2188 C462.198,148.2188 462.873,147.5438 462.873,146.7188 L462.873,142.2188 L456.873,142.2188 L456.873,138.4688 C456.873,138.0487 457.203,137.7188 457.623,137.7188 C458.043,137.7188 458.373,138.0487 458.373,138.4688 L458.373,140.7188 L464.373,140.7188 L464.373,137.7188 C464.373,136.8938 463.698,136.2188 462.873,136.2188 L456.873,136.2188 " fill="#000000" style="stroke:;stroke-width:0.0;stroke-dasharray:;"/><text fill="#000000" font-family="sans-serif" font-size="18" lengthAdjust="spacing" textLength="118.8545" x="471.5947" y="148.4736">3160 stories]</text><rect fill="#EEEEEE" height="26.9531" rx="7.5" ry="7.5" style="stroke:#000000;stroke-width:3.75;" width="90" x="15.75" y="210.375"/><path d="M38.7378,217.8281 C35.4228,217.8281 32.7378,220.5131 32.7378,223.8281 C32.7378,227.1431 35.4228,229.8281 38.7378,229.8281 C42.0528,229.8281 44.7378,227.1431 44.7378,223.8281 C44.7378,220.5131 42.0528,217.8281 38.7378,217.8281 M41.7378,220.4981 L42.8178,221.5781 L37.9878,226.4081 L35.4078,223.8281 L36.4878,222.7481 L37.9878,224.2481 L41.7378,220.4981 " fill="#000000" style="stroke:;stroke-width:0.0;stroke-dasharray:;"/><text fill="#000000" font-family="sans-serif" font-size="18" lengthAdjust="spacing" textLength="38.3027" x="51.9595" y="230.083">Post</text><rect fill="#EEEEEE" height="26.9531" rx="7.5" ry="7.5" style="stroke:#000000;stroke-width:3.75;" width="138" x="116.25" y="210.375"/><path d="M148.7856,217.8281 C148.0206,217.8281 147.2556,218.1431 146.6706,218.7131 L142.5006,222.7931 C140.8956,224.3981 140.8956,226.9931 142.5006,228.6131 C144.1056,230.2181 146.7006,230.2181 148.3206,228.6131 L150.1956,226.7381 L149.1606,225.7031 L147.4206,227.3981 L147.2856,227.5931 C146.2506,228.6281 144.5706,228.6281 143.5356,227.5931 C142.5156,226.5731 142.5456,224.9231 143.5356,223.8881 L147.7056,219.7631 C148.2906,219.1781 149.2656,219.1781 149.8656,219.7631 C150.4506,220.3481 150.4206,221.2781 149.8656,221.8781 L146.1156,225.5831 C145.9656,225.7331 145.7106,225.7331 145.5456,225.5831 C145.3956,225.4331 145.3956,225.1781 145.5456,225.0131 L145.6356,224.9681 L147.0006,223.5581 L145.9656,222.5231 L144.5106,223.9781 C143.7906,224.6981 143.7906,225.8831 144.5106,226.6031 C145.2306,227.3231 146.4156,227.3381 147.1356,226.6031 L150.8856,222.9431 C152.0556,221.7731 152.0556,219.8831 150.8856,218.7281 C150.3006,218.1431 149.5506,217.8431 148.7706,217.8431 " fill="#000000" style="stroke:;stroke-width:0.0;stroke-dasharray:;"/><text fill="#000000" font-family="sans-serif" font-size="18" lengthAdjust="spacing" textLength="75.9287" x="154.7856" y="230.083">Attach...</text><text fill="#000000" font-family="sans-serif" font-size="24" font-weight="bold" lengthAdjust="spacing" textLength="225.4688" x="10.5" y="270.8555">Trending Stories</text><path d="M251.8242,254.5156 L245.8242,264.5156 L249.8242,264.5156 L249.8242,270.5156 L255.8242,260.5156 L251.8242,260.5156 L251.8242,254.5156 " fill="#000000" style="stroke:;stroke-width:0.0;stroke-dasharray:;"/><rect fill="#EEEEEE" height="25.4531" style="stroke:#000000;stroke-width:1.5;" width="82.5" x="526.002" y="248.5781"/><text fill="#000000" font-family="sans-serif" font-size="18" lengthAdjust="spacing" textLength="55.1162" x="529.002" y="268.2861">Today</text><line style="stroke:#000000;stroke-width:1.5;" x1="592.002" x2="592.002" y1="248.5781" y2="274.0313"/><polygon fill="#000000" points="596.502,257.5781,605.502,257.5781,601.002,266.5313" style="stroke:#000000;stroke-width:1.5;"/><text fill="#000000" font-family="sans-serif" font-size="18" font-weight="bold" lengthAdjust="spacing" textLength="424.4502" x="12" y="321.6768">Compassion Unlimited Plus Action (CUPA)</text><text fill="#000000" font-family="sans-serif" font-size="18" lengthAdjust="spacing" textLength="5.7217" x="436.4502" y="321.6768">&#160;</text><path d="M446.6719,309.4219 C445.8469,309.4219 445.1119,309.7669 444.5569,310.3069 C444.0169,310.8469 443.6719,311.5819 443.6719,312.4219 C443.6719,313.2469 444.0169,313.9819 444.5569,314.5369 L449.6719,319.6519 L454.7869,314.5369 C455.3269,313.9969 455.6719,313.2619 455.6719,312.4219 C455.6719,311.5969 455.3269,310.8619 454.7869,310.3069 C454.2469,309.7669 453.5119,309.4219 452.6719,309.4219 C451.8469,309.4219 451.1119,309.7669 450.5569,310.3069 C450.0169,310.8469 449.6719,311.5819 449.6719,312.4219 C449.6719,311.5969 449.3269,310.8619 448.7869,310.3069 C448.2469,309.7669 447.5119,309.4219 446.6719,309.4219 " fill="#000000" style="stroke:;stroke-width:0.0;stroke-dasharray:;"/><text fill="#000000" font-family="sans-serif" font-size="18" lengthAdjust="spacing" textLength="44.1563" x="457.1719" y="321.6768">2.5M</text><text fill="#000000" font-family="sans-serif" font-size="18" lengthAdjust="spacing" textLength="254.373" x="12" y="345.6299">Be a part of our community,</text><text fill="#000000" font-family="sans-serif" font-size="18" lengthAdjust="spacing" textLength="328.1396" x="12" y="369.583">Give the animals some of your time.</text><text fill="#000000" font-family="sans-serif" font-size="18" font-style="italic" lengthAdjust="spacing" textLength="175.6406" x="345.8613" y="369.583">continue reading ...</text><text fill="#000000" font-family="sans-serif" font-size="18" font-weight="bold" lengthAdjust="spacing" textLength="103.3242" x="12" y="420.4893">Elon Musk</text><text fill="#000000" font-family="sans-serif" font-size="18" lengthAdjust="spacing" textLength="5.7217" x="115.3242" y="420.4893">&#160;</text><path d="M125.5459,408.2344 C124.7209,408.2344 123.9859,408.5794 123.4309,409.1194 C122.8909,409.6594 122.5459,410.3944 122.5459,411.2344 C122.5459,412.0594 122.8909,412.7944 123.4309,413.3494 L128.5459,418.4644 L133.6609,413.3494 C134.2009,412.8094 134.5459,412.0744 134.5459,411.2344 C134.5459,410.4094 134.2009,409.6744 133.6609,409.1194 C133.1209,408.5794 132.3859,408.2344 131.5459,408.2344 C130.7209,408.2344 129.9859,408.5794 129.4309,409.1194 C128.8909,409.6594 128.5459,410.3944 128.5459,411.2344 C128.5459,410.4094 128.2009,409.6744 127.6609,409.1194 C127.1209,408.5794 126.3859,408.2344 125.5459,408.2344 " fill="#000000" style="stroke:;stroke-width:0.0;stroke-dasharray:;"/><text fill="#000000" font-family="sans-serif" font-size="18" lengthAdjust="spacing" textLength="44.1563" x="136.0459" y="420.4893">1.6M</text><text fill="#000000" font-family="sans-serif" font-size="18" lengthAdjust="spacing" textLength="500.7656" x="12" y="444.4424">Forget spaceships, we should teleport to Mars by 2030,</text><text fill="#000000" font-family="sans-serif" font-size="18" lengthAdjust="spacing" textLength="185.4316" x="12" y="468.3955">because ... why not?</text><text fill="#000000" font-family="sans-serif" font-size="18" font-style="italic" lengthAdjust="spacing" textLength="175.6406" x="203.1533" y="468.3955">continue reading ...</text><line style="stroke:#000000;stroke-width:1.5;" x1="7.5" x2="613.002" y1="7.5" y2="7.5"/><line style="stroke:#000000;stroke-width:1.5;" x1="7.5" x2="613.002" y1="477.1406" y2="477.1406"/><line style="stroke:#000000;stroke-width:1.5;" x1="7.5" x2="7.5" y1="7.5" y2="48.4219"/><line style="stroke:#000000;stroke-width:1.5;" x1="613.002" x2="613.002" y1="48.4219" y2="245.5781"/><line style="stroke:#000000;stroke-width:1.5;" x1="613.002" x2="613.002" y1="7.5" y2="48.4219"/><line style="stroke:#000000;stroke-width:1.5;" x1="7.5" x2="7.5" y1="245.5781" y2="477.1406"/><line style="stroke:#000000;stroke-width:1.5;" x1="7.5" x2="7.5" y1="48.4219" y2="245.5781"/><line style="stroke:#000000;stroke-width:1.5;" x1="613.002" x2="613.002" y1="245.5781" y2="477.1406"/><!--SRC=[bLHTJzim57tthxXF5MGq9ALKhAh2H_cGkbQhA8M72IGtlJHM7JloHr47_U-x2TfO6DKsFqI9VU_nEIV7Fh6E6sUvTCocN2B4uI6pIw4ARdWE1P_FXLf0737s_8a1ZUVgMOwU5T-nsugI8EWrR6f4uHAOE6tMCwsNDBbV5YHL_UPTxzjREUuoxa1OM6jlm9O8nz1hF7ef2HPHDL4vD4cj9_odhmsyG0WlM_PzLH1tIC5O5rvoyyhVePHeR5t2nrlr6WLLQfL045ppp4iuDtmbva40tzvSYJljIfT0Ux-r_Kn82NVSkMgc3d0GTwAF4ROgtwAPG5DXKedDDCDqcS1OMtTFDj52mObDAaMHd3h7qomCm_jtW9iFGr1PU6DGLMcPlF8aSJCjNVBBHjhauKRF-Vg1_SctpZ88-ZelkBL2AvWgANBXS0vZwIsSfgwStUbFnwUxP5ElaI65E6c5XwCQo1a2fmWR1_eHocYbEi-z4cwzLwkx4Yi4br6r4ZcN5gpEiUofykX4ZY7qH99gvOJo20PvfPFiwUsBvA-MX- -aNKYYF_9s-HlvEEpKoLzgiq07jk0fsamKTW-U46oclPm31HGBJSASXX4t5cPhQ4K7KLtN35FkBPOyuIbRWzBk-3-4RDY6dT0lhMu7DfPSkUbe22kAP-b_7BQYLZlix4pey0ue-547ei_TkDqzE8BfJH_AvLssSpKUag7Uf0XpOPqHCr_-lrqsu2iErrwL1dVXQu5gSFxbvmHSg9KmMkLqzDdWTlHMq6atpuI32HfY0hSZTewFt4j77QakvNHfzylc4HjojV1yGTYeM5yJhbbtGT6jyWC0]--></g></svg>