<svg xmlns="http://www.w3.org/2000/svg" xmlns:xlink="http://www.w3.org/1999/xlink" contentStyleType="text/css" height="581px" preserveAspectRatio="none" style="width:1088px;height:581px;background:#FFFFFF;" version="1.1" viewBox="0 0 1088 581" width="1088px" zoomAndPan="magnify"><defs/><g><text fill="#000000" font-family="sans-serif" font-size="14" font-weight="bold" lengthAdjust="spacing" textLength="173.1064" x="450.5693" y="22.9951">Object Diagram Demo</text><text fill="#000000" font-family="sans-serif" font-size="14" font-weight="bold" lengthAdjust="spacing" textLength="4.874" x="534.6855" y="39.292">&#160;</text><text fill="#000000" font-family="sans-serif" font-size="14" font-weight="bold" lengthAdjust="spacing" textLength="4.874" x="534.6855" y="55.5889">&#160;</text><!--class Base--><g id="elem_Base"><rect codeLine="34" fill="#DEB887" height="88.8906" id="Base" rx="2.5" ry="2.5" style="stroke:#B22222;stroke-width:0.5;" width="248.0996" x="38.5" y="82.8906"/><ellipse cx="139.3267" cy="98.8906" fill="#ADD1B2" rx="11" ry="11" style="stroke:#181818;stroke-width:1.0;"/><path d="M142.2954,104.5313 Q141.7173,104.8281 141.0767,104.9688 Q140.436,105.125 139.7329,105.125 Q137.2329,105.125 135.9048,103.4844 Q134.5923,101.8281 134.5923,98.7031 Q134.5923,95.5781 135.9048,93.9219 Q137.2329,92.2656 139.7329,92.2656 Q140.436,92.2656 141.0767,92.4219 Q141.7329,92.5781 142.2954,92.875 L142.2954,95.5938 Q141.6704,95.0156 141.0767,94.75 Q140.4829,94.4688 139.8579,94.4688 Q138.5142,94.4688 137.8267,95.5469 Q137.1392,96.6094 137.1392,98.7031 Q137.1392,100.7969 137.8267,101.875 Q138.5142,102.9375 139.8579,102.9375 Q140.4829,102.9375 141.0767,102.6719 Q141.6704,102.3906 142.2954,101.8125 L142.2954,104.5313 Z " fill="#000000"/><text fill="#000000" font-family="sans-serif" font-size="14" font-weight="bold" lengthAdjust="spacing" textLength="37.9463" x="159.8267" y="103.7373">Base</text><line style="stroke:#B22222;stroke-width:0.5;" x1="39.5" x2="285.5996" y1="114.8906" y2="114.8906"/><ellipse cx="49.5" cy="128.5391" fill="#84BE84" rx="3" ry="3" style="stroke:#038048;stroke-width:1.0;"/><text fill="#000000" font-family="sans-serif" font-size="14" lengthAdjust="spacing" textLength="123.0742" x="58.5" y="131.8857">void non_virtual()</text><ellipse cx="49.5" cy="144.8359" fill="#84BE84" rx="3" ry="3" style="stroke:#038048;stroke-width:1.0;"/><text fill="#000000" font-family="sans-serif" font-size="14" lengthAdjust="spacing" textLength="203.1641" x="58.5" y="148.1826">virtual void virtual_function()</text><ellipse cx="49.5" cy="161.1328" fill="#84BE84" rx="3" ry="3" style="stroke:#038048;stroke-width:1.0;"/><text fill="#000000" font-family="sans-serif" font-size="14" lengthAdjust="spacing" textLength="222.0996" x="58.5" y="164.4795">virtual void overridden_virtual()</text></g><!--class Derived--><g id="elem_Derived"><rect codeLine="40" fill="#DEB887" height="56.2969" id="Derived" rx="2.5" ry="2.5" style="stroke:#B22222;stroke-width:0.5;" width="310.915" x="7" y="243.3906"/><ellipse cx="127.4766" cy="259.3906" fill="#ADD1B2" rx="11" ry="11" style="stroke:#181818;stroke-width:1.0;"/><path d="M130.4453,265.0313 Q129.8672,265.3281 129.2266,265.4688 Q128.5859,265.625 127.8828,265.625 Q125.3828,265.625 124.0547,263.9844 Q122.7422,262.3281 122.7422,259.2031 Q122.7422,256.0781 124.0547,254.4219 Q125.3828,252.7656 127.8828,252.7656 Q128.5859,252.7656 129.2266,252.9219 Q129.8828,253.0781 130.4453,253.375 L130.4453,256.0938 Q129.8203,255.5156 129.2266,255.25 Q128.6328,254.9688 128.0078,254.9688 Q126.6641,254.9688 125.9766,256.0469 Q125.2891,257.1094 125.2891,259.2031 Q125.2891,261.2969 125.9766,262.375 Q126.6641,263.4375 128.0078,263.4375 Q128.6328,263.4375 129.2266,263.1719 Q129.8203,262.8906 130.4453,262.3125 L130.4453,265.0313 Z " fill="#000000"/><text fill="#000000" font-family="sans-serif" font-size="14" font-weight="bold" lengthAdjust="spacing" textLength="61.4619" x="147.9766" y="264.2373">Derived</text><line style="stroke:#B22222;stroke-width:0.5;" x1="8" x2="316.915" y1="275.3906" y2="275.3906"/><ellipse cx="18" cy="289.0391" fill="#84BE84" rx="3" ry="3" style="stroke:#038048;stroke-width:1.0;"/><text fill="#000000" font-family="sans-serif" font-size="14" lengthAdjust="spacing" textLength="284.915" x="27" y="292.3857">virtual void overridden_virtual() override</text></g><g id="elem_BO"><rect fill="#F1F1F1" height="101.4844" style="stroke:#181818;stroke-width:0.5;" width="200.708" x="329.5" y="76.8906"/><text fill="#000000" font-family="sans-serif" font-size="14" font-weight="bold" lengthAdjust="spacing" textLength="99.9893" x="379.8594" y="91.8857">Base OBJECT</text><line style="stroke:#181818;stroke-width:1.0;" x1="329.5" x2="530.208" y1="97.1875" y2="97.1875"/><text fill="#000000" font-family="sans-serif" font-size="14" lengthAdjust="spacing" textLength="36.2988" x="380.2939" y="112.1826">VPTR</text><text fill="#000000" font-family="sans-serif" font-size="14" lengthAdjust="spacing" textLength="4.4502" x="472.3867" y="112.1826">&#160;</text><line style="stroke:#181818;stroke-width:1.0;" x1="467.3867" x2="467.3867" y1="97.1875" y2="117.4844"/><line style="stroke:#181818;stroke-width:1.0;" x1="329.5" x2="530.208" y1="117.4844" y2="117.4844"/><text fill="#000000" font-family="sans-serif" font-size="14" lengthAdjust="spacing" textLength="78.0732" x="359.4067" y="132.4795">non_virtual</text><text fill="#0000FF" font-family="sans-serif" font-size="14" lengthAdjust="spacing" textLength="52.8213" x="472.3867" y="132.4795">0x9900</text><line style="stroke:#181818;stroke-width:1.0;" x1="467.3867" x2="467.3867" y1="117.4844" y2="137.7813"/><line style="stroke:#181818;stroke-width:1.0;" x1="329.5" x2="530.208" y1="137.7813" y2="137.7813"/><text fill="#000000" font-family="sans-serif" font-size="14" lengthAdjust="spacing" textLength="127.8867" x="334.5" y="152.7764">overridden_virtual</text><text fill="#000000" font-family="sans-serif" font-size="14" lengthAdjust="spacing" textLength="4.4502" x="472.3867" y="152.7764">&#160;</text><line style="stroke:#181818;stroke-width:1.0;" x1="467.3867" x2="467.3867" y1="137.7813" y2="158.0781"/><line style="stroke:#181818;stroke-width:1.0;" x1="329.5" x2="530.208" y1="158.0781" y2="158.0781"/><text fill="#000000" font-family="sans-serif" font-size="14" lengthAdjust="spacing" textLength="108.9512" x="343.9678" y="173.0732">virtual_function</text><text fill="#000000" font-family="sans-serif" font-size="14" lengthAdjust="spacing" textLength="4.4502" x="472.3867" y="173.0732">&#160;</text><line style="stroke:#181818;stroke-width:1.0;" x1="467.3867" x2="467.3867" y1="158.0781" y2="178.375"/></g><g id="elem_DO"><rect fill="#F1F1F1" height="101.4844" style="stroke:#181818;stroke-width:0.5;" width="200.708" x="287.5" y="364.8906"/><text fill="#000000" font-family="sans-serif" font-size="14" font-weight="bold" lengthAdjust="spacing" textLength="123.5049" x="326.1016" y="379.8857">Derived OBJECT</text><line style="stroke:#181818;stroke-width:1.0;" x1="287.5" x2="488.208" y1="385.1875" y2="385.1875"/><text fill="#000000" font-family="sans-serif" font-size="14" lengthAdjust="spacing" textLength="36.2988" x="338.2939" y="400.1826">VPTR</text><text fill="#000000" font-family="sans-serif" font-size="14" lengthAdjust="spacing" textLength="4.4502" x="430.3867" y="400.1826">&#160;</text><line style="stroke:#181818;stroke-width:1.0;" x1="425.3867" x2="425.3867" y1="385.1875" y2="405.4844"/><line style="stroke:#181818;stroke-width:1.0;" x1="287.5" x2="488.208" y1="405.4844" y2="405.4844"/><text fill="#000000" font-family="sans-serif" font-size="14" lengthAdjust="spacing" textLength="78.0732" x="317.4067" y="420.4795">non_virtual</text><text fill="#0000FF" font-family="sans-serif" font-size="14" lengthAdjust="spacing" textLength="52.8213" x="430.3867" y="420.4795">0x9900</text><line style="stroke:#181818;stroke-width:1.0;" x1="425.3867" x2="425.3867" y1="405.4844" y2="425.7813"/><line style="stroke:#181818;stroke-width:1.0;" x1="287.5" x2="488.208" y1="425.7813" y2="425.7813"/><text fill="#000000" font-family="sans-serif" font-size="14" lengthAdjust="spacing" textLength="127.8867" x="292.5" y="440.7764">overridden_virtual</text><text fill="#000000" font-family="sans-serif" font-size="14" lengthAdjust="spacing" textLength="4.4502" x="430.3867" y="440.7764">&#160;</text><line style="stroke:#181818;stroke-width:1.0;" x1="425.3867" x2="425.3867" y1="425.7813" y2="446.0781"/><line style="stroke:#181818;stroke-width:1.0;" x1="287.5" x2="488.208" y1="446.0781" y2="446.0781"/><text fill="#000000" font-family="sans-serif" font-size="14" lengthAdjust="spacing" textLength="108.9512" x="301.9678" y="461.0732">virtual_function</text><text fill="#000000" font-family="sans-serif" font-size="14" lengthAdjust="spacing" textLength="4.4502" x="430.3867" y="461.0732">&#160;</text><line style="stroke:#181818;stroke-width:1.0;" x1="425.3867" x2="425.3867" y1="446.0781" y2="466.375"/></g><g id="elem_DV"><rect fill="#F1F1F1" height="60.8906" style="stroke:#181818;stroke-width:0.5;" width="200.708" x="538.5" y="385.3906"/><text fill="#000000" font-family="sans-serif" font-size="14" font-weight="bold" lengthAdjust="spacing" textLength="126.7109" x="575.4985" y="400.3857">Derived VTABLE</text><line style="stroke:#181818;stroke-width:1.0;" x1="538.5" x2="739.208" y1="405.6875" y2="405.6875"/><text fill="#000000" font-family="sans-serif" font-size="14" lengthAdjust="spacing" textLength="127.8867" x="543.5" y="420.6826">overridden_virtual</text><text fill="#FF0000" font-family="sans-serif" font-size="14" lengthAdjust="spacing" textLength="52.8213" x="681.3867" y="420.6826">0x4448</text><line style="stroke:#181818;stroke-width:1.0;" x1="676.3867" x2="676.3867" y1="405.6875" y2="425.9844"/><line style="stroke:#181818;stroke-width:1.0;" x1="538.5" x2="739.208" y1="425.9844" y2="425.9844"/><text fill="#000000" font-family="sans-serif" font-size="14" lengthAdjust="spacing" textLength="108.9512" x="552.9678" y="440.9795">virtual_function</text><text fill="#008000" font-family="sans-serif" font-size="14" lengthAdjust="spacing" textLength="52.8213" x="681.3867" y="440.9795">0x1112</text><line style="stroke:#181818;stroke-width:1.0;" x1="676.3867" x2="676.3867" y1="425.9844" y2="446.2813"/></g><g id="elem_BV"><rect fill="#F1F1F1" height="60.8906" style="stroke:#181818;stroke-width:0.5;" width="200.708" x="580.5" y="97.3906"/><text fill="#000000" font-family="sans-serif" font-size="14" font-weight="bold" lengthAdjust="spacing" textLength="103.1953" x="629.2563" y="112.3857">Base VTABLE</text><line style="stroke:#181818;stroke-width:1.0;" x1="580.5" x2="781.208" y1="117.6875" y2="117.6875"/><text fill="#000000" font-family="sans-serif" font-size="14" lengthAdjust="spacing" textLength="127.8867" x="585.5" y="132.6826">overridden_virtual</text><text fill="#008000" font-family="sans-serif" font-size="14" lengthAdjust="spacing" textLength="52.8213" x="723.3867" y="132.6826">0x2224</text><line style="stroke:#181818;stroke-width:1.0;" x1="718.3867" x2="718.3867" y1="117.6875" y2="137.9844"/><line style="stroke:#181818;stroke-width:1.0;" x1="580.5" x2="781.208" y1="137.9844" y2="137.9844"/><text fill="#000000" font-family="sans-serif" font-size="14" lengthAdjust="spacing" textLength="108.9512" x="594.9678" y="152.9795">virtual_function</text><text fill="#008000" font-family="sans-serif" font-size="14" lengthAdjust="spacing" textLength="52.8213" x="723.3867" y="152.9795">0x1112</text><line style="stroke:#181818;stroke-width:1.0;" x1="718.3867" x2="718.3867" y1="137.9844" y2="158.2813"/></g><g id="elem_non_virtual"><rect fill="#AFEEEE" height="58.5625" style="stroke:#181818;stroke-width:0.5;" width="151.4297" x="452" y="241.8906"/><text fill="#000000" font-family="sans-serif" font-size="12" font-style="italic" lengthAdjust="spacing" textLength="81.7324" x="486.8486" y="253.0293">&#171;non_virtual&#187;</text><text fill="#191970" font-family="sans-serif" font-size="14" font-weight="bold" lengthAdjust="spacing" textLength="137.4297" x="459" y="270.8545">Base::non_virtual</text><line style="stroke:#181818;stroke-width:0.5;" x1="453" x2="602.4297" y1="276.1563" y2="276.1563"/><text fill="#000000" font-family="sans-serif" font-size="14" lengthAdjust="spacing" textLength="52.8213" x="458" y="293.1514">0x9900</text></g><g id="elem_base_virtual"><rect fill="#98FB98" height="44.5938" style="stroke:#181818;stroke-width:0.5;" width="187.2773" x="706" y="529.8906"/><text fill="#006400" font-family="sans-serif" font-size="14" font-weight="bold" lengthAdjust="spacing" textLength="173.2773" x="713" y="544.8857">Base::virtual_function</text><line style="stroke:#181818;stroke-width:0.5;" x1="707" x2="892.2773" y1="550.1875" y2="550.1875"/><text fill="#000000" font-family="sans-serif" font-size="14" lengthAdjust="spacing" textLength="52.8213" x="712" y="567.1826">0x1112</text></g><g id="elem_overridden_virtual"><rect fill="#98FB98" height="44.5938" style="stroke:#181818;stroke-width:0.5;" width="208.2295" x="861.5" y="104.8906"/><text fill="#006400" font-family="sans-serif" font-size="14" font-weight="bold" lengthAdjust="spacing" textLength="194.2295" x="868.5" y="119.8857">Base::overridden_virtual</text><line style="stroke:#181818;stroke-width:0.5;" x1="862.5" x2="1068.7295" y1="125.1875" y2="125.1875"/><text fill="#000000" font-family="sans-serif" font-size="14" lengthAdjust="spacing" textLength="52.8213" x="867.5" y="142.1826">0x2224</text></g><g id="elem_derived_overridden_virtual"><rect fill="#98FB98" height="44.5938" style="stroke:#181818;stroke-width:0.5;" width="231.7451" x="850.5" y="248.8906"/><text fill="#006400" font-family="sans-serif" font-size="14" font-weight="bold" lengthAdjust="spacing" textLength="217.7451" x="857.5" y="263.8857">Derived::overridden_virtual</text><line style="stroke:#181818;stroke-width:0.5;" x1="851.5" x2="1081.2451" y1="269.1875" y2="269.1875"/><text fill="#000000" font-family="sans-serif" font-size="14" lengthAdjust="spacing" textLength="52.8213" x="856.5" y="286.1826">0x4448</text></g><!--reverse link Base to Derived--><g id="link_Base_Derived"><path codeLine="43" d="M162.5,190.1506 C162.5,213.3006 162.5,222.9906 162.5,243.0706 " fill="none" id="Base-backto-Derived" style="stroke:#181818;stroke-width:1.0;"/><polygon fill="none" points="162.5,172.1506,156.5,190.1506,168.5,190.1506,162.5,172.1506" style="stroke:#181818;stroke-width:1.0;"/></g><!--link BO to non_virtual--><g id="link_BO_non_virtual"><path codeLine="88" d="M530.5,127.3906 C553.16,127.3906 543.1588,194.1756 534.8688,235.9156 " fill="none" id="BO-to-non_virtual" style="stroke:#0000FF;stroke-width:1.0;"/><polygon fill="#0000FF" points="533.7,241.8006,539.3766,233.7523,534.674,236.8964,531.5299,232.1938,533.7,241.8006" style="stroke:#0000FF;stroke-width:1.0;"/></g><!--reverse link non_virtual to DO--><g id="link_non_virtual_DO"><path codeLine="89" d="M521.5334,306.8851 C513.9934,348.6251 500.24,415.3906 488.5,415.3906 " fill="none" id="non_virtual-backto-DO" style="stroke:#0000FF;stroke-width:1.0;"/><polygon fill="#0000FF" points="522.6,300.9806,517.0638,309.1262,521.7112,305.901,524.9364,310.5483,522.6,300.9806" style="stroke:#0000FF;stroke-width:1.0;"/></g><!--link BO to BV--><g id="link_BO_BV"><path codeLine="91" d="M530.5,107.3906 C544.07,110.8406 552.4462,113.0183 566.4662,116.3883 " fill="none" id="BO-to-BV" style="stroke:#181818;stroke-width:1.0;"/><polygon fill="#181818" points="572.3,117.7906,564.4841,111.798,567.4385,116.6221,562.6144,119.5764,572.3,117.7906" style="stroke:#181818;stroke-width:1.0;"/></g><!--link DO to DV--><g id="link_DO_DV"><path codeLine="92" d="M488.5,395.3906 C502.07,398.8406 510.4462,401.0183 524.4662,404.3883 " fill="none" id="DO-to-DV" style="stroke:#181818;stroke-width:1.0;"/><polygon fill="#181818" points="530.3,405.7906,522.4841,399.798,525.4385,404.6221,520.6144,407.5764,530.3,405.7906" style="stroke:#181818;stroke-width:1.0;"/></g><!--link BV to base_virtual--><g id="link_BV_base_virtual"><path codeLine="94" d="M781.5,147.3906 C858.73,147.3906 817.4561,439.8257 804.0561,523.7457 " fill="none" id="BV-to-base_virtual" style="stroke:#008000;stroke-width:1.0;"/><polygon fill="#008000" points="803.11,529.6706,808.4791,521.4139,803.8984,524.7332,800.5791,520.1525,803.11,529.6706" style="stroke:#008000;stroke-width:1.0;"/></g><!--link BV to overridden_virtual--><g id="link_BV_overridden_virtual"><path codeLine="95" d="M781.5,127.3906 C807.39,132.8006 829.367,136.0387 855.447,138.0087 " fill="none" id="BV-to-overridden_virtual" style="stroke:#008000;stroke-width:1.0;"/><polygon fill="#008000" points="861.43,138.4606,852.7569,133.7941,856.4442,138.084,852.1543,141.7714,861.43,138.4606" style="stroke:#008000;stroke-width:1.0;"/></g><!--link DV to base_virtual--><g id="link_DV_base_virtual"><path codeLine="97" d="M739.5,435.3906 C760.53,435.3906 780.7897,490.5771 791.3397,524.1171 " fill="none" id="DV-to-base_virtual" style="stroke:#008000;stroke-width:1.0;"/><polygon fill="#008000" points="793.14,529.8406,794.2552,520.0551,791.6397,525.071,786.6238,522.4556,793.14,529.8406" style="stroke:#008000;stroke-width:1.0;"/></g><!--reverse link derived_overridden_virtual to DV--><g id="link_derived_overridden_virtual_DV"><path codeLine="98" d="M944.3717,298.5932 C908.7817,338.5932 829.39,415.3906 739.5,415.3906 " fill="none" id="derived_overridden_virtual-backto-DV" style="stroke:#008000;stroke-width:1.0;"/><polygon fill="#008000" points="948.36,294.1106,939.3891,298.1755,945.0364,297.8461,945.3659,303.4933,948.36,294.1106" style="stroke:#008000;stroke-width:1.0;"/></g><!--link Base to BO--><!--link BO to DO--><!--link BV to DV--><!--link base_virtual to derived_overridden_virtual--><!--link BV to non_virtual--><!--link non_virtual to DV--><!--link overridden_virtual to derived_overridden_virtual--><!--SRC=[nLHTRzem57tFhx3OmxPCBWMXQI28j3JjfAaJLOVOmpfL9hcGh8dD79iLRVptsOu3-Q1qqXuM2PHSttlEkH- -urniK_2SC2Lv7YHanKc6VZb8FSPat_NZa_1XnPcaqGLB6KU-vEds2sFHtkCweL2SNIKSV9w43yx-C0OI0Q_WwUUAKV5PAq0-Imz0EwVutpaEMto7KDYmfeGRai873a0BcXQ5XYyy0y8V2iyJr8RmZ39wlqcua2GzGJkJ_8TaIGxFKdzA8fgiOk6d4fvZ7tTjFnoH27NekjCY_x8r0MJCTU_edKgvQ91FSh2yRz269H6g9F3gTNbW4p8EzkD-AMae4aQFUx4DS9v44LJHTYLj03pPG7HWVYwqD8B2C9h7loUJ4iQ9rO6Tk6K2QPGxJaRMgEEwndVgVxoycBbk1n6LyTIopczcjnFFl5PoddZZK1T-f0lkdJyEX-Vduwun5RvjTHQaMHTbtkrrb0dNf0J_LSfyzjw_lYobpAsKDYQQUCWAkOL8wHWC1kzgEffqbGXpQrHChzVhxsDszVRKXFX_9QI4xVVxWt-LyX8jv6g45ap4A9IvO1aormWH6gatuC34Tgq-kVgjrscYQgU4YXYsA2ORq6ye9vdwsr917XLW3Z12iH3hVDJjBXcNsTaw9LJ8B3sZ8BgzmTjXlojpu3Y2fTfx4JQKsE9ZHh4PPqpIdE45X2o371_4b8kjemiu6bM6nXInkeJ6uygNvzdg5jDKMP4MgLa_0xTGHusbLfIn7T_kca4uqimIHxUmYcF7yqceg3Y_Fm6f1rH3-jDQQH3- -a9VfMzUjK1EqFIIwwD-1axVL8IvtiZOKyDgekl6OAvSv-rIQdepWmgtMb7ZV2IR0l0GqtPndE0a3suG1KyGwOHBbgVBgszAR2meP9IgPZ6khW53dPLK-xTZxa5AjaoAOaNR18eO1UrFLGaHZjXFMXgnhfSopu-Ovqvjxd1vg1tnIQ4jk7eZQyrk-2dMOnLgU9tW_WC0]--></g></svg>