<svg xmlns="http://www.w3.org/2000/svg" xmlns:xlink="http://www.w3.org/1999/xlink" contentStyleType="text/css" height="166px" preserveAspectRatio="none" style="width:595px;height:166px;background:#FFFFFF;" version="1.1" viewBox="0 0 595 166" width="595px" zoomAndPan="magnify"><defs/><g><path d="M76,38.625 L76.2802,38.625 L75.4476,48.6111 L76.2577,58.5972 L76.5329,68.5833 L75.0488,78.5694 L75.8964,88.5556 L75.4313,98.5417 L75.4887,108.5278 L75.9091,118.5139 L76,128.5 " fill="none" style="stroke:#181818;stroke-width:0.5;stroke-dasharray:5.0,5.0;"/><path d="M311.332,38.625 L311.6123,38.625 L310.7796,48.6111 L311.5897,58.5972 L311.8649,68.5833 L310.3808,78.5694 L311.2284,88.5556 L310.7634,98.5417 L310.8207,108.5278 L311.2412,118.5139 L311.332,128.5 " fill="none" style="stroke:#181818;stroke-width:0.5;stroke-dasharray:5.0,5.0;"/><polygon fill="#E2E2F0" points="7.5,5,7.5,5.2102,17.341,4.5857,27.1819,5.1933,37.0229,5.3997,46.8638,4.2866,56.7048,4.9223,66.5458,4.5735,76.3867,4.6165,86.2277,4.9318,96.0686,4.3086,105.9096,5.5536,115.7506,4.3697,125.5915,4.8022,135.4325,5.4319,145.2734,5,145.2625,4.9736,145.6357,5.1675,145.9765,5.2831,146.3569,5.4943,146.7182,5.6594,147.0412,5.7322,147.2216,5.8069,147.3943,6.1714,147.5433,6.526,147.559,6.8254,147.7698,7.2056,147.7734,7.5,148.0075,7.5,147.533,13.025,147.9996,18.55,147.6746,24.075,147.9514,29.6,147.7734,35.125,147.621,35.0619,147.6059,35.4698,147.7089,35.9267,147.3191,36.1794,147.2201,36.5526,147.0412,36.8928,147.0844,36.9971,146.7407,37.1674,146.3336,37.1845,146.0172,37.4206,145.554,37.3023,145.2734,37.625,145.2734,37.9094,135.4325,38.1732,125.5915,38.0695,115.7506,38.238,105.9096,37.1419,96.0686,36.9728,86.2277,37.0036,76.3867,37.5661,66.5458,37.4285,56.7048,38.3064,46.8638,37.4503,37.0229,37.2819,27.1819,37.8533,17.341,36.9582,7.5,37.625,7.4338,37.4651,7.2292,37.6784,6.8485,37.4663,6.533,37.4119,6.0447,36.9401,5.7322,36.8928,5.8305,36.9335,5.7676,36.6145,5.2939,36.1254,5.2634,35.8199,5.1852,35.4946,5,35.125,5.2173,35.125,4.9986,29.6,5.1542,24.075,4.8154,18.55,4.7742,13.025,5,7.5,5.1551,7.5642,4.9257,7.055,5.4496,6.8578,5.503,6.4657,5.5033,6.0516,5.7322,5.7322,5.6871,5.6233,6.1443,5.7271,6.4012,5.3472,6.8684,5.4752,7.0759,4.9762,7.5,5" style="stroke:#181818;stroke-width:0.5;"/><text fill="#000000" font-family="Courier New" font-size="16" lengthAdjust="spacing" textLength="128.7734" x="12" y="26.8516">Brian Kernighan</text><polygon fill="#E2E2F0" points="7.5,127.5,7.5,127.7102,17.341,127.0857,27.1819,127.6933,37.0229,127.8997,46.8638,126.7866,56.7048,127.4223,66.5458,127.0735,76.3867,127.1165,86.2277,127.4318,96.0686,126.8086,105.9096,128.0536,115.7506,126.8697,125.5915,127.3022,135.4325,127.9319,145.2734,127.5,145.2625,127.4736,145.6357,127.6675,145.9765,127.7831,146.3569,127.9943,146.7182,128.1594,147.0412,128.2322,147.2216,128.3069,147.3943,128.6714,147.5433,129.026,147.559,129.3254,147.7698,129.7056,147.7734,130,148.0075,130,147.533,135.525,147.9996,141.05,147.6746,146.575,147.9514,152.1,147.7734,157.625,147.621,157.5619,147.6059,157.9698,147.7089,158.4267,147.3191,158.6794,147.2201,159.0526,147.0412,159.3928,147.0844,159.4971,146.7407,159.6674,146.3336,159.6845,146.0172,159.9206,145.554,159.8023,145.2734,160.125,145.2734,160.4094,135.4325,160.6732,125.5915,160.5695,115.7506,160.738,105.9096,159.6419,96.0686,159.4728,86.2277,159.5036,76.3867,160.0661,66.5458,159.9285,56.7048,160.8064,46.8638,159.9503,37.0229,159.7819,27.1819,160.3533,17.341,159.4582,7.5,160.125,7.4338,159.9651,7.2292,160.1784,6.8485,159.9663,6.533,159.9119,6.0447,159.4401,5.7322,159.3928,5.8305,159.4335,5.7676,159.1145,5.2939,158.6254,5.2634,158.3199,5.1852,157.9946,5,157.625,5.2173,157.625,4.9986,152.1,5.1542,146.575,4.8154,141.05,4.7742,135.525,5,130,5.1551,130.0642,4.9257,129.555,5.4496,129.3578,5.503,128.9657,5.5033,128.5516,5.7322,128.2322,5.6871,128.1233,6.1443,128.2271,6.4012,127.8472,6.8684,127.9752,7.0759,127.4762,7.5,127.5" style="stroke:#181818;stroke-width:0.5;"/><text fill="#000000" font-family="Courier New" font-size="16" lengthAdjust="spacing" textLength="128.7734" x="12" y="149.3516">Brian Kernighan</text><polygon fill="#E2E2F0" points="261.832,5,261.832,5.2102,271.7945,4.5857,281.757,5.1933,291.7195,5.3997,301.682,4.2866,311.6445,4.9223,321.607,4.5735,331.5695,4.6165,341.532,4.9318,351.4945,4.3086,361.457,5,361.5277,5.1705,361.7302,4.9523,362.1389,5.232,362.5728,5.5724,362.8603,5.5594,363.2248,5.7322,363.2458,5.7409,363.3614,6.0817,363.5727,6.4621,363.7378,6.8234,363.991,7.2212,363.957,7.5,364.1807,7.5,364.1835,13.025,364.0419,18.55,364.1116,24.075,364.1911,29.6,363.957,35.125,363.7349,35.033,364.0195,35.5651,363.5728,35.7943,363.6821,36.2538,363.2188,36.4761,363.2248,36.8928,363.2161,36.8717,362.9658,37.2676,362.5115,37.1707,362.1776,37.3645,361.8538,37.5828,361.457,37.625,361.457,38.0412,351.4945,37.6211,341.532,37.9122,331.5695,37.0526,321.607,37.9094,311.6445,38.1732,301.682,38.0695,291.7195,38.238,281.757,37.1419,271.7945,36.9728,261.832,37.625,261.7528,37.4336,261.471,37.4604,261.0999,37.2716,260.8583,37.3955,260.3955,36.9854,260.0643,36.8928,259.9586,36.849,259.9881,36.5683,259.566,36.1006,259.4651,35.7659,259.6783,35.5613,259.332,35.125,259.4773,35.125,259.5769,29.6,259.2248,24.075,259.4384,18.55,259.5288,13.025,259.332,7.5,259.1865,7.4397,259.449,7.1342,259.6637,6.809,259.9721,6.5225,259.9165,6.0853,260.0643,5.7322,260.1233,5.8747,260.3472,5.4152,260.685,5.2308,261.1892,5.448,261.387,4.9257,261.832,5" style="stroke:#181818;stroke-width:0.5;"/><text fill="#000000" font-family="Courier New" font-size="16" lengthAdjust="spacing" textLength="90.625" x="266.332" y="26.8516">Developers</text><polygon fill="#E2E2F0" points="261.832,127.5,261.832,127.7102,271.7945,127.0857,281.757,127.6933,291.7195,127.8997,301.682,126.7866,311.6445,127.4223,321.607,127.0735,331.5695,127.1165,341.532,127.4318,351.4945,126.8086,361.457,127.5,361.5277,127.6705,361.7302,127.4523,362.1389,127.732,362.5728,128.0724,362.8603,128.0594,363.2248,128.2322,363.2458,128.2409,363.3614,128.5817,363.5727,128.9621,363.7378,129.3234,363.991,129.7212,363.957,130,364.1807,130,364.1835,135.525,364.0419,141.05,364.1116,146.575,364.1911,152.1,363.957,157.625,363.7349,157.533,364.0195,158.0651,363.5728,158.2943,363.6821,158.7538,363.2188,158.9761,363.2248,159.3928,363.2161,159.3717,362.9658,159.7676,362.5115,159.6707,362.1776,159.8645,361.8538,160.0828,361.457,160.125,361.457,160.5412,351.4945,160.1211,341.532,160.4122,331.5695,159.5526,321.607,160.4094,311.6445,160.6732,301.682,160.5695,291.7195,160.738,281.757,159.6419,271.7945,159.4728,261.832,160.125,261.7528,159.9336,261.471,159.9604,261.0999,159.7716,260.8583,159.8955,260.3955,159.4854,260.0643,159.3928,259.9586,159.349,259.9881,159.0683,259.566,158.6006,259.4651,158.2659,259.6783,158.0613,259.332,157.625,259.4773,157.625,259.5769,152.1,259.2248,146.575,259.4384,141.05,259.5288,135.525,259.332,130,259.1865,129.9397,259.449,129.6342,259.6637,129.309,259.9721,129.0225,259.9165,128.5853,260.0643,128.2322,260.1233,128.3747,260.3472,127.9152,260.685,127.7308,261.1892,127.948,261.387,127.4257,261.832,127.5" style="stroke:#181818;stroke-width:0.5;"/><text fill="#000000" font-family="Courier New" font-size="16" lengthAdjust="spacing" textLength="90.625" x="266.332" y="149.3516">Developers</text><polygon fill="#181818" points="299.6445,106.5,299.6706,106.565,301.5932,107.1718,303.6685,108.1598,305.694,109.0237,307.5562,109.4792,309.6445,110.5,309.6349,110.4759,307.5917,111.168,305.5971,111.9813,303.6361,112.8789,301.5589,113.486,299.6445,114.5,299.775,114.6305,300.296,113.5514,301.1979,112.8534,302.1463,112.2018,302.8243,111.2798,303.6445,110.5,303.6606,110.5161,302.837,109.6925,302.0866,108.9421,301.3009,108.1564,300.5826,107.438,299.6445,106.5" style="stroke:#181818;stroke-width:1.0;"/><path d="M76.3867,110.5 L76.3867,110.7802 L86.3544,109.9476 L96.3222,110.7577 L106.2899,111.0329 L116.2576,109.5488 L126.2254,110.3964 L136.1931,109.9313 L146.1608,109.9887 L156.1286,110.4091 L166.0963,109.5782 L176.064,111.2382 L186.0318,109.6596 L195.9995,110.2363 L205.9672,111.0759 L215.935,110.3856 L225.9027,110.591 L235.8704,110.4574 L245.8381,110.738 L255.8059,110.8188 L265.7736,111.2809 L275.7413,111.3947 L285.7091,111.4057 L295.6768,110.8395 L305.6445,110.5 " fill="none" style="stroke:#181818;stroke-width:1.0;"/><text fill="#000000" font-family="Courier New" font-size="16" lengthAdjust="spacing" textLength="72.8125" x="83.3867" y="67.4766">main( ) {</text><text fill="#000000" font-family="Courier New" font-size="16" lengthAdjust="spacing" textLength="170.5703" x="124.0742" y="86.1016">printf(&#8220;hello, world&#8221;);</text><text fill="#000000" font-family="Courier New" font-size="16" lengthAdjust="spacing" textLength="10.1797" x="83.3867" y="104.7266">}</text><path d="M316,69.25 L316.1868,69.25 L315.6317,74.85 L316.1718,80.45 L316.3553,86.05 L315.3659,91.65 L316,97.25 L316,97.0428 L326.0741,96.1127 L336.1481,96.2273 L346.2222,97.0682 L356.2963,95.4063 L366.3704,98.7264 L376.4444,95.5693 L386.5185,96.7226 L396.5926,98.4019 L406.6667,97.0213 L416.7407,97.432 L426.8148,97.1648 L436.8889,97.7261 L446.963,97.8877 L457.037,98.8118 L467.1111,99.0395 L477.1852,99.0614 L487.2593,97.929 L497.3333,98.4862 L507.4074,99.1226 L517.4815,95.3268 L527.5556,99.0594 L537.6296,96.4593 L547.7037,98.6735 L557.7778,95.9299 L567.8519,97.0673 L577.9259,99.2276 L588,97.25 L587.9567,97.25 L588.0936,93.65 L588.301,90.05 L588.37,86.45 L587.9965,82.85 L588,79.25 L588.1805,79.4305 L585.6402,76.8902 L584.1787,75.4287 L582.3446,73.5946 L580.2794,71.5294 L578,69.25 L578,70.8847 L567.9231,67.9618 L557.8462,67.5108 L547.7692,67.5929 L537.6923,69.093 L527.6154,68.7259 L517.5385,71.0671 L507.4615,68.7842 L497.3846,68.3352 L487.3077,69.8587 L477.2308,67.4718 L467.1538,67.8657 L457.0769,70.9805 L447,70.4118 L436.9231,71.2086 L426.8462,68.3919 L416.7692,70.1012 L406.6923,70.8245 L396.6154,67.9903 L386.5385,68.9944 L376.4615,69.586 L366.3846,70.988 L356.3077,69.2388 L346.2308,70.4835 L336.1538,67.7732 L326.0769,67.444 L316,69.25 " fill="#FEFFDD" style="stroke:#181818;stroke-width:0.5;"/><path d="M578,69.25 L578.4477,69.25 L577.3627,71.25 L578.4524,73.25 L578.1837,75.25 L577.7619,77.25 L578,79.25 L578,78.9355 L580,79.6578 L582,78.9839 L584,79.7761 L586,78.7587 L588,79.25 L588.3881,79.6381 L586.3044,77.5544 L584.154,75.404 L582.0297,73.2797 L580.4567,71.7067 L578,69.25 " fill="#FEFFDD" style="stroke:#181818;stroke-width:0.5;"/><a href="https://ozanerhansha.medium.com/on-the-origin-of-hello-world-61bfe98196d5" target="_top" title="https://ozanerhansha.medium.com/on-the-origin-of-hello-world-61bfe98196d5" xlink:actuate="onRequest" xlink:href="https://ozanerhansha.medium.com/on-the-origin-of-hello-world-61bfe98196d5" xlink:show="new" xlink:title="https://ozanerhansha.medium.com/on-the-origin-of-hello-world-61bfe98196d5" xlink:type="simple"><text fill="#0000FF" font-family="Courier New" font-size="16" lengthAdjust="spacing" text-decoration="underline" textLength="251.7656" x="322" y="89.1016">On the Origin of "Hello, World!"</text></a><!--SRC=[RO_1IiD048RlUOenfnRSXXmCje875H64zk31Gzl3QYRkukvCc4mCL8G-YBvSdyGr5a_EzV_-xsUwLq-j5Hl1MQe7yQf8eD9Zrlr5DzZOFkWjaovjHBZcNZmAB77udthmEuIool8hyPRW7eNyInh8mLmcxWq3joWTB21QJnEOmlk6u7YjUD9cSjX_EWo1Js5W2VLX_pMzsD17Hgm8adIQwkkrKssxHL7mpX9AskYSdKMiVHzdpnmB9gCE3QU69yED6QLcT9ggV6fmVbxEg_eCLkblXx0QIU06yhlV_SSVzYJVRhy1]--></g></svg>