<svg xmlns="http://www.w3.org/2000/svg" xmlns:xlink="http://www.w3.org/1999/xlink" contentStyleType="text/css" height="375px" preserveAspectRatio="none" style="width:659px;height:375px;background:#FFFFFF;" version="1.1" viewBox="0 0 659 375" width="659px" zoomAndPan="magnify"><defs/><g><text fill="#000000" font-family="sans-serif" font-size="14" font-weight="bold" lengthAdjust="spacing" textLength="175.6221" x="240.2441" y="32.9951">Timing Diagram Demo</text><text fill="#000000" font-family="sans-serif" font-size="14" font-weight="bold" lengthAdjust="spacing" textLength="4.874" x="325.6182" y="49.292">&#160;</text><text fill="#000000" font-family="sans-serif" font-size="14" font-weight="bold" lengthAdjust="spacing" textLength="4.874" x="325.6182" y="65.5889">&#160;</text><line style="stroke:#333333;stroke-width:0.5;" x1="10" x2="10" y1="79.8906" y2="345.4219"/><line style="stroke:#333333;stroke-width:0.5;" x1="647.1104" x2="647.1104" y1="79.8906" y2="345.4219"/><rect fill="#C9FFC9" height="265.5313" style="stroke:none;stroke-width:1.0;" width="300" x="242.1104" y="79.8906"/><line style="stroke:#333333;stroke-width:0.5;stroke-dasharray:3.0,5.0;" x1="142.1104" x2="142.1104" y1="79.8906" y2="345.4219"/><line style="stroke:#333333;stroke-width:0.5;stroke-dasharray:3.0,5.0;" x1="192.1104" x2="192.1104" y1="79.8906" y2="345.4219"/><line style="stroke:#333333;stroke-width:0.5;stroke-dasharray:3.0,5.0;" x1="242.1104" x2="242.1104" y1="79.8906" y2="345.4219"/><line style="stroke:#333333;stroke-width:0.5;stroke-dasharray:3.0,5.0;" x1="292.1104" x2="292.1104" y1="79.8906" y2="345.4219"/><line style="stroke:#333333;stroke-width:0.5;stroke-dasharray:3.0,5.0;" x1="342.1104" x2="342.1104" y1="79.8906" y2="345.4219"/><line style="stroke:#333333;stroke-width:0.5;stroke-dasharray:3.0,5.0;" x1="392.1104" x2="392.1104" y1="79.8906" y2="345.4219"/><line style="stroke:#333333;stroke-width:0.5;stroke-dasharray:3.0,5.0;" x1="442.1104" x2="442.1104" y1="79.8906" y2="345.4219"/><line style="stroke:#333333;stroke-width:0.5;stroke-dasharray:3.0,5.0;" x1="492.1104" x2="492.1104" y1="79.8906" y2="345.4219"/><line style="stroke:#333333;stroke-width:0.5;stroke-dasharray:3.0,5.0;" x1="542.1104" x2="542.1104" y1="79.8906" y2="345.4219"/><line style="stroke:#333333;stroke-width:0.5;stroke-dasharray:3.0,5.0;" x1="592.1104" x2="592.1104" y1="79.8906" y2="345.4219"/><line style="stroke:#333333;stroke-width:0.5;stroke-dasharray:3.0,5.0;" x1="642.1104" x2="642.1104" y1="79.8906" y2="345.4219"/><line style="stroke:#333333;stroke-width:0.5;" x1="10" x2="647.1104" y1="79.8906" y2="79.8906"/><line style="stroke:#006400;stroke-width:1.5;" x1="142.1104" x2="142.1104" y1="101.8594" y2="115.8594"/><line style="stroke:#006400;stroke-width:1.5;" x1="142.1104" x2="167.1104" y1="101.8594" y2="101.8594"/><line style="stroke:#006400;stroke-width:1.5;" x1="167.1104" x2="167.1104" y1="101.8594" y2="115.8594"/><line style="stroke:#006400;stroke-width:1.5;" x1="167.1104" x2="192.1104" y1="115.8594" y2="115.8594"/><line style="stroke:#006400;stroke-width:1.5;" x1="192.1104" x2="192.1104" y1="101.8594" y2="115.8594"/><line style="stroke:#006400;stroke-width:1.5;" x1="192.1104" x2="217.1104" y1="101.8594" y2="101.8594"/><line style="stroke:#006400;stroke-width:1.5;" x1="217.1104" x2="217.1104" y1="101.8594" y2="115.8594"/><line style="stroke:#006400;stroke-width:1.5;" x1="217.1104" x2="242.1104" y1="115.8594" y2="115.8594"/><line style="stroke:#006400;stroke-width:1.5;" x1="242.1104" x2="242.1104" y1="101.8594" y2="115.8594"/><line style="stroke:#006400;stroke-width:1.5;" x1="242.1104" x2="267.1104" y1="101.8594" y2="101.8594"/><line style="stroke:#006400;stroke-width:1.5;" x1="267.1104" x2="267.1104" y1="101.8594" y2="115.8594"/><line style="stroke:#006400;stroke-width:1.5;" x1="267.1104" x2="292.1104" y1="115.8594" y2="115.8594"/><line style="stroke:#006400;stroke-width:1.5;" x1="292.1104" x2="292.1104" y1="101.8594" y2="115.8594"/><line style="stroke:#006400;stroke-width:1.5;" x1="292.1104" x2="317.1104" y1="101.8594" y2="101.8594"/><line style="stroke:#006400;stroke-width:1.5;" x1="317.1104" x2="317.1104" y1="101.8594" y2="115.8594"/><line style="stroke:#006400;stroke-width:1.5;" x1="317.1104" x2="342.1104" y1="115.8594" y2="115.8594"/><line style="stroke:#006400;stroke-width:1.5;" x1="342.1104" x2="342.1104" y1="101.8594" y2="115.8594"/><line style="stroke:#006400;stroke-width:1.5;" x1="342.1104" x2="367.1104" y1="101.8594" y2="101.8594"/><line style="stroke:#006400;stroke-width:1.5;" x1="367.1104" x2="367.1104" y1="101.8594" y2="115.8594"/><line style="stroke:#006400;stroke-width:1.5;" x1="367.1104" x2="392.1104" y1="115.8594" y2="115.8594"/><line style="stroke:#006400;stroke-width:1.5;" x1="392.1104" x2="392.1104" y1="101.8594" y2="115.8594"/><line style="stroke:#006400;stroke-width:1.5;" x1="392.1104" x2="417.1104" y1="101.8594" y2="101.8594"/><line style="stroke:#006400;stroke-width:1.5;" x1="417.1104" x2="417.1104" y1="101.8594" y2="115.8594"/><line style="stroke:#006400;stroke-width:1.5;" x1="417.1104" x2="442.1104" y1="115.8594" y2="115.8594"/><line style="stroke:#006400;stroke-width:1.5;" x1="442.1104" x2="442.1104" y1="101.8594" y2="115.8594"/><line style="stroke:#006400;stroke-width:1.5;" x1="442.1104" x2="467.1104" y1="101.8594" y2="101.8594"/><line style="stroke:#006400;stroke-width:1.5;" x1="467.1104" x2="467.1104" y1="101.8594" y2="115.8594"/><line style="stroke:#006400;stroke-width:1.5;" x1="467.1104" x2="492.1104" y1="115.8594" y2="115.8594"/><line style="stroke:#006400;stroke-width:1.5;" x1="492.1104" x2="492.1104" y1="101.8594" y2="115.8594"/><line style="stroke:#006400;stroke-width:1.5;" x1="492.1104" x2="517.1104" y1="101.8594" y2="101.8594"/><line style="stroke:#006400;stroke-width:1.5;" x1="517.1104" x2="517.1104" y1="101.8594" y2="115.8594"/><line style="stroke:#006400;stroke-width:1.5;" x1="517.1104" x2="542.1104" y1="115.8594" y2="115.8594"/><line style="stroke:#006400;stroke-width:1.5;" x1="542.1104" x2="542.1104" y1="101.8594" y2="115.8594"/><line style="stroke:#006400;stroke-width:1.5;" x1="542.1104" x2="567.1104" y1="101.8594" y2="101.8594"/><line style="stroke:#006400;stroke-width:1.5;" x1="567.1104" x2="567.1104" y1="101.8594" y2="115.8594"/><line style="stroke:#006400;stroke-width:1.5;" x1="567.1104" x2="592.1104" y1="115.8594" y2="115.8594"/><line style="stroke:#006400;stroke-width:1.5;" x1="592.1104" x2="592.1104" y1="101.8594" y2="115.8594"/><line style="stroke:#006400;stroke-width:1.5;" x1="592.1104" x2="617.1104" y1="101.8594" y2="101.8594"/><line style="stroke:#006400;stroke-width:1.5;" x1="617.1104" x2="617.1104" y1="101.8594" y2="115.8594"/><line style="stroke:#006400;stroke-width:1.5;" x1="617.1104" x2="642.1104" y1="115.8594" y2="115.8594"/><line style="stroke:#006400;stroke-width:1.5;" x1="642.1104" x2="642.1104" y1="101.8594" y2="115.8594"/><line style="stroke:#006400;stroke-width:1.5;" x1="642.1104" x2="642.1104" y1="101.8594" y2="101.8594"/><line style="stroke:#333333;stroke-width:0.5;" x1="10" x2="647.1104" y1="123.8594" y2="123.8594"/><text fill="#333333" font-family="sans-serif" font-size="14" font-weight="bold" lengthAdjust="spacing" textLength="122.1104" x="15" y="143.7061">Address Enable</text><line style="stroke:#006400;stroke-width:2.0;" x1="142.1104" x2="142.1104" y1="145.8594" y2="145.8594"/><line style="stroke:#006400;stroke-width:2.0;" x1="142.1104" x2="242.1104" y1="145.8594" y2="145.8594"/><line style="stroke:#006400;stroke-width:2.0;" x1="242.1104" x2="242.1104" y1="131.8594" y2="145.8594"/><line style="stroke:#006400;stroke-width:2.0;" x1="242.1104" x2="542.1104" y1="131.8594" y2="131.8594"/><line style="stroke:#006400;stroke-width:2.0;" x1="542.1104" x2="542.1104" y1="131.8594" y2="145.8594"/><line style="stroke:#006400;stroke-width:2.0;" x1="542.1104" x2="642.1104" y1="145.8594" y2="145.8594"/><line style="stroke:#333333;stroke-width:0.5;" x1="10" x2="647.1104" y1="153.8594" y2="153.8594"/><text fill="#333333" font-family="sans-serif" font-size="14" font-weight="bold" lengthAdjust="spacing" textLength="63.9434" x="15" y="166.8545">Address</text><line style="stroke:#333333;stroke-width:0.5;" x1="10" x2="79.9434" y1="171.1563" y2="171.1563"/><line style="stroke:#333333;stroke-width:0.5;" x1="79.9434" x2="89.9434" y1="171.1563" y2="153.8594"/><line style="stroke:#006400;stroke-width:1.5;" x1="142.1104" x2="192.1104" y1="188.1563" y2="188.1563"/><polygon fill="#E2E2F0" points="204.1104,176.1563,580.1104,176.1563,592.1104,188.1563,580.1104,200.1563,204.1104,200.1563,192.1104,188.1563" style="stroke:#006400;stroke-width:1.5;"/><line style="stroke:#006400;stroke-width:1.5;" x1="592.1104" x2="642.1104" y1="188.1563" y2="188.1563"/><text fill="#333333" font-family="sans-serif" font-size="12" font-weight="bold" lengthAdjust="spacing" textLength="108.7559" x="337.7324" y="192.3105">VALID ADDRESS</text><line style="stroke:#333333;stroke-width:0.5;" x1="10" x2="647.1104" y1="210.1563" y2="210.1563"/><text fill="#333333" font-family="sans-serif" font-size="14" font-weight="bold" lengthAdjust="spacing" textLength="95.375" x="15" y="239.4873">Data Enable</text><line style="stroke:#006400;stroke-width:2.0;" x1="142.1104" x2="142.1104" y1="251.125" y2="251.125"/><line style="stroke:#006400;stroke-width:2.0;" x1="142.1104" x2="292.1104" y1="251.125" y2="251.125"/><line style="stroke:#006400;stroke-width:2.0;" x1="292.1104" x2="292.1104" y1="237.125" y2="251.125"/><line style="stroke:#006400;stroke-width:2.0;" x1="292.1104" x2="492.1104" y1="237.125" y2="237.125"/><line style="stroke:#006400;stroke-width:2.0;" x1="492.1104" x2="492.1104" y1="237.125" y2="251.125"/><line style="stroke:#006400;stroke-width:2.0;" x1="492.1104" x2="642.1104" y1="251.125" y2="251.125"/><line style="stroke:#8B0000;stroke-width:1.5;" x1="294.6104" x2="489.6104" y1="229.125" y2="229.125"/><polygon fill="#8B0000" points="302.6104,233.125,302.6104,225.125,294.6104,229.125" style="stroke:#8B0000;stroke-width:2.0;"/><polygon fill="#8B0000" points="481.6104,233.125,481.6104,225.125,489.6104,229.125" style="stroke:#8B0000;stroke-width:2.0;"/><text fill="#8B0000" font-family="sans-serif" font-size="12" lengthAdjust="spacing" textLength="84.0938" x="350.0635" y="221.2949">{&gt;=4 cycles}</text><line style="stroke:#333333;stroke-width:0.5;" x1="10" x2="647.1104" y1="259.125" y2="259.125"/><text fill="#333333" font-family="sans-serif" font-size="14" font-weight="bold" lengthAdjust="spacing" textLength="37.208" x="15" y="272.1201">Data</text><line style="stroke:#333333;stroke-width:0.5;" x1="10" x2="53.208" y1="276.4219" y2="276.4219"/><line style="stroke:#333333;stroke-width:0.5;" x1="53.208" x2="63.208" y1="276.4219" y2="259.125"/><line style="stroke:#006400;stroke-width:1.5;" x1="142.1104" x2="242.1104" y1="293.4219" y2="293.4219"/><polygon fill="#E2E2F0" points="254.1104,281.4219,530.1104,281.4219,542.1104,293.4219,530.1104,305.4219,254.1104,305.4219,242.1104,293.4219" style="stroke:#006400;stroke-width:1.5;"/><line style="stroke:#006400;stroke-width:1.5;" x1="542.1104" x2="642.1104" y1="293.4219" y2="293.4219"/><text fill="#333333" font-family="sans-serif" font-size="12" font-weight="bold" lengthAdjust="spacing" textLength="81.5449" x="351.3379" y="297.5762">VALID DATA</text><line style="stroke:#333333;stroke-width:0.5;" x1="10" x2="647.1104" y1="315.4219" y2="315.4219"/><text fill="#333333" font-family="sans-serif" font-size="14" font-weight="bold" lengthAdjust="spacing" textLength="88.1904" x="15" y="335.2686">Read/Write</text><line style="stroke:#006400;stroke-width:2.0;" x1="142.1104" x2="242.1104" y1="337.4219" y2="337.4219"/><line style="stroke:#006400;stroke-width:2.0;" x1="242.1104" x2="242.1104" y1="323.4219" y2="337.4219"/><line style="stroke:#006400;stroke-width:2.0;" x1="242.1104" x2="492.1104" y1="323.4219" y2="323.4219"/><line style="stroke:#006400;stroke-width:2.0;" x1="492.1104" x2="492.1104" y1="323.4219" y2="337.4219"/><line style="stroke:#006400;stroke-width:2.0;" x1="492.1104" x2="642.1104" y1="337.4219" y2="337.4219"/><line style="stroke:#333333;stroke-width:2.0;" x1="142.1104" x2="142.1104" y1="345.4219" y2="350.4219"/><line style="stroke:#333333;stroke-width:2.0;" x1="192.1104" x2="192.1104" y1="345.4219" y2="350.4219"/><line style="stroke:#333333;stroke-width:2.0;" x1="242.1104" x2="242.1104" y1="345.4219" y2="350.4219"/><line style="stroke:#333333;stroke-width:2.0;" x1="292.1104" x2="292.1104" y1="345.4219" y2="350.4219"/><line style="stroke:#333333;stroke-width:2.0;" x1="342.1104" x2="342.1104" y1="345.4219" y2="350.4219"/><line style="stroke:#333333;stroke-width:2.0;" x1="392.1104" x2="392.1104" y1="345.4219" y2="350.4219"/><line style="stroke:#333333;stroke-width:2.0;" x1="442.1104" x2="442.1104" y1="345.4219" y2="350.4219"/><line style="stroke:#333333;stroke-width:2.0;" x1="492.1104" x2="492.1104" y1="345.4219" y2="350.4219"/><line style="stroke:#333333;stroke-width:2.0;" x1="542.1104" x2="542.1104" y1="345.4219" y2="350.4219"/><line style="stroke:#333333;stroke-width:2.0;" x1="592.1104" x2="592.1104" y1="345.4219" y2="350.4219"/><line style="stroke:#333333;stroke-width:2.0;" x1="642.1104" x2="642.1104" y1="345.4219" y2="350.4219"/><line style="stroke:#333333;stroke-width:2.0;" x1="142.1104" x2="642.1104" y1="345.4219" y2="345.4219"/><text fill="#333333" font-family="sans-serif" font-size="11" lengthAdjust="spacing" textLength="6.9985" x="138.6111" y="361.6323">0</text><text fill="#333333" font-family="sans-serif" font-size="11" lengthAdjust="spacing" textLength="6.9985" x="188.6111" y="361.6323">1</text><text fill="#333333" font-family="sans-serif" font-size="11" lengthAdjust="spacing" textLength="6.9985" x="238.6111" y="361.6323">2</text><text fill="#333333" font-family="sans-serif" font-size="11" lengthAdjust="spacing" textLength="6.9985" x="288.6111" y="361.6323">3</text><text fill="#333333" font-family="sans-serif" font-size="11" lengthAdjust="spacing" textLength="6.9985" x="488.6111" y="361.6323">7</text><text fill="#333333" font-family="sans-serif" font-size="11" lengthAdjust="spacing" textLength="6.9985" x="538.6111" y="361.6323">8</text><text fill="#333333" font-family="sans-serif" font-size="11" lengthAdjust="spacing" textLength="6.9985" x="588.6111" y="361.6323">9</text><line style="stroke:#696969;stroke-width:2.0;stroke-dasharray:4.0,4.0;" x1="242.1104" x2="242.1104" y1="79.8906" y2="345.4219"/><line style="stroke:#696969;stroke-width:2.0;stroke-dasharray:4.0,4.0;" x1="542.1104" x2="542.1104" y1="79.8906" y2="345.4219"/><text fill="#000000" font-family="sans-serif" font-size="12" lengthAdjust="spacing" textLength="121.8867" x="245.1104" y="93.0293">Data transfer region</text><!--SRC=[NP1VQy8m5CNVxwUuT6y5cNy6EhT92v4n67keCb-44TEilPWc8mb84R_xZDgWFWHoxpc_d4CyUIKnJPVKaAwG4QyiRv39ngJfMgyrW516R56eBUx8r_WdBPaI1x0XpMsBILwMLZg7SyqtIYR87UQC5J_pBn162t8oUg8OOSOzloPPlinlo628IiGAoSl7bIL_feeLGDQ5zf4SAhE3ORZKLDKmwLQGzI7umhpl7U0IrybXx2J81j6QVEUV7-pKVBvO94Tj6BqNBOm95AkO2Tde-ldBRdmVUIREtIPt1PvlkdPaDiBNtWopCKvnFtjxGj4A9Tq1GeGw7ez3z0Od-E2bgBLHfcfV56avPTIyMzaUmTE_Uykr-vKMhQp8QFW7]--></g></svg>