<svg xmlns="http://www.w3.org/2000/svg" xmlns:xlink="http://www.w3.org/1999/xlink" contentStyleType="text/css" height="78px" preserveAspectRatio="none" style="width:779px;height:78px;background:#FFFFFF;" version="1.1" viewBox="0 0 779 78" width="779px" zoomAndPan="magnify"><defs/><g><!--entity <size:32>**Developers <&monitor><&tablet><&phone> of the world <&globe>, unite! <&people><&people>**</size>--><g id="elem_&lt;size:32&gt;**Developers &lt;&amp;monitor&gt;&lt;&amp;tablet&gt;&lt;&amp;phone&gt; of the world &lt;&amp;globe&gt;, unite! &lt;&amp;people&gt;&lt;&amp;people&gt;**&lt;/size&gt;"><rect fill="#F1F1F1" height="57.25" rx="2.5" ry="2.5" style="stroke:#181818;stroke-width:0.5;" width="758.375" x="7" y="7"/><text fill="#000000" font-family="sans-serif" font-size="32" font-weight="bold" lengthAdjust="spacing" textLength="203.2188" x="17" y="46.7031">Developers</text><path d="M233.266,24.9167 A1.3333,1.3333 0 0 0 232.3594,26.25 L232.3594,39.5833 A1.3333,1.3333 0 0 0 233.6927,40.9167 L240.3594,40.9167 L240.3594,43.5833 L237.6927,43.5833 C236.226,43.5833 235.026,44.7833 235.026,46.25 L251.026,46.25 C251.026,44.7833 249.826,43.5833 248.3594,43.5833 L245.6927,43.5833 L245.6927,40.9167 L252.3594,40.9167 A1.3333,1.3333 0 0 0 253.6927,39.5833 L253.6927,26.25 A1.3333,1.3333 0 0 0 252.3594,24.9167 L233.6927,24.9167 A1.3333,1.3333 0 0 0 233.4527,24.9167 A1.3333,1.3333 0 0 0 233.2927,24.9167 M235.026,27.5833 L251.026,27.5833 L251.026,38.25 L235.026,38.25 L235.026,27.5833 " fill="#000000" style="stroke:;stroke-width:0.0;stroke-dasharray:;"/><path d="M256.5994,24.9167 C256.1194,24.9167 255.6927,25.3433 255.6927,25.8233 L255.6927,45.3167 C255.6927,45.7967 256.1194,46.2233 256.5994,46.2233 L273.426,46.2233 C273.906,46.2233 274.3327,45.7967 274.3327,45.3167 L274.3327,25.8233 C274.3327,25.3433 273.906,24.9167 273.426,24.9167 L256.5994,24.9167 M258.3594,27.5833 L271.6927,27.5833 L271.6927,40.9167 L258.3594,40.9167 L258.3594,27.5833 M265.026,42.25 C266.0394,42.25 266.706,43.37 266.1994,44.25 C265.6927,45.13 264.386,45.13 263.8527,44.25 C263.346,43.37 263.986,42.25 265.026,42.25 " fill="#000000" style="stroke:;stroke-width:0.0;stroke-dasharray:;"/><path d="M279.5327,24.9167 C279.2394,24.9167 279.026,25.13 279.026,25.4233 L279.026,45.77 C279.026,46.0633 279.2394,46.2767 279.5327,46.2767 L291.8794,46.2767 C292.1727,46.2767 292.386,46.0633 292.386,45.77 L292.386,25.4233 C292.386,25.13 292.1727,24.9167 291.8794,24.9167 L279.5327,24.9167 M281.6927,27.5833 L289.6927,27.5833 L289.6927,40.9167 L281.6927,40.9167 L281.6927,27.5833 M285.6927,42.25 C286.4394,42.25 287.026,42.8367 287.026,43.5833 C287.026,44.33 286.4394,44.9167 285.6927,44.9167 C284.946,44.9167 284.3594,44.33 284.3594,43.5833 C284.3594,42.8367 284.946,42.25 285.6927,42.25 " fill="#000000" style="stroke:;stroke-width:0.0;stroke-dasharray:;"/><text fill="#000000" font-family="sans-serif" font-size="32" font-weight="bold" lengthAdjust="spacing" textLength="219.1719" x="312.5" y="46.7031">of the world</text><path d="M554.4792,24.9167 C548.5858,24.9167 543.8125,29.69 543.8125,35.5833 C543.8125,41.4767 548.5858,46.25 554.4792,46.25 C560.3725,46.25 565.1458,41.4767 565.1458,35.5833 C565.1458,29.69 560.3725,24.9167 554.4792,24.9167 M554.4792,27.5833 C555.3592,27.5833 556.1858,27.8233 556.9858,28.09 C556.4258,28.6233 555.7858,29.1033 555.8925,29.5833 C555.9992,30.0633 557.7325,29.93 557.7325,30.9167 C557.7325,31.6367 556.6125,31.85 557.3858,32.6767 C558.3192,33.61 555.6792,35.29 555.6258,36.5167 C555.5458,38.73 557.8658,39.1033 559.7058,39.1033 C560.8258,39.1033 561.1192,39.6367 561.0392,40.2767 C559.5992,42.33 557.1458,43.61 554.4525,43.61 C553.4392,43.61 552.5058,43.37 551.6258,43.0233 C552.2125,41.85 550.8792,39.53 549.6258,38.7833 C549.0125,38.17 547.7058,38.41 546.9592,38.1167 C546.7192,37.3967 546.4792,36.6767 546.4525,35.8767 C546.5325,35.7433 546.6658,35.6367 546.8792,35.6367 C547.3858,35.6367 548.0792,36.65 548.4525,36.5433 C548.9325,36.4367 546.4792,33.05 547.6258,32.3833 C548.1592,32.0633 549.2258,33.4233 548.8792,31.9567 C548.5592,30.5967 549.8392,31.21 550.6392,30.8633 C551.3325,30.57 551.8392,29.77 550.9858,29.29 C550.8258,29.21 550.6392,29.0233 550.3992,28.7833 C551.5992,28.0633 552.9858,27.61 554.4792,27.61 M560.6392,30.49 C561.1192,31.0767 561.4925,31.7167 561.8125,32.41 C561.8125,32.4367 561.8125,32.4633 561.8125,32.49 C561.7058,32.6767 561.5192,32.7833 561.2258,33.0767 C560.4792,33.8233 560.3725,32.5167 560.0525,32.25 C559.7058,31.93 558.4525,32.3033 558.2925,31.9033 C558.1058,31.4233 559.6258,30.7833 560.6392,30.49 " fill="#000000" style="stroke:;stroke-width:0.0;stroke-dasharray:;"/><text fill="#000000" font-family="sans-serif" font-size="32" font-weight="bold" lengthAdjust="spacing" textLength="131.4219" x="566.1458" y="46.7031">, unite!</text><path d="M724.375,24.9167 C723.015,24.9167 721.8417,25.85 721.1217,27.2633 C722.3217,28.7033 723.0417,30.6767 723.0417,32.9433 C723.0417,33.7167 722.9617,34.41 722.8017,35.1033 C723.3083,35.3967 723.815,35.61 724.375,35.61 C726.5883,35.61 728.375,33.21 728.375,30.2767 C728.375,27.3433 726.5883,24.9433 724.375,24.9433 M716.375,27.5833 C714.1617,27.5833 712.375,29.9833 712.375,32.9167 C712.375,35.85 714.1617,38.25 716.375,38.25 C718.5883,38.25 720.375,35.85 720.375,32.9167 C720.375,29.9833 718.5883,27.5833 716.375,27.5833 M729.0417,36.01 C727.895,37.37 726.3217,38.1967 724.535,38.25 C725.255,39.2633 725.7083,40.49 725.7083,41.8233 L725.7083,43.5833 L731.0417,43.5833 L731.0417,39.1567 C731.0417,37.77 730.215,36.57 729.0417,35.9833 M711.7083,38.6767 C710.535,39.2633 709.7083,40.4633 709.7083,41.85 L709.7083,46.2767 L723.0417,46.2767 L723.0417,41.85 C723.0417,40.4633 722.215,39.2633 721.0417,38.6767 C719.8417,40.09 718.215,40.9167 716.375,40.9167 C714.535,40.9167 712.9083,40.0633 711.7083,38.6767 " fill="#000000" style="stroke:;stroke-width:0.0;stroke-dasharray:;"/><path d="M747.7083,24.9167 C746.3483,24.9167 745.175,25.85 744.455,27.2633 C745.655,28.7033 746.375,30.6767 746.375,32.9433 C746.375,33.7167 746.295,34.41 746.135,35.1033 C746.6417,35.3967 747.1483,35.61 747.7083,35.61 C749.9217,35.61 751.7083,33.21 751.7083,30.2767 C751.7083,27.3433 749.9217,24.9433 747.7083,24.9433 M739.7083,27.5833 C737.495,27.5833 735.7083,29.9833 735.7083,32.9167 C735.7083,35.85 737.495,38.25 739.7083,38.25 C741.9217,38.25 743.7083,35.85 743.7083,32.9167 C743.7083,29.9833 741.9217,27.5833 739.7083,27.5833 M752.375,36.01 C751.2283,37.37 749.655,38.1967 747.8683,38.25 C748.5883,39.2633 749.0417,40.49 749.0417,41.8233 L749.0417,43.5833 L754.375,43.5833 L754.375,39.1567 C754.375,37.77 753.5483,36.57 752.375,35.9833 M735.0417,38.6767 C733.8683,39.2633 733.0417,40.4633 733.0417,41.85 L733.0417,46.2767 L746.375,46.2767 L746.375,41.85 C746.375,40.4633 745.5483,39.2633 744.375,38.6767 C743.175,40.09 741.5483,40.9167 739.7083,40.9167 C737.8683,40.9167 736.2417,40.0633 735.0417,38.6767 " fill="#000000" style="stroke:;stroke-width:0.0;stroke-dasharray:;"/></g><!--SRC=[FOtD2eCm40PVPVMGGn0AzLR2ddmHVxvgOCs6kBNWqpUzU1k6WIcORKohWDfmn0kl_idU3pWXcb4E2cxN54qB1sVZ9B0AUTC49dsJRQ2l5bbgk8fEu8u-jKTJHOPc0T_WVNZy9zp-0000]--></g></svg>