<svg xmlns="http://www.w3.org/2000/svg" xmlns:xlink="http://www.w3.org/1999/xlink" contentStyleType="text/css" height="795px" preserveAspectRatio="none" style="width:640px;height:795px;background:#FFFFFF;" version="1.1" viewBox="0 0 640 795" width="640px" zoomAndPan="magnify"><defs/><g><text fill="#000000" font-family="sans-serif" font-size="14" font-weight="bold" lengthAdjust="spacing" textLength="198.7207" x="216.8562" y="27.9951">Sequence Diagram Demo</text><text fill="#000000" font-family="sans-serif" font-size="14" font-weight="bold" lengthAdjust="spacing" textLength="4.874" x="313.7795" y="44.292">&#160;</text><text fill="#000000" font-family="sans-serif" font-size="14" font-weight="bold" lengthAdjust="spacing" textLength="4.874" x="313.7795" y="60.5889">&#160;</text><rect fill="#90EE90" height="714.0625" style="stroke:#181818;stroke-width:0.5;" width="240.043" x="392.3901" y="75.8906"/><text fill="#000000" font-family="sans-serif" font-size="13" font-weight="bold" lengthAdjust="spacing" textLength="204.9023" x="407.6975" y="87.9575">Development Infrastructure</text><rect fill="#00FA9A" height="150.4688" style="stroke:#000000;stroke-width:1.5;" width="288.3901" x="118" y="515.1875"/><rect fill="#FFA07A" height="104.2031" style="stroke:none;stroke-width:1.0;" width="288.3901" x="118" y="561.4531"/><rect fill="#FAEBD7" height="75.3984" style="stroke:#000000;stroke-width:1.5;" width="268.3901" x="128" y="583.2578"/><line style="stroke:#181818;stroke-width:0.5;stroke-dasharray:5.0,5.0;" x1="177" x2="177" y1="157.3203" y2="167.3203"/><line style="stroke:#A80036;stroke-width:1.0;stroke-dasharray:1.0,4.0;" x1="177" x2="177" y1="167.3203" y2="195.3203"/><line style="stroke:#181818;stroke-width:0.5;stroke-dasharray:5.0,5.0;" x1="177" x2="177" y1="195.3203" y2="309.7188"/><line style="stroke:#A80036;stroke-width:1.0;stroke-dasharray:1.0,4.0;" x1="177" x2="177" y1="309.7188" y2="350.5234"/><line style="stroke:#181818;stroke-width:0.5;stroke-dasharray:5.0,5.0;" x1="177" x2="177" y1="350.5234" y2="672.6563"/><line style="stroke:#A80036;stroke-width:1.0;stroke-dasharray:1.0,4.0;" x1="177" x2="177" y1="672.6563" y2="700.6563"/><line style="stroke:#181818;stroke-width:0.5;stroke-dasharray:5.0,5.0;" x1="177" x2="177" y1="700.6563" y2="710.6563"/><line style="stroke:#181818;stroke-width:0.5;stroke-dasharray:5.0,5.0;" x1="347.1479" x2="347.1479" y1="157.3203" y2="167.3203"/><line style="stroke:#A80036;stroke-width:1.0;stroke-dasharray:1.0,4.0;" x1="347.1479" x2="347.1479" y1="167.3203" y2="195.3203"/><line style="stroke:#181818;stroke-width:0.5;stroke-dasharray:5.0,5.0;" x1="347.1479" x2="347.1479" y1="195.3203" y2="309.7188"/><line style="stroke:#A80036;stroke-width:1.0;stroke-dasharray:1.0,4.0;" x1="347.1479" x2="347.1479" y1="309.7188" y2="350.5234"/><line style="stroke:#181818;stroke-width:0.5;stroke-dasharray:5.0,5.0;" x1="347.1479" x2="347.1479" y1="350.5234" y2="672.6563"/><line style="stroke:#A80036;stroke-width:1.0;stroke-dasharray:1.0,4.0;" x1="347.1479" x2="347.1479" y1="672.6563" y2="700.6563"/><line style="stroke:#181818;stroke-width:0.5;stroke-dasharray:5.0,5.0;" x1="347.1479" x2="347.1479" y1="700.6563" y2="710.6563"/><line style="stroke:#181818;stroke-width:0.5;stroke-dasharray:5.0,5.0;" x1="425.3901" x2="425.3901" y1="157.3203" y2="167.3203"/><line style="stroke:#A80036;stroke-width:1.0;stroke-dasharray:1.0,4.0;" x1="425.3901" x2="425.3901" y1="167.3203" y2="195.3203"/><line style="stroke:#181818;stroke-width:0.5;stroke-dasharray:5.0,5.0;" x1="425.3901" x2="425.3901" y1="195.3203" y2="309.7188"/><line style="stroke:#A80036;stroke-width:1.0;stroke-dasharray:1.0,4.0;" x1="425.3901" x2="425.3901" y1="309.7188" y2="350.5234"/><line style="stroke:#181818;stroke-width:0.5;stroke-dasharray:5.0,5.0;" x1="425.3901" x2="425.3901" y1="350.5234" y2="672.6563"/><line style="stroke:#A80036;stroke-width:1.0;stroke-dasharray:1.0,4.0;" x1="425.3901" x2="425.3901" y1="672.6563" y2="700.6563"/><line style="stroke:#181818;stroke-width:0.5;stroke-dasharray:5.0,5.0;" x1="425.3901" x2="425.3901" y1="700.6563" y2="710.6563"/><line style="stroke:#181818;stroke-width:0.5;stroke-dasharray:5.0,5.0;" x1="501.3003" x2="501.3003" y1="157.3203" y2="167.3203"/><line style="stroke:#A80036;stroke-width:1.0;stroke-dasharray:1.0,4.0;" x1="501.3003" x2="501.3003" y1="167.3203" y2="195.3203"/><line style="stroke:#181818;stroke-width:0.5;stroke-dasharray:5.0,5.0;" x1="501.3003" x2="501.3003" y1="195.3203" y2="309.7188"/><line style="stroke:#A80036;stroke-width:1.0;stroke-dasharray:1.0,4.0;" x1="501.3003" x2="501.3003" y1="309.7188" y2="350.5234"/><line style="stroke:#181818;stroke-width:0.5;stroke-dasharray:5.0,5.0;" x1="501.3003" x2="501.3003" y1="350.5234" y2="672.6563"/><line style="stroke:#A80036;stroke-width:1.0;stroke-dasharray:1.0,4.0;" x1="501.3003" x2="501.3003" y1="672.6563" y2="700.6563"/><line style="stroke:#181818;stroke-width:0.5;stroke-dasharray:5.0,5.0;" x1="501.3003" x2="501.3003" y1="700.6563" y2="710.6563"/><line style="stroke:#181818;stroke-width:0.5;stroke-dasharray:5.0,5.0;" x1="587.3608" x2="587.3608" y1="157.3203" y2="167.3203"/><line style="stroke:#A80036;stroke-width:1.0;stroke-dasharray:1.0,4.0;" x1="587.3608" x2="587.3608" y1="167.3203" y2="195.3203"/><line style="stroke:#181818;stroke-width:0.5;stroke-dasharray:5.0,5.0;" x1="587.3608" x2="587.3608" y1="195.3203" y2="309.7188"/><line style="stroke:#A80036;stroke-width:1.0;stroke-dasharray:1.0,4.0;" x1="587.3608" x2="587.3608" y1="309.7188" y2="350.5234"/><line style="stroke:#181818;stroke-width:0.5;stroke-dasharray:5.0,5.0;" x1="587.3608" x2="587.3608" y1="350.5234" y2="672.6563"/><line style="stroke:#A80036;stroke-width:1.0;stroke-dasharray:1.0,4.0;" x1="587.3608" x2="587.3608" y1="672.6563" y2="700.6563"/><line style="stroke:#181818;stroke-width:0.5;stroke-dasharray:5.0,5.0;" x1="587.3608" x2="587.3608" y1="700.6563" y2="710.6563"/><text fill="#000000" font-family="sans-serif" font-size="14" lengthAdjust="spacing" textLength="72.0029" x="138" y="154.0186">Developer</text><ellipse cx="177.0015" cy="89.5234" fill="#FF6347" rx="8" ry="8" style="stroke:#181818;stroke-width:0.5;"/><path d="M177.0015,97.5234 L177.0015,124.5234 M164.0015,105.5234 L190.0015,105.5234 M177.0015,124.5234 L164.0015,139.5234 M177.0015,124.5234 L190.0015,139.5234 " fill="none" style="stroke:#181818;stroke-width:0.5;"/><text fill="#000000" font-family="sans-serif" font-size="14" lengthAdjust="spacing" textLength="72.0029" x="138" y="722.6514">Developer</text><ellipse cx="177.0015" cy="734.4531" fill="#FF6347" rx="8" ry="8" style="stroke:#181818;stroke-width:0.5;"/><path d="M177.0015,742.4531 L177.0015,769.4531 M164.0015,750.4531 L190.0015,750.4531 M177.0015,769.4531 L164.0015,784.4531 M177.0015,769.4531 L190.0015,784.4531 " fill="none" style="stroke:#181818;stroke-width:0.5;"/><text fill="#000000" font-family="sans-serif" font-size="14" lengthAdjust="spacing" textLength="72.2422" x="308.1479" y="154.0186">Reviewers</text><ellipse cx="347.269" cy="89.5234" fill="#E2E2F0" rx="8" ry="8" style="stroke:#181818;stroke-width:0.5;"/><path d="M347.269,97.5234 L347.269,124.5234 M334.269,105.5234 L360.269,105.5234 M347.269,124.5234 L334.269,139.5234 M347.269,124.5234 L360.269,139.5234 " fill="none" style="stroke:#181818;stroke-width:0.5;"/><text fill="#000000" font-family="sans-serif" font-size="14" lengthAdjust="spacing" textLength="72.2422" x="308.1479" y="722.6514">Reviewers</text><ellipse cx="347.269" cy="734.4531" fill="#E2E2F0" rx="8" ry="8" style="stroke:#181818;stroke-width:0.5;"/><path d="M347.269,742.4531 L347.269,769.4531 M334.269,750.4531 L360.269,750.4531 M347.269,769.4531 L334.269,784.4531 M347.269,769.4531 L360.269,784.4531 " fill="none" style="stroke:#181818;stroke-width:0.5;"/><rect fill="#F0FFFF" height="46.5938" rx="2.5" ry="2.5" style="stroke:#181818;stroke-width:0.5;" width="59.9102" x="396.3901" y="109.7266"/><text fill="#000000" font-family="sans-serif" font-size="14" lengthAdjust="spacing" textLength="35.1436" x="408.7734" y="129.7217">Build</text><text fill="#000000" font-family="sans-serif" font-size="14" lengthAdjust="spacing" textLength="45.9102" x="403.3901" y="146.0186">Server</text><rect fill="#F0FFFF" height="46.5938" rx="2.5" ry="2.5" style="stroke:#181818;stroke-width:0.5;" width="59.9102" x="396.3901" y="709.6563"/><text fill="#000000" font-family="sans-serif" font-size="14" lengthAdjust="spacing" textLength="35.1436" x="408.7734" y="729.6514">Build</text><text fill="#000000" font-family="sans-serif" font-size="14" lengthAdjust="spacing" textLength="45.9102" x="403.3901" y="745.9482">Server</text><rect fill="#B0E0E6" height="30.2969" style="stroke:#181818;stroke-width:0.5;" width="67.0605" x="470.3003" y="122.0234"/><rect fill="#B0E0E6" height="30.2969" style="stroke:#181818;stroke-width:0.5;" width="67.0605" x="466.3003" y="126.0234"/><a href="https://github.com/dragondive/hebi/issues" target="_top" title="https://github.com/dragondive/hebi/issues" xlink:actuate="onRequest" xlink:href="https://github.com/dragondive/hebi/issues" xlink:show="new" xlink:title="https://github.com/dragondive/hebi/issues" xlink:type="simple"><text fill="#0000FF" font-family="sans-serif" font-size="14" lengthAdjust="spacing" text-decoration="underline" textLength="53.0605" x="473.3003" y="146.0186">Tracker</text></a><rect fill="#B0E0E6" height="30.2969" style="stroke:#181818;stroke-width:0.5;" width="67.0605" x="470.3003" y="709.6563"/><rect fill="#B0E0E6" height="30.2969" style="stroke:#181818;stroke-width:0.5;" width="67.0605" x="466.3003" y="713.6563"/><a href="https://github.com/dragondive/hebi/issues" target="_top" title="https://github.com/dragondive/hebi/issues" xlink:actuate="onRequest" xlink:href="https://github.com/dragondive/hebi/issues" xlink:show="new" xlink:title="https://github.com/dragondive/hebi/issues" xlink:type="simple"><text fill="#0000FF" font-family="sans-serif" font-size="14" lengthAdjust="spacing" text-decoration="underline" textLength="53.0605" x="473.3003" y="733.6514">Tracker</text></a><a href="https://github.com/dragondive/hebi" target="_top" title="https://github.com/dragondive/hebi" xlink:actuate="onRequest" xlink:href="https://github.com/dragondive/hebi" xlink:show="new" xlink:title="https://github.com/dragondive/hebi" xlink:type="simple"><text fill="#0000FF" font-family="sans-serif" font-size="14" lengthAdjust="spacing" text-decoration="underline" textLength="75.0723" x="547.3608" y="154.0186">Repository</text></a><path d="M569.897,105.0234 C569.897,95.0234 587.897,95.0234 587.897,95.0234 C587.897,95.0234 605.897,95.0234 605.897,105.0234 L605.897,131.0234 C605.897,141.0234 587.897,141.0234 587.897,141.0234 C587.897,141.0234 569.897,141.0234 569.897,131.0234 L569.897,105.0234 " fill="#DDA0DD" style="stroke:#181818;stroke-width:1.5;"/><path d="M569.897,105.0234 C569.897,115.0234 587.897,115.0234 587.897,115.0234 C587.897,115.0234 605.897,115.0234 605.897,105.0234 " fill="none" style="stroke:#181818;stroke-width:1.5;"/><a href="https://github.com/dragondive/hebi" target="_top" title="https://github.com/dragondive/hebi" xlink:actuate="onRequest" xlink:href="https://github.com/dragondive/hebi" xlink:show="new" xlink:title="https://github.com/dragondive/hebi" xlink:type="simple"><text fill="#0000FF" font-family="sans-serif" font-size="14" lengthAdjust="spacing" text-decoration="underline" textLength="75.0723" x="547.3608" y="722.6514">Repository</text></a><path d="M569.897,735.9531 C569.897,725.9531 587.897,725.9531 587.897,725.9531 C587.897,725.9531 605.897,725.9531 605.897,735.9531 L605.897,761.9531 C605.897,771.9531 587.897,771.9531 587.897,771.9531 C587.897,771.9531 569.897,771.9531 569.897,761.9531 L569.897,735.9531 " fill="#DDA0DD" style="stroke:#181818;stroke-width:1.5;"/><path d="M569.897,735.9531 C569.897,745.9531 587.897,745.9531 587.897,745.9531 C587.897,745.9531 605.897,745.9531 605.897,735.9531 " fill="none" style="stroke:#181818;stroke-width:1.5;"/><rect fill="#EEEEEE" height="3" style="stroke:#EEEEEE;stroke-width:1.0;" width="633.4331" x="0" y="215.8867"/><line style="stroke:#000000;stroke-width:1.0;" x1="0" x2="633.4331" y1="215.8867" y2="215.8867"/><line style="stroke:#000000;stroke-width:1.0;" x1="0" x2="633.4331" y1="218.8867" y2="218.8867"/><rect fill="#EEEEEE" height="23.1328" style="stroke:#000000;stroke-width:2.0;" width="115.9497" x="258.7417" y="205.3203"/><text fill="#000000" font-family="sans-serif" font-size="13" font-weight="bold" lengthAdjust="spacing" textLength="97.4238" x="264.7417" y="221.3872">Development</text><polygon fill="#404032" points="489.8306,255.5859,499.8306,259.5859,489.8306,263.5859,493.8306,259.5859" style="stroke:#404032;stroke-width:1.0;"/><line style="stroke:#404032;stroke-width:1.0;" x1="177.0015" x2="495.8306" y1="259.5859" y2="259.5859"/><text fill="#000000" font-family="sans-serif" font-size="13" font-weight="bold" lengthAdjust="spacing" textLength="9.0454" x="184.0015" y="254.52">2</text><text fill="#000000" font-family="sans-serif" font-size="13" lengthAdjust="spacing" textLength="123.4175" x="197.0469" y="254.52">assign issue to self</text><line style="stroke:#181818;stroke-width:1.0;" x1="177.0015" x2="219.0015" y1="288.7188" y2="288.7188"/><line style="stroke:#181818;stroke-width:1.0;" x1="219.0015" x2="219.0015" y1="288.7188" y2="301.7188"/><line style="stroke:#181818;stroke-width:1.0;" x1="178.0015" x2="219.0015" y1="301.7188" y2="301.7188"/><polygon fill="#181818" points="188.0015,297.7188,178.0015,301.7188,188.0015,305.7188,184.0015,301.7188" style="stroke:#181818;stroke-width:1.0;"/><text fill="#000000" font-family="sans-serif" font-size="13" font-weight="bold" lengthAdjust="spacing" textLength="9.0454" x="184.0015" y="283.6528">3</text><text fill="#000000" font-family="sans-serif" font-size="13" lengthAdjust="spacing" textLength="143.2222" x="197.0469" y="283.6528">work towards solution</text><text fill="#000000" font-family="sans-serif" font-size="11" lengthAdjust="spacing" textLength="88.3008" x="338.2988" y="333.9292">some days later</text><polygon fill="#181818" points="414.3452,370.6563,424.3452,374.6563,414.3452,378.6563,418.3452,374.6563" style="stroke:#181818;stroke-width:1.0;"/><line style="stroke:#181818;stroke-width:1.0;" x1="177.0015" x2="420.3452" y1="374.6563" y2="374.6563"/><text fill="#000000" font-family="sans-serif" font-size="13" font-weight="bold" lengthAdjust="spacing" textLength="9.0454" x="184.0015" y="369.5903">4</text><text fill="#000000" font-family="sans-serif" font-size="13" lengthAdjust="spacing" textLength="104.6855" x="197.0469" y="369.5903">submit build job</text><path d="M5,355.5234 L5,380.5234 L172,380.5234 L172,365.5234 L162,355.5234 L5,355.5234 " fill="#FFDAB9" style="stroke:#181818;stroke-width:0.5;"/><path d="M162,355.5234 L162,365.5234 L172,365.5234 L162,355.5234 " fill="#FFDAB9" style="stroke:#181818;stroke-width:0.5;"/><text fill="#000000" font-family="sans-serif" font-size="13" lengthAdjust="spacing" textLength="146.6245" x="11" y="372.5903">when solution is ready</text><polygon fill="#181818" points="188.0015,413.3555,178.0015,417.3555,188.0015,421.3555,184.0015,417.3555" style="stroke:#181818;stroke-width:1.0;"/><line style="stroke:#181818;stroke-width:1.0;stroke-dasharray:2.0,2.0;" x1="182.0015" x2="425.3452" y1="417.3555" y2="417.3555"/><text fill="#000000" font-family="sans-serif" font-size="13" font-weight="bold" lengthAdjust="spacing" textLength="9.0454" x="194.0015" y="412.2896">5</text><text fill="#000000" font-family="sans-serif" font-size="13" lengthAdjust="spacing" textLength="103.3779" x="207.0469" y="412.2896">build successful</text><path d="M431,390.6563 L431,430.6563 L618,430.6563 L618,400.6563 L608,390.6563 L431,390.6563 " fill="#FEFFDD" style="stroke:#181818;stroke-width:0.5;"/><path d="M608,390.6563 L608,400.6563 L618,400.6563 L608,390.6563 " fill="#FEFFDD" style="stroke:#181818;stroke-width:0.5;"/><text fill="#000000" font-family="sans-serif" font-size="13" lengthAdjust="spacing" textLength="146.853" x="437" y="407.7231">dotted arrows indicate</text><text fill="#000000" font-family="sans-serif" font-size="13" lengthAdjust="spacing" textLength="166.5625" x="437" y="422.856">computer-triggered steps</text><rect fill="#EEEEEE" height="3" style="stroke:#EEEEEE;stroke-width:1.0;" width="633.4331" x="0" y="456.4883"/><line style="stroke:#000000;stroke-width:1.0;" x1="0" x2="633.4331" y1="456.4883" y2="456.4883"/><line style="stroke:#000000;stroke-width:1.0;" x1="0" x2="633.4331" y1="459.4883" y2="459.4883"/><rect fill="#EEEEEE" height="23.1328" style="stroke:#000000;stroke-width:2.0;" width="71.1099" x="281.1616" y="445.9219"/><text fill="#000000" font-family="sans-serif" font-size="13" font-weight="bold" lengthAdjust="spacing" textLength="52.584" x="287.1616" y="461.9888">Review</text><polygon fill="#181818" points="335.269,496.1875,345.269,500.1875,335.269,504.1875,339.269,500.1875" style="stroke:#181818;stroke-width:1.0;"/><line style="stroke:#181818;stroke-width:1.0;" x1="177.0015" x2="341.269" y1="500.1875" y2="500.1875"/><text fill="#000000" font-family="sans-serif" font-size="13" font-weight="bold" lengthAdjust="spacing" textLength="9.0454" x="184.0015" y="495.1216">6</text><a href="https://github.com/dragondive/hebi/compare" target="_top" title="https://github.com/dragondive/hebi/compare" xlink:actuate="onRequest" xlink:href="https://github.com/dragondive/hebi/compare" xlink:show="new" xlink:title="https://github.com/dragondive/hebi/compare" xlink:type="simple"><text fill="#0000FF" font-family="sans-serif" font-size="13" lengthAdjust="spacing" text-decoration="underline" textLength="126.3184" x="197.0469" y="495.1216">submit pull request</text></a><path d="M118,515.1875 L182.4429,515.1875 L182.4429,522.3203 L172.4429,532.3203 L118,532.3203 L118,515.1875 " fill="#EEEEEE" style="stroke:#000000;stroke-width:1.5;"/><rect fill="none" height="150.4688" style="stroke:#000000;stroke-width:1.5;" width="288.3901" x="118" y="515.1875"/><text fill="#000000" font-family="sans-serif" font-size="13" font-weight="bold" lengthAdjust="spacing" textLength="19.4429" x="133" y="528.2544">alt</text><text fill="#000000" font-family="sans-serif" font-size="11" font-weight="bold" lengthAdjust="spacing" textLength="68.7124" x="197.4429" y="527.3979">[approved]</text><polygon fill="#181818" points="188.0015,549.4531,178.0015,553.4531,188.0015,557.4531,184.0015,553.4531" style="stroke:#181818;stroke-width:1.0;"/><line style="stroke:#181818;stroke-width:1.0;" x1="182.0015" x2="346.269" y1="553.4531" y2="553.4531"/><text fill="#000000" font-family="sans-serif" font-size="13" font-weight="bold" lengthAdjust="spacing" textLength="9.0454" x="194.0015" y="548.3872">7</text><text fill="#000000" font-family="sans-serif" font-size="13" lengthAdjust="spacing" textLength="112.2075" x="207.0469" y="548.3872">approve changes</text><line style="stroke:#000000;stroke-width:1.0;stroke-dasharray:2.0,2.0;" x1="118" x2="406.3901" y1="562.4531" y2="562.4531"/><text fill="#000000" font-family="sans-serif" font-size="11" font-weight="bold" lengthAdjust="spacing" textLength="61.2842" x="123" y="572.6636">[rejected]</text><path d="M128,583.2578 L204.624,583.2578 L204.624,590.3906 L194.624,600.3906 L128,600.3906 L128,583.2578 " fill="#EEEEEE" style="stroke:#000000;stroke-width:1.5;"/><rect fill="none" height="75.3984" style="stroke:#000000;stroke-width:1.5;" width="268.3901" x="128" y="583.2578"/><text fill="#000000" font-family="sans-serif" font-size="13" font-weight="bold" lengthAdjust="spacing" textLength="31.624" x="143" y="596.3247">loop</text><polygon fill="#181818" points="188.0015,617.5234,178.0015,621.5234,188.0015,625.5234,184.0015,621.5234" style="stroke:#181818;stroke-width:1.0;"/><line style="stroke:#181818;stroke-width:1.0;" x1="182.0015" x2="346.269" y1="621.5234" y2="621.5234"/><text fill="#000000" font-family="sans-serif" font-size="13" font-weight="bold" lengthAdjust="spacing" textLength="9.0454" x="194.0015" y="616.4575">8</text><text fill="#000000" font-family="sans-serif" font-size="13" lengthAdjust="spacing" textLength="115.9463" x="207.0469" y="616.4575">review comments</text><polygon fill="#181818" points="335.269,646.6563,345.269,650.6563,335.269,654.6563,339.269,650.6563" style="stroke:#181818;stroke-width:1.0;"/><line style="stroke:#181818;stroke-width:1.0;" x1="177.0015" x2="341.269" y1="650.6563" y2="650.6563"/><text fill="#000000" font-family="sans-serif" font-size="13" font-weight="bold" lengthAdjust="spacing" textLength="9.0454" x="184.0015" y="645.5903">9</text><text fill="#000000" font-family="sans-serif" font-size="13" lengthAdjust="spacing" textLength="103.3843" x="197.0469" y="645.5903">submit changes</text><!--SRC=[ZL9DQnin4BthLmpnpM0xf3cPEj0GA8KMGXte8VP1gntlAj5AsvcHtVJNTxIxSPfRT9CqUbzwuYKWpETR_9qnEeGxRnko7TnXb-RpNTn5OwoJH7fon91w9B1SDW2pXzHPITFzJpnwF26nCLNwyphUOHJu5WzaMIWxoOGm- -wRLhuIOZIWgxSatldUwkZ5RVQXtiKjqX7fed0D9p3xybVV3lCkXO1EV8eC5u-FhKZFwzMgyTBcQkbIjwh9DYdM_eYh5Yk_yimP6Hx8kcUa_Nx0dNOmkq-d6kasv16-jc8ho_WnRFNT9_QQmCk4-tQWq25t1cCD6ea6cIN5t5LAUcMMowNPRDxbjDcO4kpYSNPzUNtvwMf_SnQvLcJsJOJ12aW2nd0Ons-6xrZ3AT6ptfmirGoSGYuHcKAakmxLs0j3iA9mXNnwEyQx1ivLvmMgOVkKAXEJ80GyYDf0wzhxV3WKbXRZ6Ltb0A6jNym8ipYB6N4uEuVCXnn6E2e_luOwYM0DbYYT6BocwLJMBcg-VLPz2z711abdMB3NIcbIOy7E8Tt0M-MKxqCzAFXM6pXvxNC8Ab-hpxBV6nlKwW-iVUwsFVdO31K5s_UKZbWFvNYZF3kTxi6rDZR81WE_TdnhGwSX4JvfNoU4a5AlROxYbVTNwsLiNLa5x_FYdIqQJQlmqX1-DweA_X-TJBtAA5EbUOLlgA3Q6qht3m00]--></g></svg>