<svg xmlns="http://www.w3.org/2000/svg" xmlns:xlink="http://www.w3.org/1999/xlink" contentStyleType="text/css" height="482px" preserveAspectRatio="none" style="width:531px;height:482px;background:#FFFFFF;" version="1.1" viewBox="0 0 531 482" width="531px" zoomAndPan="magnify"><defs/><g><polygon fill="#FFB36A" points="311.7691,270,259.8076,300,207.8461,270,207.8461,210,259.8076,180,311.7691,210" style="stroke:#FFB36A;stroke-width:1.0;"/><text fill="#000000" font-family="sans-serif" font-size="14" font-weight="bold" lengthAdjust="spacing" textLength="51.1328" x="234.2412" y="244.8467">ffb36a</text><polygon fill="#FFB6C1" points="415.6922,270,363.7307,300,311.7691,270,311.7691,210,363.7307,180,415.6922,210" style="stroke:#FFB6C1;stroke-width:1.0;"/><text fill="#000000" font-family="sans-serif" font-size="14" font-weight="bold" lengthAdjust="spacing" textLength="74.7373" x="326.362" y="244.8467">LightPink</text><polygon fill="#FFA07A" points="363.7307,360,311.7691,390,259.8076,360,259.8076,300,311.7691,270,363.7307,300" style="stroke:#FFA07A;stroke-width:1.0;"/><text fill="#000000" font-family="sans-serif" font-size="14" font-weight="bold" lengthAdjust="spacing" textLength="98.9023" x="262.318" y="334.8467">LightSalmon</text><polygon fill="#F4A460" points="259.8076,360,207.8461,390,155.8846,360,155.8846,300,207.8461,270,259.8076,300" style="stroke:#F4A460;stroke-width:1.0;"/><text fill="#000000" font-family="sans-serif" font-size="14" font-weight="bold" lengthAdjust="spacing" textLength="98.7383" x="158.477" y="334.8467">SandyBrown</text><polygon fill="#DEB887" points="207.8461,270,155.8846,300,103.923,270,103.923,210,155.8846,180,207.8461,210" style="stroke:#DEB887;stroke-width:1.0;"/><text fill="#000000" font-family="sans-serif" font-size="14" font-weight="bold" lengthAdjust="spacing" textLength="86.167" x="112.8011" y="244.8467">BurlyWood</text><polygon fill="#D2B48C" points="259.8076,180,207.8461,210,155.8846,180,155.8846,120,207.8461,90,259.8076,120" style="stroke:#D2B48C;stroke-width:1.0;"/><text fill="#000000" font-family="sans-serif" font-size="14" font-weight="bold" lengthAdjust="spacing" textLength="28.9639" x="193.3642" y="154.8467">Tan</text><polygon fill="#FFC0CB" points="363.7307,180,311.7691,210,259.8076,180,259.8076,120,311.7691,90,363.7307,120" style="stroke:#FFC0CB;stroke-width:1.0;"/><text fill="#000000" font-family="sans-serif" font-size="14" font-weight="bold" lengthAdjust="spacing" textLength="34.3369" x="294.6007" y="154.8467">Pink</text><polygon fill="#FFA500" points="519.6152,270,467.6537,300,415.6922,270,415.6922,210,467.6537,180,519.6152,210" style="stroke:#FFA500;stroke-width:1.0;"/><text fill="#000000" font-family="sans-serif" font-size="14" font-weight="bold" lengthAdjust="spacing" textLength="57.7363" x="438.7856" y="244.8467">Orange</text><polygon fill="#BDB76B" points="467.6537,360,415.6922,390,363.7307,360,363.7307,300,415.6922,270,467.6537,300" style="stroke:#BDB76B;stroke-width:1.0;"/><text fill="#000000" font-family="sans-serif" font-size="14" font-weight="bold" lengthAdjust="spacing" textLength="81.6553" x="374.8646" y="334.8467">DarkKhaki</text><polygon fill="#E9967A" points="415.6922,450,363.7307,480,311.7691,450,311.7691,390,363.7307,360,415.6922,390" style="stroke:#E9967A;stroke-width:1.0;"/><text fill="#000000" font-family="sans-serif" font-size="14" font-weight="bold" lengthAdjust="spacing" textLength="95.7852" x="315.8381" y="424.8467">DarkSalmon</text><polygon fill="#DAA520" points="311.7691,450,259.8076,480,207.8461,450,207.8461,390,259.8076,360,311.7691,390" style="stroke:#DAA520;stroke-width:1.0;"/><text fill="#000000" font-family="sans-serif" font-size="14" font-weight="bold" lengthAdjust="spacing" textLength="85.8115" x="216.9019" y="424.8467">GoldenRod</text><polygon fill="#D8BFD8" points="207.8461,450,155.8846,480,103.923,450,103.923,390,155.8846,360,207.8461,390" style="stroke:#D8BFD8;stroke-width:1.0;"/><text fill="#000000" font-family="sans-serif" font-size="14" font-weight="bold" lengthAdjust="spacing" textLength="53.6348" x="129.0672" y="424.8467">Thistle</text><polygon fill="#FFDAB9" points="155.8846,360,103.923,390,51.9615,360,51.9615,300,103.923,270,155.8846,300" style="stroke:#FFDAB9;stroke-width:1.0;"/><text fill="#000000" font-family="sans-serif" font-size="14" font-weight="bold" lengthAdjust="spacing" textLength="79.8779" x="63.9841" y="334.8467">PeachPuff</text><polygon fill="#FA8072" points="103.923,270,51.9615,300,-0,270,-0,210,51.9615,180,103.923,210" style="stroke:#FA8072;stroke-width:1.0;"/><text fill="#000000" font-family="sans-serif" font-size="14" font-weight="bold" lengthAdjust="spacing" textLength="58.502" x="22.7105" y="244.8467">Salmon</text><polygon fill="#FFDEAD" points="155.8846,180,103.923,210,51.9615,180,51.9615,120,103.923,90,155.8846,120" style="stroke:#FFDEAD;stroke-width:1.0;"/><text fill="#000000" font-family="sans-serif" font-size="14" font-weight="bold" lengthAdjust="spacing" textLength="100.5498" x="53.6481" y="154.8467">NavajoWhite</text><polygon fill="#FFD700" points="207.8461,90,155.8846,120,103.923,90,103.923,30,155.8846,0,207.8461,30" style="stroke:#FFD700;stroke-width:1.0;"/><text fill="#000000" font-family="sans-serif" font-size="14" font-weight="bold" lengthAdjust="spacing" textLength="35.9297" x="137.9197" y="64.8467">Gold</text><polygon fill="#FF7F50" points="311.7691,90,259.8076,120,207.8461,90,207.8461,30,259.8076,0,311.7691,30" style="stroke:#FF7F50;stroke-width:1.0;"/><text fill="#000000" font-family="sans-serif" font-size="14" font-weight="bold" lengthAdjust="spacing" textLength="41.043" x="239.2861" y="64.8467">Coral</text><polygon fill="#DDA0DD" points="415.6922,90,363.7307,120,311.7691,90,311.7691,30,363.7307,0,415.6922,30" style="stroke:#DDA0DD;stroke-width:1.0;"/><text fill="#000000" font-family="sans-serif" font-size="14" font-weight="bold" lengthAdjust="spacing" textLength="39.6143" x="343.9235" y="64.8467">Plum</text><polygon fill="#FF8C00" points="467.6537,180,415.6922,210,363.7307,180,363.7307,120,415.6922,90,467.6537,120" style="stroke:#FF8C00;stroke-width:1.0;"/><text fill="#000000" font-family="sans-serif" font-size="14" font-weight="bold" lengthAdjust="spacing" textLength="92.7363" x="369.324" y="154.8467">Darkorange</text><!--SRC=[IyxFoIygLb1EIqioDai40000]--></g></svg>