<svg xmlns="http://www.w3.org/2000/svg" xmlns:xlink="http://www.w3.org/1999/xlink" contentStyleType="text/css" height="1155.2083px" preserveAspectRatio="none" style="width:922px;height:1155px;" version="1.1" viewBox="0 0 922 1155" width="922.9167px" zoomAndPan="magnify"><defs><linearGradient id="gtq6o33p0d3ku0" x1="50%" x2="50%" y1="0%" y2="100%"><stop offset="0%" stop-color="#CDCDCD"/><stop offset="100%" stop-color="#9A9A9A"/></linearGradient><linearGradient id="gtq6o33p0d3ku1" x1="50%" x2="50%" y1="0%" y2="100%"><stop offset="0%" stop-color="#EAE9E8"/><stop offset="100%" stop-color="#E5E4E2"/></linearGradient><linearGradient id="gtq6o33p0d3ku2" x1="50%" x2="50%" y1="0%" y2="100%"><stop offset="0%" stop-color="#E5E4E2"/><stop offset="100%" stop-color="#B7B6B5"/></linearGradient><linearGradient id="gtq6o33p0d3ku3" x1="50%" x2="50%" y1="0%" y2="100%"><stop offset="0%" stop-color="#FDFDFD"/><stop offset="100%" stop-color="#F2F2F2"/></linearGradient><linearGradient id="gtq6o33p0d3ku4" x1="50%" x2="50%" y1="0%" y2="100%"><stop offset="0%" stop-color="#C0D0E5"/><stop offset="100%" stop-color="#8D9DB2"/></linearGradient></defs><g><rect fill="url(#gtq6o33p0d3ku0)" height="53.418" id="_title" rx="4.1667" ry="4.1667" style="stroke:#9A9A9A;stroke-width:1.0416666666666667;" width="324.882" x="297.7432" y="20.8333"/><text fill="#FDFDFD" font-family="Verdana" font-size="20.8333" font-weight="bold" lengthAdjust="spacing" textLength="295.7153" x="312.3266" y="54.7546">Sequence Diagram Demo</text><rect fill="#F2F2F2" height="1057.7148" rx="7.8125" ry="7.8125" style="stroke:#737373;stroke-width:1.0416666666666667;" width="399.1455" x="479.5563" y="86.7513"/><text fill="#4D4D4D" font-family="Verdana" font-size="12.5" font-weight="bold" lengthAdjust="spacing" textLength="197.0215" x="580.6183" y="106.6874">Development Infrastructure</text><rect fill="url(#gtq6o33p0d3ku1)" height="267.4805" rx="7.8125" ry="7.8125" style="stroke:#B7B6B5;stroke-width:1.0416666666666667;" width="327.4729" x="135.4167" y="715.5599"/><path d="M135.4167,810.2539 L462.8896,810.2539 L462.8896,975.2279 A7.8125,7.8125 0 0 1 455.0771,983.0404 L143.2292,983.0404 A7.8125,7.8125 0 0 1 135.4167,975.2279 L135.4167,810.2539 " fill="url(#gtq6o33p0d3ku1)" style="stroke:none;stroke-width:1.0416666666666667;"/><rect fill="url(#gtq6o33p0d3ku1)" height="124.9023" rx="7.8125" ry="7.8125" style="stroke:#B7B6B5;stroke-width:1.0416666666666667;" width="306.6396" x="145.8333" y="850.8464"/><line style="stroke:#9A9A9A;stroke-width:1.0416666666666667;stroke-dasharray:5.0,5.0;" x1="198.9583" x2="198.9583" y1="201.2695" y2="211.6862"/><line style="stroke:#9A9A9A;stroke-width:1.0416666666666667;stroke-dasharray:1.0,4.0;" x1="198.9583" x2="198.9583" y1="211.6862" y2="257.5195"/><line style="stroke:#9A9A9A;stroke-width:1.0416666666666667;stroke-dasharray:5.0,5.0;" x1="198.9583" x2="198.9583" y1="257.5195" y2="423.0469"/><line style="stroke:#9A9A9A;stroke-width:1.0416666666666667;stroke-dasharray:1.0,4.0;" x1="198.9583" x2="198.9583" y1="423.0469" y2="483.431"/><line style="stroke:#9A9A9A;stroke-width:1.0416666666666667;stroke-dasharray:5.0,5.0;" x1="198.9583" x2="198.9583" y1="483.431" y2="990.332"/><line style="stroke:#9A9A9A;stroke-width:1.0416666666666667;stroke-dasharray:1.0,4.0;" x1="198.9583" x2="198.9583" y1="990.332" y2="1036.1654"/><line style="stroke:#9A9A9A;stroke-width:1.0416666666666667;stroke-dasharray:5.0,5.0;" x1="198.9583" x2="198.9583" y1="1036.1654" y2="1046.582"/><line style="stroke:#9A9A9A;stroke-width:1.0416666666666667;stroke-dasharray:5.0,5.0;" x1="397.346" x2="397.346" y1="201.2695" y2="211.6862"/><line style="stroke:#9A9A9A;stroke-width:1.0416666666666667;stroke-dasharray:1.0,4.0;" x1="397.346" x2="397.346" y1="211.6862" y2="257.5195"/><line style="stroke:#9A9A9A;stroke-width:1.0416666666666667;stroke-dasharray:5.0,5.0;" x1="397.346" x2="397.346" y1="257.5195" y2="423.0469"/><line style="stroke:#9A9A9A;stroke-width:1.0416666666666667;stroke-dasharray:1.0,4.0;" x1="397.346" x2="397.346" y1="423.0469" y2="483.431"/><line style="stroke:#9A9A9A;stroke-width:1.0416666666666667;stroke-dasharray:5.0,5.0;" x1="397.346" x2="397.346" y1="483.431" y2="990.332"/><line style="stroke:#9A9A9A;stroke-width:1.0416666666666667;stroke-dasharray:1.0,4.0;" x1="397.346" x2="397.346" y1="990.332" y2="1036.1654"/><line style="stroke:#9A9A9A;stroke-width:1.0416666666666667;stroke-dasharray:5.0,5.0;" x1="397.346" x2="397.346" y1="1036.1654" y2="1046.582"/><line style="stroke:#9A9A9A;stroke-width:1.0416666666666667;stroke-dasharray:5.0,5.0;" x1="550.3896" x2="550.3896" y1="201.2695" y2="211.6862"/><line style="stroke:#9A9A9A;stroke-width:1.0416666666666667;stroke-dasharray:1.0,4.0;" x1="550.3896" x2="550.3896" y1="211.6862" y2="257.5195"/><line style="stroke:#9A9A9A;stroke-width:1.0416666666666667;stroke-dasharray:5.0,5.0;" x1="550.3896" x2="550.3896" y1="257.5195" y2="423.0469"/><line style="stroke:#9A9A9A;stroke-width:1.0416666666666667;stroke-dasharray:1.0,4.0;" x1="550.3896" x2="550.3896" y1="423.0469" y2="483.431"/><line style="stroke:#9A9A9A;stroke-width:1.0416666666666667;stroke-dasharray:5.0,5.0;" x1="550.3896" x2="550.3896" y1="483.431" y2="990.332"/><line style="stroke:#9A9A9A;stroke-width:1.0416666666666667;stroke-dasharray:1.0,4.0;" x1="550.3896" x2="550.3896" y1="990.332" y2="1036.1654"/><line style="stroke:#9A9A9A;stroke-width:1.0416666666666667;stroke-dasharray:5.0,5.0;" x1="550.3896" x2="550.3896" y1="1036.1654" y2="1046.582"/><line style="stroke:#9A9A9A;stroke-width:1.0416666666666667;stroke-dasharray:5.0,5.0;" x1="700.7558" x2="700.7558" y1="201.2695" y2="211.6862"/><line style="stroke:#9A9A9A;stroke-width:1.0416666666666667;stroke-dasharray:1.0,4.0;" x1="700.7558" x2="700.7558" y1="211.6862" y2="257.5195"/><line style="stroke:#9A9A9A;stroke-width:1.0416666666666667;stroke-dasharray:5.0,5.0;" x1="700.7558" x2="700.7558" y1="257.5195" y2="423.0469"/><line style="stroke:#9A9A9A;stroke-width:1.0416666666666667;stroke-dasharray:1.0,4.0;" x1="700.7558" x2="700.7558" y1="423.0469" y2="483.431"/><line style="stroke:#9A9A9A;stroke-width:1.0416666666666667;stroke-dasharray:5.0,5.0;" x1="700.7558" x2="700.7558" y1="483.431" y2="990.332"/><line style="stroke:#9A9A9A;stroke-width:1.0416666666666667;stroke-dasharray:1.0,4.0;" x1="700.7558" x2="700.7558" y1="990.332" y2="1036.1654"/><line style="stroke:#9A9A9A;stroke-width:1.0416666666666667;stroke-dasharray:5.0,5.0;" x1="700.7558" x2="700.7558" y1="1036.1654" y2="1046.582"/><line style="stroke:#9A9A9A;stroke-width:1.0416666666666667;stroke-dasharray:5.0,5.0;" x1="829.3813" x2="829.3813" y1="201.2695" y2="211.6862"/><line style="stroke:#9A9A9A;stroke-width:1.0416666666666667;stroke-dasharray:1.0,4.0;" x1="829.3813" x2="829.3813" y1="211.6862" y2="257.5195"/><line style="stroke:#9A9A9A;stroke-width:1.0416666666666667;stroke-dasharray:5.0,5.0;" x1="829.3813" x2="829.3813" y1="257.5195" y2="423.0469"/><line style="stroke:#9A9A9A;stroke-width:1.0416666666666667;stroke-dasharray:1.0,4.0;" x1="829.3813" x2="829.3813" y1="423.0469" y2="483.431"/><line style="stroke:#9A9A9A;stroke-width:1.0416666666666667;stroke-dasharray:5.0,5.0;" x1="829.3813" x2="829.3813" y1="483.431" y2="990.332"/><line style="stroke:#9A9A9A;stroke-width:1.0416666666666667;stroke-dasharray:1.0,4.0;" x1="829.3813" x2="829.3813" y1="990.332" y2="1036.1654"/><line style="stroke:#9A9A9A;stroke-width:1.0416666666666667;stroke-dasharray:5.0,5.0;" x1="829.3813" x2="829.3813" y1="1036.1654" y2="1046.582"/><text fill="#4D4D4D" font-family="Verdana" font-size="12.5" lengthAdjust="spacing" textLength="64.2883" x="164.5833" y="189.9882">Developer</text><ellipse cx="199.8525" cy="115.8854" fill="url(#gtq6o33p0d3ku2)" rx="8.3333" ry="8.3333" style="stroke:#B7B6B5;stroke-width:1.0416666666666667;"/><path d="M199.8525,124.2188 L199.8525,152.3438 M186.3108,132.5521 L213.3942,132.5521 M199.8525,152.3438 L186.3108,167.9688 M199.8525,152.3438 L213.3942,167.9688 " fill="none" style="stroke:#B7B6B5;stroke-width:1.0416666666666667;"/><text fill="#4D4D4D" font-family="Verdana" font-size="12.5" lengthAdjust="spacing" textLength="64.2883" x="164.5833" y="1065.4765">Developer</text><ellipse cx="199.8525" cy="1086.1328" fill="url(#gtq6o33p0d3ku2)" rx="8.3333" ry="8.3333" style="stroke:#B7B6B5;stroke-width:1.0416666666666667;"/><path d="M199.8525,1094.4661 L199.8525,1122.5911 M186.3108,1102.7995 L213.3942,1102.7995 M199.8525,1122.5911 L186.3108,1138.2161 M199.8525,1122.5911 L213.3942,1138.2161 " fill="none" style="stroke:#B7B6B5;stroke-width:1.0416666666666667;"/><text fill="#4D4D4D" font-family="Verdana" font-size="12.5" lengthAdjust="spacing" textLength="64.502" x="362.971" y="189.9882">Reviewers</text><ellipse cx="398.347" cy="115.8854" fill="url(#gtq6o33p0d3ku2)" rx="8.3333" ry="8.3333" style="stroke:#B7B6B5;stroke-width:1.0416666666666667;"/><path d="M398.347,124.2188 L398.347,152.3438 M384.8053,132.5521 L411.8886,132.5521 M398.347,152.3438 L384.8053,167.9688 M398.347,152.3438 L411.8886,167.9688 " fill="none" style="stroke:#B7B6B5;stroke-width:1.0416666666666667;"/><text fill="#4D4D4D" font-family="Verdana" font-size="12.5" lengthAdjust="spacing" textLength="64.502" x="362.971" y="1065.4765">Reviewers</text><ellipse cx="398.347" cy="1086.1328" fill="url(#gtq6o33p0d3ku2)" rx="8.3333" ry="8.3333" style="stroke:#B7B6B5;stroke-width:1.0416666666666667;"/><path d="M398.347,1094.4661 L398.347,1122.5911 M384.8053,1102.7995 L411.8886,1102.7995 M398.347,1122.5911 L384.8053,1138.2161 M398.347,1122.5911 L411.8886,1138.2161 " fill="none" style="stroke:#B7B6B5;stroke-width:1.0416666666666667;"/><rect fill="url(#gtq6o33p0d3ku2)" height="60.3516" rx="7.8125" ry="7.8125" style="stroke:#B7B6B5;stroke-width:1.0416666666666667;" width="72.2412" x="514.9729" y="139.8763"/><text fill="#4682B4" font-family="Verdana" font-size="12.5" lengthAdjust="spacing" textLength="31.3782" x="535.4045" y="167.1041">Build</text><text fill="#4682B4" font-family="Verdana" font-size="12.5" lengthAdjust="spacing" textLength="40.9912" x="530.5979" y="181.6549">Server</text><rect fill="url(#gtq6o33p0d3ku2)" height="60.3516" rx="7.8125" ry="7.8125" style="stroke:#B7B6B5;stroke-width:1.0416666666666667;" width="72.2412" x="514.9729" y="1045.5404"/><text fill="#4682B4" font-family="Verdana" font-size="12.5" lengthAdjust="spacing" textLength="31.3782" x="535.4045" y="1072.7681">Build</text><text fill="#4682B4" font-family="Verdana" font-size="12.5" lengthAdjust="spacing" textLength="40.9912" x="530.5979" y="1087.3189">Server</text><rect fill="url(#gtq6o33p0d3ku2)" height="45.8008" rx="7.8125" ry="7.8125" style="stroke:#B7B6B5;stroke-width:1.0416666666666667;" width="78.6255" x="664.2975" y="150.2604"/><rect fill="url(#gtq6o33p0d3ku2)" height="45.8008" rx="7.8125" ry="7.8125" style="stroke:#B7B6B5;stroke-width:1.0416666666666667;" width="78.6255" x="660.1308" y="154.4271"/><a href="https://github.com/dragondive/hebi/issues" target="_top" title="https://github.com/dragondive/hebi/issues" xlink:actuate="onRequest" xlink:href="https://github.com/dragondive/hebi/issues" xlink:show="new" xlink:title="https://github.com/dragondive/hebi/issues" xlink:type="simple"><text fill="#FFFFFF" font-family="Verdana" font-size="12.5" lengthAdjust="spacing" text-decoration="underline" textLength="47.3755" x="675.7558" y="181.6549">Tracker</text></a><rect fill="url(#gtq6o33p0d3ku2)" height="45.8008" rx="7.8125" ry="7.8125" style="stroke:#B7B6B5;stroke-width:1.0416666666666667;" width="78.6255" x="664.2975" y="1045.5404"/><rect fill="url(#gtq6o33p0d3ku2)" height="45.8008" rx="7.8125" ry="7.8125" style="stroke:#B7B6B5;stroke-width:1.0416666666666667;" width="78.6255" x="660.1308" y="1049.707"/><a href="https://github.com/dragondive/hebi/issues" target="_top" title="https://github.com/dragondive/hebi/issues" xlink:actuate="onRequest" xlink:href="https://github.com/dragondive/hebi/issues" xlink:show="new" xlink:title="https://github.com/dragondive/hebi/issues" xlink:type="simple"><text fill="#FFFFFF" font-family="Verdana" font-size="12.5" lengthAdjust="spacing" text-decoration="underline" textLength="47.3755" x="675.7558" y="1076.9348">Tracker</text></a><a href="https://github.com/dragondive/hebi" target="_top" title="https://github.com/dragondive/hebi" xlink:actuate="onRequest" xlink:href="https://github.com/dragondive/hebi" xlink:show="new" xlink:title="https://github.com/dragondive/hebi" xlink:type="simple"><text fill="#FFFFFF" font-family="Verdana" font-size="12.5" lengthAdjust="spacing" text-decoration="underline" textLength="67.0288" x="792.923" y="189.9882">Repository</text></a><path d="M810.8124,132.5521 C810.8124,122.1354 829.5624,122.1354 829.5624,122.1354 C829.5624,122.1354 848.3124,122.1354 848.3124,132.5521 L848.3124,159.6354 C848.3124,170.0521 829.5624,170.0521 829.5624,170.0521 C829.5624,170.0521 810.8124,170.0521 810.8124,159.6354 L810.8124,132.5521 " fill="url(#gtq6o33p0d3ku2)" style="stroke:#B7B6B5;stroke-width:1.5625;"/><path d="M810.8124,132.5521 C810.8124,142.9688 829.5624,142.9688 829.5624,142.9688 C829.5624,142.9688 848.3124,142.9688 848.3124,132.5521 " fill="none" style="stroke:#B7B6B5;stroke-width:1.5625;"/><a href="https://github.com/dragondive/hebi" target="_top" title="https://github.com/dragondive/hebi" xlink:actuate="onRequest" xlink:href="https://github.com/dragondive/hebi" xlink:show="new" xlink:title="https://github.com/dragondive/hebi" xlink:type="simple"><text fill="#FFFFFF" font-family="Verdana" font-size="12.5" lengthAdjust="spacing" text-decoration="underline" textLength="67.0288" x="792.923" y="1065.4765">Repository</text></a><path d="M810.8124,1087.1745 C810.8124,1076.7578 829.5624,1076.7578 829.5624,1076.7578 C829.5624,1076.7578 848.3124,1076.7578 848.3124,1087.1745 L848.3124,1114.2578 C848.3124,1124.6745 829.5624,1124.6745 829.5624,1124.6745 C829.5624,1124.6745 810.8124,1124.6745 810.8124,1114.2578 L810.8124,1087.1745 " fill="url(#gtq6o33p0d3ku2)" style="stroke:#B7B6B5;stroke-width:1.5625;"/><path d="M810.8124,1087.1745 C810.8124,1097.5911 829.5624,1097.5911 829.5624,1097.5911 C829.5624,1097.5911 848.3124,1097.5911 848.3124,1087.1745 " fill="none" style="stroke:#B7B6B5;stroke-width:1.5625;"/><rect fill="url(#gtq6o33p0d3ku3)" height="3.125" rx="7.8125" ry="7.8125" style="stroke:url(#gtq6o33p0d3ku3);stroke-width:1.0416666666666667;" width="900.5768" x="10.4167" y="286.6699"/><line style="stroke:#737373;stroke-width:1.0416666666666667;" x1="10.4167" x2="910.9934" y1="286.6699" y2="286.6699"/><line style="stroke:#737373;stroke-width:1.0416666666666667;" x1="10.4167" x2="910.9934" y1="289.7949" y2="289.7949"/><rect fill="url(#gtq6o33p0d3ku3)" height="39.5508" rx="7.8125" ry="7.8125" style="stroke:#737373;stroke-width:2.0833333333333335;" width="129.2786" x="396.0658" y="267.9362"/><text fill="#4D4D4D" font-family="Verdana" font-size="12.5" font-weight="bold" lengthAdjust="spacing" textLength="93.6768" x="410.6491" y="292.039">Development</text><polygon fill="#E5E4E2" points="689.0269,351.2044,699.4436,355.3711,689.0269,359.5378,693.1936,355.3711" style="stroke:#E5E4E2;stroke-width:1.0416666666666667;"/><line style="stroke:#E5E4E2;stroke-width:3.125;" x1="199.8525" x2="695.2769" y1="355.3711" y2="355.3711"/><text fill="#4D4D4D" font-family="Verdana" font-size="12.5" font-weight="bold" lengthAdjust="spacing" textLength="8.6975" x="215.4775" y="342.0064">2</text><text fill="#4D4D4D" font-family="Verdana" font-size="12.5" lengthAdjust="spacing" textLength="118.6707" x="245.0083" y="342.0064">assign issue to self</text><line style="stroke:#E5E4E2;stroke-width:3.125;" x1="199.8525" x2="243.6025" y1="401.1719" y2="401.1719"/><line style="stroke:#E5E4E2;stroke-width:3.125;" x1="243.6025" x2="243.6025" y1="401.1719" y2="414.7135"/><line style="stroke:#E5E4E2;stroke-width:3.125;" x1="200.8942" x2="243.6025" y1="414.7135" y2="414.7135"/><polygon fill="#E5E4E2" points="211.3108,410.5469,200.8942,414.7135,211.3108,418.8802,207.1442,414.7135" style="stroke:#E5E4E2;stroke-width:1.0416666666666667;"/><text fill="#4D4D4D" font-family="Verdana" font-size="12.5" font-weight="bold" lengthAdjust="spacing" textLength="8.6975" x="215.4775" y="387.8072">3</text><text fill="#4D4D4D" font-family="Verdana" font-size="12.5" lengthAdjust="spacing" textLength="137.7136" x="245.0083" y="387.8072">work towards solution</text><text fill="#4682B4" font-family="Verdana" font-size="12.5" lengthAdjust="spacing" textLength="100.3418" x="464.5365" y="457.5663">some days later</text><polygon fill="#E5E4E2" points="538.5935,519.8568,549.0102,524.0234,538.5935,528.1901,542.7602,524.0234" style="stroke:#E5E4E2;stroke-width:1.0416666666666667;"/><line style="stroke:#E5E4E2;stroke-width:3.125;" x1="199.8525" x2="544.8435" y1="524.0234" y2="524.0234"/><text fill="#4D4D4D" font-family="Verdana" font-size="12.5" font-weight="bold" lengthAdjust="spacing" textLength="8.6975" x="215.4775" y="510.6588">4</text><text fill="#4D4D4D" font-family="Verdana" font-size="12.5" lengthAdjust="spacing" textLength="100.6592" x="245.0083" y="510.6588">submit build job</text><path d="M15.625,496.4518 L15.625,521.4518 A7.8125,7.8125 0 0 0 23.4375,529.2643 L186.9792,529.2643 A7.8125,7.8125 0 0 0 194.7917,521.4518 L194.7917,499.056 L184.375,488.6393 L23.4375,488.6393 A7.8125,7.8125 0 0 0 15.625,496.4518 " fill="url(#gtq6o33p0d3ku4)" style="stroke:#8D9DB2;stroke-width:1.0416666666666667;"/><path d="M184.375,488.6393 L184.375,495.1497 A3.9063,3.9063 0 0 0 188.2813,499.056 L194.7917,499.056 L184.375,488.6393 " fill="url(#gtq6o33p0d3ku4)" style="stroke:#8D9DB2;stroke-width:1.0416666666666667;"/><text fill="#FDFDFD" font-family="Verdana" font-size="12.5" lengthAdjust="spacing" textLength="140.9851" x="30.2083" y="513.7838">when solution is ready</text><polygon fill="#E5E4E2" points="211.3108,579.1829,200.8942,583.3496,211.3108,587.5163,207.1442,583.3496" style="stroke:#E5E4E2;stroke-width:1.0416666666666667;"/><line style="stroke:#E5E4E2;stroke-width:3.125;stroke-dasharray:2.0,2.0;" x1="205.0608" x2="550.0519" y1="583.3496" y2="583.3496"/><text fill="#4D4D4D" font-family="Verdana" font-size="12.5" font-weight="bold" lengthAdjust="spacing" textLength="8.6975" x="225.8942" y="569.9849">5</text><text fill="#339933" font-family="Verdana" font-size="12.5" font-weight="bold" lengthAdjust="spacing" textLength="112.854" x="255.425" y="569.9849">build successful</text><path d="M556.25,548.5026 L556.25,588.0859 A7.8125,7.8125 0 0 0 564.0625,595.8984 L746.3542,595.8984 A7.8125,7.8125 0 0 0 754.1667,588.0859 L754.1667,551.1068 L743.75,540.6901 L564.0625,540.6901 A7.8125,7.8125 0 0 0 556.25,548.5026 " fill="url(#gtq6o33p0d3ku4)" style="stroke:#8D9DB2;stroke-width:1.0416666666666667;"/><path d="M743.75,540.6901 L743.75,547.2005 A3.9063,3.9063 0 0 0 747.6563,551.1068 L754.1667,551.1068 L743.75,540.6901 " fill="url(#gtq6o33p0d3ku4)" style="stroke:#8D9DB2;stroke-width:1.0416666666666667;"/><text fill="#FDFDFD" font-family="Verdana" font-size="12.5" lengthAdjust="spacing" textLength="141.2048" x="570.8333" y="565.8346">dotted arrows indicate</text><text fill="#FDFDFD" font-family="Verdana" font-size="12.5" lengthAdjust="spacing" textLength="160.1563" x="570.8333" y="580.3853">computer-triggered steps</text><rect fill="url(#gtq6o33p0d3ku3)" height="3.125" rx="7.8125" ry="7.8125" style="stroke:url(#gtq6o33p0d3ku3);stroke-width:1.0416666666666667;" width="900.5768" x="10.4167" y="631.2337"/><line style="stroke:#737373;stroke-width:1.0416666666666667;" x1="10.4167" x2="910.9934" y1="631.2337" y2="631.2337"/><line style="stroke:#737373;stroke-width:1.0416666666666667;" x1="10.4167" x2="910.9934" y1="634.3587" y2="634.3587"/><rect fill="url(#gtq6o33p0d3ku3)" height="39.5508" rx="7.8125" ry="7.8125" style="stroke:#737373;stroke-width:2.0833333333333335;" width="86.1633" x="417.6234" y="612.5"/><text fill="#4D4D4D" font-family="Verdana" font-size="12.5" font-weight="bold" lengthAdjust="spacing" textLength="50.5615" x="432.2067" y="636.6028">Review</text><polygon fill="#E5E4E2" points="385.847,695.7682,396.2636,699.9349,385.847,704.1016,390.0136,699.9349" style="stroke:#E5E4E2;stroke-width:1.0416666666666667;"/><line style="stroke:#E5E4E2;stroke-width:3.125;" x1="199.8525" x2="392.097" y1="699.9349" y2="699.9349"/><text fill="#4D4D4D" font-family="Verdana" font-size="12.5" font-weight="bold" lengthAdjust="spacing" textLength="8.6975" x="215.4775" y="686.5702">6</text><a href="https://github.com/dragondive/hebi/compare" target="_top" title="https://github.com/dragondive/hebi/compare" xlink:actuate="onRequest" xlink:href="https://github.com/dragondive/hebi/compare" xlink:show="new" xlink:title="https://github.com/dragondive/hebi/compare" xlink:type="simple"><text fill="#FFFFFF" font-family="Verdana" font-size="12.5" lengthAdjust="spacing" text-decoration="underline" textLength="121.46" x="245.0083" y="686.5702">submit pull request</text></a><path d="M143.2292,715.5599 L217.6534,715.5599 L217.6534,738.444 L207.2367,748.8607 L135.4167,748.8607 L135.4167,723.3724 A7.8125,7.8125 0 0 1 143.2292,715.5599 " fill="#C0C0C0" style="stroke:#737373;stroke-width:1.0416666666666667;"/><rect fill="none" height="267.4805" rx="7.8125" ry="7.8125" style="stroke:#B7B6B5;stroke-width:1.0416666666666667;" width="327.4729" x="135.4167" y="715.5599"/><text fill="#4682B4" font-family="Verdana" font-size="12.5" font-weight="bold" lengthAdjust="spacing" textLength="18.6951" x="159.375" y="736.5377">alt</text><text fill="#4D4D4D" font-family="Verdana" font-size="12.5" font-weight="bold" lengthAdjust="spacing" textLength="78.0823" x="241.6117" y="737.5793">[approved]</text><polygon fill="#E5E4E2" points="211.3108,797.7539,200.8942,801.9206,211.3108,806.0872,207.1442,801.9206" style="stroke:#E5E4E2;stroke-width:1.0416666666666667;"/><line style="stroke:#E5E4E2;stroke-width:3.125;" x1="205.0608" x2="397.3053" y1="801.9206" y2="801.9206"/><text fill="#4D4D4D" font-family="Verdana" font-size="12.5" font-weight="bold" lengthAdjust="spacing" textLength="8.6975" x="225.8942" y="788.5559">7</text><text fill="#339933" font-family="Verdana" font-size="12.5" font-weight="bold" lengthAdjust="spacing" textLength="120.5688" x="255.425" y="788.5559">approve changes</text><line style="stroke:#B7B6B5;stroke-width:1.0416666666666667;stroke-dasharray:2.0,2.0;" x1="135.4167" x2="462.8896" y1="811.2956" y2="811.2956"/><text fill="#4D4D4D" font-family="Verdana" font-size="12.5" font-weight="bold" lengthAdjust="spacing" textLength="69.6411" x="148.9583" y="831.2317">[rejected]</text><path d="M153.6458,850.8464 L239.7827,850.8464 L239.7827,873.7305 L229.366,884.1471 L145.8333,884.1471 L145.8333,858.6589 A7.8125,7.8125 0 0 1 153.6458,850.8464 " fill="#C0C0C0" style="stroke:#737373;stroke-width:1.0416666666666667;"/><rect fill="none" height="124.9023" rx="7.8125" ry="7.8125" style="stroke:#B7B6B5;stroke-width:1.0416666666666667;" width="306.6396" x="145.8333" y="850.8464"/><text fill="#4682B4" font-family="Verdana" font-size="12.5" font-weight="bold" lengthAdjust="spacing" textLength="30.4077" x="169.7917" y="871.8241">loop</text><polygon fill="#E5E4E2" points="211.3108,917.4479,200.8942,921.6146,211.3108,925.7813,207.1442,921.6146" style="stroke:#E5E4E2;stroke-width:1.0416666666666667;"/><line style="stroke:#E5E4E2;stroke-width:3.125;" x1="205.0608" x2="397.3053" y1="921.6146" y2="921.6146"/><text fill="#4D4D4D" font-family="Verdana" font-size="12.5" font-weight="bold" lengthAdjust="spacing" textLength="8.6975" x="225.8942" y="908.2499">8</text><text fill="#FFD700" font-family="Verdana" font-size="12.5" font-weight="bold" lengthAdjust="spacing" textLength="124.292" x="255.425" y="908.2499">review comments</text><polygon fill="#E5E4E2" points="385.847,963.2487,396.2636,967.4154,385.847,971.582,390.0136,967.4154" style="stroke:#E5E4E2;stroke-width:1.0416666666666667;"/><line style="stroke:#E5E4E2;stroke-width:3.125;" x1="199.8525" x2="392.097" y1="967.4154" y2="967.4154"/><text fill="#4D4D4D" font-family="Verdana" font-size="12.5" font-weight="bold" lengthAdjust="spacing" textLength="8.6975" x="215.4775" y="954.0507">9</text><text fill="#4D4D4D" font-family="Verdana" font-size="12.5" lengthAdjust="spacing" textLength="99.408" x="245.0083" y="954.0507">submit changes</text><!--SRC=[ZLAnSjim3Dtv5QWkG-exMtSTVNM6NfQkJRV40qN14XEAL07Ghl- -e2J7pbs7Q9500G_lFRulqkE0CA3OOCHBG5Yjdl1FnkWG7htjo0xmY4DQhOonJX9fTSIGHYImN8hb-1SUFPwGs9Wc_Rrq3HW5ViO3MHRAJZAX0Nr6I-AT7wt-hdva7zgN-8HqHAeAx7GoDReK0ZhnAJ9Kpy-zoCZRkkwyzBdPk3JKBTaknTOViUwnyRLdpiZmcwnxGzhl9y2bcY1RAxQnZ9_3Ks5ZOgyIpmlMzS1WR47LgZLPKin3ewvyCvlDnkns7opOxOoMi7wuC86jGh7l8anyGH8mXiEbgxosS4hqfdzEbbe6JY4N7qp1rqhlhRLdXc15uShEPNOoJwSvDuCNQARoDJKc9a48U902tMDyXrGEG6ZRivbdr-yCxZWxXyptrGopb8SSggyp7lckbosqIGHRi4JfnE3LFwUyNg8wEcObk1Pjx92qXmL7JOawD6VcnfnhYdJtfswxu5l2YzWnXw1IDC0i-xsnGS2E8wKZpd6wulz7uj89hhUnGrQ563GcXA-Qm0KWf3HE7-Kf0D_N7qZVwML57xlxYcPnIh0aeA3TZkdwsx65_h9vwYpPchQL3nKonUeV]--></g></svg>