<svg xmlns="http://www.w3.org/2000/svg" xmlns:xlink="http://www.w3.org/1999/xlink" contentStyleType="text/css" height="634px" preserveAspectRatio="none" style="width:958px;height:634px;background:#FFFFFF;" version="1.1" viewBox="0 0 958 634" width="958px" zoomAndPan="magnify"><defs/><g><text fill="#000000" font-family="sans-serif" font-size="14" font-weight="bold" lengthAdjust="spacing" textLength="164.3086" x="387.0707" y="22.9951">State Diagram Demo</text><text fill="#000000" font-family="sans-serif" font-size="14" font-weight="bold" lengthAdjust="spacing" textLength="4.874" x="466.788" y="39.292">&#160;</text><text fill="#000000" font-family="sans-serif" font-size="14" font-weight="bold" lengthAdjust="spacing" textLength="4.874" x="466.788" y="55.5889">&#160;</text><!--cluster Start--><g id="cluster_Start"><path d="M117.95,76.8906 L310.95,76.8906 A12.5,12.5 0 0 1 323.45,89.3906 L323.45,98.1875 L105.45,98.1875 L105.45,89.3906 A12.5,12.5 0 0 1 117.95,76.8906 " fill="#FAEBD7" style="stroke:#FAEBD7;stroke-width:1.0;"/><rect fill="none" height="261" rx="12.5" ry="12.5" style="stroke:#181818;stroke-width:0.5;" width="218" x="105.45" y="76.8906"/><line style="stroke:#181818;stroke-width:0.5;" x1="105.45" x2="323.45" y1="98.1875" y2="98.1875"/><text fill="#000000" font-family="sans-serif" font-size="14" lengthAdjust="spacing" textLength="34.2002" x="197.45" y="93.8857">Start</text></g><!--cluster Active--><g id="cluster_Active"><path d="M366.95,222.8906 L724.95,222.8906 A12.5,12.5 0 0 1 737.45,235.3906 L737.45,244.1875 L354.45,244.1875 L354.45,235.3906 A12.5,12.5 0 0 1 366.95,222.8906 " fill="#90EE90" style="stroke:#90EE90;stroke-width:1.0;"/><rect fill="none" height="406" rx="12.5" ry="12.5" style="stroke:#181818;stroke-width:0.5;" width="383" x="354.45" y="222.8906"/><line style="stroke:#181818;stroke-width:0.5;" x1="354.45" x2="737.45" y1="244.1875" y2="244.1875"/><text fill="#000000" font-family="sans-serif" font-size="14" lengthAdjust="spacing" textLength="43.5518" x="524.45" y="239.8857">Active</text></g><!--cluster Inactive--><g id="cluster_Inactive"><path d="M773.95,222.8906 L932.95,222.8906 A12.5,12.5 0 0 1 945.45,235.3906 L945.45,244.1875 L761.45,244.1875 L761.45,235.3906 A12.5,12.5 0 0 1 773.95,222.8906 " fill="#A9A9A9" style="stroke:#A9A9A9;stroke-width:1.0;"/><rect fill="none" height="263" rx="12.5" ry="12.5" style="stroke:#181818;stroke-width:0.5;" width="184" x="761.45" y="222.8906"/><line style="stroke:#181818;stroke-width:0.5;" x1="761.45" x2="945.45" y1="244.1875" y2="244.1875"/><text fill="#000000" font-family="sans-serif" font-size="14" lengthAdjust="spacing" textLength="55.5557" x="825.95" y="239.8857">Inactive</text></g><!--cluster Completed--><g id="cluster_Completed"><path d="M129.95,370.8906 L298.95,370.8906 A12.5,12.5 0 0 1 311.45,383.3906 L311.45,392.1875 L117.45,392.1875 L117.45,383.3906 A12.5,12.5 0 0 1 129.95,370.8906 " fill="#6495ED" style="stroke:#6495ED;stroke-width:1.0;"/><rect fill="none" height="251" rx="12.5" ry="12.5" style="stroke:#181818;stroke-width:0.5;" width="194" x="117.45" y="370.8906"/><line style="stroke:#181818;stroke-width:0.5;" x1="117.45" x2="311.45" y1="392.1875" y2="392.1875"/><text fill="#000000" font-family="sans-serif" font-size="14" lengthAdjust="spacing" textLength="76.3574" x="176.45" y="387.8857">Completed</text></g><g id="Start.Open"><rect fill="#F1F1F1" height="64.2344" rx="12.5" ry="12.5" style="stroke:#181818;stroke-width:0.5;" width="87.4766" x="194.95" y="111.8906"/><line style="stroke:#181818;stroke-width:0.5;" x1="194.95" x2="282.4266" y1="138.1875" y2="138.1875"/><text fill="#000000" font-family="sans-serif" font-size="14" lengthAdjust="spacing" textLength="37.3926" x="219.992" y="129.8857">Open</text><text fill="#000000" font-family="sans-serif" font-size="12" lengthAdjust="spacing" textLength="63.6621" x="199.95" y="154.3262">New ticket</text><text fill="#000000" font-family="sans-serif" font-size="12" lengthAdjust="spacing" textLength="59.373" x="199.95" y="168.2949">is created</text></g><g id="Start.Reopen"><rect fill="#F1F1F1" height="64.2344" rx="12.5" ry="12.5" style="stroke:#181818;stroke-width:0.5;" width="186.5938" x="120.95" y="257.8906"/><line style="stroke:#181818;stroke-width:0.5;" x1="120.95" x2="307.5438" y1="284.1875" y2="284.1875"/><text fill="#000000" font-family="sans-serif" font-size="14" lengthAdjust="spacing" textLength="53.2793" x="187.6072" y="275.8857">Reopen</text><text fill="#000000" font-family="sans-serif" font-size="12" lengthAdjust="spacing" textLength="166.5938" x="125.95" y="300.3262">Previously completed ticket</text><text fill="#000000" font-family="sans-serif" font-size="12" lengthAdjust="spacing" textLength="84.498" x="125.95" y="314.2949">was reopened</text></g><g id="Active.Analyzing"><rect fill="#F1F1F1" height="64.2344" rx="12.5" ry="12.5" style="stroke:#181818;stroke-width:0.5;" width="150.7578" x="377.95" y="257.8906"/><line style="stroke:#181818;stroke-width:0.5;" x1="377.95" x2="528.7078" y1="284.1875" y2="284.1875"/><text fill="#000000" font-family="sans-serif" font-size="14" lengthAdjust="spacing" textLength="68.2021" x="419.2278" y="275.8857">Analyzing</text><text fill="#000000" font-family="sans-serif" font-size="12" lengthAdjust="spacing" textLength="117.1055" x="382.95" y="300.3262">Accepted the ticket</text><text fill="#000000" font-family="sans-serif" font-size="12" lengthAdjust="spacing" textLength="130.7578" x="382.95" y="314.2949">and started analyzing</text></g><g id="Active.Working"><rect fill="#F1F1F1" height="64.2344" rx="12.5" ry="12.5" style="stroke:#181818;stroke-width:0.5;" width="176.4512" x="545.45" y="548.8906"/><line style="stroke:#181818;stroke-width:0.5;" x1="545.45" x2="721.9012" y1="575.1875" y2="575.1875"/><text fill="#000000" font-family="sans-serif" font-size="14" lengthAdjust="spacing" textLength="57.9209" x="604.7151" y="566.8857">Working</text><text fill="#000000" font-family="sans-serif" font-size="12" lengthAdjust="spacing" textLength="119.2441" x="550.45" y="591.3262">Identified a solution</text><text fill="#000000" font-family="sans-serif" font-size="12" lengthAdjust="spacing" textLength="156.4512" x="550.45" y="605.2949">and started implementing</text></g><g id="Active.Testing"><rect fill="#F1F1F1" height="50.2656" rx="12.5" ry="12.5" style="stroke:#181818;stroke-width:0.5;" width="139.0684" x="370.95" y="555.8906"/><line style="stroke:#181818;stroke-width:0.5;" x1="370.95" x2="510.0184" y1="582.1875" y2="582.1875"/><text fill="#000000" font-family="sans-serif" font-size="14" lengthAdjust="spacing" textLength="51.5977" x="414.6854" y="573.8857">Testing</text><text fill="#000000" font-family="sans-serif" font-size="12" lengthAdjust="spacing" textLength="119.0684" x="375.95" y="598.3262">Testing the solution</text></g><g id="Inactive.Info"><rect fill="#F1F1F1" height="64.2344" rx="12.5" ry="12.5" style="stroke:#181818;stroke-width:0.5;" width="124.6426" x="777.95" y="257.8906"/><line style="stroke:#181818;stroke-width:0.5;" x1="777.95" x2="902.5926" y1="284.1875" y2="284.1875"/><text fill="#000000" font-family="sans-serif" font-size="14" lengthAdjust="spacing" textLength="67.5322" x="806.5052" y="275.8857">Need Info</text><text fill="#000000" font-family="sans-serif" font-size="12" lengthAdjust="spacing" textLength="104.6426" x="782.95" y="300.3262">Need information</text><text fill="#000000" font-family="sans-serif" font-size="12" lengthAdjust="spacing" textLength="64.7344" x="782.95" y="314.2949">to proceed</text></g><g id="Inactive.Blocked"><rect fill="#CD5C5C" height="64.2344" rx="12.5" ry="12.5" style="stroke:#181818;stroke-width:0.5;" width="152.2578" x="777.45" y="405.8906"/><line style="stroke:#181818;stroke-width:0.5;" x1="777.45" x2="929.7078" y1="432.1875" y2="432.1875"/><text fill="#000000" font-family="sans-serif" font-size="14" lengthAdjust="spacing" textLength="55.3643" x="825.8968" y="423.8857">Blocked</text><text fill="#000000" font-family="sans-serif" font-size="12" lengthAdjust="spacing" textLength="132.2578" x="782.45" y="448.3262">Work cannot progress</text><text fill="#000000" font-family="sans-serif" font-size="12" lengthAdjust="spacing" textLength="116.1914" x="782.45" y="462.2949">due to dependency</text></g><g id="Completed.Resolved"><rect fill="#FFD700" height="50.2656" rx="12.5" ry="12.5" style="stroke:#181818;stroke-width:0.5;" width="125.6445" x="133.45" y="555.8906"/><line style="stroke:#181818;stroke-width:0.5;" x1="133.45" x2="259.0945" y1="582.1875" y2="582.1875"/><text fill="#000000" font-family="sans-serif" font-size="14" lengthAdjust="spacing" textLength="63.875" x="164.3348" y="573.8857">Resolved</text><text fill="#000000" font-family="sans-serif" font-size="12" lengthAdjust="spacing" textLength="105.6445" x="138.45" y="598.3262">Solution provided</text></g><g id="Completed.Rejected"><rect fill="#FF6347" height="64.2344" rx="12.5" ry="12.5" style="stroke:#181818;stroke-width:0.5;" width="161.6855" x="133.45" y="405.8906"/><line style="stroke:#181818;stroke-width:0.5;" x1="133.45" x2="295.1355" y1="432.1875" y2="432.1875"/><text fill="#000000" font-family="sans-serif" font-size="14" lengthAdjust="spacing" textLength="61.5303" x="183.5276" y="423.8857">Rejected</text><text fill="#000000" font-family="sans-serif" font-size="12" lengthAdjust="spacing" textLength="93.1934" x="138.45" y="448.3262">Ticket is invalid</text><text fill="#000000" font-family="sans-serif" font-size="12" lengthAdjust="spacing" textLength="141.6855" x="138.45" y="462.2949">cannot provide solution</text></g><!--link Open to Reopen--><!--link Info to Blocked--><!--link Rejected to Resolved--><!--link Reopen to Rejected--><!--link Open to Analyzing--><g id="link_Open_Analyzing"><path d="M281.96,174.0306 C318.28,198.3606 364.9352,229.6013 402.0452,254.4613 " fill="none" id="Open-to-Analyzing" style="stroke:#181818;stroke-width:1.0;"/><polygon fill="#181818" points="407.03,257.8006,401.779,249.4684,402.876,255.0178,397.3265,256.1148,407.03,257.8006" style="stroke:#181818;stroke-width:1.0;"/></g><!--link Analyzing to Working--><g id="link_Analyzing_Working"><path d="M472.89,322.0906 C507.52,377.7006 576.3479,488.2077 610.9279,543.7277 " fill="none" id="Analyzing-to-Working" style="stroke:#181818;stroke-width:1.0;"/><polygon fill="#181818" points="614.1,548.8206,612.7372,539.0665,611.4566,544.5765,605.9466,543.2959,614.1,548.8206" style="stroke:#181818;stroke-width:1.0;"/></g><!--link Working to Testing--><g id="link_Working_Testing"><path d="M545.34,580.8906 C533.62,580.8906 527.91,580.8906 516.19,580.8906 " fill="none" id="Working-to-Testing" style="stroke:#181818;stroke-width:1.0;"/><polygon fill="#181818" points="510.19,580.8906,519.19,584.8906,515.19,580.8906,519.19,576.8906,510.19,580.8906" style="stroke:#181818;stroke-width:1.0;"/></g><!--link Testing to Analyzing--><g id="link_Testing_Analyzing"><path d="M441.53,555.8806 C443.88,503.7406 449.1707,386.1746 451.7807,328.0846 " fill="none" id="Testing-to-Analyzing" style="stroke:#181818;stroke-width:1.0;"/><polygon fill="#181818" points="452.05,322.0906,447.6501,330.902,451.8256,327.0856,455.642,331.2611,452.05,322.0906" style="stroke:#181818;stroke-width:1.0;"/><text fill="#000000" font-family="sans-serif" font-size="13" lengthAdjust="spacing" textLength="24.9653" x="455.9756" y="434.9575">test</text><text fill="#000000" font-family="sans-serif" font-size="13" lengthAdjust="spacing" textLength="36.0166" x="450.45" y="450.0903">failed</text></g><!--link Testing to Resolved--><g id="link_Testing_Resolved"><path d="M370.62,598.4206 C364.92,599.4106 359.23,600.2606 353.7,600.8906 C319.7,604.7606 310.67,605.0606 276.7,600.8906 C271.14,600.2106 271.312,600.4037 265.592,599.3037 " fill="none" id="Testing-to-Resolved" style="stroke:#181818;stroke-width:1.0;"/><polygon fill="#181818" points="259.7,598.1706,267.7827,603.7983,264.61,599.1149,269.2934,595.9422,259.7,598.1706" style="stroke:#181818;stroke-width:1.0;"/><text fill="#000000" font-family="sans-serif" font-size="13" lengthAdjust="spacing" textLength="75.1118" x="277.7" y="596.9575">test passed</text></g><!--link Analyzing to Info--><g id="link_Analyzing_Info"><path d="M528.99,289.8906 C601.58,289.8906 703.98,289.8906 771.88,289.8906 " fill="none" id="Analyzing-to-Info" style="stroke:#181818;stroke-width:1.0;"/><polygon fill="#181818" points="777.88,289.8906,768.88,285.8906,772.88,289.8906,768.88,293.8906,777.88,289.8906" style="stroke:#181818;stroke-width:1.0;"/><text fill="#000000" font-family="sans-serif" font-size="13" lengthAdjust="spacing" textLength="133.9038" x="586.95" y="305.9575">description not clear</text></g><!--reverse link Analyzing to Info--><g id="link_Analyzing_Info"><path d="M535.1861,275.5774 C553.6761,272.8574 567.51,271.2706 585.95,269.8906 C645.78,265.4006 661.16,264.9206 720.95,269.8906 C739.5,271.4306 759.51,274.3006 777.75,277.3906 " fill="none" id="Analyzing-backto-Info" style="stroke:#181818;stroke-width:1.0;"/><polygon fill="#181818" points="529.25,276.4506,538.7363,279.0982,534.1968,275.7229,537.572,271.1834,529.25,276.4506" style="stroke:#181818;stroke-width:1.0;"/><text fill="#000000" font-family="sans-serif" font-size="13" lengthAdjust="spacing" textLength="130.4697" x="588.45" y="259.9575">description updated</text></g><!--link Working to Blocked--><g id="link_Working_Blocked"><path d="M721.69,555.8706 C746.04,546.7106 771.51,534.5806 792.45,518.8906 C809.93,505.8006 821.5964,491.4424 832.3264,475.0324 " fill="none" id="Working-to-Blocked" style="stroke:#181818;stroke-width:1.0;"/><polygon fill="#181818" points="835.61,470.0106,827.3368,475.3542,832.8737,474.1954,834.0325,479.7323,835.61,470.0106" style="stroke:#181818;stroke-width:1.0;"/><text fill="#000000" font-family="sans-serif" font-size="13" lengthAdjust="spacing" textLength="121.4624" x="811.45" y="514.9575">dependency found</text></g><!--link Blocked to Working--><g id="link_Blocked_Working"><path d="M798.36,469.9506 C779.59,479.1806 758.11,488.3106 737.45,493.8906 C717.21,499.3606 658.59,487.3906 643.45,501.8906 C631.13,513.7006 628.2788,526.5734 628.7688,542.7934 " fill="none" id="Blocked-to-Working" style="stroke:#181818;stroke-width:1.0;"/><polygon fill="#181818" points="628.95,548.7906,632.6764,539.6739,628.799,543.7929,624.6801,539.9155,628.95,548.7906" style="stroke:#181818;stroke-width:1.0;"/><text fill="#000000" font-family="sans-serif" font-size="13" lengthAdjust="spacing" textLength="139.8262" x="644.45" y="514.9575">dependency resolved</text></g><!--link Analyzing to Rejected--><g id="link_Analyzing_Rejected"><path d="M402.47,322.0306 C362.03,346.7406 310.8898,377.972 270.4698,402.672 " fill="none" id="Analyzing-to-Rejected" style="stroke:#181818;stroke-width:1.0;"/><polygon fill="#181818" points="265.35,405.8006,275.1154,404.5209,269.6165,403.1935,270.9439,397.6946,265.35,405.8006" style="stroke:#181818;stroke-width:1.0;"/></g><!--link Resolved to Reopen--><g id="link_Resolved_Reopen"><path d="M133.17,562.8206 C98.68,549.9206 58.95,528.3906 38.45,493.8906 C8.71,443.8406 6,411.2306 38.45,362.8906 C57.31,334.8006 83.5947,319.5482 115.1547,309.0882 " fill="none" id="Resolved-to-Reopen" style="stroke:#181818;stroke-width:1.0;"/><polygon fill="#181818" points="120.85,307.2006,111.0486,306.2352,116.1039,308.7736,113.5654,313.8289,120.85,307.2006" style="stroke:#181818;stroke-width:1.0;"/><text fill="#000000" font-family="sans-serif" font-size="13" lengthAdjust="spacing" textLength="51.4795" x="52.2024" y="434.9575">solution</text><text fill="#000000" font-family="sans-serif" font-size="13" lengthAdjust="spacing" textLength="76.9844" x="39.45" y="450.0903">not working</text></g><!--link Reopen to Analyzing--><g id="link_Reopen_Analyzing"><path d="M308.28,289.8906 C331.43,289.8906 348.59,289.8906 371.75,289.8906 " fill="none" id="Reopen-to-Analyzing" style="stroke:#181818;stroke-width:1.0;"/><polygon fill="#181818" points="377.75,289.8906,368.75,285.8906,372.75,289.8906,368.75,293.8906,377.75,289.8906" style="stroke:#181818;stroke-width:1.0;"/></g><!--SRC=[RLHDYzim4BtxLmp9eH3m7_2XaDr029HjoIxieUv1MED4ZJ9oPJaXBVtl7LcIBRCzUJJpvklDIvno6c6pUNN28UoKE5bnXHrUpMPJKqr5qOyHZbi7woqvzMl0zxDYtvy284I_TaZyy9yANl0EJZKNT52Jwg6no1WvWOze0ZmO5NopU5DcwFK36dFjD38wLgZfBdgm8v1B_4tZR1kdRWZhB-fqTdkBIDaqMnBwyLlHYJsJNN5EWzrO-enJUK7IPrdl5rbUgFHkx2MyerN1GI9pq2gFXzxemIb3ophAxt3riApK6_Rn7Qqg6UCygTAyue54N78dx6LlnIDRSVM2tEX0hLa14-GDZlcFvz_FmAQzYZ2SCz1Pqs1sX2Tjc009wmD99UWuXgAp6hU5HX0PvpDF5lk-9ZamRmOayZ6OXUOn3_iytMtzR2orsjpHFkaX5yaHUScRX-oDbkFzWwE2rxYzRtPJSY6MdzYCTTyChsF6jE1Y0eFAM6EARa8hMTCyjA-peFKJd9NakLbaH5p1sDwlipeDZ5oDLz3YOGPNU1r3ASsTleUK7-Nd95lFyOTO9AwOflsO75OjGfN_n4DY4NjRhslspr8k9ZCabnnDyepVEIs9BIcip4jLuDXTKokKveuvPhw8Xq0d-jxFbBLE7OBK9FQDLTruEazxer7OI976rYtRvkYXa-EVmZHwscdIu2mpQCr0iaYIBRFL5p2RICu7picT55XEzwootx3Vu1ufJNTQtE0V]--></g></svg>