<svg xmlns="http://www.w3.org/2000/svg" xmlns:xlink="http://www.w3.org/1999/xlink" contentStyleType="text/css" height="408px" preserveAspectRatio="none" style="width:880px;height:408px;background:#FFFFFF;" version="1.1" viewBox="0 0 880 408" width="880px" zoomAndPan="magnify"><defs/><g><text fill="#000000" font-family="sans-serif" font-size="24" font-weight="bold" lengthAdjust="spacing" textLength="376.6758" x="250.1914" y="42.2773">Investment Options in India</text><rect fill="#1E90FF" height="36.2969" rx="12.5" ry="12.5" style="stroke:#00008B;stroke-width:1.5;" width="117.8975" x="422.959" y="209.6797"/><text fill="#FFFFFF" font-family="sans-serif" font-size="14" font-weight="bold" lengthAdjust="spacing" textLength="97.8975" x="432.959" y="232.6748">Investments</text><rect fill="#FFA07A" height="36.2969" rx="12.5" ry="12.5" style="stroke:#006400;stroke-width:1.5;" width="64.2695" x="590.8564" y="125.2344"/><text fill="#000000" font-family="sans-serif" font-size="14" lengthAdjust="spacing" textLength="44.2695" x="600.8564" y="148.2295">Equity</text><rect fill="#98FB98" height="36.2969" rx="12.5" ry="12.5" style="stroke:#006400;stroke-width:1.5;" width="66.04" x="705.126" y="68.9375"/><text fill="#000000" font-family="sans-serif" font-size="14" lengthAdjust="spacing" textLength="46.04" x="715.126" y="91.9326">Stocks</text><path d="M655.126,143.3828 L665.126,143.3828 C680.126,143.3828 680.126,87.0859 695.126,87.0859 L705.126,87.0859 " fill="none" style="stroke:#A52A2A;stroke-width:1.0;"/><rect fill="#98FB98" height="36.2969" rx="12.5" ry="12.5" style="stroke:#006400;stroke-width:1.5;" width="94.1699" x="705.126" y="125.2344"/><text fill="#000000" font-family="sans-serif" font-size="14" lengthAdjust="spacing" textLength="74.1699" x="715.126" y="148.2295">Equity ETF</text><path d="M655.126,143.3828 L665.126,143.3828 C680.126,143.3828 680.126,143.3828 695.126,143.3828 L705.126,143.3828 " fill="none" style="stroke:#A52A2A;stroke-width:1.0;"/><rect fill="#98FB98" height="36.2969" rx="12.5" ry="12.5" style="stroke:#006400;stroke-width:1.5;" width="162.9326" x="705.126" y="181.5313"/><text fill="#000000" font-family="sans-serif" font-size="14" lengthAdjust="spacing" textLength="142.9326" x="715.126" y="204.5264">Equity Mutual Funds</text><path d="M655.126,143.3828 L665.126,143.3828 C680.126,143.3828 680.126,199.6797 695.126,199.6797 L705.126,199.6797 " fill="none" style="stroke:#A52A2A;stroke-width:1.0;"/><path d="M540.8564,227.8281 L550.8564,227.8281 C565.8564,227.8281 565.8564,143.3828 580.8564,143.3828 L590.8564,143.3828 " fill="none" style="stroke:#A52A2A;stroke-width:1.0;"/><rect fill="#FFA07A" height="36.2969" rx="12.5" ry="12.5" style="stroke:#006400;stroke-width:1.5;" width="53.7695" x="590.8564" y="294.125"/><text fill="#000000" font-family="sans-serif" font-size="14" lengthAdjust="spacing" textLength="33.7695" x="600.8564" y="317.1201">Debt</text><rect fill="#98FB98" height="36.2969" rx="12.5" ry="12.5" style="stroke:#006400;stroke-width:1.5;" width="152.4326" x="694.626" y="237.8281"/><text fill="#000000" font-family="sans-serif" font-size="14" lengthAdjust="spacing" textLength="132.4326" x="704.626" y="260.8232">Debt Mutual Funds</text><path d="M644.626,312.2734 L654.626,312.2734 C669.626,312.2734 669.626,255.9766 684.626,255.9766 L694.626,255.9766 " fill="none" style="stroke:#A52A2A;stroke-width:1.0;"/><rect fill="#98FB98" height="36.2969" rx="12.5" ry="12.5" style="stroke:#006400;stroke-width:1.5;" width="155.2285" x="694.626" y="294.125"/><text fill="#000000" font-family="sans-serif" font-size="14" lengthAdjust="spacing" textLength="135.2285" x="704.626" y="317.1201">Government Bonds</text><path d="M644.626,312.2734 L654.626,312.2734 C669.626,312.2734 669.626,312.2734 684.626,312.2734 L694.626,312.2734 " fill="none" style="stroke:#A52A2A;stroke-width:1.0;"/><rect fill="#98FB98" height="36.2969" rx="12.5" ry="12.5" style="stroke:#006400;stroke-width:1.5;" width="122.9902" x="694.626" y="350.4219"/><text fill="#000000" font-family="sans-serif" font-size="14" lengthAdjust="spacing" textLength="102.9902" x="704.626" y="373.417">Fixed Deposits</text><path d="M644.626,312.2734 L654.626,312.2734 C669.626,312.2734 669.626,368.5703 684.626,368.5703 L694.626,368.5703 " fill="none" style="stroke:#A52A2A;stroke-width:1.0;"/><path d="M540.8564,227.8281 L550.8564,227.8281 C565.8564,227.8281 565.8564,312.2734 580.8564,312.2734 L590.8564,312.2734 " fill="none" style="stroke:#A52A2A;stroke-width:1.0;"/><rect fill="#FFA07A" height="36.2969" rx="12.5" ry="12.5" style="stroke:#006400;stroke-width:1.5;" width="65.5615" x="307.3975" y="153.3828"/><text fill="#000000" font-family="sans-serif" font-size="14" lengthAdjust="spacing" textLength="45.5615" x="317.3975" y="176.3779">Assets</text><rect fill="#98FB98" height="36.2969" rx="12.5" ry="12.5" style="stroke:#006400;stroke-width:1.5;" width="99.5703" x="157.8271" y="97.0859"/><text fill="#000000" font-family="sans-serif" font-size="14" lengthAdjust="spacing" textLength="79.5703" x="167.8271" y="120.0811">Real Estate</text><path d="M307.3975,171.5313 L297.3975,171.5313 C282.3975,171.5313 282.3975,115.2344 267.3975,115.2344 L257.3975,115.2344 " fill="none" style="stroke:#A52A2A;stroke-width:1.0;"/><rect fill="#98FB98" height="36.2969" rx="12.5" ry="12.5" style="stroke:#006400;stroke-width:1.5;" width="112.2441" x="145.1533" y="153.3828"/><text fill="#000000" font-family="sans-serif" font-size="14" lengthAdjust="spacing" textLength="92.2441" x="155.1533" y="176.3779">Commodities</text><rect fill="#98FB98" height="36.2969" rx="12.5" ry="12.5" style="stroke:#006400;stroke-width:1.5;" width="52.1904" x="42.9629" y="97.0859"/><text fill="#000000" font-family="sans-serif" font-size="14" lengthAdjust="spacing" textLength="32.1904" x="52.9629" y="120.0811">Gold</text><path d="M145.1533,171.5313 L135.1533,171.5313 C120.1533,171.5313 120.1533,115.2344 105.1533,115.2344 L95.1533,115.2344 " fill="none" style="stroke:#A52A2A;stroke-width:1.0;"/><rect fill="#98FB98" height="36.2969" rx="12.5" ry="12.5" style="stroke:#006400;stroke-width:1.5;" width="59.3203" x="35.833" y="153.3828"/><text fill="#000000" font-family="sans-serif" font-size="14" lengthAdjust="spacing" textLength="39.3203" x="45.833" y="176.3779">Silver</text><path d="M145.1533,171.5313 L135.1533,171.5313 C120.1533,171.5313 120.1533,171.5313 105.1533,171.5313 L95.1533,171.5313 " fill="none" style="stroke:#A52A2A;stroke-width:1.0;"/><rect fill="#98FB98" height="36.2969" rx="12.5" ry="12.5" style="stroke:#006400;stroke-width:1.5;" width="85.1533" x="10" y="209.6797"/><text fill="#000000" font-family="sans-serif" font-size="14" lengthAdjust="spacing" textLength="65.1533" x="20" y="232.6748">Crude Oil</text><path d="M145.1533,171.5313 L135.1533,171.5313 C120.1533,171.5313 120.1533,227.8281 105.1533,227.8281 L95.1533,227.8281 " fill="none" style="stroke:#A52A2A;stroke-width:1.0;"/><path d="M307.3975,171.5313 L297.3975,171.5313 C282.3975,171.5313 282.3975,171.5313 267.3975,171.5313 L257.3975,171.5313 " fill="none" style="stroke:#A52A2A;stroke-width:1.0;"/><path d="M422.959,227.8281 L412.959,227.8281 C397.959,227.8281 397.959,171.5313 382.959,171.5313 L372.959,171.5313 " fill="none" style="stroke:#A52A2A;stroke-width:1.0;"/><rect fill="#FFA07A" height="36.2969" rx="12.5" ry="12.5" style="stroke:#006400;stroke-width:1.5;" width="73.2383" x="299.7207" y="294.125"/><text fill="#000000" font-family="sans-serif" font-size="14" lengthAdjust="spacing" textLength="53.2383" x="309.7207" y="317.1201">Retirals</text><rect fill="#98FB98" height="36.2969" rx="12.5" ry="12.5" style="stroke:#006400;stroke-width:1.5;" width="172.0654" x="77.6553" y="265.9766"/><text fill="#000000" font-family="sans-serif" font-size="14" lengthAdjust="spacing" textLength="152.0654" x="87.6553" y="288.9717">Public Provident Fund</text><path d="M299.7207,312.2734 L289.7207,312.2734 C274.7207,312.2734 274.7207,284.125 259.7207,284.125 L249.7207,284.125 " fill="none" style="stroke:#A52A2A;stroke-width:1.0;"/><rect fill="#98FB98" height="36.2969" rx="12.5" ry="12.5" style="stroke:#006400;stroke-width:1.5;" width="193.9951" x="55.7256" y="322.2734"/><text fill="#000000" font-family="sans-serif" font-size="14" lengthAdjust="spacing" textLength="173.9951" x="65.7256" y="345.2686">National Pension System</text><path d="M299.7207,312.2734 L289.7207,312.2734 C274.7207,312.2734 274.7207,340.4219 259.7207,340.4219 L249.7207,340.4219 " fill="none" style="stroke:#A52A2A;stroke-width:1.0;"/><path d="M422.959,227.8281 L412.959,227.8281 C397.959,227.8281 397.959,312.2734 382.959,312.2734 L372.959,312.2734 " fill="none" style="stroke:#A52A2A;stroke-width:1.0;"/><!--SRC=[XLDjJnin3FwUN-6FfHAiT1LY9rInwmkYQw7YW7rEU-Qmo2LTudJhfltt-UvWRTaB-H0vVkp7ZvFuFB3sN9BDIxrIPu4t1liAP3txXgGBhqluKJkhPLsEEyTgfNhvL7WNRJvmndcOQuCN7j7kHOsTvGPFZIJiOLEos613xP_sSt-gtwPtZg_UhZzqUO4-DH7_8U3p8_6VM5Pr3wap-N-qxR7kI4joNF5Zw_ZW3MrJAXuvqwPqV-rGU- - -lgBO2aW5t4rhzhDtp-_6nDB0MQ3lc7Hx_Kkxni0bMeRh5PEp0SZ2fSr9Iue4zPLgmpOgg7ORHbyYyKQiDcJiba-XDXilZ6x7kyTPvAWDZAMvEdU82wxnodYDjk72hT7RMa_gNfnZ-eQv9AnS856W33um1Cgn8lmO0d8JTuF2DPBlobYV1wuiNKvCMECLkxnRRMLaf51Z3toKxt9DHjKSJ5wRXd0U5uQMCFTkBTL4KoMqHgvqTLbIReusY0NP9Z2MwXnb99v7HSsDjdmtcuAKgeEEZxgTRk_ef9LfXaaqq3c1peVak9UyFuMxsm5Ky85gNSod45pqIuIS0djQnAhSWPhejOQRQ9bAJEJ5q4w6druSCB9hygw-FJMvdsq3Jdg7AJ5aw4K9tC_K41zqD2mPIxaWMoHIVNnuggRQ5b4NmYt3DP0VoNwJW8t6_080]--></g></svg>