<svg xmlns="http://www.w3.org/2000/svg" xmlns:xlink="http://www.w3.org/1999/xlink" contentStyleType="text/css" height="1177px" preserveAspectRatio="none" style="width:927px;height:1177px;background:#FFFFFF;" version="1.1" viewBox="0 0 927 1177" width="927px" zoomAndPan="magnify"><defs/><g><rect fill="#F1F1F1" height="300.0938" rx="5" ry="5" style="stroke:#F1F1F1;stroke-width:1.5;" width="296.5234" x="10" y="437.4531"/><text fill="#000000" font-family="Consolas" font-size="20" font-weight="bold" lengthAdjust="spacing" textLength="198.8965" x="15" y="458.0176">table_of_contents</text><text fill="#000000" font-family="Consolas" font-size="20" lengthAdjust="spacing" textLength="6.3574" x="282.4512" y="458.0176">&#160;</text><line style="stroke:#000000;stroke-width:1.0;" x1="277.4512" x2="277.4512" y1="437.4531" y2="464.7344"/><line style="stroke:#000000;stroke-width:1.0;" x1="10" x2="306.5234" y1="464.7344" y2="464.7344"/><text fill="#000000" font-family="Consolas" font-size="20" font-weight="bold" lengthAdjust="spacing" textLength="203.6426" x="15" y="485.2988">data_visualization</text><text fill="#000000" font-family="Consolas" font-size="20" lengthAdjust="spacing" textLength="19.0723" x="282.4512" y="485.2988">&#160;&#160;&#160;</text><line style="stroke:#000000;stroke-width:1.0;" x1="277.4512" x2="277.4512" y1="464.7344" y2="492.0156"/><line style="stroke:#000000;stroke-width:1.0;" x1="10" x2="306.5234" y1="492.0156" y2="492.0156"/><text fill="#000000" font-family="Consolas" font-size="20" font-weight="bold" lengthAdjust="spacing" textLength="157.0215" x="15" y="512.5801">uml_diagrams</text><text fill="#000000" font-family="Consolas" font-size="20" lengthAdjust="spacing" textLength="19.0723" x="282.4512" y="512.5801">&#160;&#160;&#160;</text><line style="stroke:#000000;stroke-width:1.0;" x1="277.4512" x2="277.4512" y1="492.0156" y2="519.2969"/><line style="stroke:#000000;stroke-width:1.0;" x1="10" x2="306.5234" y1="519.2969" y2="519.2969"/><text fill="#000000" font-family="Consolas" font-size="20" font-weight="bold" lengthAdjust="spacing" textLength="200.1465" x="15" y="539.8613">common_features</text><text fill="#000000" font-family="Consolas" font-size="20" lengthAdjust="spacing" textLength="19.0723" x="282.4512" y="539.8613">&#160;&#160;&#160;</text><line style="stroke:#000000;stroke-width:1.0;" x1="277.4512" x2="277.4512" y1="519.2969" y2="546.5781"/><line style="stroke:#000000;stroke-width:1.0;" x1="10" x2="306.5234" y1="546.5781" y2="546.5781"/><text fill="#000000" font-family="Consolas" font-size="20" font-weight="bold" lengthAdjust="spacing" textLength="148.4961" x="15" y="567.1426">preprocessor</text><text fill="#000000" font-family="Consolas" font-size="20" lengthAdjust="spacing" textLength="6.3574" x="282.4512" y="567.1426">&#160;</text><line style="stroke:#000000;stroke-width:1.0;" x1="277.4512" x2="277.4512" y1="546.5781" y2="573.8594"/><line style="stroke:#000000;stroke-width:1.0;" x1="10" x2="306.5234" y1="573.8594" y2="573.8594"/><text fill="#000000" font-family="Consolas" font-size="20" font-weight="bold" lengthAdjust="spacing" textLength="209.2383" x="15" y="594.4238">non_uml_diagrams</text><text fill="#000000" font-family="Consolas" font-size="20" lengthAdjust="spacing" textLength="19.0723" x="282.4512" y="594.4238">&#160;&#160;&#160;</text><line style="stroke:#000000;stroke-width:1.0;" x1="277.4512" x2="277.4512" y1="573.8594" y2="601.1406"/><line style="stroke:#000000;stroke-width:1.0;" x1="10" x2="306.5234" y1="601.1406" y2="601.1406"/><text fill="#000000" font-family="Consolas" font-size="20" font-weight="bold" lengthAdjust="spacing" textLength="228.0273" x="15" y="621.7051">general_information</text><text fill="#000000" font-family="Consolas" font-size="20" lengthAdjust="spacing" textLength="19.0723" x="282.4512" y="621.7051">&#160;&#160;&#160;</text><line style="stroke:#000000;stroke-width:1.0;" x1="277.4512" x2="277.4512" y1="601.1406" y2="628.4219"/><line style="stroke:#000000;stroke-width:1.0;" x1="10" x2="306.5234" y1="628.4219" y2="628.4219"/><text fill="#000000" font-family="Consolas" font-size="20" font-weight="bold" lengthAdjust="spacing" textLength="257.4512" x="15" y="648.9863">using_with_other_tools</text><text fill="#000000" font-family="Consolas" font-size="20" lengthAdjust="spacing" textLength="19.0723" x="282.4512" y="648.9863">&#160;&#160;&#160;</text><line style="stroke:#000000;stroke-width:1.0;" x1="277.4512" x2="277.4512" y1="628.4219" y2="655.7031"/><line style="stroke:#000000;stroke-width:1.0;" x1="10" x2="306.5234" y1="655.7031" y2="655.7031"/><text fill="#000000" font-family="Consolas" font-size="20" font-weight="bold" lengthAdjust="spacing" textLength="158.5254" x="15" y="676.2676">customization</text><text fill="#000000" font-family="Consolas" font-size="20" lengthAdjust="spacing" textLength="19.0723" x="282.4512" y="676.2676">&#160;&#160;&#160;</text><line style="stroke:#000000;stroke-width:1.0;" x1="277.4512" x2="277.4512" y1="655.7031" y2="682.9844"/><line style="stroke:#000000;stroke-width:1.0;" x1="10" x2="306.5234" y1="682.9844" y2="682.9844"/><text fill="#000000" font-family="Consolas" font-size="20" font-weight="bold" lengthAdjust="spacing" textLength="159.9121" x="15" y="703.5488">miscellaneous</text><text fill="#000000" font-family="Consolas" font-size="20" lengthAdjust="spacing" textLength="19.0723" x="282.4512" y="703.5488">&#160;&#160;&#160;</text><line style="stroke:#000000;stroke-width:1.0;" x1="277.4512" x2="277.4512" y1="682.9844" y2="710.2656"/><line style="stroke:#000000;stroke-width:1.0;" x1="10" x2="306.5234" y1="710.2656" y2="710.2656"/><text fill="#000000" font-family="Consolas" font-size="20" font-weight="bold" lengthAdjust="spacing" textLength="100.2832" x="15" y="730.8301">fun_stuff</text><text fill="#000000" font-family="Consolas" font-size="20" lengthAdjust="spacing" textLength="19.0723" x="282.4512" y="730.8301">&#160;&#160;&#160;</text><line style="stroke:#000000;stroke-width:1.0;" x1="277.4512" x2="277.4512" y1="710.2656" y2="737.5469"/><rect fill="none" height="300.0938" rx="5" ry="5" style="stroke:#000000;stroke-width:1.5;" width="296.5234" x="10" y="437.4531"/><rect fill="#F1F1F1" height="54.5625" rx="5" ry="5" style="stroke:#F1F1F1;stroke-width:1.5;" width="385.459" x="344" y="10"/><text fill="#000000" font-family="Consolas" font-size="20" font-weight="bold" lengthAdjust="spacing" textLength="115.0977" x="349" y="30.5645">yaml_data</text><text fill="#000000" font-family="Consolas" font-size="20" lengthAdjust="spacing" textLength="176.9238" x="481.0605" y="30.5645">table_of_contents</text><text fill="#000000" font-family="Consolas" font-size="20" font-style="italic" lengthAdjust="spacing" textLength="60.1172" x="664.3418" y="30.5645">(this!)</text><line style="stroke:#000000;stroke-width:1.0;" x1="476.0605" x2="476.0605" y1="10" y2="37.2813"/><line style="stroke:#000000;stroke-width:1.0;" x1="344" x2="729.459" y1="37.2813" y2="37.2813"/><text fill="#000000" font-family="Consolas" font-size="20" font-weight="bold" lengthAdjust="spacing" textLength="107.6074" x="349" y="57.8457">json_data</text><text fill="#000000" font-family="Consolas" font-size="20" lengthAdjust="spacing" textLength="99.4922" x="481.0605" y="57.8457">about_me</text><line style="stroke:#000000;stroke-width:1.0;" x1="476.0605" x2="476.0605" y1="37.2813" y2="64.5625"/><rect fill="none" height="54.5625" rx="5" ry="5" style="stroke:#000000;stroke-width:1.5;" width="385.459" x="344" y="10"/><rect fill="#F1F1F1" height="136.4063" rx="5" ry="5" style="stroke:#F1F1F1;stroke-width:1.5;" width="195.8984" x="438.5" y="83.2969"/><text fill="#000000" font-family="Consolas" font-size="20" lengthAdjust="spacing" textLength="185.8984" x="443.5" y="103.8613">sequence diagram</text><line style="stroke:#000000;stroke-width:1.0;" x1="438.5" x2="634.3984" y1="110.5781" y2="110.5781"/><text fill="#000000" font-family="Consolas" font-size="20" lengthAdjust="spacing" textLength="139.1699" x="443.5" y="131.1426">class diagram</text><line style="stroke:#000000;stroke-width:1.0;" x1="438.5" x2="634.3984" y1="137.8594" y2="137.8594"/><text fill="#000000" font-family="Consolas" font-size="20" lengthAdjust="spacing" textLength="140.1855" x="443.5" y="158.4238">state diagram</text><line style="stroke:#000000;stroke-width:1.0;" x1="438.5" x2="634.3984" y1="165.1406" y2="165.1406"/><text fill="#000000" font-family="Consolas" font-size="20" lengthAdjust="spacing" textLength="153.3301" x="443.5" y="185.7051">timing diagram</text><line style="stroke:#000000;stroke-width:1.0;" x1="438.5" x2="634.3984" y1="192.4219" y2="192.4219"/><text fill="#000000" font-family="Consolas" font-size="20" lengthAdjust="spacing" textLength="151.1523" x="443.5" y="212.9863">object diagram</text><rect fill="none" height="136.4063" rx="5" ry="5" style="stroke:#000000;stroke-width:1.5;" width="195.8984" x="438.5" y="83.2969"/><rect fill="#F1F1F1" height="136.4063" rx="5" ry="5" style="stroke:#F1F1F1;stroke-width:1.5;" width="117.9297" x="477.5" y="237.2969"/><text fill="#000000" font-family="Consolas" font-size="20" lengthAdjust="spacing" textLength="72.3438" x="482.5" y="257.8613">colours</text><line style="stroke:#000000;stroke-width:1.0;" x1="477.5" x2="595.4297" y1="264.5781" y2="264.5781"/><text fill="#000000" font-family="Consolas" font-size="20" lengthAdjust="spacing" textLength="107.9297" x="482.5" y="285.1426">openiconic</text><line style="stroke:#000000;stroke-width:1.0;" x1="477.5" x2="595.4297" y1="291.8594" y2="291.8594"/><text fill="#000000" font-family="Consolas" font-size="20" lengthAdjust="spacing" textLength="50.2148" x="482.5" y="312.4238">fonts</text><line style="stroke:#000000;stroke-width:1.0;" x1="477.5" x2="595.4297" y1="319.1406" y2="319.1406"/><text fill="#000000" font-family="Consolas" font-size="20" lengthAdjust="spacing" textLength="54.4531" x="482.5" y="339.7051">zoom</text><line style="stroke:#000000;stroke-width:1.0;" x1="477.5" x2="595.4297" y1="346.4219" y2="346.4219"/><text fill="#000000" font-family="Consolas" font-size="20" lengthAdjust="spacing" textLength="67.4609" x="482.5" y="366.9863">sprites</text><rect fill="none" height="136.4063" rx="5" ry="5" style="stroke:#000000;stroke-width:1.5;" width="117.9297" x="477.5" y="237.2969"/><rect fill="#F1F1F1" height="81.8438" rx="5" ry="5" style="stroke:#F1F1F1;stroke-width:1.5;" width="121.6602" x="475.5" y="391.5"/><text fill="#000000" font-family="Consolas" font-size="20" lengthAdjust="spacing" textLength="111.6602" x="480.5" y="412.0645">gantt chart</text><line style="stroke:#000000;stroke-width:1.0;" x1="475.5" x2="597.1602" y1="418.7813" y2="418.7813"/><text fill="#000000" font-family="Consolas" font-size="20" lengthAdjust="spacing" textLength="94.8438" x="480.5" y="439.3457">mindmap</text><line style="stroke:#000000;stroke-width:1.0;" x1="475.5" x2="597.1602" y1="446.0625" y2="446.0625"/><text fill="#000000" font-family="Consolas" font-size="20" lengthAdjust="spacing" textLength="101.748" x="480.5" y="466.627">wireframe</text><rect fill="none" height="81.8438" rx="5" ry="5" style="stroke:#000000;stroke-width:1.5;" width="121.6602" x="475.5" y="391.5"/><rect fill="#F1F1F1" height="245.5313" rx="5" ry="5" style="stroke:#F1F1F1;stroke-width:1.5;" width="275.8789" x="398.5" y="491.5"/><text fill="#000000" font-family="Consolas" font-size="20" lengthAdjust="spacing" textLength="185.752" x="403.5" y="512.0645">plantuml overview</text><line style="stroke:#000000;stroke-width:1.0;" x1="398.5" x2="674.3789" y1="518.7813" y2="518.7813"/><text fill="#000000" font-family="Consolas" font-size="20" lengthAdjust="spacing" textLength="202.7344" x="403.5" y="539.3457">how to run plantuml</text><line style="stroke:#000000;stroke-width:1.0;" x1="398.5" x2="674.3789" y1="546.0625" y2="546.0625"/><text fill="#000000" font-family="Consolas" font-size="20" lengthAdjust="spacing" textLength="191.9531" x="403.5" y="566.627">license information</text><line style="stroke:#000000;stroke-width:1.0;" x1="398.5" x2="674.3789" y1="573.3438" y2="573.3438"/><text fill="#000000" font-family="Consolas" font-size="20" lengthAdjust="spacing" textLength="210.6738" x="403.5" y="593.9082">language description</text><line style="stroke:#000000;stroke-width:1.0;" x1="398.5" x2="674.3789" y1="600.625" y2="600.625"/><text fill="#000000" font-family="Consolas" font-size="20" lengthAdjust="spacing" textLength="152.3047" x="403.5" y="621.1895">syntax checker</text><line style="stroke:#000000;stroke-width:1.0;" x1="398.5" x2="674.3789" y1="627.9063" y2="627.9063"/><text fill="#000000" font-family="Consolas" font-size="20" lengthAdjust="spacing" textLength="96.9336" x="403.5" y="648.4707">metadata</text><line style="stroke:#000000;stroke-width:1.0;" x1="398.5" x2="674.3789" y1="655.1875" y2="655.1875"/><text fill="#000000" font-family="Consolas" font-size="20" lengthAdjust="spacing" textLength="68.7305" x="403.5" y="675.752">cypher</text><line style="stroke:#000000;stroke-width:1.0;" x1="398.5" x2="674.3789" y1="682.4688" y2="682.4688"/><text fill="#000000" font-family="Consolas" font-size="20" lengthAdjust="spacing" textLength="265.8789" x="403.5" y="703.0332">generating huge diagrams</text><line style="stroke:#000000;stroke-width:1.0;" x1="398.5" x2="674.3789" y1="709.75" y2="709.75"/><text fill="#000000" font-family="Consolas" font-size="20" lengthAdjust="spacing" textLength="121.2012" x="403.5" y="730.3145">getting help</text><rect fill="none" height="245.5313" rx="5" ry="5" style="stroke:#000000;stroke-width:1.5;" width="275.8789" x="398.5" y="491.5"/><rect fill="#F1F1F1" height="109.125" rx="5" ry="5" style="stroke:#F1F1F1;stroke-width:1.5;" width="284.8633" x="394" y="755.9375"/><text fill="#000000" font-family="Consolas" font-size="20" font-weight="bold" lengthAdjust="spacing" textLength="79.8047" x="399" y="776.502">editors</text><text fill="#000000" font-family="Consolas" font-size="20" lengthAdjust="spacing" textLength="19.0723" x="654.791" y="776.502">&#160;&#160;&#160;</text><line style="stroke:#000000;stroke-width:1.0;" x1="649.791" x2="649.791" y1="755.9375" y2="783.2188"/><line style="stroke:#000000;stroke-width:1.0;" x1="394" x2="678.8633" y1="783.2188" y2="783.2188"/><text fill="#000000" font-family="Consolas" font-size="20" font-weight="bold" lengthAdjust="spacing" textLength="245.791" x="399" y="803.7832">document_generation</text><text fill="#000000" font-family="Consolas" font-size="20" lengthAdjust="spacing" textLength="19.0723" x="654.791" y="803.7832">&#160;&#160;&#160;</text><line style="stroke:#000000;stroke-width:1.0;" x1="649.791" x2="649.791" y1="783.2188" y2="810.5"/><line style="stroke:#000000;stroke-width:1.0;" x1="394" x2="678.8633" y1="810.5" y2="810.5"/><text fill="#000000" font-family="Consolas" font-size="20" font-weight="bold" lengthAdjust="spacing" textLength="200.5762" x="399" y="831.0645">markup_language</text><text fill="#000000" font-family="Consolas" font-size="20" lengthAdjust="spacing" textLength="19.0723" x="654.791" y="831.0645">&#160;&#160;&#160;</text><line style="stroke:#000000;stroke-width:1.0;" x1="649.791" x2="649.791" y1="810.5" y2="837.7813"/><line style="stroke:#000000;stroke-width:1.0;" x1="394" x2="678.8633" y1="837.7813" y2="837.7813"/><text fill="#000000" font-family="Consolas" font-size="20" font-weight="bold" lengthAdjust="spacing" textLength="159.9902" x="399" y="858.3457">web_browsers</text><text fill="#000000" font-family="Consolas" font-size="20" lengthAdjust="spacing" textLength="6.3574" x="654.791" y="858.3457">&#160;</text><line style="stroke:#000000;stroke-width:1.0;" x1="649.791" x2="649.791" y1="837.7813" y2="865.0625"/><rect fill="none" height="109.125" rx="5" ry="5" style="stroke:#000000;stroke-width:1.5;" width="284.8633" x="394" y="755.9375"/><rect fill="#F1F1F1" height="109.125" rx="5" ry="5" style="stroke:#F1F1F1;stroke-width:1.5;" width="80.4883" x="801" y="614.9375"/><text fill="#000000" font-family="Consolas" font-size="20" lengthAdjust="spacing" textLength="70.4883" x="806" y="635.502">vscode</text><line style="stroke:#000000;stroke-width:1.0;" x1="801" x2="881.4883" y1="642.2188" y2="642.2188"/><text fill="#000000" font-family="Consolas" font-size="20" lengthAdjust="spacing" textLength="51.8164" x="806" y="662.7832">atom</text><line style="stroke:#000000;stroke-width:1.0;" x1="801" x2="881.4883" y1="669.5" y2="669.5"/><text fill="#000000" font-family="Consolas" font-size="20" lengthAdjust="spacing" textLength="69.834" x="806" y="690.0645">eclipse</text><line style="stroke:#000000;stroke-width:1.0;" x1="801" x2="881.4883" y1="696.7813" y2="696.7813"/><text fill="#000000" font-family="Consolas" font-size="20" lengthAdjust="spacing" textLength="49.5117" x="806" y="717.3457">word</text><rect fill="none" height="109.125" rx="5" ry="5" style="stroke:#000000;stroke-width:1.5;" width="80.4883" x="801" y="614.9375"/><rect fill="#F1F1F1" height="109.125" rx="5" ry="5" style="stroke:#F1F1F1;stroke-width:1.5;" width="149.5313" x="766" y="741.9375"/><text fill="#000000" font-family="Consolas" font-size="20" lengthAdjust="spacing" textLength="86.2793" x="771" y="762.502">doxygen</text><line style="stroke:#000000;stroke-width:1.0;" x1="766" x2="915.5313" y1="769.2188" y2="769.2188"/><text fill="#000000" font-family="Consolas" font-size="20" lengthAdjust="spacing" textLength="109.8926" x="771" y="789.7832">java doclet</text><line style="stroke:#000000;stroke-width:1.0;" x1="766" x2="915.5313" y1="796.5" y2="796.5"/><text fill="#000000" font-family="Consolas" font-size="20" lengthAdjust="spacing" textLength="139.5313" x="771" y="817.0645">hpp2plantuml</text><line style="stroke:#000000;stroke-width:1.0;" x1="766" x2="915.5313" y1="823.7813" y2="823.7813"/><text fill="#000000" font-family="Consolas" font-size="20" lengthAdjust="spacing" textLength="87.666" x="771" y="844.3457">py2puml</text><rect fill="none" height="109.125" rx="5" ry="5" style="stroke:#000000;stroke-width:1.5;" width="149.5313" x="766" y="741.9375"/><rect fill="#F1F1F1" height="27.2813" rx="5" ry="5" style="stroke:#F1F1F1;stroke-width:1.5;" width="115.5078" x="783" y="868.8594"/><text fill="#000000" font-family="Consolas" font-size="20" lengthAdjust="spacing" textLength="105.5078" x="788" y="889.4238">markdown</text><rect fill="none" height="27.2813" rx="5" ry="5" style="stroke:#000000;stroke-width:1.5;" width="115.5078" x="783" y="868.8594"/><rect fill="#F1F1F1" height="81.8438" rx="5" ry="5" style="stroke:#F1F1F1;stroke-width:1.5;" width="125.5664" x="473.5" y="883.5"/><text fill="#000000" font-family="Consolas" font-size="20" lengthAdjust="spacing" textLength="115.5664" x="478.5" y="904.0645">skinparams</text><line style="stroke:#000000;stroke-width:1.0;" x1="473.5" x2="599.0664" y1="910.7813" y2="910.7813"/><text fill="#000000" font-family="Consolas" font-size="20" lengthAdjust="spacing" textLength="75.0293" x="478.5" y="931.3457">themes</text><line style="stroke:#000000;stroke-width:1.0;" x1="473.5" x2="599.0664" y1="938.0625" y2="938.0625"/><text fill="#000000" font-family="Consolas" font-size="20" lengthAdjust="spacing" textLength="58.3789" x="478.5" y="958.627">styles</text><rect fill="none" height="81.8438" rx="5" ry="5" style="stroke:#000000;stroke-width:1.5;" width="125.5664" x="473.5" y="883.5"/><rect fill="#F1F1F1" height="81.8438" rx="5" ry="5" style="stroke:#F1F1F1;stroke-width:1.5;" width="276.25" x="398.5" y="983.5"/><text fill="#000000" font-family="Consolas" font-size="20" font-weight="bold" lengthAdjust="spacing" textLength="233.75" x="403.5" y="1004.0645">supporting_plantuml</text><text fill="#000000" font-family="Consolas" font-size="20" lengthAdjust="spacing" textLength="19.0723" x="650.6777" y="1004.0645">&#160;&#160;&#160;</text><line style="stroke:#000000;stroke-width:1.0;" x1="645.6777" x2="645.6777" y1="983.5" y2="1010.7813"/><line style="stroke:#000000;stroke-width:1.0;" x1="398.5" x2="674.75" y1="1010.7813" y2="1010.7813"/><text fill="#000000" font-family="Consolas" font-size="20" font-weight="bold" lengthAdjust="spacing" textLength="194.0723" x="403.5" y="1031.3457">plantuml_themes</text><text fill="#000000" font-family="Consolas" font-size="20" lengthAdjust="spacing" textLength="6.3574" x="650.6777" y="1031.3457">&#160;</text><line style="stroke:#000000;stroke-width:1.0;" x1="645.6777" x2="645.6777" y1="1010.7813" y2="1038.0625"/><line style="stroke:#000000;stroke-width:1.0;" x1="398.5" x2="674.75" y1="1038.0625" y2="1038.0625"/><text fill="#000000" font-family="Consolas" font-size="20" font-weight="bold" lengthAdjust="spacing" textLength="237.1777" x="403.5" y="1058.627">uml_for_blind_people</text><text fill="#000000" font-family="Consolas" font-size="20" lengthAdjust="spacing" textLength="6.3574" x="650.6777" y="1058.627">&#160;</text><line style="stroke:#000000;stroke-width:1.0;" x1="645.6777" x2="645.6777" y1="1038.0625" y2="1065.3438"/><rect fill="none" height="81.8438" rx="5" ry="5" style="stroke:#000000;stroke-width:1.5;" width="276.25" x="398.5" y="983.5"/><rect fill="#F1F1F1" height="54.5625" rx="5" ry="5" style="stroke:#F1F1F1;stroke-width:1.5;" width="114.8145" x="783.5" y="970"/><text fill="#000000" font-family="Consolas" font-size="20" lengthAdjust="spacing" textLength="104.8145" x="788.5" y="990.5645">dedication</text><line style="stroke:#000000;stroke-width:1.0;" x1="783.5" x2="898.3145" y1="997.2813" y2="997.2813"/><text fill="#000000" font-family="Consolas" font-size="20" lengthAdjust="spacing" textLength="88.1738" x="788.5" y="1017.8457">donation</text><rect fill="none" height="54.5625" rx="5" ry="5" style="stroke:#000000;stroke-width:1.5;" width="114.8145" x="783.5" y="970"/><rect fill="#F1F1F1" height="81.8438" rx="5" ry="5" style="stroke:#F1F1F1;stroke-width:1.5;" width="126.1621" x="473.5" y="1083.5"/><text fill="#000000" font-family="Consolas" font-size="20" lengthAdjust="spacing" textLength="65.1367" x="478.5" y="1104.0645">xearth</text><line style="stroke:#000000;stroke-width:1.0;" x1="473.5" x2="599.6621" y1="1110.7813" y2="1110.7813"/><text fill="#000000" font-family="Consolas" font-size="20" lengthAdjust="spacing" textLength="72.2852" x="478.5" y="1131.3457">sudoku</text><line style="stroke:#000000;stroke-width:1.0;" x1="473.5" x2="599.6621" y1="1138.0625" y2="1138.0625"/><text fill="#000000" font-family="Consolas" font-size="20" lengthAdjust="spacing" textLength="116.1621" x="478.5" y="1158.627">oregon trail</text><rect fill="none" height="81.8438" rx="5" ry="5" style="stroke:#000000;stroke-width:1.5;" width="126.1621" x="473.5" y="1083.5"/><path d="M295,478.5 L308,478.5 C353.0668,478.5 313.7906,107.9425 344,74.5 C345.344,73.0122 346.7282,71.5733 348.1499,70.1819 " fill="none" style="stroke:#000000;stroke-width:1.0;stroke-dasharray:3.0,3.0;"/><path d="M350.2037,72.448 L349.8495,68.6416 L346.0962,67.9159 L353.815,65.0476 L350.2037,72.448 " fill="#000000" style="stroke:#000000;stroke-width:1.0;"/><ellipse cx="295" cy="478.5" fill="#000000" rx="3" ry="3" style="stroke:#000000;stroke-width:1.0;"/><path d="M295,505.5 L308,505.5 C370.0732,505.5 305.9754,277.5634 344,228.5 C365.4758,200.7896 398.4908,183.016 431.1221,171.6304 " fill="none" style="stroke:#000000;stroke-width:1.0;stroke-dasharray:3.0,3.0;"/><path d="M432.1122,174.5872 L433.3397,170.8878 L430.132,168.6736 L438.5141,169.1552 L432.1122,174.5872 " fill="#000000" style="stroke:#000000;stroke-width:1.0;"/><ellipse cx="295" cy="505.5" fill="#000000" rx="3" ry="3" style="stroke:#000000;stroke-width:1.0;"/><path d="M295,532.5 L308,532.5 C376.5598,532.5 299.1822,434.3826 344,382.5 C376.0029,345.4523 428.363,326.0267 470.3266,315.9607 " fill="none" style="stroke:#000000;stroke-width:1.0;stroke-dasharray:3.0,3.0;"/><path d="M471.0121,318.9365 L472.5585,315.4466 L469.6412,312.9849 L477.7662,314.247 L471.0121,318.9365 " fill="#000000" style="stroke:#000000;stroke-width:1.0;"/><ellipse cx="295" cy="532.5" fill="#000000" rx="3" ry="3" style="stroke:#000000;stroke-width:1.0;"/><path d="M295,587.5 L308,587.5 C357.3333,587.5 307.8237,516.0418 344,482.5 C377.409,451.5239 427.5492,439.2093 468.2131,434.5414 " fill="none" style="stroke:#000000;stroke-width:1.0;stroke-dasharray:3.0,3.0;"/><path d="M468.5272,437.532 L470.456,434.3058 L467.8989,431.5509 L475.6895,433.7561 L468.5272,437.532 " fill="#000000" style="stroke:#000000;stroke-width:1.0;"/><ellipse cx="295" cy="587.5" fill="#000000" rx="3" ry="3" style="stroke:#000000;stroke-width:1.0;"/><path d="M295,614.5 L308,614.5 C334.8649,614.5 363.5103,614.5 391.104,614.5 " fill="none" style="stroke:#000000;stroke-width:1.0;stroke-dasharray:3.0,3.0;"/><path d="M391.104,617.601 L393.4298,614.5 L391.104,611.399 L398.8566,614.5 L391.104,617.601 " fill="#000000" style="stroke:#000000;stroke-width:1.0;"/><ellipse cx="295" cy="614.5" fill="#000000" rx="3" ry="3" style="stroke:#000000;stroke-width:1.0;"/><path d="M667,769.5 L680,769.5 C705.0086,769.5 757.0943,734.0837 795.1719,705.4048 " fill="none" style="stroke:#000000;stroke-width:1.0;stroke-dasharray:3.0,3.0;"/><path d="M796.9873,707.7986 L796.9673,704.0432 L793.3565,703.0109 L801.1566,700.8663 L796.9873,707.7986 " fill="#000000" style="stroke:#000000;stroke-width:1.0;"/><ellipse cx="667" cy="769.5" fill="#000000" rx="3" ry="3" style="stroke:#000000;stroke-width:1.0;"/><path d="M667,796.5 L680,796.5 C705.5048,796.5 733.2894,796.5 758.463,796.5 " fill="none" style="stroke:#000000;stroke-width:1.0;stroke-dasharray:3.0,3.0;"/><path d="M758.463,799.5893 L760.78,796.5 L758.463,793.4107 L766.1863,796.5 L758.463,799.5893 " fill="#000000" style="stroke:#000000;stroke-width:1.0;"/><ellipse cx="667" cy="796.5" fill="#000000" rx="3" ry="3" style="stroke:#000000;stroke-width:1.0;"/><path d="M667,824.5 L680,824.5 C721.436,824.5 726.9609,846.6117 766,860.5 C771.8448,862.5793 777.9946,864.6217 784.1509,866.5733 " fill="none" style="stroke:#000000;stroke-width:1.0;stroke-dasharray:3.0,3.0;"/><path d="M783.2525,869.4582 L786.3146,867.2471 L785.0494,863.6884 L791.3632,868.8194 L783.2525,869.4582 " fill="#000000" style="stroke:#000000;stroke-width:1.0;"/><ellipse cx="667" cy="824.5" fill="#000000" rx="3" ry="3" style="stroke:#000000;stroke-width:1.0;"/><path d="M295,642.5 L308,642.5 C356.9131,642.5 309.215,712.1125 344,746.5 C356.4626,758.8201 371.3567,768.7689 387.262,776.8028 " fill="none" style="stroke:#000000;stroke-width:1.0;stroke-dasharray:3.0,3.0;"/><path d="M385.9312,779.5525 L389.3243,777.801 L388.5929,774.0531 L394.1363,780.13 L385.9312,779.5525 " fill="#000000" style="stroke:#000000;stroke-width:1.0;"/><ellipse cx="295" cy="642.5" fill="#000000" rx="3" ry="3" style="stroke:#000000;stroke-width:1.0;"/><path d="M295,669.5 L308,669.5 C354.2527,669.5 312.6441,840.4983 344,874.5 C374.7762,907.8731 424.7531,920.1357 466.0033,924.179 " fill="none" style="stroke:#000000;stroke-width:1.0;stroke-dasharray:3.0,3.0;"/><path d="M465.7383,927.2166 L468.2815,924.3777 L466.2683,921.1413 L473.5974,924.8415 L465.7383,927.2166 " fill="#000000" style="stroke:#000000;stroke-width:1.0;"/><ellipse cx="295" cy="669.5" fill="#000000" rx="3" ry="3" style="stroke:#000000;stroke-width:1.0;"/><path d="M662,997.5 L675,997.5 C708.3748,997.5 745.5353,997.5 776.1752,997.5 " fill="none" style="stroke:#000000;stroke-width:1.0;stroke-dasharray:3.0,3.0;"/><path d="M776.1752,1000.5572 L778.4681,997.5 L776.1752,994.4428 L783.8182,997.5 L776.1752,1000.5572 " fill="#000000" style="stroke:#000000;stroke-width:1.0;"/><ellipse cx="662" cy="997.5" fill="#000000" rx="3" ry="3" style="stroke:#000000;stroke-width:1.0;"/><path d="M295,696.5 L308,696.5 C370.2936,696.5 302.8119,927.7664 344,974.5 C356.8678,989.1003 373.408,999.6914 391.3727,1007.3319 " fill="none" style="stroke:#000000;stroke-width:1.0;stroke-dasharray:3.0,3.0;"/><path d="M390.217,1010.2215 L393.54,1008.1986 L392.5284,1004.4422 L398.5969,1010.221 L390.217,1010.2215 " fill="#000000" style="stroke:#000000;stroke-width:1.0;"/><ellipse cx="295" cy="696.5" fill="#000000" rx="3" ry="3" style="stroke:#000000;stroke-width:1.0;"/><path d="M292,725.5 L292,738.5 C292,814.0556 293.3451,1018.44 344,1074.5 C374.5447,1108.3039 424.7803,1120.5243 466.2056,1124.4404 " fill="none" style="stroke:#000000;stroke-width:1.0;stroke-dasharray:3.0,3.0;"/><path d="M465.9505,1127.4907 L468.4934,1124.6318 L466.4608,1121.3901 L473.8314,1125.0783 L465.9505,1127.4907 " fill="#000000" style="stroke:#000000;stroke-width:1.0;"/><ellipse cx="292" cy="725.5" fill="#000000" rx="3" ry="3" style="stroke:#000000;stroke-width:1.0;"/><!--SRC=[xLPBRzms4BxpLqnpyGFnod4D8rq4XLExAUhQSH0dkHI5mAL6AtefakLZPRd8V-zG4jVhD2ZG0BrP5udpvZSFpQaFt8MUjugzyg5N-2DBXtF9buwty1S3UhIfSFfCpmv4Zy1164tQEa0dgz10RUXpWO8dRcXusF7GqGigNACo5fs7oimsPjwG_5lU8foH7QEuVyIvaVS8HuS3xJFxp5uLKtYisFbmVNuzPx-IOnDLHJuf5ACW66XwSgEaNb402AY3a-X1wk4O-49XQUgI0W_4yqc36CoXjoY2N2Fuz3OwgrH6n9P4P_3M131QzPDF6Q2EZaGSS2588lA0Wx7Vhx2IiONN7NUeqVi_TfiGh9yNHLW7HpZucN7BmhQTNCdfDREDBQwurCMelL7UOwOciz93IiicdkUmY06uyWPuN2RAwFkrvg9nHai1rwv2zzzyFsWFofDl11C3tRFbRbMPJZ-0mdOAnlRt_u7h_luSdZq3A7O8BRVYpaHTpG5R6thmb1Ez148E4_vyRMG5LMpR7eR4aSsA1rwkfOzSoNkUyZ4VwY11K2OcpB-IpABOJK1zjrSKW_IjDpfBymNTeMoHnMHXB6u_6ZsWdFyPKGlAziYOo89Aqdz1eteFNye5sQOBFIQQnIrLqeOeJDjID3No4AdQicTXb8dEPnsB17s2VoAaZihCUsCsGLWd0tfc7Lfd15M9SGbmfid5rowuf2OD81hgz8b24LSjjzEfamvhKa2sfA9pN9LIryQrMz0VW5LaXQo3MQDRI-mcUcEwb4SNzKPauYX9ZK6pOCjOvd2zZ7n9IA8NJjejbkzru7SKB8eLkXmk1fuocM7hRRFXZI67eQRYSfCSls67aOVAikZfi-naQ4gJUhSCD3SccAZlWd7JOTHTUq6JRul0mvI4yOX2IUkt1QZSg-6OUwJCuMKWHxdAtFN4sQBSyZLFMWh35hMnzkWHgbCk-YERAQajeoqpfDjUSiSEf0uNvSAPpjCS7gf5H4_NUTHW1FzAQikty2EOMlIRygSHx5ahlK157j742J0VhJKk8LtcU1_Tbz0L3nMGGT0FfAnLZWw721CzaQXyoWKDXwgqQAp2WLb7NVeGwpg7VeTKtqsED5Pc5NDZELpIJ0-EIyLEKLV3_uwTViE_xrj_Mlys9f_ctTEyUvftJ_Fk_vvtxvBBZrUNG0NjqvBxOdPqU7GyEzczeItz8YeuF8737-OlZkVVluIF7yuWiVVOxY_lBi5JumuZ8-rlj7oI_XwxI4by7pMD10hoclhvulotJ82VzLhIDfdAWbrykdeGE3a- -8aMw1lgAzehFrsnSwnvL84qg009qpbvVtFmabtc9DCgpyveYmokduEEIlqD]--></g></svg>