<svg xmlns="http://www.w3.org/2000/svg" xmlns:xlink="http://www.w3.org/1999/xlink" contentStyleType="text/css" height="985px" preserveAspectRatio="none" style="width:804px;height:985px;background:#FFFFFF;" version="1.1" viewBox="0 0 804 985" width="804px" zoomAndPan="magnify"><defs/><g><text fill="#000000" font-family="sans-serif" font-size="14" font-weight="bold" lengthAdjust="spacing" textLength="198.7207" x="298.9854" y="27.9951">Sequence Diagram Demo</text><text fill="#000000" font-family="sans-serif" font-size="14" font-weight="bold" lengthAdjust="spacing" textLength="4.874" x="395.9087" y="44.292">&#160;</text><text fill="#000000" font-family="sans-serif" font-size="14" font-weight="bold" lengthAdjust="spacing" textLength="4.874" x="395.9087" y="60.5889">&#160;</text><rect fill="#DDDDDD" height="903.125" style="stroke:#181818;stroke-width:0.5;" width="271.0786" x="392.3901" y="75.8906"/><text fill="#000000" font-family="sans-serif" font-size="13" font-weight="bold" lengthAdjust="spacing" textLength="204.9023" x="425.4783" y="87.9575">Development Infrastructure</text><rect fill="none" height="150.4688" style="stroke:#000000;stroke-width:1.5;" width="288.3901" x="118" y="559.4531"/><rect fill="none" height="75.3984" style="stroke:#000000;stroke-width:1.5;" width="268.3901" x="128" y="627.5234"/><line style="stroke:#181818;stroke-width:0.5;stroke-dasharray:5.0,5.0;" x1="177" x2="177" y1="157.3203" y2="353.9844"/><line style="stroke:#A80036;stroke-width:1.0;stroke-dasharray:1.0,4.0;" x1="177" x2="177" y1="353.9844" y2="394.7891"/><line style="stroke:#181818;stroke-width:0.5;stroke-dasharray:5.0,5.0;" x1="177" x2="177" y1="394.7891" y2="899.7188"/><line style="stroke:#181818;stroke-width:0.5;stroke-dasharray:5.0,5.0;" x1="347.1479" x2="347.1479" y1="157.3203" y2="353.9844"/><line style="stroke:#A80036;stroke-width:1.0;stroke-dasharray:1.0,4.0;" x1="347.1479" x2="347.1479" y1="353.9844" y2="394.7891"/><line style="stroke:#181818;stroke-width:0.5;stroke-dasharray:5.0,5.0;" x1="347.1479" x2="347.1479" y1="394.7891" y2="899.7188"/><line style="stroke:#181818;stroke-width:0.5;stroke-dasharray:5.0,5.0;" x1="425.3901" x2="425.3901" y1="157.3203" y2="353.9844"/><line style="stroke:#A80036;stroke-width:1.0;stroke-dasharray:1.0,4.0;" x1="425.3901" x2="425.3901" y1="353.9844" y2="394.7891"/><line style="stroke:#181818;stroke-width:0.5;stroke-dasharray:5.0,5.0;" x1="425.3901" x2="425.3901" y1="394.7891" y2="899.7188"/><line style="stroke:#181818;stroke-width:0.5;stroke-dasharray:5.0,5.0;" x1="501.3003" x2="501.3003" y1="157.3203" y2="353.9844"/><line style="stroke:#A80036;stroke-width:1.0;stroke-dasharray:1.0,4.0;" x1="501.3003" x2="501.3003" y1="353.9844" y2="394.7891"/><line style="stroke:#181818;stroke-width:0.5;stroke-dasharray:5.0,5.0;" x1="501.3003" x2="501.3003" y1="394.7891" y2="899.7188"/><line style="stroke:#181818;stroke-width:0.5;stroke-dasharray:5.0,5.0;" x1="618.3965" x2="618.3965" y1="157.3203" y2="353.9844"/><line style="stroke:#A80036;stroke-width:1.0;stroke-dasharray:1.0,4.0;" x1="618.3965" x2="618.3965" y1="353.9844" y2="394.7891"/><line style="stroke:#181818;stroke-width:0.5;stroke-dasharray:5.0,5.0;" x1="618.3965" x2="618.3965" y1="394.7891" y2="899.7188"/><text fill="#000000" font-family="sans-serif" font-size="14" lengthAdjust="spacing" textLength="72.0029" x="138" y="154.0186">Developer</text><ellipse cx="177.0015" cy="89.5234" fill="#E2E2F0" rx="8" ry="8" style="stroke:#181818;stroke-width:0.5;"/><path d="M177.0015,97.5234 L177.0015,124.5234 M164.0015,105.5234 L190.0015,105.5234 M177.0015,124.5234 L164.0015,139.5234 M177.0015,124.5234 L190.0015,139.5234 " fill="none" style="stroke:#181818;stroke-width:0.5;"/><text fill="#000000" font-family="sans-serif" font-size="14" lengthAdjust="spacing" textLength="72.0029" x="138" y="911.7139">Developer</text><ellipse cx="177.0015" cy="923.5156" fill="#E2E2F0" rx="8" ry="8" style="stroke:#181818;stroke-width:0.5;"/><path d="M177.0015,931.5156 L177.0015,958.5156 M164.0015,939.5156 L190.0015,939.5156 M177.0015,958.5156 L164.0015,973.5156 M177.0015,958.5156 L190.0015,973.5156 " fill="none" style="stroke:#181818;stroke-width:0.5;"/><text fill="#000000" font-family="sans-serif" font-size="14" lengthAdjust="spacing" textLength="72.2422" x="308.1479" y="154.0186">Reviewers</text><ellipse cx="347.269" cy="89.5234" fill="#E2E2F0" rx="8" ry="8" style="stroke:#181818;stroke-width:0.5;"/><path d="M347.269,97.5234 L347.269,124.5234 M334.269,105.5234 L360.269,105.5234 M347.269,124.5234 L334.269,139.5234 M347.269,124.5234 L360.269,139.5234 " fill="none" style="stroke:#181818;stroke-width:0.5;"/><text fill="#000000" font-family="sans-serif" font-size="14" lengthAdjust="spacing" textLength="72.2422" x="308.1479" y="911.7139">Reviewers</text><ellipse cx="347.269" cy="923.5156" fill="#E2E2F0" rx="8" ry="8" style="stroke:#181818;stroke-width:0.5;"/><path d="M347.269,931.5156 L347.269,958.5156 M334.269,939.5156 L360.269,939.5156 M347.269,958.5156 L334.269,973.5156 M347.269,958.5156 L360.269,973.5156 " fill="none" style="stroke:#181818;stroke-width:0.5;"/><rect fill="#E2E2F0" height="46.5938" rx="2.5" ry="2.5" style="stroke:#181818;stroke-width:0.5;" width="59.9102" x="396.3901" y="109.7266"/><text fill="#000000" font-family="sans-serif" font-size="14" lengthAdjust="spacing" textLength="35.1436" x="408.7734" y="129.7217">Build</text><text fill="#000000" font-family="sans-serif" font-size="14" lengthAdjust="spacing" textLength="45.9102" x="403.3901" y="146.0186">Server</text><rect fill="#E2E2F0" height="46.5938" rx="2.5" ry="2.5" style="stroke:#181818;stroke-width:0.5;" width="59.9102" x="396.3901" y="898.7188"/><text fill="#000000" font-family="sans-serif" font-size="14" lengthAdjust="spacing" textLength="35.1436" x="408.7734" y="918.7139">Build</text><text fill="#000000" font-family="sans-serif" font-size="14" lengthAdjust="spacing" textLength="45.9102" x="403.3901" y="935.0107">Server</text><rect fill="#E2E2F0" height="30.2969" style="stroke:#181818;stroke-width:0.5;" width="67.0605" x="470.3003" y="122.0234"/><rect fill="#E2E2F0" height="30.2969" style="stroke:#181818;stroke-width:0.5;" width="67.0605" x="466.3003" y="126.0234"/><a href="https://github.com/dragondive/hebi/issues" target="_top" title="https://github.com/dragondive/hebi/issues" xlink:actuate="onRequest" xlink:href="https://github.com/dragondive/hebi/issues" xlink:show="new" xlink:title="https://github.com/dragondive/hebi/issues" xlink:type="simple"><text fill="#0000FF" font-family="sans-serif" font-size="14" lengthAdjust="spacing" text-decoration="underline" textLength="53.0605" x="473.3003" y="146.0186">Tracker</text></a><rect fill="#E2E2F0" height="30.2969" style="stroke:#181818;stroke-width:0.5;" width="67.0605" x="470.3003" y="898.7188"/><rect fill="#E2E2F0" height="30.2969" style="stroke:#181818;stroke-width:0.5;" width="67.0605" x="466.3003" y="902.7188"/><a href="https://github.com/dragondive/hebi/issues" target="_top" title="https://github.com/dragondive/hebi/issues" xlink:actuate="onRequest" xlink:href="https://github.com/dragondive/hebi/issues" xlink:show="new" xlink:title="https://github.com/dragondive/hebi/issues" xlink:type="simple"><text fill="#0000FF" font-family="sans-serif" font-size="14" lengthAdjust="spacing" text-decoration="underline" textLength="53.0605" x="473.3003" y="922.7139">Tracker</text></a><a href="https://github.com/dragondive/hebi" target="_top" title="https://github.com/dragondive/hebi" xlink:actuate="onRequest" xlink:href="https://github.com/dragondive/hebi" xlink:show="new" xlink:title="https://github.com/dragondive/hebi" xlink:type="simple"><text fill="#0000FF" font-family="sans-serif" font-size="14" lengthAdjust="spacing" text-decoration="underline" textLength="75.0723" x="578.3965" y="154.0186">Repository</text></a><path d="M600.9326,105.0234 C600.9326,95.0234 618.9326,95.0234 618.9326,95.0234 C618.9326,95.0234 636.9326,95.0234 636.9326,105.0234 L636.9326,131.0234 C636.9326,141.0234 618.9326,141.0234 618.9326,141.0234 C618.9326,141.0234 600.9326,141.0234 600.9326,131.0234 L600.9326,105.0234 " fill="#E2E2F0" style="stroke:#181818;stroke-width:1.5;"/><path d="M600.9326,105.0234 C600.9326,115.0234 618.9326,115.0234 618.9326,115.0234 C618.9326,115.0234 636.9326,115.0234 636.9326,105.0234 " fill="none" style="stroke:#181818;stroke-width:1.5;"/><a href="https://github.com/dragondive/hebi" target="_top" title="https://github.com/dragondive/hebi" xlink:actuate="onRequest" xlink:href="https://github.com/dragondive/hebi" xlink:show="new" xlink:title="https://github.com/dragondive/hebi" xlink:type="simple"><text fill="#0000FF" font-family="sans-serif" font-size="14" lengthAdjust="spacing" text-decoration="underline" textLength="75.0723" x="578.3965" y="911.7139">Repository</text></a><path d="M600.9326,925.0156 C600.9326,915.0156 618.9326,915.0156 618.9326,915.0156 C618.9326,915.0156 636.9326,915.0156 636.9326,925.0156 L636.9326,951.0156 C636.9326,961.0156 618.9326,961.0156 618.9326,961.0156 C618.9326,961.0156 600.9326,961.0156 600.9326,951.0156 L600.9326,925.0156 " fill="#E2E2F0" style="stroke:#181818;stroke-width:1.5;"/><path d="M600.9326,925.0156 C600.9326,935.0156 618.9326,935.0156 618.9326,935.0156 C618.9326,935.0156 636.9326,935.0156 636.9326,925.0156 " fill="none" style="stroke:#181818;stroke-width:1.5;"/><rect fill="#EEEEEE" height="3" style="stroke:#EEEEEE;stroke-width:1.0;" width="797.6914" x="0" y="187.8867"/><line style="stroke:#000000;stroke-width:1.0;" x1="0" x2="797.6914" y1="187.8867" y2="187.8867"/><line style="stroke:#000000;stroke-width:1.0;" x1="0" x2="797.6914" y1="190.8867" y2="190.8867"/><rect fill="#EEEEEE" height="23.1328" style="stroke:#000000;stroke-width:2.0;" width="108.4531" x="344.6191" y="177.3203"/><text fill="#000000" font-family="sans-serif" font-size="13" font-weight="bold" lengthAdjust="spacing" textLength="89.9272" x="350.6191" y="193.3872">Initial Setup</text><polygon fill="#181818" points="606.9326,227.5859,616.9326,231.5859,606.9326,235.5859,610.9326,231.5859" style="stroke:#181818;stroke-width:1.0;"/><line style="stroke:#181818;stroke-width:1.0;" x1="177.0015" x2="612.9326" y1="231.5859" y2="231.5859"/><text fill="#000000" font-family="sans-serif" font-size="13" font-weight="bold" lengthAdjust="spacing" textLength="9.0454" x="184.0015" y="226.52">1</text><text fill="#000000" font-family="sans-serif" font-size="13" lengthAdjust="spacing" textLength="105.1045" x="197.0469" y="226.52">clone repository</text><rect fill="#EEEEEE" height="3" style="stroke:#EEEEEE;stroke-width:1.0;" width="797.6914" x="0" y="260.1523"/><line style="stroke:#000000;stroke-width:1.0;" x1="0" x2="797.6914" y1="260.1523" y2="260.1523"/><line style="stroke:#000000;stroke-width:1.0;" x1="0" x2="797.6914" y1="263.1523" y2="263.1523"/><rect fill="#EEEEEE" height="23.1328" style="stroke:#000000;stroke-width:2.0;" width="115.9497" x="340.8708" y="249.5859"/><text fill="#000000" font-family="sans-serif" font-size="13" font-weight="bold" lengthAdjust="spacing" textLength="97.4238" x="346.8708" y="265.6528">Development</text><polygon fill="#181818" points="489.8306,299.8516,499.8306,303.8516,489.8306,307.8516,493.8306,303.8516" style="stroke:#181818;stroke-width:1.0;"/><line style="stroke:#181818;stroke-width:1.0;" x1="177.0015" x2="495.8306" y1="303.8516" y2="303.8516"/><text fill="#000000" font-family="sans-serif" font-size="13" font-weight="bold" lengthAdjust="spacing" textLength="9.0454" x="184.0015" y="298.7856">2</text><text fill="#000000" font-family="sans-serif" font-size="13" lengthAdjust="spacing" textLength="123.4175" x="197.0469" y="298.7856">assign issue to self</text><line style="stroke:#181818;stroke-width:1.0;" x1="177.0015" x2="219.0015" y1="332.9844" y2="332.9844"/><line style="stroke:#181818;stroke-width:1.0;" x1="219.0015" x2="219.0015" y1="332.9844" y2="345.9844"/><line style="stroke:#181818;stroke-width:1.0;" x1="178.0015" x2="219.0015" y1="345.9844" y2="345.9844"/><polygon fill="#181818" points="188.0015,341.9844,178.0015,345.9844,188.0015,349.9844,184.0015,345.9844" style="stroke:#181818;stroke-width:1.0;"/><text fill="#000000" font-family="sans-serif" font-size="13" font-weight="bold" lengthAdjust="spacing" textLength="9.0454" x="184.0015" y="327.9185">3</text><text fill="#000000" font-family="sans-serif" font-size="13" lengthAdjust="spacing" textLength="143.2222" x="197.0469" y="327.9185">work towards solution</text><text fill="#000000" font-family="sans-serif" font-size="11" lengthAdjust="spacing" textLength="88.3008" x="353.8167" y="378.1948">some days later</text><polygon fill="#181818" points="414.3452,414.9219,424.3452,418.9219,414.3452,422.9219,418.3452,418.9219" style="stroke:#181818;stroke-width:1.0;"/><line style="stroke:#181818;stroke-width:1.0;" x1="177.0015" x2="420.3452" y1="418.9219" y2="418.9219"/><text fill="#000000" font-family="sans-serif" font-size="13" font-weight="bold" lengthAdjust="spacing" textLength="9.0454" x="184.0015" y="413.856">4</text><text fill="#000000" font-family="sans-serif" font-size="13" lengthAdjust="spacing" textLength="104.6855" x="197.0469" y="413.856">submit build job</text><path d="M5,399.7891 L5,424.7891 L172,424.7891 L172,409.7891 L162,399.7891 L5,399.7891 " fill="#FEFFDD" style="stroke:#181818;stroke-width:0.5;"/><path d="M162,399.7891 L162,409.7891 L172,409.7891 L162,399.7891 " fill="#FEFFDD" style="stroke:#181818;stroke-width:0.5;"/><text fill="#000000" font-family="sans-serif" font-size="13" lengthAdjust="spacing" textLength="146.6245" x="11" y="416.856">when solution is ready</text><polygon fill="#181818" points="188.0015,457.6211,178.0015,461.6211,188.0015,465.6211,184.0015,461.6211" style="stroke:#181818;stroke-width:1.0;"/><line style="stroke:#181818;stroke-width:1.0;stroke-dasharray:2.0,2.0;" x1="182.0015" x2="425.3452" y1="461.6211" y2="461.6211"/><text fill="#000000" font-family="sans-serif" font-size="13" font-weight="bold" lengthAdjust="spacing" textLength="9.0454" x="194.0015" y="456.5552">5</text><text fill="#000000" font-family="sans-serif" font-size="13" lengthAdjust="spacing" textLength="103.3779" x="207.0469" y="456.5552">build successful</text><path d="M431,434.9219 L431,474.9219 L618,474.9219 L618,444.9219 L608,434.9219 L431,434.9219 " fill="#FEFFDD" style="stroke:#181818;stroke-width:0.5;"/><path d="M608,434.9219 L608,444.9219 L618,444.9219 L608,434.9219 " fill="#FEFFDD" style="stroke:#181818;stroke-width:0.5;"/><text fill="#000000" font-family="sans-serif" font-size="13" lengthAdjust="spacing" textLength="146.853" x="437" y="451.9888">dotted arrows indicate</text><text fill="#000000" font-family="sans-serif" font-size="13" lengthAdjust="spacing" textLength="166.5625" x="437" y="467.1216">computer-triggered steps</text><rect fill="#EEEEEE" height="3" style="stroke:#EEEEEE;stroke-width:1.0;" width="797.6914" x="0" y="500.7539"/><line style="stroke:#000000;stroke-width:1.0;" x1="0" x2="797.6914" y1="500.7539" y2="500.7539"/><line style="stroke:#000000;stroke-width:1.0;" x1="0" x2="797.6914" y1="503.7539" y2="503.7539"/><rect fill="#EEEEEE" height="23.1328" style="stroke:#000000;stroke-width:2.0;" width="71.1099" x="363.2908" y="490.1875"/><text fill="#000000" font-family="sans-serif" font-size="13" font-weight="bold" lengthAdjust="spacing" textLength="52.584" x="369.2908" y="506.2544">Review</text><polygon fill="#181818" points="335.269,540.4531,345.269,544.4531,335.269,548.4531,339.269,544.4531" style="stroke:#181818;stroke-width:1.0;"/><line style="stroke:#181818;stroke-width:1.0;" x1="177.0015" x2="341.269" y1="544.4531" y2="544.4531"/><text fill="#000000" font-family="sans-serif" font-size="13" font-weight="bold" lengthAdjust="spacing" textLength="9.0454" x="184.0015" y="539.3872">6</text><a href="https://github.com/dragondive/hebi/compare" target="_top" title="https://github.com/dragondive/hebi/compare" xlink:actuate="onRequest" xlink:href="https://github.com/dragondive/hebi/compare" xlink:show="new" xlink:title="https://github.com/dragondive/hebi/compare" xlink:type="simple"><text fill="#0000FF" font-family="sans-serif" font-size="13" lengthAdjust="spacing" text-decoration="underline" textLength="126.3184" x="197.0469" y="539.3872">submit pull request</text></a><path d="M118,559.4531 L182.4429,559.4531 L182.4429,566.5859 L172.4429,576.5859 L118,576.5859 L118,559.4531 " fill="#EEEEEE" style="stroke:#000000;stroke-width:1.5;"/><rect fill="none" height="150.4688" style="stroke:#000000;stroke-width:1.5;" width="288.3901" x="118" y="559.4531"/><text fill="#000000" font-family="sans-serif" font-size="13" font-weight="bold" lengthAdjust="spacing" textLength="19.4429" x="133" y="572.52">alt</text><text fill="#000000" font-family="sans-serif" font-size="11" font-weight="bold" lengthAdjust="spacing" textLength="68.7124" x="197.4429" y="571.6636">[approved]</text><polygon fill="#181818" points="188.0015,593.7188,178.0015,597.7188,188.0015,601.7188,184.0015,597.7188" style="stroke:#181818;stroke-width:1.0;"/><line style="stroke:#181818;stroke-width:1.0;" x1="182.0015" x2="346.269" y1="597.7188" y2="597.7188"/><text fill="#000000" font-family="sans-serif" font-size="13" font-weight="bold" lengthAdjust="spacing" textLength="9.0454" x="194.0015" y="592.6528">7</text><text fill="#000000" font-family="sans-serif" font-size="13" lengthAdjust="spacing" textLength="112.2075" x="207.0469" y="592.6528">approve changes</text><line style="stroke:#000000;stroke-width:1.0;stroke-dasharray:2.0,2.0;" x1="118" x2="406.3901" y1="606.7188" y2="606.7188"/><text fill="#000000" font-family="sans-serif" font-size="11" font-weight="bold" lengthAdjust="spacing" textLength="61.2842" x="123" y="616.9292">[rejected]</text><path d="M128,627.5234 L204.624,627.5234 L204.624,634.6563 L194.624,644.6563 L128,644.6563 L128,627.5234 " fill="#EEEEEE" style="stroke:#000000;stroke-width:1.5;"/><rect fill="none" height="75.3984" style="stroke:#000000;stroke-width:1.5;" width="268.3901" x="128" y="627.5234"/><text fill="#000000" font-family="sans-serif" font-size="13" font-weight="bold" lengthAdjust="spacing" textLength="31.624" x="143" y="640.5903">loop</text><polygon fill="#181818" points="188.0015,661.7891,178.0015,665.7891,188.0015,669.7891,184.0015,665.7891" style="stroke:#181818;stroke-width:1.0;"/><line style="stroke:#181818;stroke-width:1.0;" x1="182.0015" x2="346.269" y1="665.7891" y2="665.7891"/><text fill="#000000" font-family="sans-serif" font-size="13" font-weight="bold" lengthAdjust="spacing" textLength="9.0454" x="194.0015" y="660.7231">8</text><text fill="#000000" font-family="sans-serif" font-size="13" lengthAdjust="spacing" textLength="115.9463" x="207.0469" y="660.7231">review comments</text><polygon fill="#181818" points="335.269,690.9219,345.269,694.9219,335.269,698.9219,339.269,694.9219" style="stroke:#181818;stroke-width:1.0;"/><line style="stroke:#181818;stroke-width:1.0;" x1="177.0015" x2="341.269" y1="694.9219" y2="694.9219"/><text fill="#000000" font-family="sans-serif" font-size="13" font-weight="bold" lengthAdjust="spacing" textLength="9.0454" x="184.0015" y="689.856">9</text><text fill="#000000" font-family="sans-serif" font-size="13" lengthAdjust="spacing" textLength="103.3843" x="197.0469" y="689.856">submit changes</text><rect fill="#EEEEEE" height="3" style="stroke:#EEEEEE;stroke-width:1.0;" width="797.6914" x="0" y="737.4883"/><line style="stroke:#000000;stroke-width:1.0;" x1="0" x2="797.6914" y1="737.4883" y2="737.4883"/><line style="stroke:#000000;stroke-width:1.0;" x1="0" x2="797.6914" y1="740.4883" y2="740.4883"/><rect fill="#EEEEEE" height="23.1328" style="stroke:#000000;stroke-width:2.0;" width="75.9531" x="360.8691" y="726.9219"/><text fill="#000000" font-family="sans-serif" font-size="13" font-weight="bold" lengthAdjust="spacing" textLength="57.4272" x="366.8691" y="742.9888">Release</text><polygon fill="#181818" points="414.3452,777.1875,424.3452,781.1875,414.3452,785.1875,418.3452,781.1875" style="stroke:#181818;stroke-width:1.0;"/><line style="stroke:#181818;stroke-width:1.0;" x1="177.0015" x2="420.3452" y1="781.1875" y2="781.1875"/><text fill="#000000" font-family="sans-serif" font-size="13" font-weight="bold" lengthAdjust="spacing" textLength="18.0908" x="184.0015" y="776.1216">10</text><text fill="#000000" font-family="sans-serif" font-size="13" lengthAdjust="spacing" textLength="186.9448" x="206.0923" y="776.1216">submit for pre-release check</text><polygon fill="#181818" points="606.9326,816.8867,616.9326,820.8867,606.9326,824.8867,610.9326,820.8867" style="stroke:#181818;stroke-width:1.0;"/><line style="stroke:#181818;stroke-width:1.0;stroke-dasharray:2.0,2.0;" x1="426.3452" x2="612.9326" y1="820.8867" y2="820.8867"/><text fill="#000000" font-family="sans-serif" font-size="13" font-weight="bold" lengthAdjust="spacing" textLength="18.0908" x="433.3452" y="815.8208">11</text><text fill="#000000" font-family="sans-serif" font-size="13" lengthAdjust="spacing" textLength="101.0039" x="455.436" y="815.8208">merge changes</text><path d="M232,794.1875 L232,834.1875 L420,834.1875 L420,804.1875 L410,794.1875 L232,794.1875 " fill="#FEFFDD" style="stroke:#181818;stroke-width:0.5;"/><path d="M410,794.1875 L410,804.1875 L420,804.1875 L410,794.1875 " fill="#FEFFDD" style="stroke:#181818;stroke-width:0.5;"/><text fill="#000000" font-family="sans-serif" font-size="13" lengthAdjust="spacing" textLength="136.6143" x="238" y="811.2544">build failure scenario</text><text fill="#000000" font-family="sans-serif" font-size="13" lengthAdjust="spacing" textLength="167.7686" x="238" y="826.3872">omitted to reduce clutter.</text><polygon fill="#181818" points="512.8306,867.1523,502.8306,871.1523,512.8306,875.1523,508.8306,871.1523" style="stroke:#181818;stroke-width:1.0;"/><line style="stroke:#181818;stroke-width:1.0;stroke-dasharray:2.0,2.0;" x1="506.8306" x2="617.9326" y1="871.1523" y2="871.1523"/><text fill="#000000" font-family="sans-serif" font-size="13" font-weight="bold" lengthAdjust="spacing" textLength="18.0908" x="518.8306" y="866.0864">12</text><text fill="#000000" font-family="sans-serif" font-size="13" lengthAdjust="spacing" textLength="71.0112" x="540.9214" y="866.0864">close issue</text><path d="M623,844.4531 L623,884.4531 L786,884.4531 L786,854.4531 L776,844.4531 L623,844.4531 " fill="#FEFFDD" style="stroke:#181818;stroke-width:0.5;"/><path d="M776,844.4531 L776,854.4531 L786,854.4531 L776,844.4531 " fill="#FEFFDD" style="stroke:#181818;stroke-width:0.5;"/><text fill="#000000" font-family="sans-serif" font-size="13" lengthAdjust="spacing" textLength="142.7588" x="629" y="861.52">for simplicity, assume</text><text fill="#000000" font-family="sans-serif" font-size="13" lengthAdjust="spacing" textLength="125.0044" x="629" y="876.6528">no merge conflicts.</text><!--SRC=[ZLInTjim3Dpv5NWP_Mfxpwixz6NfcdIBFL0K936XI1O0xURl2qfoP7UA5eiWS3WSpX8l0M6pUS4_1QD3UFAs9pl24uvfipd6OpJ6EacaaJE6b970SZqiuMSyUxmWiJ5D-dlD6Z4A_8eTMHOgJWgX0Nso9V7EPwlN3p-B3-qnlY2TaHugx1IP4bqA0Ptu51aUNby7aSoF-ttlPIZDpgLntvBjKspz6VS3DdxlcGio_2Rhtf5EfmbmEKsGhHNRMCQluUbWER7N4JyMh3LWCBQWqweqHL8iOwCj3WSTs8kt0LvGIeR3mQWQiFrnKmcFu4AA2BI2rSfRsTQwXRqMMMRVHvXc14d06BfhLlrvX4kYTxsvM6ePE8LIjJDcjzlfQKIT_eCXM54uZPbhyQIubdDfHY_GJCUtr9YO125W9mezOFo4L0vAthRAUwxTVbAOYxauXynT2JC6-NvGa3Q9O0kMA5qOl0hjbCmnglIvAAkjQ6AFf3aic7cIPJRNZIAhtRJVbsnHyItXTS1SGb3-wdQMqydO861pfdJ6sNSh_kTOopsumSOUsM3WkhytjUTI55BAqqjzQj7txHrHciTGAdN1V9SwsMDDNMXUUzMiQhQfGtrHmeio0QkNLsd-ssId_yrCkAKbqGtetczMTkV94QbV1xnP_RpIplfGgeOEeoMVZZ5fYxfEjQ9khEY7mwazT8tgh1laxPs9rVbAPFBmdJKgLVPZ3lfba8zlrUnbL6l4T2MMOgUNmhj_]--></g></svg>