<svg xmlns="http://www.w3.org/2000/svg" xmlns:xlink="http://www.w3.org/1999/xlink" contentStyleType="text/css" height="600px" preserveAspectRatio="none" style="width:774px;height:600px;background:#FFFFFF;" version="1.1" viewBox="0 0 774 600" width="774px" zoomAndPan="magnify"><defs/><g><rect fill="#F8E4D0" height="101.4844" rx="5" ry="5" style="stroke:#F8E4D0;stroke-width:1.5;" width="164.8467" x="10" y="246.7578"/><text fill="#000000" font-family="Segoe Print" font-size="14" font-weight="bold" lengthAdjust="spacing" textLength="97.7607" x="15" y="261.7529">Identity Info</text><text fill="#000000" font-family="Segoe Print" font-size="14" lengthAdjust="spacing" textLength="13.3506" x="156.4961" y="261.7529">&#160;&#160;&#160;</text><line style="stroke:#A52A2A;stroke-width:1.0;" x1="151.4961" x2="151.4961" y1="246.7578" y2="267.0547"/><line style="stroke:#A52A2A;stroke-width:1.0;" x1="10" x2="174.8467" y1="267.0547" y2="267.0547"/><text fill="#000000" font-family="Segoe Print" font-size="14" font-weight="bold" lengthAdjust="spacing" textLength="103.3389" x="15" y="282.0498">Work History</text><text fill="#000000" font-family="Segoe Print" font-size="14" lengthAdjust="spacing" textLength="13.3506" x="156.4961" y="282.0498">&#160;&#160;&#160;</text><line style="stroke:#A52A2A;stroke-width:1.0;" x1="151.4961" x2="151.4961" y1="267.0547" y2="287.3516"/><line style="stroke:#A52A2A;stroke-width:1.0;" x1="10" x2="174.8467" y1="287.3516" y2="287.3516"/><text fill="#000000" font-family="Segoe Print" font-size="14" font-weight="bold" lengthAdjust="spacing" textLength="121.7002" x="15" y="302.3467">Skills Summary</text><text fill="#000000" font-family="Segoe Print" font-size="14" lengthAdjust="spacing" textLength="13.3506" x="156.4961" y="302.3467">&#160;&#160;&#160;</text><line style="stroke:#A52A2A;stroke-width:1.0;" x1="151.4961" x2="151.4961" y1="287.3516" y2="307.6484"/><line style="stroke:#A52A2A;stroke-width:1.0;" x1="10" x2="174.8467" y1="307.6484" y2="307.6484"/><text fill="#000000" font-family="Segoe Print" font-size="14" font-weight="bold" lengthAdjust="spacing" textLength="71.1211" x="15" y="322.6436">Interests</text><text fill="#000000" font-family="Segoe Print" font-size="14" lengthAdjust="spacing" textLength="13.3506" x="156.4961" y="322.6436">&#160;&#160;&#160;</text><line style="stroke:#A52A2A;stroke-width:1.0;" x1="151.4961" x2="151.4961" y1="307.6484" y2="327.9453"/><line style="stroke:#A52A2A;stroke-width:1.0;" x1="10" x2="174.8467" y1="327.9453" y2="327.9453"/><text fill="#000000" font-family="Segoe Print" font-size="14" font-weight="bold" lengthAdjust="spacing" textLength="131.4961" x="15" y="342.9404">Online Locations</text><text fill="#000000" font-family="Segoe Print" font-size="14" lengthAdjust="spacing" textLength="13.3506" x="156.4961" y="342.9404">&#160;&#160;&#160;</text><line style="stroke:#A52A2A;stroke-width:1.0;" x1="151.4961" x2="151.4961" y1="327.9453" y2="348.2422"/><rect fill="none" height="101.4844" rx="5" ry="5" style="stroke:#A52A2A;stroke-width:1.5;" width="164.8467" x="10" y="246.7578"/><rect fill="#F8E4D0" height="40.5938" rx="5" ry="5" style="stroke:#F8E4D0;stroke-width:1.5;" width="168.0117" x="293" y="49"/><text fill="#000000" font-family="Segoe Print" font-size="14" font-weight="bold" lengthAdjust="spacing" textLength="45.2471" x="298" y="63.9951">Name</text><text fill="#000000" font-family="Segoe Print" font-size="14" lengthAdjust="spacing" textLength="13.3506" x="382.6348" y="63.9951">&#160;&#160;&#160;</text><line style="stroke:#A52A2A;stroke-width:1.0;" x1="377.6348" x2="377.6348" y1="49" y2="69.2969"/><line style="stroke:#A52A2A;stroke-width:1.0;" x1="293" x2="461.0117" y1="69.2969" y2="69.2969"/><text fill="#000000" font-family="Segoe Print" font-size="14" font-weight="bold" lengthAdjust="spacing" textLength="74.6348" x="298" y="84.292">Pronouns</text><text fill="#000000" font-family="Segoe Print" font-size="14" lengthAdjust="spacing" textLength="73.377" x="382.6348" y="84.292">he/his/him</text><line style="stroke:#A52A2A;stroke-width:1.0;" x1="377.6348" x2="377.6348" y1="69.2969" y2="89.5938"/><rect fill="none" height="40.5938" rx="5" ry="5" style="stroke:#A52A2A;stroke-width:1.5;" width="168.0117" x="293" y="49"/><rect fill="#F8E4D0" height="40.5938" rx="5" ry="5" style="stroke:#F8E4D0;stroke-width:1.5;" width="160.2598" x="591" y="10"/><text fill="#000000" font-family="Segoe Print" font-size="14" font-weight="bold" lengthAdjust="spacing" textLength="86.4131" x="596" y="24.9951">First Name</text><text fill="#000000" font-family="Segoe Print" font-size="14" lengthAdjust="spacing" textLength="53.8467" x="692.4131" y="24.9951">Aravind</text><line style="stroke:#A52A2A;stroke-width:1.0;" x1="687.4131" x2="687.4131" y1="10" y2="30.2969"/><line style="stroke:#A52A2A;stroke-width:1.0;" x1="591" x2="751.2598" y1="30.2969" y2="30.2969"/><text fill="#000000" font-family="Segoe Print" font-size="14" font-weight="bold" lengthAdjust="spacing" textLength="83.5146" x="596" y="45.292">Last Name</text><text fill="#000000" font-family="Segoe Print" font-size="14" lengthAdjust="spacing" textLength="20.9111" x="692.4131" y="45.292">Pai</text><line style="stroke:#A52A2A;stroke-width:1.0;" x1="687.4131" x2="687.4131" y1="30.2969" y2="50.5938"/><rect fill="none" height="40.5938" rx="5" ry="5" style="stroke:#A52A2A;stroke-width:1.5;" width="160.2598" x="591" y="10"/><rect fill="#F8E4D0" height="60.8906" rx="5" ry="5" style="stroke:#F8E4D0;stroke-width:1.5;" width="163.2402" x="295.5" y="138"/><text fill="#000000" font-family="Segoe Print" font-size="14" font-weight="bold" lengthAdjust="spacing" textLength="69.0156" x="300.5" y="152.9951">Duration</text><text fill="#000000" font-family="Segoe Print" font-size="14" lengthAdjust="spacing" textLength="60.792" x="392.9482" y="152.9951">14 years</text><line style="stroke:#A52A2A;stroke-width:1.0;" x1="387.9482" x2="387.9482" y1="138" y2="158.2969"/><line style="stroke:#A52A2A;stroke-width:1.0;" x1="295.5" x2="458.7402" y1="158.2969" y2="158.2969"/><text fill="#000000" font-family="Segoe Print" font-size="14" font-weight="bold" lengthAdjust="spacing" textLength="82.4482" x="300.5" y="173.292">Employers</text><text fill="#000000" font-family="Segoe Print" font-size="14" lengthAdjust="spacing" textLength="13.3506" x="392.9482" y="173.292">&#160;&#160;&#160;</text><line style="stroke:#A52A2A;stroke-width:1.0;" x1="387.9482" x2="387.9482" y1="158.2969" y2="178.5938"/><line style="stroke:#A52A2A;stroke-width:1.0;" x1="295.5" x2="458.7402" y1="178.5938" y2="178.5938"/><text fill="#000000" font-family="Segoe Print" font-size="14" font-weight="bold" lengthAdjust="spacing" textLength="68.373" x="300.5" y="193.5889">Domains</text><text fill="#000000" font-family="Segoe Print" font-size="14" lengthAdjust="spacing" textLength="13.3506" x="392.9482" y="193.5889">&#160;&#160;&#160;</text><line style="stroke:#A52A2A;stroke-width:1.0;" x1="387.9482" x2="387.9482" y1="178.5938" y2="198.8906"/><rect fill="none" height="60.8906" rx="5" ry="5" style="stroke:#A52A2A;stroke-width:1.5;" width="163.2402" x="295.5" y="138"/><rect fill="#F8E4D0" height="60.8906" rx="5" ry="5" style="stroke:#F8E4D0;stroke-width:1.5;" width="161.0938" x="590.5" y="69"/><text fill="#000000" font-family="Segoe Print" font-size="14" font-weight="bold" lengthAdjust="spacing" textLength="29.8115" x="595.5" y="83.9951">IBM</text><text fill="#000000" font-family="Segoe Print" font-size="14" lengthAdjust="spacing" textLength="76.3096" x="652.3877" y="83.9951">2007-2014</text><line style="stroke:#A52A2A;stroke-width:1.0;" x1="647.3877" x2="647.3877" y1="69" y2="89.2969"/><line style="stroke:#A52A2A;stroke-width:1.0;" x1="590.5" x2="751.5938" y1="89.2969" y2="89.2969"/><text fill="#000000" font-family="Segoe Print" font-size="14" font-weight="bold" lengthAdjust="spacing" textLength="46.7852" x="595.5" y="104.292">Wipro</text><text fill="#000000" font-family="Segoe Print" font-size="14" lengthAdjust="spacing" textLength="76.3096" x="652.3877" y="104.292">2014-2015</text><line style="stroke:#A52A2A;stroke-width:1.0;" x1="647.3877" x2="647.3877" y1="89.2969" y2="109.5938"/><line style="stroke:#A52A2A;stroke-width:1.0;" x1="590.5" x2="751.5938" y1="109.5938" y2="109.5938"/><text fill="#000000" font-family="Segoe Print" font-size="14" font-weight="bold" lengthAdjust="spacing" textLength="46.8877" x="595.5" y="124.5889">Bosch</text><text fill="#000000" font-family="Segoe Print" font-size="14" lengthAdjust="spacing" textLength="94.2061" x="652.3877" y="124.5889">2015-present</text><line style="stroke:#A52A2A;stroke-width:1.0;" x1="647.3877" x2="647.3877" y1="109.5938" y2="129.8906"/><rect fill="none" height="60.8906" rx="5" ry="5" style="stroke:#A52A2A;stroke-width:1.5;" width="161.0938" x="590.5" y="69"/><rect fill="#F8E4D0" height="81.1875" rx="5" ry="5" style="stroke:#F8E4D0;stroke-width:1.5;" width="85.5098" x="628" y="147.9063"/><text fill="#000000" font-family="Segoe Print" font-size="14" lengthAdjust="spacing" textLength="30.3926" x="633" y="162.9014">VLSI</text><line style="stroke:#A52A2A;stroke-width:1.0;" x1="628" x2="713.5098" y1="168.2031" y2="168.2031"/><text fill="#000000" font-family="Segoe Print" font-size="14" lengthAdjust="spacing" textLength="29.2031" x="633" y="183.1982">EDA</text><line style="stroke:#A52A2A;stroke-width:1.0;" x1="628" x2="713.5098" y1="188.5" y2="188.5"/><text fill="#000000" font-family="Segoe Print" font-size="14" lengthAdjust="spacing" textLength="75.5098" x="633" y="203.4951">Navigation</text><line style="stroke:#A52A2A;stroke-width:1.0;" x1="628" x2="713.5098" y1="208.7969" y2="208.7969"/><text fill="#000000" font-family="Segoe Print" font-size="14" lengthAdjust="spacing" textLength="20.3574" x="633" y="223.792">AD</text><rect fill="none" height="81.1875" rx="5" ry="5" style="stroke:#A52A2A;stroke-width:1.5;" width="85.5098" x="628" y="147.9063"/><rect fill="#F8E4D0" height="60.8906" rx="5" ry="5" style="stroke:#F8E4D0;stroke-width:1.5;" width="118.9707" x="317.5" y="267"/><text fill="#000000" font-family="Segoe Print" font-size="14" font-weight="bold" lengthAdjust="spacing" textLength="43.0254" x="322.5" y="281.9951">Roles</text><text fill="#000000" font-family="Segoe Print" font-size="14" lengthAdjust="spacing" textLength="13.3506" x="418.1201" y="281.9951">&#160;&#160;&#160;</text><line style="stroke:#A52A2A;stroke-width:1.0;" x1="413.1201" x2="413.1201" y1="267" y2="287.2969"/><line style="stroke:#A52A2A;stroke-width:1.0;" x1="317.5" x2="436.4707" y1="287.2969" y2="287.2969"/><text fill="#000000" font-family="Segoe Print" font-size="14" font-weight="bold" lengthAdjust="spacing" textLength="85.6201" x="322.5" y="302.292">Languages</text><text fill="#000000" font-family="Segoe Print" font-size="14" lengthAdjust="spacing" textLength="13.3506" x="418.1201" y="302.292">&#160;&#160;&#160;</text><line style="stroke:#A52A2A;stroke-width:1.0;" x1="413.1201" x2="413.1201" y1="287.2969" y2="307.5938"/><line style="stroke:#A52A2A;stroke-width:1.0;" x1="317.5" x2="436.4707" y1="307.5938" y2="307.5938"/><text fill="#000000" font-family="Segoe Print" font-size="14" font-weight="bold" lengthAdjust="spacing" textLength="41.918" x="322.5" y="322.5889">Tools</text><text fill="#000000" font-family="Segoe Print" font-size="14" lengthAdjust="spacing" textLength="13.3506" x="418.1201" y="322.5889">&#160;&#160;&#160;</text><line style="stroke:#A52A2A;stroke-width:1.0;" x1="413.1201" x2="413.1201" y1="307.5938" y2="327.8906"/><rect fill="none" height="60.8906" rx="5" ry="5" style="stroke:#A52A2A;stroke-width:1.5;" width="118.9707" x="317.5" y="267"/><rect fill="#F8E4D0" height="60.8906" rx="5" ry="5" style="stroke:#F8E4D0;stroke-width:1.5;" width="183.9678" x="579" y="247"/><text fill="#000000" font-family="Segoe Print" font-size="14" lengthAdjust="spacing" textLength="152.3457" x="584" y="261.9951">Hardware Verification</text><line style="stroke:#A52A2A;stroke-width:1.0;" x1="579" x2="762.9678" y1="267.2969" y2="267.2969"/><text fill="#000000" font-family="Segoe Print" font-size="14" lengthAdjust="spacing" textLength="160.9658" x="584" y="282.292">Software Development</text><line style="stroke:#A52A2A;stroke-width:1.0;" x1="579" x2="762.9678" y1="287.5938" y2="287.5938"/><text fill="#000000" font-family="Segoe Print" font-size="14" lengthAdjust="spacing" textLength="173.9678" x="584" y="302.5889">Applications Engineering</text><rect fill="none" height="60.8906" rx="5" ry="5" style="stroke:#A52A2A;stroke-width:1.5;" width="183.9678" x="579" y="247"/><rect fill="#F8E4D0" height="142.0781" rx="5" ry="5" style="stroke:#F8E4D0;stroke-width:1.5;" width="58.5283" x="641.5" y="326.4609"/><text fill="#000000" font-family="Segoe Print" font-size="14" lengthAdjust="spacing" textLength="33.2363" x="646.5" y="341.4561">C++</text><line style="stroke:#A52A2A;stroke-width:1.0;" x1="641.5" x2="700.0283" y1="346.7578" y2="346.7578"/><text fill="#000000" font-family="Segoe Print" font-size="14" lengthAdjust="spacing" textLength="9.7754" x="646.5" y="361.7529">C</text><line style="stroke:#A52A2A;stroke-width:1.0;" x1="641.5" x2="700.0283" y1="367.0547" y2="367.0547"/><text fill="#000000" font-family="Segoe Print" font-size="14" lengthAdjust="spacing" textLength="48.5283" x="646.5" y="382.0498">Python</text><line style="stroke:#A52A2A;stroke-width:1.0;" x1="641.5" x2="700.0283" y1="387.3516" y2="387.3516"/><text fill="#000000" font-family="Segoe Print" font-size="14" lengthAdjust="spacing" textLength="38.6846" x="646.5" y="402.3467">VHDL</text><line style="stroke:#A52A2A;stroke-width:1.0;" x1="641.5" x2="700.0283" y1="407.6484" y2="407.6484"/><text fill="#000000" font-family="Segoe Print" font-size="14" lengthAdjust="spacing" textLength="29.5723" x="646.5" y="422.6436">Java</text><line style="stroke:#A52A2A;stroke-width:1.0;" x1="641.5" x2="700.0283" y1="427.9453" y2="427.9453"/><text fill="#000000" font-family="Segoe Print" font-size="14" lengthAdjust="spacing" textLength="27.7061" x="646.5" y="442.9404">SQL</text><line style="stroke:#A52A2A;stroke-width:1.0;" x1="641.5" x2="700.0283" y1="448.2422" y2="448.2422"/><text fill="#000000" font-family="Segoe Print" font-size="14" lengthAdjust="spacing" textLength="38.958" x="646.5" y="463.2373">HTML</text><rect fill="none" height="142.0781" rx="5" ry="5" style="stroke:#A52A2A;stroke-width:1.5;" width="58.5283" x="641.5" y="326.4609"/><rect fill="#F8E4D0" height="101.4844" rx="5" ry="5" style="stroke:#F8E4D0;stroke-width:1.5;" width="93.7676" x="624" y="486.7578"/><text fill="#000000" font-family="Segoe Print" font-size="14" lengthAdjust="spacing" textLength="20.2275" x="629" y="501.7529">Git</text><line style="stroke:#A52A2A;stroke-width:1.0;" x1="624" x2="717.7676" y1="507.0547" y2="507.0547"/><text fill="#000000" font-family="Segoe Print" font-size="14" lengthAdjust="spacing" textLength="83.7676" x="629" y="522.0498">Google Test</text><line style="stroke:#A52A2A;stroke-width:1.0;" x1="624" x2="717.7676" y1="527.3516" y2="527.3516"/><text fill="#000000" font-family="Segoe Print" font-size="14" lengthAdjust="spacing" textLength="62.2891" x="629" y="542.3467">Doxygen</text><line style="stroke:#A52A2A;stroke-width:1.0;" x1="624" x2="717.7676" y1="547.6484" y2="547.6484"/><text fill="#000000" font-family="Segoe Print" font-size="14" lengthAdjust="spacing" textLength="44.666" x="629" y="562.6436">Conan</text><line style="stroke:#A52A2A;stroke-width:1.0;" x1="624" x2="717.7676" y1="567.9453" y2="567.9453"/><text fill="#000000" font-family="Segoe Print" font-size="14" lengthAdjust="spacing" textLength="65.3994" x="629" y="582.9404">PlantUML</text><rect fill="none" height="101.4844" rx="5" ry="5" style="stroke:#A52A2A;stroke-width:1.5;" width="93.7676" x="624" y="486.7578"/><rect fill="#F8E4D0" height="81.1875" rx="5" ry="5" style="stroke:#F8E4D0;stroke-width:1.5;" width="106.3047" x="324" y="345.9063"/><text fill="#000000" font-family="Segoe Print" font-size="14" lengthAdjust="spacing" textLength="85.6201" x="329" y="360.9014">Animal Care</text><line style="stroke:#A52A2A;stroke-width:1.0;" x1="324" x2="430.3047" y1="366.2031" y2="366.2031"/><text fill="#000000" font-family="Segoe Print" font-size="14" lengthAdjust="spacing" textLength="96.3047" x="329" y="381.1982">Anime/Manga</text><line style="stroke:#A52A2A;stroke-width:1.0;" x1="324" x2="430.3047" y1="386.5" y2="386.5"/><text fill="#000000" font-family="Segoe Print" font-size="14" lengthAdjust="spacing" textLength="54.5781" x="329" y="401.4951">Finance</text><line style="stroke:#A52A2A;stroke-width:1.0;" x1="324" x2="430.3047" y1="406.7969" y2="406.7969"/><text fill="#000000" font-family="Segoe Print" font-size="14" lengthAdjust="spacing" textLength="57.4561" x="329" y="421.792">Reading</text><rect fill="none" height="81.1875" rx="5" ry="5" style="stroke:#A52A2A;stroke-width:1.5;" width="106.3047" x="324" y="345.9063"/><rect fill="#F8E4D0" height="60.8906" rx="5" ry="5" style="stroke:#F8E4D0;stroke-width:1.5;" width="329.5039" x="212" y="445"/><text fill="#000000" font-family="Segoe Print" font-size="14" font-weight="bold" lengthAdjust="spacing" textLength="67.6895" x="217" y="459.9951">LinkedIn</text><a href="https://www.linkedin.com/in/apai/" target="_top" title="https://www.linkedin.com/in/apai/" xlink:actuate="onRequest" xlink:href="https://www.linkedin.com/in/apai/" xlink:show="new" xlink:title="https://www.linkedin.com/in/apai/" xlink:type="simple"><text fill="#0000FF" font-family="Segoe Print" font-size="14" lengthAdjust="spacing" text-decoration="underline" textLength="235.2041" x="301.2998" y="459.9951">https://www.linkedin.com/in/apai/</text></a><line style="stroke:#A52A2A;stroke-width:1.0;" x1="296.2998" x2="296.2998" y1="445" y2="465.2969"/><line style="stroke:#A52A2A;stroke-width:1.0;" x1="212" x2="541.5039" y1="465.2969" y2="465.2969"/><text fill="#000000" font-family="Segoe Print" font-size="14" font-weight="bold" lengthAdjust="spacing" textLength="74.2998" x="217" y="480.292">Telegram</text><a href="https://t.me/haoshoku" target="_top" title="https://t.me/haoshoku" xlink:actuate="onRequest" xlink:href="https://t.me/haoshoku" xlink:show="new" xlink:title="https://t.me/haoshoku" xlink:type="simple"><text fill="#0000FF" font-family="Segoe Print" font-size="14" lengthAdjust="spacing" text-decoration="underline" textLength="154.8203" x="301.2998" y="480.292">https://t.me/haoshoku</text></a><line style="stroke:#A52A2A;stroke-width:1.0;" x1="296.2998" x2="296.2998" y1="465.2969" y2="485.5938"/><line style="stroke:#A52A2A;stroke-width:1.0;" x1="212" x2="541.5039" y1="485.5938" y2="485.5938"/><text fill="#000000" font-family="Segoe Print" font-size="14" font-weight="bold" lengthAdjust="spacing" textLength="52.9375" x="217" y="500.5889">Github</text><a href="https://github.com/dragondive" target="_top" title="https://github.com/dragondive" xlink:actuate="onRequest" xlink:href="https://github.com/dragondive" xlink:show="new" xlink:title="https://github.com/dragondive" xlink:type="simple"><text fill="#0000FF" font-family="Segoe Print" font-size="14" lengthAdjust="spacing" text-decoration="underline" textLength="213.3701" x="301.2998" y="500.5889">https://github.com/dragondive</text></a><line style="stroke:#A52A2A;stroke-width:1.0;" x1="296.2998" x2="296.2998" y1="485.5938" y2="505.8906"/><rect fill="none" height="60.8906" rx="5" ry="5" style="stroke:#A52A2A;stroke-width:1.5;" width="329.5039" x="212" y="445"/><path d="M448.5,59.5 L461.5,59.5 C502.0245,59.5 546.5531,54.0847 584.0579,47.9343 " fill="none" style="stroke:#A52A2A;stroke-width:1.0;stroke-dasharray:3.0,3.0;"/><path d="M584.5533,50.8959 L586.2791,47.5627 L583.5625,44.9726 L591.4619,46.6958 L584.5533,50.8959 " fill="#A52A2A" style="stroke:#A52A2A;stroke-width:1.0;"/><ellipse cx="448.5" cy="59.5" fill="#A52A2A" rx="3" ry="3" style="stroke:#A52A2A;stroke-width:1.0;"/><path d="M163,256.5 L176,256.5 C235.0961,256.5 171.705,171.728 212,128.5 C231.5604,107.5158 259.1117,93.9839 286.0828,85.2619 " fill="none" style="stroke:#A52A2A;stroke-width:1.0;stroke-dasharray:3.0,3.0;"/><path d="M286.9727,88.1461 L288.246,84.5945 L285.1928,82.3777 L293.2933,83.037 L286.9727,88.1461 " fill="#A52A2A" style="stroke:#A52A2A;stroke-width:1.0;"/><ellipse cx="163" cy="256.5" fill="#A52A2A" rx="3" ry="3" style="stroke:#A52A2A;stroke-width:1.0;"/><path d="M446.5,168.5 L459.5,168.5 C484.7489,168.5 539.4242,150.4253 586.7904,132.7777 " fill="none" style="stroke:#A52A2A;stroke-width:1.0;stroke-dasharray:3.0,3.0;"/><path d="M587.8751,135.6704 L588.9599,131.9641 L585.7056,129.8849 L594.0222,130.0657 L587.8751,135.6704 " fill="#A52A2A" style="stroke:#A52A2A;stroke-width:1.0;"/><ellipse cx="446.5" cy="168.5" fill="#A52A2A" rx="3" ry="3" style="stroke:#A52A2A;stroke-width:1.0;"/><path d="M446.5,188.5 L459.5,188.5 C514.6769,188.5 577.97,188.5 620.7268,188.5 " fill="none" style="stroke:#A52A2A;stroke-width:1.0;stroke-dasharray:3.0,3.0;"/><path d="M620.7268,191.5952 L623.0482,188.5 L620.7268,185.4048 L628.4648,188.5 L620.7268,191.5952 " fill="#A52A2A" style="stroke:#A52A2A;stroke-width:1.0;"/><ellipse cx="446.5" cy="188.5" fill="#A52A2A" rx="3" ry="3" style="stroke:#A52A2A;stroke-width:1.0;"/><path d="M163,277.5 L176,277.5 C194.3033,277.5 195.9506,266.2994 212,257.5 C245.2203,239.2862 282.3295,219.1876 312.8822,202.7057 " fill="none" style="stroke:#A52A2A;stroke-width:1.0;stroke-dasharray:3.0,3.0;"/><path d="M314.3523,205.4317 L314.9267,201.6031 L311.4121,199.9796 L319.6973,199.0305 L314.3523,205.4317 " fill="#A52A2A" style="stroke:#A52A2A;stroke-width:1.0;"/><ellipse cx="163" cy="277.5" fill="#A52A2A" rx="3" ry="3" style="stroke:#A52A2A;stroke-width:1.0;"/><path d="M424.5,277.5 L437.5,277.5 C481.579,277.5 530.3486,277.5 571.8293,277.5 " fill="none" style="stroke:#A52A2A;stroke-width:1.0;stroke-dasharray:3.0,3.0;"/><path d="M571.8293,280.5631 L574.1266,277.5 L571.8293,274.4369 L579.487,277.5 L571.8293,280.5631 " fill="#A52A2A" style="stroke:#A52A2A;stroke-width:1.0;"/><ellipse cx="424.5" cy="277.5" fill="#A52A2A" rx="3" ry="3" style="stroke:#A52A2A;stroke-width:1.0;"/><path d="M424.5,297.5 L437.5,297.5 C512.8113,297.5 591.5258,342.1631 635.4585,371.7922 " fill="none" style="stroke:#A52A2A;stroke-width:1.0;stroke-dasharray:3.0,3.0;"/><path d="M633.7563,374.2822 L637.3259,373.0688 L637.1606,369.3022 L641.6834,376.0475 L633.7563,374.2822 " fill="#A52A2A" style="stroke:#A52A2A;stroke-width:1.0;"/><ellipse cx="424.5" cy="297.5" fill="#A52A2A" rx="3" ry="3" style="stroke:#A52A2A;stroke-width:1.0;"/><path d="M424.5,317.5 L437.5,317.5 C485.1432,317.5 508.1238,304.0419 543,336.5 C590.3454,380.5627 541.4105,424.8679 579,477.5 C588.957,491.4416 603.2546,503.0068 617.5987,512.1397 " fill="none" style="stroke:#A52A2A;stroke-width:1.0;stroke-dasharray:3.0,3.0;"/><path d="M615.9888,514.771 L619.5722,513.3471 L619.2087,509.5083 L624.1771,516.1645 L615.9888,514.771 " fill="#A52A2A" style="stroke:#A52A2A;stroke-width:1.0;"/><ellipse cx="424.5" cy="317.5" fill="#A52A2A" rx="3" ry="3" style="stroke:#A52A2A;stroke-width:1.0;"/><path d="M163,297.5 L176,297.5 C220.7078,297.5 271.0233,297.5 310.066,297.5 " fill="none" style="stroke:#A52A2A;stroke-width:1.0;stroke-dasharray:3.0,3.0;"/><path d="M310.066,300.5613 L312.362,297.5 L310.066,294.4387 L317.7193,297.5 L310.066,300.5613 " fill="#A52A2A" style="stroke:#A52A2A;stroke-width:1.0;"/><ellipse cx="163" cy="297.5" fill="#A52A2A" rx="3" ry="3" style="stroke:#A52A2A;stroke-width:1.0;"/><path d="M163,317.5 L176,317.5 C194.3033,317.5 195.1294,330.401 212,337.5 C245.8192,351.7308 285.1607,363.6078 316.8888,372.1031 " fill="none" style="stroke:#A52A2A;stroke-width:1.0;stroke-dasharray:3.0,3.0;"/><path d="M316.0978,375.094 L319.132,372.6963 L317.6798,369.1122 L324.366,374.0805 L316.0978,375.094 " fill="#A52A2A" style="stroke:#A52A2A;stroke-width:1.0;"/><ellipse cx="163" cy="317.5" fill="#A52A2A" rx="3" ry="3" style="stroke:#A52A2A;stroke-width:1.0;"/><path d="M163,338.5 L176,338.5 C222.4014,338.5 177.2923,405.7029 212,436.5 C213.4888,437.821 215.0141,439.0994 216.573,440.3365 " fill="none" style="stroke:#A52A2A;stroke-width:1.0;stroke-dasharray:3.0,3.0;"/><path d="M214.745,442.8057 L218.4248,441.7074 L218.4009,437.8673 L222.7459,444.9063 L214.745,442.8057 " fill="#A52A2A" style="stroke:#A52A2A;stroke-width:1.0;"/><ellipse cx="163" cy="338.5" fill="#A52A2A" rx="3" ry="3" style="stroke:#A52A2A;stroke-width:1.0;"/><!--SRC=[RLHTRzem57tFhx3yrAhbgwDT5rLJWVI33bfMA7seU7399NWulf7jmD34Vv_jK4hO8e5ZttDFphdszRKsJ9bV6cLmfSrQmFV0JIBE4iLIyYSWzf4Om_RLFRSepIDBWGmXGI03nQNP1NjSGWS5Aj9Mk9AxzJQRBXA5kOoBwEmIcd7TXpU17vYo2NkV-H_J9jW4LxMjq09Akp58mysQTEKCQRZ7G9rAIlQN_F8jLzeG7mm9RIcsv3AcfsLGZ-rX1epJNNZpYQG3XTAQqWuqXzgSQ_jB2-mMHrzHBSWzrmRLkgmloXKp7ANBRZJ96fZIUpheJPe9N8FIz1yFtNRVPPtLwryhP_L6yr3-AyyK5eX6qo7E3n5jrDFv5d5UoHHeMyV_kummPToRVAFZth1BJwssgEM6Hrkyf31XPws8JahUXmikX2R3F4tPeVjd5E0voxhkcOfNJ04PW-8pFjsIbq53d1aFYc090hFKQJ_0jB9CRDCrkP69FK-MKIPqicUjnsIIiwGGGZid9yv6n_qDrcPUk1hVHpqtFh0bS-Fmfv_UZ_gz4jS8KHGyTzmun1rY8e2CGFjfXB_N2NZA3ahcNmQ2IVFYY4frwqe3TaTCGTUIF6M2TAnXNsKxXLhVAlToRhdbclh8Cx1upo5zaiAw9ZtSbg6y0RR35X1tfMiH-lOsDoRJOQssMgsgmeUuh4unhN5POndZjSba_t2EG82x90woJTLgcpFKSrpavGnRbNd-Ve1F_AB_JgnOWZBcIx1vktw_1Xdx2ohug1LPsfQmTaYZUbO_QrOlZeRCa8TSaFe5gNyB6ytmooLv6NM82ny7HtU37j6OgocGsFQXuk-vAyTnu7QKFEVs_aWX94yPo8VenyU2FJDBRllRdQtWOTp_15mqAsrkxFsdh18oxWSHp5WkZCsOejk0q7xzjd8PV9oka80CElQYC6eT4faByHS0]--></g></svg>