<?xml version="1.0" encoding="UTF-8" standalone="no"?><svg xmlns="http://www.w3.org/2000/svg" xmlns:xlink="http://www.w3.org/1999/xlink" contentScriptType="application/ecmascript" contentStyleType="text/css" height="844px" preserveAspectRatio="none" style="width:596px;height:844px;background:#FFFFFF;" version="1.1" viewBox="0 0 596 844" width="596px" zoomAndPan="magnify"><defs><filter height="300%" id="f1ok6wwehl2ql9" width="300%" x="-1" y="-1"><feGaussianBlur result="blurOut" stdDeviation="2.0"/><feColorMatrix in="blurOut" result="blurOut2" type="matrix" values="0 0 0 0 0 0 0 0 0 0 0 0 0 0 0 0 0 0 .4 0"/><feOffset dx="4.0" dy="4.0" in="blurOut2" result="blurOut3"/><feBlend in="SourceGraphic" in2="blurOut3" mode="normal"/></filter></defs><g><text fill="#000000" font-family="sans-serif" font-size="18" font-weight="bold" lengthAdjust="spacing" textLength="223" x="183" y="30.6855">Sequence Diagram Demo</text><text fill="#000000" font-family="sans-serif" font-size="18" lengthAdjust="spacing" textLength="0" x="297" y="53.3262"/><text fill="#000000" font-family="sans-serif" font-size="18" lengthAdjust="spacing" textLength="0" x="297" y="75.9668"/><rect fill="#90EE90" height="750.8125" style="stroke:#A80036;stroke-width:1.0;" width="233" x="355" y="87.9219"/><text fill="#000000" font-family="sans-serif" font-size="13" font-weight="bold" lengthAdjust="spacing" textLength="172" x="383.5" y="101.417">Development Infrastructure</text><rect fill="#00FA9A" filter="url(#f1ok6wwehl2ql9)" height="157.5938" style="stroke:#000000;stroke-width:2.0;" width="261" x="108" y="548.5313"/><rect fill="#FFA07A" height="108.8906" style="stroke:none;stroke-width:1.0;" width="261" x="108" y="597.2344"/><rect fill="#FAEBD7" filter="url(#f1ok6wwehl2ql9)" height="79.0547" style="stroke:#000000;stroke-width:2.0;" width="241" x="118" y="620.0703"/><line style="stroke:#A80036;stroke-width:1.0;" x1="163" x2="163" y1="171.8828" y2="181.8828"/><line style="stroke:#A80036;stroke-width:1.0;stroke-dasharray:1.0,4.0;" x1="163" x2="163" y1="181.8828" y2="209.8828"/><line style="stroke:#A80036;stroke-width:1.0;" x1="163" x2="163" y1="209.8828" y2="327.9375"/><line style="stroke:#A80036;stroke-width:1.0;stroke-dasharray:1.0,4.0;" x1="163" x2="163" y1="327.9375" y2="369.7734"/><line style="stroke:#A80036;stroke-width:1.0;" x1="163" x2="163" y1="369.7734" y2="713.125"/><line style="stroke:#A80036;stroke-width:1.0;stroke-dasharray:1.0,4.0;" x1="163" x2="163" y1="713.125" y2="741.125"/><line style="stroke:#A80036;stroke-width:1.0;" x1="163" x2="163" y1="741.125" y2="751.125"/><line style="stroke:#A80036;stroke-width:1.0;" x1="313" x2="313" y1="171.8828" y2="181.8828"/><line style="stroke:#A80036;stroke-width:1.0;stroke-dasharray:1.0,4.0;" x1="313" x2="313" y1="181.8828" y2="209.8828"/><line style="stroke:#A80036;stroke-width:1.0;" x1="313" x2="313" y1="209.8828" y2="327.9375"/><line style="stroke:#A80036;stroke-width:1.0;stroke-dasharray:1.0,4.0;" x1="313" x2="313" y1="327.9375" y2="369.7734"/><line style="stroke:#A80036;stroke-width:1.0;" x1="313" x2="313" y1="369.7734" y2="713.125"/><line style="stroke:#A80036;stroke-width:1.0;stroke-dasharray:1.0,4.0;" x1="313" x2="313" y1="713.125" y2="741.125"/><line style="stroke:#A80036;stroke-width:1.0;" x1="313" x2="313" y1="741.125" y2="751.125"/><line style="stroke:#A80036;stroke-width:1.0;" x1="389" x2="389" y1="171.8828" y2="181.8828"/><line style="stroke:#A80036;stroke-width:1.0;stroke-dasharray:1.0,4.0;" x1="389" x2="389" y1="181.8828" y2="209.8828"/><line style="stroke:#A80036;stroke-width:1.0;" x1="389" x2="389" y1="209.8828" y2="327.9375"/><line style="stroke:#A80036;stroke-width:1.0;stroke-dasharray:1.0,4.0;" x1="389" x2="389" y1="327.9375" y2="369.7734"/><line style="stroke:#A80036;stroke-width:1.0;" x1="389" x2="389" y1="369.7734" y2="713.125"/><line style="stroke:#A80036;stroke-width:1.0;stroke-dasharray:1.0,4.0;" x1="389" x2="389" y1="713.125" y2="741.125"/><line style="stroke:#A80036;stroke-width:1.0;" x1="389" x2="389" y1="741.125" y2="751.125"/><line style="stroke:#A80036;stroke-width:1.0;" x1="464" x2="464" y1="171.8828" y2="181.8828"/><line style="stroke:#A80036;stroke-width:1.0;stroke-dasharray:1.0,4.0;" x1="464" x2="464" y1="181.8828" y2="209.8828"/><line style="stroke:#A80036;stroke-width:1.0;" x1="464" x2="464" y1="209.8828" y2="327.9375"/><line style="stroke:#A80036;stroke-width:1.0;stroke-dasharray:1.0,4.0;" x1="464" x2="464" y1="327.9375" y2="369.7734"/><line style="stroke:#A80036;stroke-width:1.0;" x1="464" x2="464" y1="369.7734" y2="713.125"/><line style="stroke:#A80036;stroke-width:1.0;stroke-dasharray:1.0,4.0;" x1="464" x2="464" y1="713.125" y2="741.125"/><line style="stroke:#A80036;stroke-width:1.0;" x1="464" x2="464" y1="741.125" y2="751.125"/><line style="stroke:#A80036;stroke-width:1.0;" x1="547" x2="547" y1="171.8828" y2="181.8828"/><line style="stroke:#A80036;stroke-width:1.0;stroke-dasharray:1.0,4.0;" x1="547" x2="547" y1="181.8828" y2="209.8828"/><line style="stroke:#A80036;stroke-width:1.0;" x1="547" x2="547" y1="209.8828" y2="327.9375"/><line style="stroke:#A80036;stroke-width:1.0;stroke-dasharray:1.0,4.0;" x1="547" x2="547" y1="327.9375" y2="369.7734"/><line style="stroke:#A80036;stroke-width:1.0;" x1="547" x2="547" y1="369.7734" y2="713.125"/><line style="stroke:#A80036;stroke-width:1.0;stroke-dasharray:1.0,4.0;" x1="547" x2="547" y1="713.125" y2="741.125"/><line style="stroke:#A80036;stroke-width:1.0;" x1="547" x2="547" y1="741.125" y2="751.125"/><text fill="#000000" font-family="sans-serif" font-size="14" lengthAdjust="spacing" textLength="65" x="128" y="168.8066">Developer</text><ellipse cx="163.5" cy="97.2734" fill="#FF6347" filter="url(#f1ok6wwehl2ql9)" rx="8" ry="8" style="stroke:#A80036;stroke-width:2.0;"/><path d="M163.5,105.2734 L163.5,132.2734 M150.5,113.2734 L176.5,113.2734 M163.5,132.2734 L150.5,147.2734 M163.5,132.2734 L176.5,147.2734 " fill="none" filter="url(#f1ok6wwehl2ql9)" style="stroke:#A80036;stroke-width:2.0;"/><text fill="#000000" font-family="sans-serif" font-size="14" lengthAdjust="spacing" textLength="65" x="128" y="764.6582">Developer</text><ellipse cx="163.5" cy="777.7344" fill="#FF6347" filter="url(#f1ok6wwehl2ql9)" rx="8" ry="8" style="stroke:#A80036;stroke-width:2.0;"/><path d="M163.5,785.7344 L163.5,812.7344 M150.5,793.7344 L176.5,793.7344 M163.5,812.7344 L150.5,827.7344 M163.5,812.7344 L176.5,827.7344 " fill="none" filter="url(#f1ok6wwehl2ql9)" style="stroke:#A80036;stroke-width:2.0;"/><text fill="#000000" font-family="sans-serif" font-size="14" lengthAdjust="spacing" textLength="65" x="278" y="168.8066">Reviewers</text><ellipse cx="313.5" cy="97.2734" fill="#FEFECE" filter="url(#f1ok6wwehl2ql9)" rx="8" ry="8" style="stroke:#A80036;stroke-width:2.0;"/><path d="M313.5,105.2734 L313.5,132.2734 M300.5,113.2734 L326.5,113.2734 M313.5,132.2734 L300.5,147.2734 M313.5,132.2734 L326.5,147.2734 " fill="none" filter="url(#f1ok6wwehl2ql9)" style="stroke:#A80036;stroke-width:2.0;"/><text fill="#000000" font-family="sans-serif" font-size="14" lengthAdjust="spacing" textLength="65" x="278" y="764.6582">Reviewers</text><ellipse cx="313.5" cy="777.7344" fill="#FEFECE" filter="url(#f1ok6wwehl2ql9)" rx="8" ry="8" style="stroke:#A80036;stroke-width:2.0;"/><path d="M313.5,785.7344 L313.5,812.7344 M300.5,793.7344 L326.5,793.7344 M313.5,812.7344 L300.5,827.7344 M313.5,812.7344 L326.5,827.7344 " fill="none" filter="url(#f1ok6wwehl2ql9)" style="stroke:#A80036;stroke-width:2.0;"/><rect fill="#F0FFFF" filter="url(#f1ok6wwehl2ql9)" height="49.2188" style="stroke:#A80036;stroke-width:1.5;" width="56" x="359" y="117.6641"/><text fill="#000000" font-family="sans-serif" font-size="14" lengthAdjust="spacing" textLength="31" x="371.5" y="139.1973">Build</text><text fill="#000000" font-family="sans-serif" font-size="14" lengthAdjust="spacing" textLength="42" x="366" y="156.8066">Server</text><rect fill="#F0FFFF" filter="url(#f1ok6wwehl2ql9)" height="49.2188" style="stroke:#A80036;stroke-width:1.5;" width="56" x="359" y="750.125"/><text fill="#000000" font-family="sans-serif" font-size="14" lengthAdjust="spacing" textLength="31" x="371.5" y="771.6582">Build</text><text fill="#000000" font-family="sans-serif" font-size="14" lengthAdjust="spacing" textLength="42" x="366" y="789.2676">Server</text><rect fill="#B0E0E6" filter="url(#f1ok6wwehl2ql9)" height="31.6094" style="stroke:#A80036;stroke-width:1.5;" width="63" x="433" y="131.2734"/><rect fill="#B0E0E6" filter="url(#f1ok6wwehl2ql9)" height="31.6094" style="stroke:#A80036;stroke-width:1.5;" width="63" x="429" y="135.2734"/><a href="https://github.com/dragondive/hebi/issues" target="_top" title="https://github.com/dragondive/hebi/issues" xlink:actuate="onRequest" xlink:href="https://github.com/dragondive/hebi/issues" xlink:show="new" xlink:title="https://github.com/dragondive/hebi/issues" xlink:type="simple"><text fill="#0000FF" font-family="sans-serif" font-size="14" lengthAdjust="spacing" text-decoration="underline" textLength="49" x="436" y="156.8066">Tracker</text></a><rect fill="#B0E0E6" filter="url(#f1ok6wwehl2ql9)" height="31.6094" style="stroke:#A80036;stroke-width:1.5;" width="63" x="433" y="750.125"/><rect fill="#B0E0E6" filter="url(#f1ok6wwehl2ql9)" height="31.6094" style="stroke:#A80036;stroke-width:1.5;" width="63" x="429" y="754.125"/><a href="https://github.com/dragondive/hebi/issues" target="_top" title="https://github.com/dragondive/hebi/issues" xlink:actuate="onRequest" xlink:href="https://github.com/dragondive/hebi/issues" xlink:show="new" xlink:title="https://github.com/dragondive/hebi/issues" xlink:type="simple"><text fill="#0000FF" font-family="sans-serif" font-size="14" lengthAdjust="spacing" text-decoration="underline" textLength="49" x="436" y="775.6582">Tracker</text></a><a href="https://github.com/dragondive/hebi" target="_top" title="https://github.com/dragondive/hebi" xlink:actuate="onRequest" xlink:href="https://github.com/dragondive/hebi" xlink:show="new" xlink:title="https://github.com/dragondive/hebi" xlink:type="simple"><text fill="#0000FF" font-family="sans-serif" font-size="14" lengthAdjust="spacing" text-decoration="underline" textLength="68" x="510" y="168.8066">Repository</text></a><path d="M529,118.2734 C529,108.2734 547,108.2734 547,108.2734 C547,108.2734 565,108.2734 565,118.2734 L565,144.2734 C565,154.2734 547,154.2734 547,154.2734 C547,154.2734 529,154.2734 529,144.2734 L529,118.2734 " fill="#DDA0DD" filter="url(#f1ok6wwehl2ql9)" style="stroke:#000000;stroke-width:1.5;"/><path d="M529,118.2734 C529,128.2734 547,128.2734 547,128.2734 C547,128.2734 565,128.2734 565,118.2734 " fill="none" style="stroke:#000000;stroke-width:1.5;"/><a href="https://github.com/dragondive/hebi" target="_top" title="https://github.com/dragondive/hebi" xlink:actuate="onRequest" xlink:href="https://github.com/dragondive/hebi" xlink:show="new" xlink:title="https://github.com/dragondive/hebi" xlink:type="simple"><text fill="#0000FF" font-family="sans-serif" font-size="14" lengthAdjust="spacing" text-decoration="underline" textLength="68" x="510" y="764.6582">Repository</text></a><path d="M529,777.7344 C529,767.7344 547,767.7344 547,767.7344 C547,767.7344 565,767.7344 565,777.7344 L565,803.7344 C565,813.7344 547,813.7344 547,813.7344 C547,813.7344 529,813.7344 529,803.7344 L529,777.7344 " fill="#DDA0DD" filter="url(#f1ok6wwehl2ql9)" style="stroke:#000000;stroke-width:1.5;"/><path d="M529,777.7344 C529,787.7344 547,787.7344 547,787.7344 C547,787.7344 565,787.7344 565,777.7344 " fill="none" style="stroke:#000000;stroke-width:1.5;"/><rect fill="#EEEEEE" filter="url(#f1ok6wwehl2ql9)" height="3" style="stroke:#EEEEEE;stroke-width:1.0;" width="589" x="0" y="231.0586"/><line style="stroke:#000000;stroke-width:1.0;" x1="0" x2="589" y1="231.0586" y2="231.0586"/><line style="stroke:#000000;stroke-width:1.0;" x1="0" x2="589" y1="234.0586" y2="234.0586"/><rect fill="#EEEEEE" filter="url(#f1ok6wwehl2ql9)" height="24.3516" style="stroke:#000000;stroke-width:2.0;" width="102" x="243.5" y="219.8828"/><text fill="#000000" font-family="sans-serif" font-size="13" font-weight="bold" lengthAdjust="spacing" textLength="84" x="249.5" y="237.3779">Development</text><polygon fill="#404032" points="452.5,272.5859,462.5,276.5859,452.5,280.5859,456.5,276.5859" style="stroke:#404032;stroke-width:1.0;"/><line style="stroke:#404032;stroke-width:1.0;" x1="163.5" x2="458.5" y1="276.5859" y2="276.5859"/><text fill="#000000" font-family="sans-serif" font-size="13" font-weight="bold" lengthAdjust="spacing" textLength="7" x="170.5" y="271.7295">2</text><text fill="#000000" font-family="sans-serif" font-size="13" lengthAdjust="spacing" textLength="112" x="181.5" y="271.7295">assign issue to self</text><line style="stroke:#A80036;stroke-width:1.0;" x1="163.5" x2="205.5" y1="306.9375" y2="306.9375"/><line style="stroke:#A80036;stroke-width:1.0;" x1="205.5" x2="205.5" y1="306.9375" y2="319.9375"/><line style="stroke:#A80036;stroke-width:1.0;" x1="164.5" x2="205.5" y1="319.9375" y2="319.9375"/><polygon fill="#A80036" points="174.5,315.9375,164.5,319.9375,174.5,323.9375,170.5,319.9375" style="stroke:#A80036;stroke-width:1.0;"/><text fill="#000000" font-family="sans-serif" font-size="13" font-weight="bold" lengthAdjust="spacing" textLength="7" x="170.5" y="302.0811">3</text><text fill="#000000" font-family="sans-serif" font-size="13" lengthAdjust="spacing" textLength="125" x="181.5" y="302.0811">work towards solution</text><text fill="#000000" font-family="sans-serif" font-size="11" lengthAdjust="spacing" textLength="77" x="316.75" y="353.3564">some days later</text><polygon fill="#A80036" points="377,393.125,387,397.125,377,401.125,381,397.125" style="stroke:#A80036;stroke-width:1.0;"/><line style="stroke:#A80036;stroke-width:1.0;" x1="163.5" x2="383" y1="397.125" y2="397.125"/><text fill="#000000" font-family="sans-serif" font-size="13" font-weight="bold" lengthAdjust="spacing" textLength="7" x="170.5" y="392.2686">4</text><text fill="#000000" font-family="sans-serif" font-size="13" lengthAdjust="spacing" textLength="91" x="181.5" y="392.2686">submit build job</text><path d="M5,374.7734 L5,400.7734 L155,400.7734 L155,384.7734 L145,374.7734 L5,374.7734 " fill="#FFDAB9" filter="url(#f1ok6wwehl2ql9)" style="stroke:#A80036;stroke-width:1.0;"/><path d="M145,374.7734 L145,384.7734 L155,384.7734 L145,374.7734 " fill="#FFDAB9" style="stroke:#A80036;stroke-width:1.0;"/><text fill="#000000" font-family="sans-serif" font-size="13" lengthAdjust="spacing" textLength="129" x="11" y="393.2686">when solution is ready</text><polygon fill="#A80036" points="174.5,441.6523,164.5,445.6523,174.5,449.6523,170.5,445.6523" style="stroke:#A80036;stroke-width:1.0;"/><line style="stroke:#A80036;stroke-width:1.0;stroke-dasharray:2.0,2.0;" x1="168.5" x2="388" y1="445.6523" y2="445.6523"/><text fill="#000000" font-family="sans-serif" font-size="13" font-weight="bold" lengthAdjust="spacing" textLength="7" x="180.5" y="440.7959">5</text><text fill="#000000" font-family="sans-serif" font-size="13" lengthAdjust="spacing" textLength="93" x="191.5" y="440.7959">build successful</text><path d="M394,415.125 L394,457.125 L559,457.125 L559,425.125 L549,415.125 L394,415.125 " fill="#FBFB77" filter="url(#f1ok6wwehl2ql9)" style="stroke:#A80036;stroke-width:1.0;"/><path d="M549,415.125 L549,425.125 L559,425.125 L549,415.125 " fill="#FBFB77" style="stroke:#A80036;stroke-width:1.0;"/><text fill="#000000" font-family="sans-serif" font-size="13" lengthAdjust="spacing" textLength="127" x="400" y="433.6201">dotted arrows indicate</text><text fill="#000000" font-family="sans-serif" font-size="13" lengthAdjust="spacing" textLength="144" x="400" y="449.9717">computer-triggered steps</text><rect fill="#EEEEEE" filter="url(#f1ok6wwehl2ql9)" height="3" style="stroke:#EEEEEE;stroke-width:1.0;" width="589" x="0" y="488.0039"/><line style="stroke:#000000;stroke-width:1.0;" x1="0" x2="589" y1="488.0039" y2="488.0039"/><line style="stroke:#000000;stroke-width:1.0;" x1="0" x2="589" y1="491.0039" y2="491.0039"/><rect fill="#EEEEEE" filter="url(#f1ok6wwehl2ql9)" height="24.3516" style="stroke:#000000;stroke-width:2.0;" width="65" x="262" y="476.8281"/><text fill="#000000" font-family="sans-serif" font-size="13" font-weight="bold" lengthAdjust="spacing" textLength="47" x="268" y="494.3232">Review</text><polygon fill="#A80036" points="301.5,529.5313,311.5,533.5313,301.5,537.5313,305.5,533.5313" style="stroke:#A80036;stroke-width:1.0;"/><line style="stroke:#A80036;stroke-width:1.0;" x1="163.5" x2="307.5" y1="533.5313" y2="533.5313"/><text fill="#000000" font-family="sans-serif" font-size="13" font-weight="bold" lengthAdjust="spacing" textLength="7" x="170.5" y="528.6748">6</text><a href="https://github.com/dragondive/hebi/compare" target="_top" title="https://github.com/dragondive/hebi/compare" xlink:actuate="onRequest" xlink:href="https://github.com/dragondive/hebi/compare" xlink:show="new" xlink:title="https://github.com/dragondive/hebi/compare" xlink:type="simple"><text fill="#0000FF" font-family="sans-serif" font-size="13" lengthAdjust="spacing" text-decoration="underline" textLength="110" x="181.5" y="528.6748">submit pull request</text></a><path d="M108,548.5313 L169,548.5313 L169,556.5313 L159,566.5313 L108,566.5313 L108,548.5313 " fill="#EEEEEE" style="stroke:#000000;stroke-width:1.0;"/><rect fill="none" height="157.5938" style="stroke:#000000;stroke-width:2.0;" width="261" x="108" y="548.5313"/><text fill="#000000" font-family="sans-serif" font-size="13" font-weight="bold" lengthAdjust="spacing" textLength="16" x="123" y="563.0264">alt</text><text fill="#000000" font-family="sans-serif" font-size="11" font-weight="bold" lengthAdjust="spacing" textLength="60" x="184" y="561.9502">[approved]</text><polygon fill="#A80036" points="174.5,585.2344,164.5,589.2344,174.5,593.2344,170.5,589.2344" style="stroke:#A80036;stroke-width:1.0;"/><line style="stroke:#A80036;stroke-width:1.0;" x1="168.5" x2="312.5" y1="589.2344" y2="589.2344"/><text fill="#000000" font-family="sans-serif" font-size="13" font-weight="bold" lengthAdjust="spacing" textLength="7" x="180.5" y="584.3779">7</text><text fill="#000000" font-family="sans-serif" font-size="13" lengthAdjust="spacing" textLength="97" x="191.5" y="584.3779">approve changes</text><line style="stroke:#000000;stroke-width:1.0;stroke-dasharray:2.0,2.0;" x1="108" x2="369" y1="598.2344" y2="598.2344"/><text fill="#000000" font-family="sans-serif" font-size="11" font-weight="bold" lengthAdjust="spacing" textLength="54" x="113" y="609.6533">[rejected]</text><path d="M118,620.0703 L191,620.0703 L191,628.0703 L181,638.0703 L118,638.0703 L118,620.0703 " fill="#EEEEEE" style="stroke:#000000;stroke-width:1.0;"/><rect fill="none" height="79.0547" style="stroke:#000000;stroke-width:2.0;" width="241" x="118" y="620.0703"/><text fill="#000000" font-family="sans-serif" font-size="13" font-weight="bold" lengthAdjust="spacing" textLength="28" x="133" y="634.5654">loop</text><polygon fill="#A80036" points="174.5,656.7734,164.5,660.7734,174.5,664.7734,170.5,660.7734" style="stroke:#A80036;stroke-width:1.0;"/><line style="stroke:#A80036;stroke-width:1.0;" x1="168.5" x2="312.5" y1="660.7734" y2="660.7734"/><text fill="#000000" font-family="sans-serif" font-size="13" font-weight="bold" lengthAdjust="spacing" textLength="7" x="180.5" y="655.917">8</text><text fill="#000000" font-family="sans-serif" font-size="13" lengthAdjust="spacing" textLength="100" x="191.5" y="655.917">review comments</text><polygon fill="#A80036" points="301.5,687.125,311.5,691.125,301.5,695.125,305.5,691.125" style="stroke:#A80036;stroke-width:1.0;"/><line style="stroke:#A80036;stroke-width:1.0;" x1="163.5" x2="307.5" y1="691.125" y2="691.125"/><text fill="#000000" font-family="sans-serif" font-size="13" font-weight="bold" lengthAdjust="spacing" textLength="7" x="170.5" y="686.2686">9</text><text fill="#000000" font-family="sans-serif" font-size="13" lengthAdjust="spacing" textLength="92" x="181.5" y="686.2686">submit changes</text><!--MD5=[7e7cb6b7648abc9fc872bb7c32b6a573]
@startuml
title **Sequence Diagram Demo**\n\n

actor Developer as Dev  #Tomato
actor Reviewers

box Development Infrastructure #LightGreen
    participant "Build\nServer" as Build #Azure
    collections "[[https://github.com/dragondive/hebi/issues Tracker]]" as Tracker #PowderBlue
    database "[[https://github.com/dragondive/hebi Repository]]" as Repository #Plum
end box

autonumber 2
...
== Development ==
Dev -[#404032]> Tracker : assign issue to self
Dev -> Dev : work towards solution

... some days later ...
Dev -> Build : submit build job
note left #PeachPuff : when solution is ready
Build - -> Dev : build successful
note right: dotted arrows indicate\ncomputer-triggered steps

== Review ==
Dev ->  Reviewers : [[https://github.com/dragondive/hebi/compare submit pull request]]
alt #MediumSpringGreen approved
    Reviewers -> Dev : approve changes
else #LightSalmon rejected
    loop #AntiqueWhite
        Dev <- Reviewers : review comments
        Dev -> Reviewers : submit changes
    end loop
end alt
...

@enduml

PlantUML version 1.2021.9(Sun Jul 25 15:43:56 IST 2021)
(GPL source distribution)
Java Runtime: Java(TM) SE Runtime Environment
JVM: Java HotSpot(TM) 64-Bit Server VM
Default Encoding: Cp1252
Language: en
Country: IN
--></g></svg>