<?xml version="1.0" encoding="UTF-8" standalone="no"?><svg xmlns="http://www.w3.org/2000/svg" xmlns:xlink="http://www.w3.org/1999/xlink" contentScriptType="application/ecmascript" contentStyleType="text/css" height="1051px" preserveAspectRatio="none" style="width:746px;height:1051px;background:#FFFFFF;" version="1.1" viewBox="0 0 746 1051" width="746px" zoomAndPan="magnify"><defs><filter height="300%" id="fzty5im1uyi52" width="300%" x="-1" y="-1"><feGaussianBlur result="blurOut" stdDeviation="2.0"/><feColorMatrix in="blurOut" result="blurOut2" type="matrix" values="0 0 0 0 0 0 0 0 0 0 0 0 0 0 0 0 0 0 .4 0"/><feOffset dx="4.0" dy="4.0" in="blurOut2" result="blurOut3"/><feBlend in="SourceGraphic" in2="blurOut3" mode="normal"/></filter></defs><g><text fill="#000000" font-family="sans-serif" font-size="18" font-weight="bold" lengthAdjust="spacing" textLength="223" x="258.25" y="30.6855">Sequence Diagram Demo</text><text fill="#000000" font-family="sans-serif" font-size="18" lengthAdjust="spacing" textLength="0" x="372.25" y="53.3262"/><text fill="#000000" font-family="sans-serif" font-size="18" lengthAdjust="spacing" textLength="0" x="372.25" y="75.9668"/><rect fill="#DDDDDD" height="957.625" style="stroke:#A80036;stroke-width:1.0;" width="258.5" x="355" y="87.9219"/><text fill="#000000" font-family="sans-serif" font-size="13" font-weight="bold" lengthAdjust="spacing" textLength="172" x="398.25" y="101.417">Development Infrastructure</text><rect fill="#FFFFFF" filter="url(#fzty5im1uyi52)" height="157.5938" style="stroke:#000000;stroke-width:2.0;" width="261" x="108" y="595.2344"/><rect fill="#FFFFFF" height="108.8906" style="stroke:none;stroke-width:1.0;" width="261" x="108" y="643.9375"/><rect fill="#FFFFFF" filter="url(#fzty5im1uyi52)" height="79.0547" style="stroke:#000000;stroke-width:2.0;" width="241" x="118" y="666.7734"/><line style="stroke:#A80036;stroke-width:1.0;" x1="163" x2="163" y1="171.8828" y2="374.6406"/><line style="stroke:#A80036;stroke-width:1.0;stroke-dasharray:1.0,4.0;" x1="163" x2="163" y1="374.6406" y2="416.4766"/><line style="stroke:#A80036;stroke-width:1.0;" x1="163" x2="163" y1="416.4766" y2="957.9375"/><line style="stroke:#A80036;stroke-width:1.0;" x1="313" x2="313" y1="171.8828" y2="374.6406"/><line style="stroke:#A80036;stroke-width:1.0;stroke-dasharray:1.0,4.0;" x1="313" x2="313" y1="374.6406" y2="416.4766"/><line style="stroke:#A80036;stroke-width:1.0;" x1="313" x2="313" y1="416.4766" y2="957.9375"/><line style="stroke:#A80036;stroke-width:1.0;" x1="389" x2="389" y1="171.8828" y2="374.6406"/><line style="stroke:#A80036;stroke-width:1.0;stroke-dasharray:1.0,4.0;" x1="389" x2="389" y1="374.6406" y2="416.4766"/><line style="stroke:#A80036;stroke-width:1.0;" x1="389" x2="389" y1="416.4766" y2="957.9375"/><line style="stroke:#A80036;stroke-width:1.0;" x1="464" x2="464" y1="171.8828" y2="374.6406"/><line style="stroke:#A80036;stroke-width:1.0;stroke-dasharray:1.0,4.0;" x1="464" x2="464" y1="374.6406" y2="416.4766"/><line style="stroke:#A80036;stroke-width:1.0;" x1="464" x2="464" y1="416.4766" y2="957.9375"/><line style="stroke:#A80036;stroke-width:1.0;" x1="572.5" x2="572.5" y1="171.8828" y2="374.6406"/><line style="stroke:#A80036;stroke-width:1.0;stroke-dasharray:1.0,4.0;" x1="572.5" x2="572.5" y1="374.6406" y2="416.4766"/><line style="stroke:#A80036;stroke-width:1.0;" x1="572.5" x2="572.5" y1="416.4766" y2="957.9375"/><text fill="#000000" font-family="sans-serif" font-size="14" lengthAdjust="spacing" textLength="65" x="128" y="168.8066">Developer</text><ellipse cx="163.5" cy="97.2734" fill="#FEFECE" filter="url(#fzty5im1uyi52)" rx="8" ry="8" style="stroke:#A80036;stroke-width:2.0;"/><path d="M163.5,105.2734 L163.5,132.2734 M150.5,113.2734 L176.5,113.2734 M163.5,132.2734 L150.5,147.2734 M163.5,132.2734 L176.5,147.2734 " fill="none" filter="url(#fzty5im1uyi52)" style="stroke:#A80036;stroke-width:2.0;"/><text fill="#000000" font-family="sans-serif" font-size="14" lengthAdjust="spacing" textLength="65" x="128" y="971.4707">Developer</text><ellipse cx="163.5" cy="984.5469" fill="#FEFECE" filter="url(#fzty5im1uyi52)" rx="8" ry="8" style="stroke:#A80036;stroke-width:2.0;"/><path d="M163.5,992.5469 L163.5,1019.5469 M150.5,1000.5469 L176.5,1000.5469 M163.5,1019.5469 L150.5,1034.5469 M163.5,1019.5469 L176.5,1034.5469 " fill="none" filter="url(#fzty5im1uyi52)" style="stroke:#A80036;stroke-width:2.0;"/><text fill="#000000" font-family="sans-serif" font-size="14" lengthAdjust="spacing" textLength="65" x="278" y="168.8066">Reviewers</text><ellipse cx="313.5" cy="97.2734" fill="#FEFECE" filter="url(#fzty5im1uyi52)" rx="8" ry="8" style="stroke:#A80036;stroke-width:2.0;"/><path d="M313.5,105.2734 L313.5,132.2734 M300.5,113.2734 L326.5,113.2734 M313.5,132.2734 L300.5,147.2734 M313.5,132.2734 L326.5,147.2734 " fill="none" filter="url(#fzty5im1uyi52)" style="stroke:#A80036;stroke-width:2.0;"/><text fill="#000000" font-family="sans-serif" font-size="14" lengthAdjust="spacing" textLength="65" x="278" y="971.4707">Reviewers</text><ellipse cx="313.5" cy="984.5469" fill="#FEFECE" filter="url(#fzty5im1uyi52)" rx="8" ry="8" style="stroke:#A80036;stroke-width:2.0;"/><path d="M313.5,992.5469 L313.5,1019.5469 M300.5,1000.5469 L326.5,1000.5469 M313.5,1019.5469 L300.5,1034.5469 M313.5,1019.5469 L326.5,1034.5469 " fill="none" filter="url(#fzty5im1uyi52)" style="stroke:#A80036;stroke-width:2.0;"/><rect fill="#FEFECE" filter="url(#fzty5im1uyi52)" height="49.2188" style="stroke:#A80036;stroke-width:1.5;" width="56" x="359" y="117.6641"/><text fill="#000000" font-family="sans-serif" font-size="14" lengthAdjust="spacing" textLength="31" x="371.5" y="139.1973">Build</text><text fill="#000000" font-family="sans-serif" font-size="14" lengthAdjust="spacing" textLength="42" x="366" y="156.8066">Server</text><rect fill="#FEFECE" filter="url(#fzty5im1uyi52)" height="49.2188" style="stroke:#A80036;stroke-width:1.5;" width="56" x="359" y="956.9375"/><text fill="#000000" font-family="sans-serif" font-size="14" lengthAdjust="spacing" textLength="31" x="371.5" y="978.4707">Build</text><text fill="#000000" font-family="sans-serif" font-size="14" lengthAdjust="spacing" textLength="42" x="366" y="996.0801">Server</text><rect fill="#FEFECE" filter="url(#fzty5im1uyi52)" height="31.6094" style="stroke:#A80036;stroke-width:1.5;" width="63" x="433" y="131.2734"/><rect fill="#FEFECE" filter="url(#fzty5im1uyi52)" height="31.6094" style="stroke:#A80036;stroke-width:1.5;" width="63" x="429" y="135.2734"/><a href="https://github.com/dragondive/hebi/issues" target="_top" title="https://github.com/dragondive/hebi/issues" xlink:actuate="onRequest" xlink:href="https://github.com/dragondive/hebi/issues" xlink:show="new" xlink:title="https://github.com/dragondive/hebi/issues" xlink:type="simple"><text fill="#0000FF" font-family="sans-serif" font-size="14" lengthAdjust="spacing" text-decoration="underline" textLength="49" x="436" y="156.8066">Tracker</text></a><rect fill="#FEFECE" filter="url(#fzty5im1uyi52)" height="31.6094" style="stroke:#A80036;stroke-width:1.5;" width="63" x="433" y="956.9375"/><rect fill="#FEFECE" filter="url(#fzty5im1uyi52)" height="31.6094" style="stroke:#A80036;stroke-width:1.5;" width="63" x="429" y="960.9375"/><a href="https://github.com/dragondive/hebi/issues" target="_top" title="https://github.com/dragondive/hebi/issues" xlink:actuate="onRequest" xlink:href="https://github.com/dragondive/hebi/issues" xlink:show="new" xlink:title="https://github.com/dragondive/hebi/issues" xlink:type="simple"><text fill="#0000FF" font-family="sans-serif" font-size="14" lengthAdjust="spacing" text-decoration="underline" textLength="49" x="436" y="982.4707">Tracker</text></a><a href="https://github.com/dragondive/hebi" target="_top" title="https://github.com/dragondive/hebi" xlink:actuate="onRequest" xlink:href="https://github.com/dragondive/hebi" xlink:show="new" xlink:title="https://github.com/dragondive/hebi" xlink:type="simple"><text fill="#0000FF" font-family="sans-serif" font-size="14" lengthAdjust="spacing" text-decoration="underline" textLength="68" x="535.5" y="168.8066">Repository</text></a><path d="M554.5,118.2734 C554.5,108.2734 572.5,108.2734 572.5,108.2734 C572.5,108.2734 590.5,108.2734 590.5,118.2734 L590.5,144.2734 C590.5,154.2734 572.5,154.2734 572.5,154.2734 C572.5,154.2734 554.5,154.2734 554.5,144.2734 L554.5,118.2734 " fill="#FEFECE" filter="url(#fzty5im1uyi52)" style="stroke:#000000;stroke-width:1.5;"/><path d="M554.5,118.2734 C554.5,128.2734 572.5,128.2734 572.5,128.2734 C572.5,128.2734 590.5,128.2734 590.5,118.2734 " fill="none" style="stroke:#000000;stroke-width:1.5;"/><a href="https://github.com/dragondive/hebi" target="_top" title="https://github.com/dragondive/hebi" xlink:actuate="onRequest" xlink:href="https://github.com/dragondive/hebi" xlink:show="new" xlink:title="https://github.com/dragondive/hebi" xlink:type="simple"><text fill="#0000FF" font-family="sans-serif" font-size="14" lengthAdjust="spacing" text-decoration="underline" textLength="68" x="535.5" y="971.4707">Repository</text></a><path d="M554.5,984.5469 C554.5,974.5469 572.5,974.5469 572.5,974.5469 C572.5,974.5469 590.5,974.5469 590.5,984.5469 L590.5,1010.5469 C590.5,1020.5469 572.5,1020.5469 572.5,1020.5469 C572.5,1020.5469 554.5,1020.5469 554.5,1010.5469 L554.5,984.5469 " fill="#FEFECE" filter="url(#fzty5im1uyi52)" style="stroke:#000000;stroke-width:1.5;"/><path d="M554.5,984.5469 C554.5,994.5469 572.5,994.5469 572.5,994.5469 C572.5,994.5469 590.5,994.5469 590.5,984.5469 " fill="none" style="stroke:#000000;stroke-width:1.5;"/><rect fill="#EEEEEE" filter="url(#fzty5im1uyi52)" height="3" style="stroke:#EEEEEE;stroke-width:1.0;" width="739.5" x="0" y="203.0586"/><line style="stroke:#000000;stroke-width:1.0;" x1="0" x2="739.5" y1="203.0586" y2="203.0586"/><line style="stroke:#000000;stroke-width:1.0;" x1="0" x2="739.5" y1="206.0586" y2="206.0586"/><rect fill="#EEEEEE" filter="url(#fzty5im1uyi52)" height="24.3516" style="stroke:#000000;stroke-width:2.0;" width="95" x="322.25" y="191.8828"/><text fill="#000000" font-family="sans-serif" font-size="13" font-weight="bold" lengthAdjust="spacing" textLength="77" x="328.25" y="209.3779">Initial Setup</text><polygon fill="#A80036" points="560.5,244.5859,570.5,248.5859,560.5,252.5859,564.5,248.5859" style="stroke:#A80036;stroke-width:1.0;"/><line style="stroke:#A80036;stroke-width:1.0;" x1="163.5" x2="566.5" y1="248.5859" y2="248.5859"/><text fill="#000000" font-family="sans-serif" font-size="13" font-weight="bold" lengthAdjust="spacing" textLength="7" x="170.5" y="243.7295">1</text><text fill="#000000" font-family="sans-serif" font-size="13" lengthAdjust="spacing" textLength="92" x="181.5" y="243.7295">clone repository</text><rect fill="#EEEEEE" filter="url(#fzty5im1uyi52)" height="3" style="stroke:#EEEEEE;stroke-width:1.0;" width="739.5" x="0" y="277.7617"/><line style="stroke:#000000;stroke-width:1.0;" x1="0" x2="739.5" y1="277.7617" y2="277.7617"/><line style="stroke:#000000;stroke-width:1.0;" x1="0" x2="739.5" y1="280.7617" y2="280.7617"/><rect fill="#EEEEEE" filter="url(#fzty5im1uyi52)" height="24.3516" style="stroke:#000000;stroke-width:2.0;" width="102" x="318.75" y="266.5859"/><text fill="#000000" font-family="sans-serif" font-size="13" font-weight="bold" lengthAdjust="spacing" textLength="84" x="324.75" y="284.0811">Development</text><polygon fill="#A80036" points="452.5,319.2891,462.5,323.2891,452.5,327.2891,456.5,323.2891" style="stroke:#A80036;stroke-width:1.0;"/><line style="stroke:#A80036;stroke-width:1.0;" x1="163.5" x2="458.5" y1="323.2891" y2="323.2891"/><text fill="#000000" font-family="sans-serif" font-size="13" font-weight="bold" lengthAdjust="spacing" textLength="7" x="170.5" y="318.4326">2</text><text fill="#000000" font-family="sans-serif" font-size="13" lengthAdjust="spacing" textLength="112" x="181.5" y="318.4326">assign issue to self</text><line style="stroke:#A80036;stroke-width:1.0;" x1="163.5" x2="205.5" y1="353.6406" y2="353.6406"/><line style="stroke:#A80036;stroke-width:1.0;" x1="205.5" x2="205.5" y1="353.6406" y2="366.6406"/><line style="stroke:#A80036;stroke-width:1.0;" x1="164.5" x2="205.5" y1="366.6406" y2="366.6406"/><polygon fill="#A80036" points="174.5,362.6406,164.5,366.6406,174.5,370.6406,170.5,366.6406" style="stroke:#A80036;stroke-width:1.0;"/><text fill="#000000" font-family="sans-serif" font-size="13" font-weight="bold" lengthAdjust="spacing" textLength="7" x="170.5" y="348.7842">3</text><text fill="#000000" font-family="sans-serif" font-size="13" lengthAdjust="spacing" textLength="125" x="181.5" y="348.7842">work towards solution</text><text fill="#000000" font-family="sans-serif" font-size="11" lengthAdjust="spacing" textLength="77" x="329.5" y="400.0596">some days later</text><polygon fill="#A80036" points="377,439.8281,387,443.8281,377,447.8281,381,443.8281" style="stroke:#A80036;stroke-width:1.0;"/><line style="stroke:#A80036;stroke-width:1.0;" x1="163.5" x2="383" y1="443.8281" y2="443.8281"/><text fill="#000000" font-family="sans-serif" font-size="13" font-weight="bold" lengthAdjust="spacing" textLength="7" x="170.5" y="438.9717">4</text><text fill="#000000" font-family="sans-serif" font-size="13" lengthAdjust="spacing" textLength="91" x="181.5" y="438.9717">submit build job</text><path d="M5,421.4766 L5,447.4766 L155,447.4766 L155,431.4766 L145,421.4766 L5,421.4766 " fill="#FBFB77" filter="url(#fzty5im1uyi52)" style="stroke:#A80036;stroke-width:1.0;"/><path d="M145,421.4766 L145,431.4766 L155,431.4766 L145,421.4766 " fill="#FBFB77" style="stroke:#A80036;stroke-width:1.0;"/><text fill="#000000" font-family="sans-serif" font-size="13" lengthAdjust="spacing" textLength="129" x="11" y="439.9717">when solution is ready</text><polygon fill="#A80036" points="174.5,488.3555,164.5,492.3555,174.5,496.3555,170.5,492.3555" style="stroke:#A80036;stroke-width:1.0;"/><line style="stroke:#A80036;stroke-width:1.0;stroke-dasharray:2.0,2.0;" x1="168.5" x2="388" y1="492.3555" y2="492.3555"/><text fill="#000000" font-family="sans-serif" font-size="13" font-weight="bold" lengthAdjust="spacing" textLength="7" x="180.5" y="487.499">5</text><text fill="#000000" font-family="sans-serif" font-size="13" lengthAdjust="spacing" textLength="93" x="191.5" y="487.499">build successful</text><path d="M394,461.8281 L394,503.8281 L559,503.8281 L559,471.8281 L549,461.8281 L394,461.8281 " fill="#FBFB77" filter="url(#fzty5im1uyi52)" style="stroke:#A80036;stroke-width:1.0;"/><path d="M549,461.8281 L549,471.8281 L559,471.8281 L549,461.8281 " fill="#FBFB77" style="stroke:#A80036;stroke-width:1.0;"/><text fill="#000000" font-family="sans-serif" font-size="13" lengthAdjust="spacing" textLength="127" x="400" y="480.3232">dotted arrows indicate</text><text fill="#000000" font-family="sans-serif" font-size="13" lengthAdjust="spacing" textLength="144" x="400" y="496.6748">computer-triggered steps</text><rect fill="#EEEEEE" filter="url(#fzty5im1uyi52)" height="3" style="stroke:#EEEEEE;stroke-width:1.0;" width="739.5" x="0" y="534.707"/><line style="stroke:#000000;stroke-width:1.0;" x1="0" x2="739.5" y1="534.707" y2="534.707"/><line style="stroke:#000000;stroke-width:1.0;" x1="0" x2="739.5" y1="537.707" y2="537.707"/><rect fill="#EEEEEE" filter="url(#fzty5im1uyi52)" height="24.3516" style="stroke:#000000;stroke-width:2.0;" width="65" x="337.25" y="523.5313"/><text fill="#000000" font-family="sans-serif" font-size="13" font-weight="bold" lengthAdjust="spacing" textLength="47" x="343.25" y="541.0264">Review</text><polygon fill="#A80036" points="301.5,576.2344,311.5,580.2344,301.5,584.2344,305.5,580.2344" style="stroke:#A80036;stroke-width:1.0;"/><line style="stroke:#A80036;stroke-width:1.0;" x1="163.5" x2="307.5" y1="580.2344" y2="580.2344"/><text fill="#000000" font-family="sans-serif" font-size="13" font-weight="bold" lengthAdjust="spacing" textLength="7" x="170.5" y="575.3779">6</text><a href="https://github.com/dragondive/hebi/compare" target="_top" title="https://github.com/dragondive/hebi/compare" xlink:actuate="onRequest" xlink:href="https://github.com/dragondive/hebi/compare" xlink:show="new" xlink:title="https://github.com/dragondive/hebi/compare" xlink:type="simple"><text fill="#0000FF" font-family="sans-serif" font-size="13" lengthAdjust="spacing" text-decoration="underline" textLength="110" x="181.5" y="575.3779">submit pull request</text></a><path d="M108,595.2344 L169,595.2344 L169,603.2344 L159,613.2344 L108,613.2344 L108,595.2344 " fill="#EEEEEE" style="stroke:#000000;stroke-width:1.0;"/><rect fill="none" height="157.5938" style="stroke:#000000;stroke-width:2.0;" width="261" x="108" y="595.2344"/><text fill="#000000" font-family="sans-serif" font-size="13" font-weight="bold" lengthAdjust="spacing" textLength="16" x="123" y="609.7295">alt</text><text fill="#000000" font-family="sans-serif" font-size="11" font-weight="bold" lengthAdjust="spacing" textLength="60" x="184" y="608.6533">[approved]</text><polygon fill="#A80036" points="174.5,631.9375,164.5,635.9375,174.5,639.9375,170.5,635.9375" style="stroke:#A80036;stroke-width:1.0;"/><line style="stroke:#A80036;stroke-width:1.0;" x1="168.5" x2="312.5" y1="635.9375" y2="635.9375"/><text fill="#000000" font-family="sans-serif" font-size="13" font-weight="bold" lengthAdjust="spacing" textLength="7" x="180.5" y="631.0811">7</text><text fill="#000000" font-family="sans-serif" font-size="13" lengthAdjust="spacing" textLength="97" x="191.5" y="631.0811">approve changes</text><line style="stroke:#000000;stroke-width:1.0;stroke-dasharray:2.0,2.0;" x1="108" x2="369" y1="644.9375" y2="644.9375"/><text fill="#000000" font-family="sans-serif" font-size="11" font-weight="bold" lengthAdjust="spacing" textLength="54" x="113" y="656.3564">[rejected]</text><path d="M118,666.7734 L191,666.7734 L191,674.7734 L181,684.7734 L118,684.7734 L118,666.7734 " fill="#EEEEEE" style="stroke:#000000;stroke-width:1.0;"/><rect fill="none" height="79.0547" style="stroke:#000000;stroke-width:2.0;" width="241" x="118" y="666.7734"/><text fill="#000000" font-family="sans-serif" font-size="13" font-weight="bold" lengthAdjust="spacing" textLength="28" x="133" y="681.2686">loop</text><polygon fill="#A80036" points="174.5,703.4766,164.5,707.4766,174.5,711.4766,170.5,707.4766" style="stroke:#A80036;stroke-width:1.0;"/><line style="stroke:#A80036;stroke-width:1.0;" x1="168.5" x2="312.5" y1="707.4766" y2="707.4766"/><text fill="#000000" font-family="sans-serif" font-size="13" font-weight="bold" lengthAdjust="spacing" textLength="7" x="180.5" y="702.6201">8</text><text fill="#000000" font-family="sans-serif" font-size="13" lengthAdjust="spacing" textLength="100" x="191.5" y="702.6201">review comments</text><polygon fill="#A80036" points="301.5,733.8281,311.5,737.8281,301.5,741.8281,305.5,737.8281" style="stroke:#A80036;stroke-width:1.0;"/><line style="stroke:#A80036;stroke-width:1.0;" x1="163.5" x2="307.5" y1="737.8281" y2="737.8281"/><text fill="#000000" font-family="sans-serif" font-size="13" font-weight="bold" lengthAdjust="spacing" textLength="7" x="170.5" y="732.9717">9</text><text fill="#000000" font-family="sans-serif" font-size="13" lengthAdjust="spacing" textLength="92" x="181.5" y="732.9717">submit changes</text><rect fill="#EEEEEE" filter="url(#fzty5im1uyi52)" height="3" style="stroke:#EEEEEE;stroke-width:1.0;" width="739.5" x="0" y="781.0039"/><line style="stroke:#000000;stroke-width:1.0;" x1="0" x2="739.5" y1="781.0039" y2="781.0039"/><line style="stroke:#000000;stroke-width:1.0;" x1="0" x2="739.5" y1="784.0039" y2="784.0039"/><rect fill="#EEEEEE" filter="url(#fzty5im1uyi52)" height="24.3516" style="stroke:#000000;stroke-width:2.0;" width="69" x="335.25" y="769.8281"/><text fill="#000000" font-family="sans-serif" font-size="13" font-weight="bold" lengthAdjust="spacing" textLength="51" x="341.25" y="787.3232">Release</text><polygon fill="#A80036" points="377,822.5313,387,826.5313,377,830.5313,381,826.5313" style="stroke:#A80036;stroke-width:1.0;"/><line style="stroke:#A80036;stroke-width:1.0;" x1="163.5" x2="383" y1="826.5313" y2="826.5313"/><text fill="#000000" font-family="sans-serif" font-size="13" font-weight="bold" lengthAdjust="spacing" textLength="14" x="170.5" y="821.6748">10</text><text fill="#000000" font-family="sans-serif" font-size="13" lengthAdjust="spacing" textLength="164" x="188.5" y="821.6748">submit for pre-release check</text><polygon fill="#A80036" points="560.5,866.0586,570.5,870.0586,560.5,874.0586,564.5,870.0586" style="stroke:#A80036;stroke-width:1.0;"/><line style="stroke:#A80036;stroke-width:1.0;stroke-dasharray:2.0,2.0;" x1="389" x2="566.5" y1="870.0586" y2="870.0586"/><text fill="#000000" font-family="sans-serif" font-size="13" font-weight="bold" lengthAdjust="spacing" textLength="14" x="396" y="865.2021">11</text><text fill="#000000" font-family="sans-serif" font-size="13" lengthAdjust="spacing" textLength="89" x="414" y="865.2021">merge changes</text><path d="M214,839.5313 L214,881.5313 L380,881.5313 L380,849.5313 L370,839.5313 L214,839.5313 " fill="#FBFB77" filter="url(#fzty5im1uyi52)" style="stroke:#A80036;stroke-width:1.0;"/><path d="M370,839.5313 L370,849.5313 L380,849.5313 L370,839.5313 " fill="#FBFB77" style="stroke:#A80036;stroke-width:1.0;"/><text fill="#000000" font-family="sans-serif" font-size="13" lengthAdjust="spacing" textLength="118" x="220" y="858.0264">build failure scenario</text><text fill="#000000" font-family="sans-serif" font-size="13" lengthAdjust="spacing" textLength="145" x="220" y="874.3779">omitted to reduce clutter.</text><polygon fill="#A80036" points="475.5,922.7617,465.5,926.7617,475.5,930.7617,471.5,926.7617" style="stroke:#A80036;stroke-width:1.0;"/><line style="stroke:#A80036;stroke-width:1.0;stroke-dasharray:2.0,2.0;" x1="469.5" x2="571.5" y1="926.7617" y2="926.7617"/><text fill="#000000" font-family="sans-serif" font-size="13" font-weight="bold" lengthAdjust="spacing" textLength="14" x="481.5" y="921.9053">12</text><text fill="#000000" font-family="sans-serif" font-size="13" lengthAdjust="spacing" textLength="66" x="499.5" y="921.9053">close issue</text><path d="M577,896.2344 L577,938.2344 L725,938.2344 L725,906.2344 L715,896.2344 L577,896.2344 " fill="#FBFB77" filter="url(#fzty5im1uyi52)" style="stroke:#A80036;stroke-width:1.0;"/><path d="M715,896.2344 L715,906.2344 L725,906.2344 L715,896.2344 " fill="#FBFB77" style="stroke:#A80036;stroke-width:1.0;"/><text fill="#000000" font-family="sans-serif" font-size="13" lengthAdjust="spacing" textLength="127" x="583" y="914.7295">for simplicity, assume</text><text fill="#000000" font-family="sans-serif" font-size="13" lengthAdjust="spacing" textLength="110" x="583" y="931.0811">no merge conflicts.</text><!--MD5=[da4c303b6547549da4c1d4016bb9f1aa]
@startuml
title **Sequence Diagram Demo**\n\n

actor Developer as Dev
actor Reviewers

box Development Infrastructure
    participant "Build\nServer" as Build
    collections "[[https://github.com/dragondive/hebi/issues Tracker]]" as Tracker
    database "[[https://github.com/dragondive/hebi Repository]]" as Repository
end box

autonumber
== Initial Setup ==
Dev -> Repository : clone repository

== Development ==
Dev -> Tracker : assign issue to self
Dev -> Dev : work towards solution

... some days later ...

Dev -> Build : submit build job
note left: when solution is ready

Build - -> Dev : build successful
note right: dotted arrows indicate\ncomputer-triggered steps

== Review ==
Dev ->  Reviewers : [[https://github.com/dragondive/hebi/compare submit pull request]]
alt approved
    Reviewers -> Dev : approve changes
else rejected
    loop
        Dev <- Reviewers : review comments
        Dev -> Reviewers : submit changes
    end loop
end alt

== Release ==
Dev -> Build : submit for pre-release check
Build - -> Repository : merge changes
note left: build failure scenario\nomitted to reduce clutter.

Repository - -> Tracker : close issue
note right: for simplicity, assume\nno merge conflicts.
@enduml

PlantUML version 1.2021.9(Sun Jul 25 15:43:56 IST 2021)
(GPL source distribution)
Java Runtime: Java(TM) SE Runtime Environment
JVM: Java HotSpot(TM) 64-Bit Server VM
Default Encoding: Cp1252
Language: en
Country: IN
--></g></svg>